/* XPM */
static char *_a3de57738b54119a1216d692becbce2b0W6gcP33iLtaPkw[] = {
/* columns rows colors chars-per-pixel */
"72 72 219 2 ",
"   c #1F3119",
".  c #1E3117",
"X  c #1D2F17",
"o  c #21331B",
"O  c #263A1D",
"+  c #2A3C1D",
"@  c #213317",
"#  c #2B3D21",
"$  c #2E411F",
"%  c #30421F",
"&  c #2E4221",
"*  c #324524",
"=  c #3A4B27",
"-  c #3B4A2A",
";  c #3D542B",
":  c #3A5C2D",
">  c #37592A",
",  c #3C5E34",
"<  c #3D632D",
"1  c #3F6628",
"2  c #3E6433",
"3  c #3E6339",
"4  c #41542E",
"5  c #455B2D",
"6  c #5C5327",
"7  c #495C36",
"8  c #504B26",
"9  c #645B29",
"0  c #41652E",
"q  c #42692D",
"w  c #416634",
"e  c #436A34",
"r  c #4A6C35",
"t  c #416639",
"y  c #4E6039",
"u  c #456B3A",
"i  c #496D3A",
"p  c #4B6434",
"a  c #506237",
"s  c #52633A",
"d  c #52693A",
"f  c #4B7335",
"g  c #4F7835",
"h  c #4D743A",
"j  c #4E793A",
"k  c #467039",
"l  c #517636",
"z  c #527B36",
"x  c #52763C",
"c  c #537B3C",
"v  c #5A7D3D",
"b  c #797739",
"n  c #6A6835",
"m  c #486D41",
"M  c #4D7243",
"N  c #4D714B",
"B  c #527541",
"V  c #557C41",
"C  c #5A7E43",
"Z  c #587E48",
"A  c #637945",
"S  c #6B7754",
"D  c #807E3C",
"F  c #9F6E39",
"G  c #A6763E",
"H  c #AE7634",
"J  c #CE7722",
"K  c #CD7927",
"L  c #9C7040",
"P  c #A97A40",
"I  c #56813D",
"U  c #5B833E",
"Y  c #5E893D",
"T  c #5A8337",
"R  c #628B3E",
"E  c #62843D",
"W  c #79833D",
"Q  c #568141",
"!  c #5C8442",
"~  c #5E8942",
"^  c #5D8349",
"/  c #5E8948",
"(  c #618545",
")  c #628B44",
"_  c #688E45",
"`  c #63854A",
"'  c #648B4A",
"]  c #6A8D4B",
"[  c #6B874C",
"{  c #728A4C",
"}  c #659144",
"|  c #6A9246",
" . c #669249",
".. c #6B934B",
"X. c #6C984B",
"o. c #72944E",
"O. c #739A4E",
"+. c #77984D",
"@. c #6C8D52",
"#. c #668851",
"$. c #6D9352",
"%. c #6E9358",
"&. c #749553",
"*. c #799754",
"=. c #759A53",
"-. c #7A9A55",
";. c #759559",
":. c #7A9659",
">. c #769B5A",
",. c #7C9B5A",
"<. c #718F59",
"1. c #7CA255",
"2. c #7DA25A",
"3. c #76A052",
"4. c #7D9B61",
"5. c #7F9460",
"6. c #7FA760",
"7. c #82863F",
"8. c #BB833F",
"9. c #B48B34",
"0. c #D98625",
"q. c #DF8D29",
"w. c #DC8A28",
"e. c #DB8434",
"r. c #D9873C",
"t. c #CB9739",
"y. c #D3A33A",
"u. c #CAA53B",
"i. c #F5AD2F",
"p. c #F8A82F",
"a. c #EEA132",
"s. c #ECA13C",
"d. c #F6AB32",
"f. c #F8A731",
"g. c #F5B432",
"h. c #F2B83D",
"j. c #F3B32F",
"k. c #F8CA37",
"l. c #F9CA38",
"z. c #F6CB3D",
"x. c #97974D",
"c. c #819D5C",
"v. c #819F55",
"b. c #8E8445",
"n. c #81A257",
"m. c #82A45B",
"M. c #85AB5C",
"N. c #89AB5E",
"B. c #8AA953",
"V. c #8CB25C",
"C. c #9AA854",
"Z. c #839E62",
"A. c #84A462",
"S. c #86AB62",
"D. c #8AAC64",
"F. c #8DAF6A",
"G. c #89A666",
"H. c #91AF69",
"J. c #8CB264",
"K. c #8DB36A",
"L. c #8FB86A",
"P. c #93B465",
"I. c #92B56B",
"U. c #95BB6C",
"Y. c #99BD6D",
"T. c #95BA65",
"R. c #9BBD71",
"E. c #95B671",
"W. c #8EB171",
"Q. c #AFB362",
"!. c #D9A746",
"~. c #E0BF47",
"^. c #9CC26C",
"/. c #9DC273",
"(. c #A2C66E",
"). c #A5CA6E",
"_. c #A9CA6F",
"`. c #A3C673",
"'. c #A5C974",
"]. c #A9CC75",
"[. c #A4C57A",
"{. c #A6CB7A",
"}. c #AACD7A",
"|. c #A8C777",
" X c #ACD17C",
".X c #ADD376",
"XX c #B1D47D",
"oX c #B3D879",
"OX c #D4CA51",
"+X c #D9CA53",
"@X c #E1C44A",
"#X c #F5D645",
"$X c #F6D048",
"%X c #FAE649",
"&X c #FAE649",
"*X c #F7EA58",
"=X c #F8E956",
"-X c #FBFF7D",
";X c #ECE96F",
":X c #AACE81",
">X c #A5C981",
",X c #ADD181",
"<X c #B3D483",
"1X c #B5D884",
"2X c #B0CF81",
"3X c #DEE785",
"4X c #FAFF82",
"5X c #F8FE8D",
"6X c #F7FE8F",
"7X c #EDF38F",
"8X c #DFE3A9",
"9X c #FDFCBB",
"0X c #E3E8BD",
"qX c #DFE4C1",
"wX c #E1E6C2",
"eX c #FEFFCC",
"rX c #FDFBC3",
"tX c #FDFED4",
"yX c #FEFFD8",
/* pixels */
"~ I c `  X1X}.oXT.) | } ..f r u e f Q I I U I Q Q ! Q 1.n.m.,.R.XX.XoX.X_ C ! Q / | } } | B e r t B -.,.,.G.@.i h e q ) '  .} U e M B M ........",
"I j j C Y.`.[.'.J.U ) Y ) r w w w r C x c c j c x f c >.-.-.&.D._.'.`.`.! j z g I ) ~ R ) k 2 e 2 u &.,.,.m.#.m i m e ~ ) ~ Y c 2 i i i ' ..$.' ",
"I x x ! '.].{. XP.~ ) ) ' r 2 2 2 e V x l v W b.7.W 7.x.x.x.x.C._.].}.}.) l c x c ) ) ) ) h w e 2 i *.,.,.c.` M B N h / Y Y ) V 2 w e u ] $...$.",
"~ C c v J.U.I.Y.m.) ) ) ' j r r r f ! ! E 9.s.d.d.d.d.d.d.d.d.d.!.Y.U.I.) c c C Q / / ~ ) h w e 2 h A.G.G.D.@.M B M B %.&...] ( x B V C #.#.] ] ",
" .) ) / r w w w C ,.-.-.,.' ) ) ) _ ,.>.x.d.d.f.p.p.p.f.p.p.d.f.t.e q r ! ) ) ~ Y x x z c u 2 e < x [.}.:X<XA.Z ^ ` ( ,.A.,.,.F.[.`.`.{.` e h M ",
" .Y Y / t u w 2 C ,.*.-.-.) ) R R _ -.-.x.h.g.g.g.g.g.g.g.g.g.g.u.u w < / ) ~ R Y c x z v i w w 2 f [.{.{.XXA.h C ( ! ,.A.Z.c.H.XX`.(.'.c w h M ",
" .) ) ~ u w q w c ,.*.-.-._ ) ) ) _ -.-.C.=X&X&X&X&X&X&X&X&X%X&XOXe r w ~ R ) ) / x C c c i w w 2 j [.`.[.XXS.B C c C ;.c.A.Z.H.].:X{.}.^ t w u ",
" .( ) ) w w r , Z c.-.,.>.) ! Q ! ) ,.-.C.=X%X%X%X%X%X%X%X%X%X%XOXw w t ) R ) ) ~ j C c c u 2 2 2 j {.}.,X1XD.Z C j B @.*.,.:.W.1X2X}.1X#.t e 2 ",
"/ ! Y Q k j h i U ........n.N.M.N.m.) ..B.*X*X*X*X*X*X*X*X*X*X*X+Xk h k C ~ U I ! Y U ! Q ! ( A A ( ;.$.$.>...' #.v U A.H.E.R.F.A.m.m.A.<.[ @.#.",
"Q l z c C c C V v ) Y Y R Y.,X}. XY.) x 5.rX9X9X9X9X9X9X9X9X9X9X8Xc x x c j c j Q  .~ ) ' &.-.,.,...1 > , t C $.| ..) R.<X:X<XE.x ^ Z C 4.G.m.A.",
"I c c c x x x C Q ) ' ' Y U.{.`.}.S.p * S yXtXtXtXtXtXtXtXtXtXtXwXc c c c x C x C ) ~ ) ) o.-.*.-.@.e e w u ^ ..$.] _ R.].]. XD.C x Q Q ,.,.,.c.",
"I B c C x x x j Q ) ) ) T U. X'.].&.$ $ S yXtXtXtXtXtXtXtXtXtXtXqXB V j x x c c I ~ ) ) Y &.,.-.,.$.w w w , C ....$.&.[.}.].<XD.h h f z ;.m.,.,.",
"! c x c U U U U Q ~ ~ ~ ) J.{.`./.;.# & S yXtXtXtXtXtXtXtXtXtXtXwXV C C x B x j I | R R  .o.;.;.;.] r e e w V ....' ] [.:X[.[.S.z Z v v ] *.o.-.",
"} ~ /  .R././.`.m.2 u u e x ! v Q w   o S yXtXtXtXtXtXtXtXtXtXtXwX-.&.&.f e u w ^ {./.'.[.' 0 r i h / ~ Y ) U c / / ( ,.Z.c.-.m./.R.`./._ z c ^ ",
" .R ) _ `.}.'. Xm.< e w e j c c c w   o S eXeXeXeXeXeXeXeXeXeXeX0X,.-.,.r w u < ^  X`.'.,X' < w < e ) ) ~ R Q Z / C / ,.,.;.&.G.'.[.`.}.) f x x ",
" .~ '  ./.{.`.].A.< u w w x x c c :     A 6X5X5X5X5X5X5X5X5X6X5X3X,.-.*.r e t < / '.].(.}.) < w w r Y Y / ) Q M ! ^ / ,.c.:.o.N.`.`.(.`...x x C ",
" .~ ) ..'. X XXXA.: w w 0 h x c c ,   o n 4X4X-X-X-X-X-X-X-X-X-X3X,.-.,.h 2 w < ^  X].].<X' < t 2 r ) ) ) ) Q x z ! ` ,.A.Z.*.D.].{.{.:X] f j x ",
"~ I U ~ 2.2.2.M...k j j j c x c x w + + A 4X-X-X-X-X-X-X-X-X-X-X3Xo.&.$.j r k r ! Y.P.P.U.' j B h h Q c z v v ` ` @.@.@.@.@.( ;.J.M.N.J...! ( ' ",
"I B V x 2 < < > h ' ' ' ' U c c x r - - { 4X-X4X4X4X4X4X4X4X-X-X3XT ) ) c V C c ~ ;.:.;.,...) ) } ~ q 2 w < ! m.&.,.4.V i i 2 r Y Y T E o.,.,.,.",
"Q c c g u w w u f ) ) ) ) v c c x r - - S 5X4X-X-X-X-X-X-X-X-X4X3X) ) ~ c c c c U -.,.,.*...) ~ ) ! e t t w C -.:.&.Z.V M M u h ) / ) E &.*.*.,.",
"Q x c c u w w u f _ ) ) ) c c c x i - - S 4X-X-X-X-X-X-X-X-X-X-X;X) ~ / c x x c ~ +.&.-.-...) ) ) ! e w w 2 C ,.,.*.4.x i m t k ) ~ ) R *.,.,.c.",
"! B B x w w e < x ) ) ) / I c c j r - - b $X#X#X#X#X#X#X#X#X#X#XOX) ) ' c x V z ! ,.;.,.,...~ ) ) ~ q e e 2 ! ,.o.-.;.x e e 2 f _ ) T R &.-.-.-.",
") ~ ~ ) K.U.I.R.2.x C c I / ~ / ~ v 7 7 b z.k.k.k.k.k.k.k.k.k.l.@XY.Y.Y.=.$.&.&.&. .) _ _ x r u r h Q ~ Y Y U ! C v ! / ~ U C =.^.Y.Y.Y.=.) ) ..",
" .~ ~ _ '.].].oXS.j c c c / ) ) ~ v s a D z.k.k.k.k.k.k.k.k.k.l.@X'.].{.n.,.-.,.o./ ) R ) h 2 2 w r ) _ ) ) U x z x j ) R R ( 2.].'.'. XO.Y ) ) ",
"| ~ ) } /.].`.{.M.c x c c ! ) ' ~ v s y b z.k.l.l.k.k.k.k.k.k.l.@X(.`.|.v.-.*.,.&.( ) ~ ' f w u w r ) ) ) R ~ V c c c / / ' ! 1.].`.(.{.O.~ ) ) ",
".. .) } `.].].<XN.f x z z Y } _ R v s s D z.k.l.l.k.k.l.l.l.k.l.@X]. X}.m.-.,.,.+._ Y Y  .f < 2 2 e ~ ! ! ~ Q h x B f ) ) ) ) 1.,X].].}.O.) _ ) ",
"/ V c U D.J.S.K.=.c ! Q I U I c c x 4 4 b $Xl.l.l.k.k.l.l.l.l.l.~.D.D.D.$.] ] ] ] ~ ~ ~ ! C x x V v 1.-.=.1...! ` ( ( Y U ~ ! ..L.J.K.K.' c c ! ",
"e t w e j f z z c ) ~ ' ' f 2 w w > + O 9 g.j.g.g.g.g.g.g.g.g.g.y.c f c e 2 w < e c c c l ..,.-.-.m.].].].}.P.&.,.,.,.v x C j I Y Y Y ) e 2 < w ",
"r 2 w r x c c g ~ ) Y ) ' f 2 t w > O + 9 d.d.d.d.d.d.i.d.i.d.d.y.c c c e w u w r c c x z ] -.,.*.2.'.'.'.}.P.&.-.*.*.C c x c ! ) ) Y ) f w w u ",
"r u w w B C c c Q ) ) ) ) k e w w > O + 9 d.d.d.d.d.d.d.i.i.d.d.y.x C C r w u w i x c c c ] -.-.*.n.`.'.`.].P.&.,.-.,.C V C j I ) ) ) ' f 2 w i ",
"q < w w x x x c Q ~ Y ) ) r w w w ; + O 9 d.d.d.d.d.d.d.i.i.d.i.y.c c V e u w 2 u c c x l ] ,.,.*.m.'.}.}.}.P.*.*.-.>.v f c z U ) / ) ' h w 0 e ",
"$.] ] ' ( Y Y I =.Y.V.T.L./ k M h p * * n d.d.d.d.d.d.d.d.d.d.d.y.......l j x j x Y U / / c l x B c =.=.=.=...! ` ( ( S.I.J.K.>.C U T U ( ] ' @.",
"m.,.-.-.' ) ) ~ 2. X}.]. X..c x v p - - n d.d.d.d.d.d.d.d.d.d.d.!.-.-.-.c x U C c ) } ) ) j < 2 2 w / Y Y ~ Q x z c z /.XX{.<XJ.j j c x &.,.,.m.",
"m.*.-.-.) ~ ) U 1.].(.(.{.) j x c r = = 9 q.q.q.q.q.q.q.q.q.q.q.t.:.,.-.! C z c I ) ~ ~ ' j e e e i ) ) ) ) Q V x B Q Y.].'.].N.j c c x ..,.&.,.",
"m.*.-.>.' )  .~ 2. X'.].:X .j x c r - - 9 K J J J J J J J J J J H c.,.-.z l f h c ) Y ) ' f < w 2 r ) R R R U l c h c Y.].'. XD.V c c V $.-.-.m.",
"-.&.&.&.! Q ! c >.`.Y.Y./. .x c c r * * 6 K J J J J J J J J J J H o.@.$._ ) ) ' ' ~ ~ ~ / c r k u f / ~ ~ ~ ) ' ) ] _ I.Y.Y./.2.k x c h ' o.o.&.",
"..) ) ( e e e < C -.-.+.,.) ~ ) ) w @   8 0.0.0.0.0.0.0.0.0.0.0.9.w w e I. X{.}.J.j x x c ~ ) ) ) / c x c c 2.:X{.{.`.| Y Y _ U w w e 2 l v z v ",
" .~ R ` e w t 2 C ,.,.*.-._ ) ) ) e   o 6 d.d.d.d.d.d.d.d.i.d.d.y.e w w Y.'.`.}.T.x V c c ~ ) ) ) ~ x x x h 2. X_.'.]. .' ) ) C w t w t h c x c ",
"..~ ) ' w w t w C ,.-.,.*._ Y ) ) p   o 6 d.i.i.i.i.i.i.i.i.i.i.y.e e u U._.[.{.J.f x c c ! ) ) ) ~ c V c l 2.].(.'.(.| ' Y } C w u w t h c x c ",
"..) ) ' 2 < < : l c.-.,.,...) } ) r X o 6 s.a.a.a.a.a.a.a.a.a.a.t.2 t t Y..X{. XP.x x C x ~ ) ) ) ) j c c f 2.1X}. X X ./ Y R x : 2 < 2 f c c c ",
"V f x x -.1.,.,.>.( ) ( ' c l x j 5 O O 6 r.e.e.e.e.e.e.e.e.e.e.8.z v v m.P.N.H.,.e h i r ( o.| o.] U ! I ~ ' %.$.%.] o.o.$...&.n.-.-.m.] ] _ ..",
"e 3 t u >X X}.1XB.h B x B w 2 2 2 > + + 6 r.e.e.e.e.e.e.e.e.e.e.8. .' ( *.&.+.-.] 0 w 2 0 ] ,.-.,.*.) ) ' ' f : < : q @.,.,.=.D.,X X:X}.G.,.,.,.",
"k w e r /.'.[.{.D.f c c Q e e e w : O + 8 L G P G G P F F G G P b.~ ) ) &.*.,.,.] 2 e u w ` ,.,.,.&.R ) U ) c u u t e ;.,.-.*.N.}.'.'.].n.&.-.,.",
"e w < e /.].{.}.N.j x c x e w t 2 ; # O O @ ; s a s 7 + O * c U ) ) ) ) =.-.-.,.] t w t < ' ,.-.-.>.R ) ) ) x 2 2 t w ;.*.-.*.N.{.'.'.].m.*.,.,.",
"h i r k /.`.`.].M.c Q ! ( i i i i : # + # + ; y 7 y 7 $ + $ v ! / ) ~ ) &.*.;.;.] u w r e ' >.=.=.$.) ) ) ) c w r w e $.-.-.o.G.[.`.`.`.m.;.=.=.",
" .~ ~ ( -.-.,.-.D.'.'.`.`.m.&.*.&.` y 7 7 y = $ * % * * - 4 -.' c C c x r e i i h ( / ) ~ Q c c c ! >.-.&.=.' j x B c ( ) ) ( o.-.,.-.1._ ' ) } ",
" .) ) ' +.-.:.*.D.].'.].{.m.*.,.-.[ a a y s = $ * & * - - 4 ,.' x x x V r t t 2 k ) ) ) ) U x C x c -.,.,.2.' c C x c ) ) ) ) ..&.*.*.-._ ' ~ _ ",
"} ~ R ' o.,.,.&.N.}.`.[.}.m.&.,.;.[ s a 7 s - & & $ & - - 4 ,.) c c c c e e w e h ) ) ~ ' c c C j U -.*.*.-.' V c V c ~ ~ ~ ~ _ ,.,.-.-.) ' Y } ",
"| ' ) ) o.*.:.{ D. X'.]. XN.-.,.-.] s s s s - + * & * - - 7 ,.( j j f g w t w 2 k Y T T ~ v c x c C -.,.4.,.) f f l j )  .) _ $.,.,.-.-._ ) }  .",
"! c c U D.N.G.P.D.D.N.M.J.] ( ` ( C d d s d 5 ; 4 5 ; ; = ; ! _ =.,.-.=.B i f e Q 6.m.m.A.' c Q Q ! _ _ ] ) ..-.>.-.=.U g z z ~ o.&...o.Q x c c ",
"e 2 2 u [.].}.XXV.U ) U / e < 2 < e ~ U U Y ..-.,.+.,.w 2 m > >.XX].}.}.' h C x $. X}.]. X1.R ) ) ~ g l x h 2. X}.}.,XB 3 u < f R ~ ) ) k 2 < e ",
"u e w u /.).[.{.J.U  .~ ] k w u t h ' ) ) ) o.-.:.*.;.e 1 u 2 ;. X_.(.'.~ x c f ] '.`.(.}.-.U ) ) / Q I x j 1.].`.[.^.x t e w j ) ) ) ) h 2 2 u ",
"u 0 w i /._.{.{.I.U ) ~ ' f 2 t w f ) Y ~ ~ o.-.c.,.;.r 1 e : ;. X'.'.`./ x c f $.}.'.`. X1.Y ) ) / j c c h 2. X`.}.).x 2 e 2 k ) ~ Y ) k 2 w u ",
"f w w h R.].'.'.V.R ) ) ) f q e w f ~ ) ) ' &.+.*.-.;.u w u 2 >.].`.{.`.' x z c ' {.'.'.{.3.~ ) ) / I z c l 2.}.'.`.`.V t i w x R ) ) ) f e e e ",
") / Y ~ m.n.,.S.o.z c c Q U ~ / / I Q I v c ~ _ _ _ ..I.Y.U.R.M._ ..| | ] ;.&.;.&.......$.c e r u B R.^.Y./.m. ...| | J.Y.U.R.D.o.&.=.>.! j c B ",
"| ) R ) &.*.:.-.] x x C c ~ ) ) ) / x c x V U R ~ ~ } {.].].XXM.~ ~ R R &.c.-.,.+.~ ~ ~ ~ f e w 2 x }.].[.XXM.U Y / ) '.].'. XE.-.:.,.-.( c c c ",
" .) ) _ &.,.,.:.] j Q c c ~ ) ) ) ~ C x c c ! ' ) R } `.`.(.{.S.Y ) ) ) ;.*.-.,.o.) ) ~ ' f w w 2 B [.'.{.].n./ ) ) ) /.'.(.'.I.&.:.-.-.! x c c ",
" ./ ) ) -.-.-.m.| x x B C Q / ~ U U c c c z Q ' ) )  .`.}.]. XN.~ R R _ =.-.,.,.&.R R )  .f 2 t 2 j ].].{.XXN.U ) ) ) R.}.}. XU.-.c.+.,.! x c c ",
" .~ ) ) ] ` @.@.( c U v v ..3.O.3.O.U ! ~ ) / / ) ! ) U.Y.P.Y.1.c / c v ..&.o.&.$.Q Q U c c j f f C U.Y.U.Y.1.I ~ U ) I.R.U.Y.D...&.+.=.( ! ! ` ",
" .Y ) ( e w w 2 h ) ) ) R Y. X'. X/.-.,.>.-.` l c V c *.*.o.,.C < u w w / ) ) ) U < e 0 1 Q ) )  .] -.+.*.&.' x v v z &.&.o.-...Y ) ) ) &.Z.-.m.",
" .~ ~ / r r w e j ) ) ) R Y.}.[.{.Y.*.,.-.,.` x c x c ;.,.*.4.^ t 2 r q / ~ ) ) U w w r q c ' ) ~ _ *.,.,.,.] h c x l *.,.,.,.o.) ~ ~ ) &.,.-.,.",
" .) ) / e w w 2 h ) ) ) T Y.].`.{.R.-.-.&.-.` x C c U &.*.*.,.! < u u < ' ) ) ) I w t w < c ) ) Y _ ,.,.*.,._ j v C c ;.*.,.-.o.Y ~ ) ) &.,.-.c.",
"} Y ) / e < 2 < h _ R T R Y. X`.}.R.-.,.-.,.` x C c C ;.>.,.,.U 1 2 < w C ) ) ) U 2 e w < c ) ) ) } *.-.-.,.] x c B c &.>.,.,...R _ Y R &.4.-.,.",
"Y v v U S.K.D.J.m.&.&.>.&.O.O.O.=.=.) ] _ ) c r e i r ^ ! ! U >.W.J.K.K.>...&.*.] U U Q Q I I U C I ] ] _ ] V e i r e ) .._ ) 1.U.P.U.R.( f l x ",
"Q x M C '.}.}..XT.&.,.,.-.) ~ ~ ) ~ / ) Y ) h 2 w 2 w l c x k m.XX}.}.}.m.,.-.-.*.) _ ) ) Q l x x v Y ) / ) c 2 w w t ~ ) ~ Y 1..X'.}. XC < 3 w ",
"Q c x v ^.(.{.`.P.&.-.-.-.) R ) ) Y ) ) Y ) h t t w w V c c f -.].`.`.'.m.*.-.-.&.) ) ~ ) U c c c C ) ) ) _ c w u q i U )  .U 2.].'.`.}.! 2 u w ",
"c Z x c `.].{. XY.*.-.-.-.) _ ) _ ) ) ) _ ) j 2 w w w x x Q x 2. X'.].].m.-.,.-.&.) ~ ) ) I j x x c ) ) ) ) c 2 w w w U R ) Y 2.}.].'.}.! < t w ",
"! B x C I.I.I.U.S.&.&.&.>.) ~ ~ ! ~ ~ ~ ~ ~ l h h f x B j h f >.`.R.^.Y.-.&.&.&.] U U / ! ! ! ! ! U ) ~ Y ) Q x V B V / ~ U U >.[.R.R.`.! q u r ",
" .) ) U e w e 0 x ) ) ) ) f e w e e x c c C ] >.;.,.%.r e r e c ) Y R ) c x c c x w w w e ` -.=.-.;.c x C j 2.,X{.]./.l 2 u 2 C -.-.-.-.C x B C ",
"} Y ) ) w 3 w 2 x ) ) ) ' k 2 t w u V C x l _ ,.,.-.;.e w w 2 B ) ) ) ) c B x x j w u t < ] ,.-.-.=.c x x f 1. X(.'.].x 2 w t C -.*.*.-.^ c x c ",
"} ! Y U u w 1 w f ) Y Y ) e 2 2 w e x c C l ) -.*.-.;.e 2 w 2 x ) / ~ Y c j c c j 1 w w < ` ,.&.*...l c c f 2. X(.[.(.x 2 1 w x -.&.-.-.C g j c ",
"X.)  .} u r f w C | } } | j r r e j Q I ! C o.m.c.m.,.h r h e c X. .|  .~ Q Q U c r u h e ] m.n.m.,.! Q I c M.oXoXoXoXV e f w ^ m.m.n.n.' U Q ! "
};
