/* XPM */
static char *cb0279e0123441a8c0687235bd8eeb6294Ol4R1DC56lyzhk[] = {
/* columns rows colors chars-per-pixel */
"72 72 245 2 ",
"   c #1E3119",
".  c #1B2E14",
"X  c #22351B",
"o  c #263A1C",
"O  c #2A3C1E",
"+  c #213216",
"@  c #323E1B",
"#  c #2B3D21",
"$  c #2D411E",
"%  c #38441D",
"&  c #2E4321",
"*  c #2E4A23",
"=  c #324523",
"-  c #354C25",
";  c #3A4926",
":  c #3B4B2A",
">  c #364728",
",  c #3A572B",
"<  c #3B5E33",
"1  c #3D632D",
"2  c #3F6628",
"3  c #3E6433",
"4  c #3E6339",
"5  c #524D1B",
"6  c #6B5219",
"7  c #77581A",
"8  c #664F19",
"9  c #796419",
"0  c #43552C",
"q  c #4A5B35",
"w  c #4C5325",
"e  c #6D5823",
"r  c #42652E",
"t  c #43692D",
"y  c #416634",
"u  c #446B34",
"i  c #4A6C35",
"p  c #416639",
"a  c #456B3A",
"s  c #496E3A",
"d  c #4E6238",
"f  c #53633B",
"g  c #566738",
"h  c #4B7335",
"j  c #4D743B",
"k  c #4E783A",
"l  c #4D7636",
"z  c #52753B",
"x  c #537B3C",
"c  c #5A7E3D",
"v  c #537736",
"b  c #57672C",
"n  c #6A7835",
"m  c #726F2F",
"M  c #4D7244",
"N  c #527541",
"B  c #547B41",
"V  c #597D43",
"C  c #5A7845",
"Z  c #4E6C41",
"A  c #627A44",
"S  c #797D44",
"D  c #8C5C15",
"F  c #A45804",
"G  c #936A16",
"H  c #BA6A0B",
"J  c #A86914",
"K  c #B46A13",
"L  c #B46D19",
"P  c #A77618",
"I  c #B67419",
"U  c #B46E0E",
"Y  c #877929",
"T  c #8C732B",
"R  c #A97C24",
"E  c #C96E05",
"W  c #C76E09",
"Q  c #D26E0D",
"!  c #CD7406",
"~  c #CD7409",
"^  c #CA7709",
"/  c #D27B09",
"(  c #D27808",
")  c #C87715",
"_  c #D57E14",
"`  c #56813D",
"'  c #5B833D",
"]  c #5E893E",
"[  c #628B3E",
"{  c #6A893C",
"}  c #768938",
"|  c #78933A",
" . c #568141",
".. c #5C8442",
"X. c #5E8942",
"o. c #5E8349",
"O. c #5E8849",
"+. c #628445",
"@. c #628B44",
"#. c #63854A",
"$. c #648B4A",
"%. c #6A8D4C",
"&. c #698C46",
"*. c #748C48",
"=. c #659244",
"-. c #6A9246",
";. c #669249",
":. c #6B934B",
">. c #6C984B",
",. c #73954E",
"<. c #74984D",
"1. c #6B8D52",
"2. c #6D9352",
"3. c #749553",
"4. c #799754",
"5. c #759A54",
"6. c #7A9A55",
"7. c #7C9B5A",
"8. c #779759",
"9. c #718B52",
"0. c #7DA25A",
"q. c #7AA155",
"w. c #7D9C60",
"e. c #7FA760",
"r. c #938B33",
"t. c #AA9030",
"y. c #B09126",
"u. c #D4850C",
"i. c #DA8B0A",
"p. c #D78609",
"a. c #DE950D",
"s. c #D68814",
"d. c #C99319",
"f. c #D99412",
"g. c #D99A17",
"h. c #CB8616",
"j. c #E29D0F",
"k. c #EB9909",
"l. c #E3960C",
"z. c #E39B14",
"x. c #E18B1E",
"c. c #DCA619",
"v. c #E6A20E",
"b. c #F7AA06",
"n. c #F5A40C",
"m. c #F3AB0C",
"M. c #F8A809",
"N. c #F6B209",
"B. c #F8BD0E",
"V. c #F8B50C",
"C. c #EBAB13",
"Z. c #E5A618",
"A. c #F3A310",
"S. c #F6AC12",
"D. c #EBB519",
"F. c #F2B413",
"G. c #F3BA14",
"H. c #F5B918",
"J. c #C58929",
"K. c #D29326",
"L. c #ED9B2B",
"P. c #F09E2D",
"I. c #F29F30",
"U. c #D4A929",
"Y. c #E7A727",
"T. c #F1A02F",
"R. c #E9B923",
"E. c #F3BA24",
"W. c #ECA733",
"Q. c #EAB23B",
"!. c #F7C617",
"~. c #F9C513",
"^. c #FACA14",
"/. c #F5C41A",
"(. c #FAC51A",
"). c #F6CC1C",
"_. c #FACC1B",
"`. c #F7CC15",
"'. c #F9D41D",
"]. c #F8C50F",
"[. c #F5C926",
"{. c #FBDC2B",
"}. c #F9D726",
"|. c #F5CB35",
" X c #F8DA36",
".X c #EDC72B",
"XX c #FCE32E",
"oX c #F9E62F",
"OX c #FCE432",
"+X c #FAE53B",
"@X c #F9E939",
"#X c #819D5C",
"$X c #869D57",
"%X c #90954A",
"&X c #AE9C46",
"*X c #82A45B",
"=X c #85A85B",
"-X c #96A84F",
";X c #B0B65D",
":X c #839F61",
">X c #8AAC64",
",X c #86A763",
"<X c #8CB167",
"1X c #95BA6C",
"2X c #9ABC6C",
"3X c #93B569",
"4X c #9ABE71",
"5X c #97B972",
"6X c #92AE68",
"7X c #A9B968",
"8X c #E9BA43",
"9X c #DCB762",
"0X c #9DC372",
"qX c #9CC26C",
"wX c #A4C76E",
"eX c #A3C673",
"rX c #A5CA74",
"tX c #A9CC76",
"yX c #A6CA79",
"uX c #AACD7A",
"iX c #A4C678",
"pX c #ADD17B",
"aX c #ADD376",
"sX c #B1D47D",
"dX c #B4D97B",
"fX c #F1D04D",
"gX c #F9EA46",
"hX c #F9EA57",
"jX c #FBF35B",
"kX c #FBF356",
"lX c #FAF04F",
"zX c #E5C36F",
"xX c #F8EA67",
"cX c #FCF563",
"vX c #FCF96A",
"bX c #FEFC75",
"nX c #FCF876",
"mX c #F7EF74",
"MX c #C1C35C",
"NX c #AFD382",
"BX c #FCFB86",
"VX c #FAF697",
"CX c #F8F4B0",
"ZX c #ECD091",
"AX c #F9F9CA",
/* pixels */
"X.` x #.pXNXuXdX3X@.-.=.:.h i a i h  .` ` ' `  . ... .q.*X*X7.5XdXaXsXaX$.V .. .O.-.=.=.>.N u i p N 6.7.7.>X1.s j u t @.$.;.=.' u M N M :.:.:.:.",
"` k k V 2XeXiXrX<X' @.] @.i y y y i V z x x x x z h x 5.6.7.3.>XwXrXeXeX..k v l ` @.X.[ @.j 3 u 3 p 3.7.7.,X#.Z s Z u X.@.X.] x 3 s s j $.:.2.$.",
"` z z ..rXtXyXpX3XX.@.@.$.i 3 3 3 u B z z z z z z x c 3.6.6.3.<XpXtXuXuX@.z x z x @.@.@.@.j y u 3 s 4.7.7.#X#.M N M j O.] ] @.B 3 p u p %.2.:.2.",
"X.V x c <X1X1X2X*X@.@.@.$.k i i i h .. .V +.} r.r.r.r.&Xt.r.%X>X2X2X1X3X@.x x V  .X.O.X.@.j y u 3 j ,X>X,X>X1.M N M N 2.3.:.%.+.z m Y T T T Y m ",
";.@.@.X.i y y y C 7.6.6.7.$.@.@.X.$.7.5.6.$XU.Z.Z.Z.Z.z.h.h.t.4.2 u t h ..@.@.X.] z z v x a 3 u 1 z iXuXNXNX,XV o.#.+.7.,X7.7.6X7Xt.) ) ) ) K F ",
";.] ] X.p a y 3 V 7.4.6.6.@.@.@.[ -.6.6.$X-Xc.m.S.S.S.A.u./ J.$Xr i u r O.@.X.[ ] x z v c s y y 3 h iXyXyXsX,Xj V +...7.,X:X#X6X;XJ.~ ~ / / W F ",
";.@.@.X.a y t y x 7.4.6.6.&.@.@.| r.&Xt.t.&XR./.[.|.|.|.Y.Z.U.&XY r.m m } [ @.@.O.z V x x s y y 3 k iXeXiXsX,XN V x V 8.#X$X%X&Xt.g.j.j.j.l.u.H ",
";.+.@.@.y y i < C #X6.7.8.@.X.{ t.c.c.c.Z.D.{.oX+XkXvXcX+X+X XR.Z.g.I J T { @.@.X.k V x x a 3 3 3 k yXuXNXNX>XV V j N 1.4.%XR ) s.D.~.~.~.~.C.u.",
"X...'  .j k j s ' :.:.:.:.*X=X-XU.b.b.b.m.G.{.@XgXcXbXvX+XOX{.G.m.k.p.~ P { ' ` ..' '  . ...+.A A +.2.2.2.7.:.$.1.c ' ,X6X&X) ~ i.G.].].].~.C.u.",
" .z v x V x V B c @.] ] [ ;XMXMX.X!./.|.|.fXxXmXmXjXkXlX@XOX{.).(.G.v.a.d.Y n v  .$.X.@.$.3.6.7.7.:.2 , < p V 2.:.1.+.7X;XU.g.l.v.G.~.^.^.~.G.v.",
"` x x x z z z V  .@.$.$.{ U.U.D.}.{.{.jXcXmXCXCXVXjX@X@XOXOXoX{.{.}.!.G.Z.h.R m c @.X.@.@.,.6.4.6.1.u u y p o.:.2.%.} &XJ.g.D.G.~.^.^.^.^.^.~.G.",
"` N x V z z z k  .@.@.@.} Z.b.V.}.oX@XvXbXBXAXAXCXhXOXOXOXOXOXoXoX{.).(.F.p.~ P n X.@.@.] 3.7.6.7.2.y y y < V :.:.3.r.J.~ z.~.^.^.^.^.^.^.^.^.^.",
"..x z x ' ' ' '  .X.{ | r.D.!.).+XgXkXBXVXVXZXzXzXQ.R.R.R.R..X}.}.}.}.'./.j.a.d.r.r.} { ;.2.3.3.3.%.i u i y V :.*.r.t.d.a.C.!.^./.C.C.C.C.C.F.~.",
"=.X.X.;.4X0X0XeX0.y r.d.c.}.oX@XjXvXnXCXAXZXJ.) ) ^ ! ! ! ^ u.D.!._.}.oX{._.(.D.s.J.&X7XiX$.r i s j O.X.] X.' n T ) f.D.(.(.^.^.D.p.( ( ( / a.G.",
">.[ X.@.eXuXrXpX*Xr d.A.F.{.@XgXcXbXBXAXAXZX) E E E W E W W u.D.(._.{.oX{.`.^.G.a.^ J.;XNX$.1 y 1 u @.@.X.]  .m I / a.G.^.^.^._.C.u.! ! ~ ~ i.G.",
";.X.$.;.0XyXeXtX,Xr g.A.D.gXlXjXBXVXVXZXZXzXx._ _ _ _ s.K.U.U.Z.Z.D.[.}.}.'.'./.f.^ J.;XuX$.1 y y i ] ] O.@.' m I / a.G.!.G.C.Z.j.i.p.p.p.p.l.v.",
";.X.@.:.rXpXpXsX,Xr f.A.E.jXvXnXCXAXCXJ.) _ L.P.P.P.P.Q.xXnXfXs.! p.D.^._.{.{.[.g.^ J.;XNX$.1 p 3 i @.@.@.@. .m K / l.G.!.v.u.( p.k.M.M.M.M.k.p.",
"X.` ' X.0.0.0.=X:.v f.A.E.jXvXBXCXAXCXh.! / L.I.T.T.W.Q.xXbXfXd.! u.D.(._.{.OX[.g.^ J.-X1X&.k N j j  .x x c x Y L / l.G.!.v./ ! p.k.b.b.b.b.k./ ",
"` N B z 3 1 1 m r.t.R.[.[.gXlXhXzXzX9Xx.s.x.L.I.W.8XfXfXhXkXhXQ.Q.Y.Z.j.C.}.OX}.D.v.g.t.%X*.@.@.=.X.t 3 y 1 V T L / l.G.!.v./ ! p.m.V.N.b.b.k./ ",
" .x z l a y i d.g.c.}.{.{.OX+X|.K.) h.L.L.L.I.I.Q.hXmXcXgX+XgXhXxXfXK.( f.|.OX{.}.!.D.s.) r.{ X.@...u p y < i T K / l.G.!.v./ ! p.G.~.B.N.b.k./ ",
" .z x x a y i j.n.S.{.oXOXOXOX.Xu.E ~ L.P.P.I.I.8XxXbXvX+XOXgXcXbXfXK.E s.[.OX{.}._.H.s.Q R { @.@...u y < * = e K / l.G.!.v./ ! p.G.~.B.N.b.k./ ",
"..N B z y y i n.M.S.{.OXOXOXOX.Xu.E ~ L.T.W.fXfXfXhXkXkXkXlXjXvXbXhXY.p.l.}.XXXX'._.H.s.Q I } @.@.X.t u , o # e K / a.G.!.j./ ! p.G.~.B.N.b.k./ ",
"@.X.X.@.<X1X6XA.M.S.{.+X+XOXOX.Xu.E ~ L.T.Q.xXnXcXgX+XgXvXbXbXbXbXhXE.n.F.{.XXXX'._.H.s.Q L b a i j  .X.i - O 6 K / a.G.!.j./ ! p.G.~.B.N.b.k./ ",
";.X.X.&.rXtXwXA.M.S. X+X+XOXOX.Xu.E ~ L.W.8XmXbXcXgXOXgXvXbXbXbXbXhXE.n.F.{.OXXX'._.H.i.Q L b 3 y i @.@.z , O 8 K / a.G.!.j./ ! p.G.~.B.N.b.k./ ",
"-.X.@.-.0XtX7XA.M.S.{.OXOXOXOX.Xu.E / 8XfXfXhXjXjXlXgXkXbXbXbXbXbXhXE.M.F.+XgXgX}._.H.i.Q L b a y i @.@.z - O 8 K / a.F.!.j./ ! i.G.^.B.N.b.k./ ",
":.$.@.-.>X,X$Xn.M.m.{.OXOXOXOX.Xu.E h.xXbXvX+X@XgXcXbXbXbXbXbXbXbXhXE.M.H.hXvXjX X_.H.i.Q L b 3 3 u X...i - O 8 K / a.F.!.j./ ! p.G.~.B.N.b.k./ ",
"O.B x ' N d g z.n.m.{.oXOXoXOX.Xu.E h.xXbXvX+XOXgXcXbXbXbXbXbXbXbXhXE.m.E.jXbXcX X_.H.p.Q L n z B c q.6.A q = 6 K / a.F.!.j./ ! p.G.~.B.N.b.k./ ",
"u p y 1 O o O 9 G P D._.}.XXOX}.Z.z.z.Q.8XfXhXlXjXvXbXbXbXbXvXhXfXfX|.|. XlXkXgXR.v.d.R T r.$X6.6.*XtXtX,XA q 7 K / a.F.!.j./ ! p.G.~.B.N.b.k./ ",
"i 3 y u O O O @ % w g.m.G.{.oX{.[.E.E.u.^ K.xXvXvXbXbXbXbXbXhX.XD..XhXcXjXgX@X Xc./ P m c *.7.7.4.0.rXrX*XA q e K / a.G.!.j./ ! p.G.~.B.N.b.k./ ",
"i p y y # O O o # w f.M.V.{.XX{.[.[.E.( E d.xXbXbXbXbXbXbXbXhXE.m.E.hXbXcXgXOX|.g.W J n x %.6.6.4.*XeXrX#XA q 7 K / a.G.!.j./ ! i.G.~.B.N.b.k./ ",
"t 1 y 1 O o o o # w f.M.V.}.}.}.}.}.[.a.a.g.8X8X8XfXfXfXfXfXfX|.|. XlXkXlX{.}.[.f.W G n z %.7.7.3.*XrXuX,XA q e K / a.G.!.j./ ! i./.'._.!.(.Z.u.",
"2.%.%.+.= $ $ O - b f.M.m.!._._.{.XX{.(.(.D.^ ^ ^ ^ ^ u.Z.C..XhXcXjXgX+XOX).!.D.a.W G n O.c z z N x 5.5.c 0 = 8 K / a.G.!.j./ ~ f.[.XXXXXX{.E.p.",
"*X7.6.3.= $ = $ : g g.n.M.~.!._.{.oXXX`.^.F.( E E E W / A.S.E.kXvXjXgXOXoX`.^.G.f.H G n @.j 1 3 3 y X.X.i - O 5 J / l.H.(.j./ ! f.[.OXOXOXOXE.s.",
"*X3.6.3.- & = $ ; f T t.y.D.B.(.}.}.}.'.'.).Z.g.g.g.g.Z.|.|. XlXkXgXOX}.[.C.Z.g.P 7 e c $.k u y u s @.@.h - O % 8 D P g.v.j.l.l.z.D.R.R.R.R.C.j.",
"*X3.6.5.z i i = : f f f n d.S.V.(.).'.XXoXoXOXOXOXOXOXgXcXcXjXgXOXoX'.~.F.u.) J b i l ] $.h 1 y 3 i @.[ i - O o o @ 8 J ^ z.E.[.D.p.( ! ! ^ a.F.",
"6.3.3.3.V x z = ; q q q g P g.F.(._._.XXoXoXoXOXOXOXOX@XcXvXjX@XoX{._.~.F._ L D n ' ] X.O.z i j a h O.X.i - & = = = 5 G ) z.H.(.D.p.! ~ ~ ~ i.G.",
":.@.@.+.u u 3 o o ; ; ; 0 w 9 y.c.G.G.).).).}.}.}.}.}.{.+XgX X}.!.H.C.j.d.T m S $Xk z z x X.@.@.@.O.x z y $ : f f f f 5 6 P g.z.Z.Z.Z.Z.j.j.j.j.",
";.X.[ #.u y 3 X # : : : : = ; e d.m.m.F.F.G.!._.`.`.`._.'._.(.N.m.v.p.! P b g 9.=Xz B z x X.@.@.@.X.z z y & : f d d f = ; 7 U ( g..X X}.!.G.C.p.",
":.X.@.$.y y y o # : : : : = $ w y.m.n.n.n.F.^.`.`.`.`.`.`.^.~.b.n.k.p.E J g f 9.*Xl z x x ..@.@.@.X.x B u & : f q f d = = 8 U ! g..XOX{.).~.C.u.",
":.@.@.$.3 1 1 X o : : : : = & = w 9 9 9 9 P D.B.B.B.B.F.v.v.d.G D 9 6 5 e g Z 8.=Xz z V z X.@.@.@.@.k x i & : g f f f = & % 5 6 G K.Y.Z.v.j.s.H ",
"B h z z 6.q.7.A N 0 = & = o o o o o o o o 5 g.n.n.n.M.k./ ! G % o o O O q C #.7.5.u j s i +.,.-.,.%.' ..k h d 0 - > = = = = = : 8 J ! ! ! ! H F ",
"u 4 p a NXpXuXNX=Xu = O o X       + O O o 5 f.n.n.n.A.k./ ! G % = = = = q #.4.6.%.r u 3 1 %.7.6.6.3.@.@.$.$.u * o . + = : : : 0 m J ~ ! ! ! H F ",
"s y u i 0XrXiXyX>Xh , & & X   X X X o o # @ Y t.t.t.t.G 7 7 5 $ $ $ = - g 9.7.7.%.3 u p 3 #.6.6.6.3.[ @.' @.z < * X X > : : ; 0 g m T T D D 7 6 ",
"u y 1 u 0XtXyXuX=Xk j y , o       X # o o X 0 g g g f $ O O O O & - t h &.4.6.#X%.p y p 1 $.7.6.6.5.[ @.@.@.z 3 , , & : : : : 0 f f f f 0 0 0 0 ",
"j s i j 4XeXeXtX=Xx V c z & X X X X # O # O : d q d q $ O o O # & , c X.2.3.3.3.%.a y i u $.5.5.5.2.@.@.@.@.x y i 3 - : : : = 0 q q q q : - : : ",
";.X.X.+.6.6.7.6.>XrXrXeX1Xg ; : ; : d d q d : $ = $ = = : : : & O , k x i u s s j +.X.@.X. .c c x ..5.6.3.5.$.k z N y : = = O = : : : : = & & = ",
";.@.@.$.<.6.8.4.>XtXrXtXtX4.A A C +.3.g d f ; O = & = 0 g z C g u s z B u p p 3 s @.@.@.@.' z V z x 6.7.6.0.$.x V z z z i , = = ; : : : = = & = ",
"=.X.[ $.,.7.7.3.=XuXeXiXuX*X3.7.3.,X2Xz q f : $ & $ = d 9.6.7.@.x x x x u u y u j @.@.X.$.x x V k ' 6.4.6.6.$.V x V x X.X.k - = : : : ; = & $ = ",
">.$.@.@.,.4.8.*.>XpXrXtXpX=X6.7.6.>X2XA f f : O = & = d 9.7.7.+.k k h l y p y 3 j ] ' ' X.c x z x V 6.6.w.7.@.h h z k @.;.x 0 > : : : : = & = = ",
"..x c ' >X=X,X<X>X>X=X=X<X:.+.#.+.1.>X%.#.+.z d i g i z ......&.5.7.6.5.N s h u V e.*X*X,X$.x  . ...&.&.%.@.:.6.7.6.5.' l v h i z g g g 0 , , < ",
"u 3 3 a iXtXuXsX>X' @.' X.u 1 3 1 u X.' c ] ;.3.8.<.8.y 3 Z , 8.sXtXuXuX$.j V z 2.pXuXtXpXq.[ @.@.X.l z z j 0.pXuXuXNXN 4 a 1 h [ X.] X.i 3 1 y ",
"a u y p 0XwXiXyX<X' ;.X.%.j y p p j $.@.@.@.,.6.8.4.8.u 2 a 3 8.pXwXwXrXX.z x h %.rXeXwXuX6.' @.@.X. .` z j q.tXeXiXqXz p u y k @.@.@.@.j 3 3 p ",
"a r y s 0XtXyXrX3X' @.X.$.h 3 p y h @.] ] X.,.6.#X7.8.i 2 u < 3.pXrXrXeXX.z x h 2.uXrXeXpXq.] @.@.O.k x x j 0.pXeXuXwXz 3 u 3 j @.X.] @.j 3 y p ",
"h y y j 4XtXrXrX=X[ @.@.@.h t u y l X.@.@.$.,.<.3.6.3.a y a 3 5.tXeXyXeX$.z x c $.yXrXrXyXq.X.@.@.X.` v x z 0.uXrXeXeXB p s y z [ @.@.@.h u u u ",
"@.O.] X.*X*X7.,X,.v x x  .' X.O.O.`  .` c c X.=.&.@.:.1X2X1X4X=X-.:.>.-.%.8.3.3.3.:.:.:.2.x u i p N 5XqXqX0X*X;.:.-.-.<X2X1X4X<X,.3.5.5...k x N ",
"-.@.[ @.3.4.8.6.%.z z V x X.@.@.@.O.z x z B ' [ @.X.=.yXtXtXsX=XX.X.[ [ 3.#X6.7.,.X.X.X.X.h u y 3 z uXtXiXsX=X' ] X.@.eXtXrXpX5X6.8.7.6.+.x x x ",
";.@.@.@.3.7.6.8.%.k  .x x X.@.@.@.X.V z x x ..$.@.[ =.eXeXwXyX>X] @.@.@.3.3.6.7.,.@.@.X.$.h y y 3 N iXrXyXtX*XX.@.@.@.0XrXwXrX3X3.7.6.6...z x x ",
";.X.@.@.6.6.6.*X-.z z N V  .X.X.' ' x c x v  .$.@.@.;.eXuXtXpX=XX.[ [ &.5.6.7.7.3.[ [ @.;.h 3 p 3 k tXtXyXsX=X' @.@.@.4XuXuXpX1X6.#X,.7...z x x ",
";.X.@.@.%.#.1.1.+.x ' ' c :.q.<.q.<.' ..X.@.O.O.@...@.1X2X3X2Xq.x O.x c :.3.,.3.2. . .' x x k h h V 1X2X1X2Xq.` X.' @.3X4X1X2X>X:.3.,.5.+.....#.",
";.] @.+.u y y 3 j @.@.@.[ 2XpXrXpX0X6.6.5.5.#.z x B c 3.6.,.7.V 1 a y y O.@.@.@.' 1 u r 2  .@.@.;.%.6.,.3.3.$.z c c v 3.3.,.6.:.] @.@.@.3.:X6.*X",
";.X.X.O.i i y u k =.@.@.[ 2XuXiXyX2X4.7.6.7.#.z c z c 8.7.4.w.C p 3 i t O.X.@.@.' y y i t x $.@.X.%.4.6.7.7.%.j c z l 3.7.7.7.,.@.X.X.@.3.7.6.7.",
";.@.@.X.u y y 3 j X.X.@.' 2XrXeXyX4X6.6.3.7.#.z V x ' 3.4.4.7.o.1 a a 1 $.@.@.@.` y p y 1 x @.@.] @.7.7.4.7.&.k c V x 3.4.6.6.,.] X.@.@.3.6.6.#X",
"=.] @.O.i 1 3 1 j @.[ ' { 2XpXeXuX4X6.6.6.7.#.j B x V 3.5.7.7.' 2 3 1 y V @.@.@.' 3 u y r x @.@.@.=.3.6.6.7.%.z x N c 3.5.7.7.:.[ @.] [ 3.w.6.7.",
"] c c ' >X<X<X<X*X2.3.5.3.<.<.<.5.5.@.%.&.&.x i u s i o.....' 5.3X<X<X<X5.:.3.5.%.' '  . .` ` ' V ` %.%.&.%.B u s i u @.:.&.@.q.1X3X1X4X+.h l z ",
" .z N V rXuXuXaX1X3.7.6.6.@.X.X.@.X.X.@.] @.j 3 y 3 y z x z j *XsXuXuXuX*X6.6.6.3.@.@.@.@. .z z z c ] @.X.@.x 3 y y p X.@.X.] q.aXrXuXpXV 1 4 y ",
" .x z c qXwXyXeX3X3.6.6.6.@.[ @.@.] @.@.] @.j p p y y B x x h 6.tXeXeXrX*X4.6.6.3.@.@.X.@.' x x x V @.@.@.@.x y a t s ' @.;.' 0.tXrXeXuX..3 a y ",
"x C z x eXtXyXpX2X3.6.6.6.&.@.@.@.@.@.@.@.@.k 3 y y y z z  .x 0.pXrXtXtX*X6.7.6.3.@.X.@.@.` k z z x @.@.@.@.x 3 y y y ' [ @.] 0.uXtXrXuX..1 p y ",
"..N z V 3X1X3X1X,X3.3.3.5.@.X.X...X.X.X.X.X.z j j h z N k j h 5.eX4XqX2X6.3.3.3.%.' ' O...........' @.X.] @. .z B N B O.X.' ' 5.iX4X4XeX..t a i ",
";.@.@.' u y u r z @.@.@.@.h u y u u z x x V %.8.8.6.2.i u i y c @.] [ @.x z V x z y y y u #.6.5.6.3.x z V k 0.NXyXtX0Xz 3 a 3 C 6.6.6.6.V z N V ",
"=.] @.@.y 4 y 3 z @.@.@.$.j 3 p y a B V z z &.7.6.6.8.u y y 3 N @.@.@.@.x N z z k y a p 1 %.7.6.6.5.c z z h 0.pXwXrXtXz 3 y 4 C 6.4.4.6.o.x z x ",
"=...] ' a y 2 y h @.] ] @.u 3 3 y i z x V z @.6.3.6.3.u 3 y 3 z @.X.X.] x k x x k 2 y y 1 #.7.3.4.:.l x x h 0.pXwXiXwXz 3 2 y z 6.3.6.6.V l k x ",
">.@.;.=.a i h y V >.=.=.>.k i i u k  .` ..V ,.*X#X=X6.j i j u x >.;.-.;.X. . .' x i a j u %.*X*X*X7... .` x =XdXsXsXsXB u h y o.=X*X*X*X$.'  ..."
};
