/* XPM */
static char *fe6ed0e4427740f9f5357f699a0be27d2YvMTVYZMYBAMqOY[] = {
/* columns rows colors chars-per-pixel */
"72 72 219 2 ",
"   c #1E311A",
".  c #22341B",
"X  c #273A1C",
"o  c #2A3C1E",
"O  c #213315",
"+  c #373E1C",
"@  c #2B3E21",
"#  c #2E411F",
"$  c #34421E",
"%  c #2E4221",
"&  c #324523",
"*  c #3B4B2A",
"=  c #384A24",
"-  c #3C5C2D",
";  c #39592B",
":  c #3B5E33",
">  c #3D632D",
",  c #3F6628",
"<  c #3E6432",
"1  c #3E6339",
"2  c #4D481F",
"3  c #4B461D",
"4  c #5C4D1C",
"5  c #604E1E",
"6  c #424D29",
"7  c #564E22",
"8  c #41552D",
"9  c #575525",
"0  c #485A34",
"q  c #585D32",
"w  c #695E29",
"e  c #775D26",
"r  c #41652E",
"t  c #42692D",
"y  c #416634",
"u  c #436A34",
"i  c #496D36",
"p  c #416639",
"a  c #4E6039",
"s  c #456B3A",
"d  c #496E3A",
"f  c #4F6036",
"g  c #52633B",
"h  c #556236",
"j  c #4B7335",
"k  c #4F7835",
"l  c #4D743B",
"z  c #4E793A",
"x  c #467039",
"c  c #517636",
"v  c #527B36",
"b  c #51763C",
"n  c #537B3C",
"m  c #597D3D",
"M  c #5B7537",
"N  c #68672C",
"B  c #7B6529",
"V  c #6A7637",
"C  c #496D42",
"Z  c #4D7243",
"A  c #4D714B",
"S  c #527541",
"D  c #547B41",
"F  c #5A7E43",
"G  c #587E48",
"H  c #637F46",
"J  c #8E571A",
"K  c #975616",
"L  c #995616",
"P  c #9D5916",
"I  c #955618",
"U  c #985518",
"Y  c #935A1A",
"T  c #A35B16",
"R  c #A35D19",
"E  c #A96219",
"W  c #A56018",
"Q  c #856328",
"!  c #8B6D31",
"~  c #976524",
"^  c #B27325",
"/  c #CD7B1F",
"(  c #D1791F",
")  c #C47422",
"_  c #CB7624",
"`  c #C77824",
"'  c #CB7922",
"]  c #CB7A2A",
"[  c #C57D2E",
"{  c #D17624",
"}  c #D27C23",
"|  c #D07A29",
" . c #56813D",
".. c #5B833E",
"X. c #5E893D",
"o. c #5A8337",
"O. c #628B3E",
"+. c #60863C",
"@. c #568141",
"#. c #5C8442",
"$. c #5E8942",
"%. c #5D8349",
"&. c #5E8948",
"*. c #618545",
"=. c #628B44",
"-. c #688E45",
";. c #63864A",
":. c #648B4A",
">. c #6A8D4B",
",. c #6B854B",
"<. c #728D4B",
"1. c #7B8B4A",
"2. c #659144",
"3. c #6A9246",
"4. c #669249",
"5. c #6B934B",
"6. c #6C984B",
"7. c #72944E",
"8. c #739A4E",
"9. c #75964B",
"0. c #6C8D52",
"q. c #658A52",
"w. c #718F56",
"e. c #6D9352",
"r. c #6E9358",
"t. c #749553",
"y. c #799754",
"u. c #759A53",
"i. c #7A9A55",
"p. c #759559",
"a. c #7A965A",
"s. c #769B5A",
"d. c #7C9B5A",
"f. c #7CA255",
"g. c #7DA25A",
"h. c #76A052",
"j. c #7D9B61",
"k. c #7FA760",
"l. c #B9903A",
"z. c #D1841F",
"x. c #CE8323",
"c. c #CF8B26",
"v. c #D28223",
"b. c #D48C24",
"n. c #DA8926",
"m. c #C99235",
"M. c #ECA82E",
"N. c #F2AC2E",
"B. c #F6A72E",
"V. c #EBA732",
"C. c #F2AB31",
"Z. c #F4A532",
"A. c #EDB534",
"S. c #F2BD36",
"D. c #F3B534",
"F. c #EFB12F",
"G. c #F5C436",
"H. c #F5C936",
"J. c #F8CD36",
"K. c #F6C539",
"L. c #F6CA38",
"P. c #FACC3B",
"I. c #F9C43A",
"U. c #F6D036",
"Y. c #F5D239",
"T. c #F8D036",
"R. c #EFCC35",
"E. c #819D5C",
"W. c #959B56",
"Q. c #81A257",
"!. c #82A45C",
"~. c #85AB5C",
"^. c #89AB5D",
"/. c #89A658",
"(. c #8FAF5C",
"). c #839E62",
"_. c #84A462",
"`. c #86AA62",
"'. c #8AAC64",
"]. c #8BAA67",
"[. c #91AF68",
"{. c #8CB264",
"}. c #8DB36A",
"|. c #8FB86A",
" X c #93B465",
".X c #92B56A",
"XX c #95BA6C",
"oX c #99BD6D",
"OX c #96B965",
"+X c #9BBD71",
"@X c #95B671",
"#X c #8EB171",
"$X c #B89444",
"%X c #9CC26C",
"&X c #9DC272",
"*X c #A3C56E",
"=X c #A7C96E",
"-X c #A3C673",
";X c #A5C974",
":X c #A9CC75",
">X c #A4C57A",
",X c #A6CB7A",
"<X c #AACD7A",
"1X c #A8C577",
"2X c #ADD17C",
"3X c #ADD376",
"4X c #B1D47D",
"5X c #B3D879",
"6X c #FBDD46",
"7X c #FAE54B",
"8X c #FBE546",
"9X c #F7E859",
"0X c #F8FC7A",
"qX c #F5E665",
"wX c #AACD81",
"eX c #ADD181",
"rX c #B3D483",
"tX c #B5D884",
"yX c #B0CF81",
/* pixels */
"&. .n ;.2XtX<X5XOX=.3.2.5.j i s u j @. . ... .@.@.#.@.f.Q.Q.d.+X5X3X5X3X:.F #.@.&.3.4.2.3.S u i p S i.d.d.`.0.d l u t =.:.4.4...u Z S Z 5.5.5.5.",
" .z z F oX-X>X;X{...=.X.=.i y y y i F b n n z n b j n y.i.i.t.'.=X;X-X-X#.z v k  .=.$.O.=.x < u < s t.d.d.!.;.C d C u $.=.$.X.n < d d d :.5.e.:.",
" .b b #.;X:X,X2X X$.=.=.:.i < < < u D n M V V M M M M 1.1.1.1./.<X:X<X<X=.b n b n =.=.=.=.l y u < d y.d.d.E.;.Z S A l &.X.X.=.D < y u s >.e.5.e.",
"$.F n m {.XXXXoX!.=.=.=.:.z i i i j #.#.] | ] R K U U U U U K Y W.oXXX.X=.n n F @.&.&.$.=.l y u < l _.`.].].0.Z S Z S r.t.5.>.*.b S D F q.q.>.>.",
"4.=.=.&.i y y y F d.i.i.d.:.=.=.=.-.s.y.] _ | T K K K K K U U K 9 u t i #.=.=.$.X.b b v n s < u > b >X<XwXrX_.G %.;.*.d._.d.d.[.>X-X-X,X;.u l Z ",
"4.X.X.&.p s y < F d.y.i.i.-.=.O.O.-.i.y.] } } T K K K K U K K Y 9 s y > &.=.$.O.X.n b v m d y y < j >X,X,X4X_.l F *.#.d._.).E.[.4X-X*X;Xn y l Z ",
"4.=.=.$.s y t y n d.y.i.i.-.=.=.=.[ ] ] Z.Z.Z.} _ _ R I K K K K Y Y J w $.O.=.=.&.b F n n d y y < z >X-X>X4X`.S F n F p.E._.).[.:XwX,X<X%.p y s ",
"4.*.=.=.y y i : G E.i.d.s.=.$.@.$._ _ ( Z.Z.Z.} { _ R I K K K K K K K w =.O.=.=.$.z F n n s < < < z ,X<XeXtX].G F z S 0.y.d.a.#XtXyX<XtXq.p u < ",
"&.#.X.@.x z l d ..5.5.5.5.Q.^.~./._ { / C.N.C.} { _ R K K K K K K K K N F $... .#.X...#.@.#.*.H H *.p.e.e.s.5.:.q.m .._.[.@X+X[.!.!.!._.w.,.0.0.",
"@.b v n F n F D m =.X.X.O.oXeX<X:X] { / K.H.I.v.{ _ R K K K K K K K K B n z b z @.:.$.=.:.t.i.d.d.5., ; : p F e.3.>.=.+XrXyXrX@Xc %.G F j.].Q.!.",
" .n n n b b b F @.=.:.:.X.XX,X-X1X` _ ' H.R.K.v.{ _ R K U K K K K K K B n b F b F =.$.=.=.7.y.y.y.0.u u y s %.5.e.>.-.+X:X:X2X].F b @.@.j.j.d.E.",
" .S n F b b b z @.=.=.=.o.XX:X=X=X] } x.K.H.K.b.v.] E P P L K K K K K B n n n n  .$.=.=.X.t.d.i.d.e.y y y : F 5.5.e.t.>X<X:XrX].l l j n p._.d.d.",
"#.n b n ........@.$.$.$.=.(.$Xl.m.V.V.V.F.A.A.S.S.D.x.) ) R K K K K U J B Q N z  .3.O.O.3.5.p.p.p.>.i u u y D 5.5.:.>.>XwX>X>X`.n G m m >.t.7.i.",
"2.$.&.4.+X&X&X-X!.< s s u V _ ' v.C.C.C.C.N.F.H.U.G.b.' ' E K K K K K K K K e y %.,X&X;X>X:.r i d l &.$.X.=...n &.&.*.d.).E.i.!.&X+X-X&X-.n n %.",
"4.O.=.-.-X<X;X2XQ.> u y u V ` _ v.C.C.N.C.C.M.H.J.H.b.' ' E K K K K K K K K e > %.2X-X;XeX:.> y > u =.=.$.O.@.G &.F &.d.d.p.t.`.;X>X-X<X=.j b b ",
"4.$.:.3.&X,X-X:X_.> s y y V ` _ x.I.G.S.n.n.b.K.J.H.b.' ' E K K K K K K K K e > &.;X:X=X<X=.> y y i X.X.&.=.@.Z #.%.&.d.E.a.<.^.-X-X*X-X5.b b F ",
"4.$.=.5.;X2X2X4X_.- y y y V ` _ c.P.P.P./ { / K.U.H.b.' ' E K K K K K K K K e > %.2X:X:XrX:.> p < i =.=.=.=.@.b v #.;.d._.).y.].:X,X,XwX>.j z b ",
"$. ...$.g.g.g.~.5.x z z z V ` _ c.P.Y.P.' { ' K.U.H.b.' ' E K K K K K K K K e i #.oX X XXX:.z S l l @.n n m m ;.;.0.0.0.0.0.*.p.{.~.^.{.5.#.*.:.",
" .S D b < > > ; l :.:.=.&.V ` ' b.6X6X6X/ _ ' G.J.H.b.' ' E K K K K K K K K B n $.a.a.p.s.5.=.=.2.$.t < y > F !.t.d.j.D d d < i X.X.o.+.7.d.d.d.",
"@.n b k s y y s j =. .- - 9 _ ` b.7X7X7X' _ ' G.J.H.b.' ' E K K K K K K K K B n ..i.d.d.y.5.=.$.=.#.u p p y F i.a.t.).D Z Z s l =.&.=.+.t.y.y.d.",
"@.b n n s y y s j -.n % % 7 _ ' b.7X7X7X' _ ' G.J.H.b.' ' E K K K K K K K K B n $.y.t.i.i.5.=.=.=.#.u y y < F d.d.y.j.b d C p x =.&.=.O.t.d.d.E.",
"#.S S b y y u > b =.n % % 7 ` ' b.7X7X7X' _ ' G.T.H.b.' ' E K K K K K K K K B n #.d.p.s.d.5.$.=.=.$.t u u < #.d.7.i.p.b u u < j -.=...O.t.i.y.i.",
"=.$.$.=.}.XX.X+Xg.b i o o 7 ` ' b.7X7X7X' _ ' G.U.K.b.' ' E K K K K K K K K ! t.t.4.=.-.-.n i s i l @.$.X.X...#.F m #.&.$...F u.%XoXoXoXu.=.=.5.",
"4.$.$.-.;X:X:X5X`.z i X X 7 ` ' b.7X7X7X' _ ' G.U.K.b.' ' E K K K K K K K K ! s.7.&.=.O.=.l < < y i =.-.=.=...b v b z =.O.O.*.g.:X;X;X2X8.X.=.=.",
"3.$.=.2.&X:X-X,X~.n u o o 7 ` ' b.7X7X7X' _ ' G.U.L.b.' ' E K K K K K K K K ! d.t.*.=.$.:.j y s y i =.=.=.O.$.D n n n &.&.:.#.f.:X-X*X,X8.$.=.=.",
"5.4.=.2.-X:X:XrX^.j u X X 7 ` ' b.7X7X7X' _ ' G.U.L.b.' ' E K K K K K K K K ! d.7.-.X.X.4.j > < < u &.#.#.$.@.l b S j =.=.=.=.f.eX:X:X<X8.=.-.=.",
"&.D n ..'.{.`.}.u.n l @ o 7 ` _ b.7X7X7X' _ ' K.U.L.b.' ' E K K K K K K K K ! >.>.$.$.$.#.F b b D m f.i.u.f.5.#.;.*.*.X...$.#.5.|.{.}.}.:.n n #.",
"u p y u z j v v n =.b % % 2 ` _ c.9X9X9Xb.v.z.K.Y.L.b.' ' E K K K K K K K K e > u n n n c 5.d.i.i.Q.:X:X:X<X Xt.d.s.d.m b F z  .X.X.X.=.u < > y ",
"i < y i b n n k $.=.c # & 2 ` _ m.0X0X0XA.C.M.H.U.H.b.' ' E K K K K K K K K e y i n n b n >.i.d.y.g.;X;X;X<X.Xt.i.y.t.F n b n #.=.=.X.=.j y y s ",
"i s y y S F n n @.=.n % % 2 ` _ m.0X0X0XF.C.F.L.L.G.b.' ' E K K K K K K K K e y d b n n n >.i.i.y.Q.-X;X-X:X Xt.d.i.d.F D F z  .=.=.=.:.j < y d ",
"t > y y b b b n @.$.c # % 3 ` _ c.qXqX9XS.S.G.L.U.G.b.' ' E K K K K K K K K e < s n n b b >.d.d.t.!.;X<X<X<X.Xy.y.y.y.m j n v ..=.&.=.;.l y r u ",
"e.>.>.:.*.X.X. .u.XXi.0 0 7 ` _ x.A.A.A.7X7X8XY.J.H.b.' ' E K K K K K K K K B z b X...&.&.m b b S n u.u.u.u.5.#.;.*.*.`..X{.}.s.F  .o. .*.>.:.0.",
"!.d.i.i.:.=.=.$.g.2X Xg g 7 ' _ x.C.C.N.7X7X8XY.J.H.b.' ' E K K K K U U U K B F n =.2.=.=.z > < < y &.X.X.$.@.b v n v &X4X,XrX{.z z n b t.d.s.!.",
"!.t.y.i.=.$.=...f.:X'.0 g 6 ~ ~ ~ V.V.M.8X8X8XG.S.A.x.) ) W K K K K U J Q Q N n  .=.$.$.:.z u u u d =.=.=.=.@.D b S @.oX:X;X:X~.z n n b 5.d.t.d.",
"!.t.i.y.:.=.4.$.g.2X[.g g & o + $ ' } v.L.Y.P.b.x.x.E P P K K K K K K e M c c l n =.X.=.:.j > y < i =.O.O.O...b n l n oX:X;X2X].D n n D e.i.i.!.",
"i.t.t.t.#.@.#.n y.-X_.0 0 & o o o ` { / H.J.P.z._ _ R U K K K K K K K w -.=.=.:.:.$.$.$.&.n i x s j &.$.$.$.=.:.=.>.-..XoXoX&Xg.x b n l :.7.7.t.",
"5.=.=.*.u u u > F i.,.= * & % % & _ ( / I.H.I.z.' ` R K K K K K K K K 5 .X2X,X<X{.z b b n $.=.=.=.&.n b n n g.wX,X,X-X3.X.X.-...y y u < b m n m ",
"3.$.O.;.u y p < F d.,.* * & % % $ _ { ' F.F.F.} ' _ R K K K K K K K K 4 XX;X-X<XOXb D b n $.=.=.=.$.b b b l g.2X=X;X;X3.:.=.=.F y p y p l n b n ",
"5.$.=.:.y y p y F d.,.* * & # # & _ } ( B.N.C.} ' _ R K K K K K K K K 7 XX=X>X,X{.j b n n $.=.=.=.$.n D n b g.:X*X;X*X3.:.X.4.F y s y p l n b n ",
"5.=.=.:.< > > - b E.,.* * & % & & ^ ` _ M.N.C.' ' ` R K K K K U I J J 7 oX3X,X2X Xb b F b $.=.=.=.=.z n n j g.tX<X2X2X3.&.X.O.b - < > < j n n n ",
"D j b b i.f.d.d.s.*.#.- - = X X X o o X ) } ] T P P K K K K K U 2 = = r !. X^.[.d.u l d i *.9.3.9.>...#. .$.:.r.e.r.>.7.7.e.5.t.Q.i.i.!.>.>.-.5.",
"u 1 p s wX2X<XtX/.l S l b <       O o o ` ' _ T K K K U K U K K N :.:.&.t.t.y.i.>.r y < r >.d.s.s.t.=.=.:.:.j - > ; t 0.d.d.u.'.eX2XwX<X`.d.d.d.",
"x y u i &X;X>X,X'.j n n @.u . . . . X o ^ _ ] P U K Y Y Y I Y I N $.=.=.t.y.d.d.>.< u s y ;.s.s.s.t.O.=...=.n s s p u p.s.i.y.^.<X;X;X:XQ.t.i.d.",
"u y > u &X:X,X<X~.z b n b y .     . @ X & + 9 h q q q + + + + $ i =.=.=.u.i.i.E.>.p y p > :.d.i.i.y.O.=.=.=.b < < p y p.y.i.y.^.,X;X;X:X!.y.d.d.",
"l d i x +X-X-X:X/.n @.#.*.d . . . . @ o @ o * a 0 a 0 # o o o % i $.$.=.t.t.p.p.>.s y i u :.y.u.u.e.=.=.=.=.n y i y u e.i.i.7.`.>X-X-X-XQ.p.u.u.",
"4.$.$.*.i.i.d.i.].;X;X-X-Xi.* * = * a f 0 a * # & # & & * * * % - n n b i u d d l *.&.=.$.@.n n n #.y.i.t.u.:.z b S n *.=.=.*.7.i.d.i.f.-.:.=.4.",
"4.=.=.:.8.y.a.y.].:X;X:X<XQ.6 * * 6 h f g g * # & % & * * * 6 & 8 b b F i p p < x =.=.=.=...b F b n i.d.s.g.:.n F b n =.=.=.=.5.t.y.t.y.-.:.$.-.",
"2.$.O.:.7.d.d.t.^.<X-X>X<X!.t.a.p.0 g f 0 g * % % # % * * H d.*.v n n n u u y u l =.=.$.:.n n F z ..y.y.y.i.:.D n D n $.$.$.$.-.d.d.i.y.=.=.X.4.",
"3.:.=.=.7.y.a.<.].2X;X:X2X^.i.d.y.0 g g g g * o & % & * * ,.d.*.z z j k y p y < x X.....$.m n b n F i.s.j.d.=.j j c z =.4.=.-.e.s.s.y.i.-.=.4.4.",
"#.n m ..'.^.]. X'.'.^.~.{.5.*.;.#.* 8 8 8 8 * & & = & & & i #.-.u.d.i.u.S d j u F k.!.!._.:.n @.@.#.-.-.>.=.5.i.s.i.u. .k v v $.7.t.5.7.@.b n n ",
"u < < s >X:X<X4X(. .=...&.u > < > y n v n m =.0.w.<.0.- : s ; s.4X1X<X<X:.l F b e.2X<X:X2Xf.O.=.=.$.k b b l g.2X<X<XeXZ 1 s > j O.$.=.=.x < > u ",
"s u y s &X=X>X,X{...4.$.>.x y s p l :.=.=.=.7.i.a.y.p.u , s < p.2X=X=X;X$.b n j >.;X-X*X<Xi...=.=.&.@. .b z f.:X-X>X%Xb p u y z =.=.=.=.l < y s ",
"s r y d &X=X,X,X.X..=.$.:.j < p y j =.X.X.$.7.i.E.d.p.i , u - p.2X;X;X-X&.b n j e.<X;X-X2Xf.X.=.=.&.z n n l g.2X-X<X=Xb < u < x =.$.X.=.x < y s ",
"j y y l +X:X;X;X(.O.=.=.=.j t u y j $.=.=.:.7.8.t.y.p.s y s < y.;X-X,X-X:.b n n :.,X;X;X,Xh.$.=.=.&. .v n b g.<X;X-X-XD p d y b O.=.=.=.j u u u ",
"=.&.X.$.!.Q.d.`.7.v n n @...$.&.&. .@. .m n $.2.-.-.5.XXoXXX+X~.-.5.3.3.>.p.t.p.t.5.5.5.e.n u i s S +X%XoX&X!.3.5.3.3.{.oXXX+X].9.t.u.y.#.z n S ",
"3.=.O.=.t.y.a.i.>.b b F n $.=.=.=.&.b n b D ..O.$.$.4.,X:X:X4X~.$.$.O.O.t.E.y.d.7.$.$.$.$.j u y < b <X:X>X4X~. .X.&.=.;X:X;X2X@Xi.a.d.i.*.n n n ",
"4.=.=.-.t.d.s.a.>.z @.n n $.=.=.=.$.F b n n #.:.=.O.2.-X-X*X,X`.X.=.=.=.p.t.i.d.7.=.=.$.:.j y y < S >X;X,X:XQ.&.=.=.=.&X;X*X;X.Xt.a.i.i.#.b n n ",
"4.&.=.=.i.i.y.Q.3.b b S F @.&.$... .n n n v @.:.=.=.3.-X<X:X2X~.$.O.O.-.u.i.d.d.t.O.O.=.4.j < p < z :X:X,X4X~...=.=.=.+X<X<X2XXXi.E.7.d.#.b n n ",
"4.$.=.=.>.;.0.0.*.n ..m m 5.h.8.h.8...#.$.=.&.&.=.#.=.XXoX XoXf. .&.n m 5.t.7.t.e.@.@...n n z j j F XXoXXXoXf. .$...=..X+XOXoX].5.t.7.u.*.#.#.;.",
"4.X.=.*.u y y < l =.=.=.O.XX2X;X2X&Xi.s.y.i.;.b n D n t.y.9.d.F > s y y &.=.=.=...> u r , @.=.=.4.>.y.7.t.t.:.b m m v t.t.7.y.5.X.=.=.=.t.).i.!.",
"4.$.$.&.i i y u z =.=.=.O.XX<X>X,XoXy.d.i.d.;.b n b n p.d.i.j.%.p < i t &.$.=.=...y y i t n :.=.$.-.y.s.d.d.>.l n b c t.d.d.d.7.=.$.$.=.t.d.y.d.",
"4.=.=.&.u y y < l =.=.=...XX:X-X,X+Xi.d.t.i.;.b F n ..t.y.y.d.#.> s s > :.=.=.=. .y p y > n =.=.X.-.d.d.y.d.-.z m F n p.y.s.i.7.X.$.=.=.t.d.i.E.",
"2.X.=.&.u > < > l -.O...O.XX2X;X<X+Xi.s.i.d.;.b F n F p.y.d.d..., < > y F =.=.=. .< u y r n =.=.=.2.t.i.i.d.>.b n S n t.y.d.d.7.O.-.X.O.t.j.i.d.",
"X.m m ..`.}.].{.!.t.t.y.t.8.8.8.u.u.=.>.-.=.n i u d i %.#.#...y.#X{.}.}.y.5.t.t.>. ...@.@. . ...F  .>.>.-.>.D u d i u =.5.-.=.f.XX XXX+X*.j c b ",
"@.b Z F ;X<X<X3XOXt.d.s.i.=.$.$.=.$.&.=.X.=.l < y < y b n b x !.4X<X<X<X!.s.i.i.t.=.-.=.=.@.b b b m X.=.=.=.n < y y p $.=.$.X.f.3X;X<X2XF > 1 y ",
"@.n b m %X*X,X-X.Xt.i.i.i.=.O.=.=.X.$.=.X.=.l p p y y D n n j i.:X-X-X;XQ.y.i.i.t.=.=.$.=...n n n F =.=.=.-.n y s t d ..=.4...g.:X;X-X<X#.< s y ",
"n G b m -X;X,X2XoXt.i.i.i.-.-.-.-.=.=.=.-.=.z < y y y b b @.n g.2X;X:X:XQ.i.d.i.t.=.$.=.=...z b b n =.=.=.=.n < y y y ..O.=.X.g.<X:X;X<X#.> p y ",
"#.S b F .XXX.XXX`.t.t.t.y.=.$.$.#.$.$.$.$.$.b l l j b S z l j y.-X+X%XoXi.t.t.t.>.....&.#.#.#.#.#. .=.$...=.@.b D S D &.$.....y.>X+X+X-X#.t s i ",
"4.=.=...u y u r b =.=.=.=.j u y u u b n n F >.s.p.s.r.i u i u n =.X.O.=.n b n n b y y y u ;.i.u.i.p.n b F z g.eX,X;X&Xb < s < F i.i.y.i.F b S F ",
"2.X.=.=.y 1 y < b =.=.=.:.x < p y s D F b b -.d.s.i.p.u y y < S =.=.=.=.n S b b z y s p > >.d.y.i.u.n b b j g.2X=X;X;Xb < y p F i.y.y.i.%.n b n ",
"2.#.X...s y , y j =.X.X.=.u < y y i b n F b =.y.y.y.p.u < y < b =.&.$.X.n z n n z , y y > ;.d.t.y.5.c n n j g.2X*X>X*Xb < , y b y.t.i.i.F k z n ",
"6.=.3.2.s i j y F 3.2.2.3.z u i u z @. .#.F 7.!.E.!.s.l i l u n 6.4.3.3.$.@.@...n i s l u >.!.Q.!.d.#.@. .n ~.5X5X5X5XD u j y %.!.Q.Q.Q.:. .@.#."
};
