/* XPM */
static char *_49072d8a5764808d4d18eae6803db542ASofk5DDiA67Z33[] = {
/* columns rows colors chars-per-pixel */
"72 72 231 2 ",
"   c #1E301A",
".  c #23351B",
"X  c #273A1C",
"o  c #2A3D1E",
"O  c #213315",
"+  c #2B3E20",
"@  c #2E411F",
"#  c #30421F",
"$  c #2E4221",
"%  c #2C4822",
"&  c #324523",
"*  c #3A4B29",
"=  c #364C26",
"-  c #3A5C2D",
";  c #3A5429",
":  c #3B5E34",
">  c #3D632D",
",  c #3F6628",
"<  c #3E6432",
"1  c #3E6339",
"2  c #42562C",
"3  c #4A5D34",
"4  c #495B35",
"5  c #42652E",
"6  c #42692D",
"7  c #416634",
"8  c #436A34",
"9  c #486E36",
"0  c #416639",
"q  c #446B3A",
"w  c #496E3A",
"e  c #4E6138",
"r  c #52633B",
"t  c #526639",
"y  c #4B7335",
"u  c #4D743B",
"i  c #4E793A",
"p  c #4D7636",
"a  c #517636",
"s  c #527B36",
"d  c #51763C",
"f  c #537B3C",
"g  c #597D3E",
"h  c #59703C",
"j  c #7C6D34",
"k  c #6F5A2C",
"l  c #486D41",
"z  c #4D7243",
"x  c #4D714B",
"c  c #527541",
"v  c #547C41",
"b  c #5A7E43",
"n  c #5A7846",
"m  c #627A44",
"M  c #9A7737",
"N  c #8F6E2F",
"B  c #AB742D",
"V  c #AB732B",
"C  c #B67B31",
"Z  c #A56F2C",
"A  c #CD771F",
"S  c #C67A1F",
"D  c #CC791F",
"F  c #D17B1F",
"G  c #CC7722",
"H  c #CD7921",
"J  c #C67922",
"K  c #D17723",
"L  c #D27A23",
"P  c #56813D",
"I  c #5B843E",
"U  c #5E893D",
"Y  c #5A8337",
"T  c #628B3E",
"R  c #60863C",
"E  c #568141",
"W  c #5C8442",
"Q  c #5E8942",
"!  c #5D8349",
"~  c #5E8948",
"^  c #618545",
"/  c #628B44",
"(  c #688E45",
")  c #63864A",
"_  c #648B4A",
"`  c #6A8D4B",
"'  c #6A874F",
"]  c #659144",
"[  c #6A9246",
"{  c #669249",
"}  c #6B934B",
"|  c #6C984B",
" . c #72944E",
".. c #739A4E",
"X. c #77984C",
"o. c #6C8C52",
"O. c #658A52",
"+. c #6D9352",
"@. c #6E9358",
"#. c #749553",
"$. c #799654",
"%. c #759A53",
"&. c #7A9A55",
"*. c #759559",
"=. c #7A965A",
"-. c #769B5A",
";. c #7C9B5A",
":. c #718F50",
">. c #7CA255",
",. c #7DA25A",
"<. c #76A052",
"1. c #7D9B61",
"2. c #7FA760",
"3. c #93913A",
"4. c #A29236",
"5. c #A6A53D",
"6. c #D78926",
"7. c #D99A2B",
"8. c #D79C35",
"9. c #C58931",
"0. c #E6992C",
"q. c #E99E30",
"w. c #E18D29",
"e. c #D9A22D",
"r. c #D7A22C",
"t. c #DCA33A",
"y. c #E1A32D",
"u. c #ECA52E",
"i. c #F2AB2E",
"p. c #F3A42E",
"a. c #EBAD31",
"s. c #E2A836",
"d. c #F3AB31",
"f. c #F5A632",
"g. c #E8B435",
"h. c #F1B834",
"j. c #EAB22E",
"k. c #F5C335",
"l. c #F5CE36",
"z. c #F9CF37",
"x. c #F6CD3A",
"c. c #F9CD39",
"v. c #F8C639",
"b. c #F6D138",
"n. c #F8D239",
"m. c #EFC33E",
"M. c #F6E23F",
"N. c #819D5C",
"B. c #8F8F45",
"V. c #AF9D4C",
"C. c #81A257",
"Z. c #82A45B",
"A. c #85AB5C",
"S. c #89AB5E",
"D. c #84AA55",
"F. c #8CB25C",
"G. c #B1AD4C",
"H. c #839E62",
"J. c #84A462",
"K. c #86AA62",
"L. c #8AAC64",
"P. c #8BAB68",
"I. c #91AF69",
"U. c #8CB264",
"Y. c #8DB36A",
"T. c #93B465",
"R. c #92B56B",
"E. c #95BA6C",
"W. c #99BD6D",
"Q. c #96B965",
"!. c #9BBD71",
"~. c #95B671",
"^. c #8EB171",
"/. c #C3BE4D",
"(. c #D6AD4D",
"). c #F3B242",
"_. c #E5B447",
"`. c #E5BB77",
"'. c #BEC257",
"]. c #9CC26C",
"[. c #9DC272",
"{. c #A2C66E",
"}. c #A6CA6E",
"|. c #A3C673",
" X c #A5C974",
".X c #A9CC75",
"XX c #A4C57A",
"oX c #A6CB7A",
"OX c #AACD7A",
"+X c #A8C777",
"@X c #ADD17C",
"#X c #ADD376",
"$X c #B1D47D",
"%X c #B3D879",
"&X c #C6C050",
"*X c #D5CC46",
"=X c #EFCB46",
"-X c #F8D641",
";X c #EECD4E",
":X c #FAE446",
">X c #F5EB43",
",X c #F7E549",
"<X c #F9E64A",
"1X c #F9E84A",
"2X c #F7E747",
"3X c #F5EA55",
"4X c #CBD072",
"5X c #F4EA62",
"6X c #F8F363",
"7X c #FCFE7F",
"8X c #F7FC7B",
"9X c #EFE06B",
"0X c #EEDF6B",
"qX c #ACBE92",
"wX c #AACD81",
"eX c #ADD181",
"rX c #B3D483",
"tX c #B5D884",
"yX c #B7CF90",
"uX c #FDFE81",
"iX c #F6FF80",
"pX c #FBFE9C",
"aX c #CCD8AF",
"sX c #D9E4BA",
"dX c #F6EFB0",
"fX c #F6F3A9",
"gX c #CAD696",
"hX c #FBFFCD",
"jX c #F8FCC2",
"kX c #F6FED3",
"lX c #FAFFD3",
/* pixels */
"~ P f ) @XtXOX%XQ./ [ ] } y 9 q 8 y E P P I P E E W E >.C.Z.;.!.%X#X%X#X_ b E E ~ [ ] ] [ c 8 9 0 c &.;.;.K.o.w u 8 6 / _ { ] I 8 z c z } } } } ",
"P i i b W.|.XX XU.I / U / 9 7 7 7 9 b d d d d f d y f -.&.;.#.L.}. X|.|.W i s p g / Q T / u < 8 < q #.;.;.Z.O.l w l 8 Q / Q U d : 9 9 w _ } +._ ",
"P d d W  X.XoX@XT.Q / / _ 9 < < < 8 v d d d d d d d g #.$.;.#.L.@X.XOXOX/ d f d f / / / / u 7 8 < w $.;.;.N.' z c x u ~ U U / v < 0 8 q ` +.} +.",
"Q b d g U.E.E.W.Z./ / / _ i 9 9 9 y W W B.t.t.t.t.t.t.s.s.8.C C V.E.E.R./ d f b E ~ ~ Q / u 7 8 < u J.K.K.L.o.z c z c @.#.} ` ^ d c v b O.O.` ` ",
"{ / / ~ 9 7 7 7 n ;.&.&.;._ / / / ( -.%.V.f.i.i.f.f.f.f.f.0.G K N 8 6 9 E / / Q U d f s f q < 8 > d XXOXwXrXJ.n ! ) ^ ;.J.;.;.I.XX|.|.oX_ 8 u z ",
"{ U U ~ 0 q 7 < b ;.$.&.&.( / T / #.J.J.G.).).).).).d.p.f.w.L L N w 8 7 ~ / Q T U d f s g 9 7 7 < y  XOXOX$XJ.u b ^ W ;.J.H.N.I.$X|.{. Xf 7 u z ",
"{ / / Q q 7 6 7 f ;.$.&.&.( / / / qXsXsXdXdXdXdXdXdX`.L 6.w.q.q.6.B B j Q T / / ~ d b f f 9 7 7 < i XX|. X$XK.c b d b *.N.J.H.I..XwXOXOX! 0 7 q ",
"{ ^ / / 7 7 9 : n N.&.;.-./ Q E ~ yXkXkXkXkXkXkXkXkX`.G L w.f.f.0.L K M / T / / Q i b d d q < < < i oXOXeXtXP.n b i c o.$.;.=.^.tXeXOXtXO.0 8 < ",
"~ W I E u i u 9 I } } } } C.S.A.S.gXjXjXjXjXjXjXjXjX`.G K w.i.i.0.L K M b E I P E U I E E W ^ m m ^ *.+.+.-.} _ O.g I J.I.~.!.I.J.Z.Z.J.@.' ' ' ",
"E d s f b f b v g / U U T W.eXOXOX4X5X5X5X5X5X5X5X5X_.K K 0.k.k.a.H K M d i f i E { Q / _ #.&.;.;.} , - : 0 b +.[ } / !.rXeXrX~.d ! b n 1.P.Z.J.",
"P f f d d d d b E / _ _ U E.oX|.OX'.<X<X<X1X1X2X1X1Xg.G K 7.l.l.a.L K M f d b d b / Q / /  .&.$.&.o.8 8 7 q ! } +.` ( !..X.X@XP.b c E E ;.;.;.N.",
"P c d b d d d i E / / / Y E.@X X.X'.3X3X3X3X3X<X2X<Xg.H K 0.x.l.a.H L M d d d f P Q / / U #.;.&.;.+.7 7 7 : b } } +.#.XXOX.X$XP.u u y s *.Z.;.;.",
"E f d d I I I I E Q Q Q / U.aXsXsXfXfXfXfXfXfX(.7.7.e.h.h.h.h.j.a.q.q.8.M M N i P [ T T {  .*.*.*.` 9 8 8 7 b } } ( ` XXwXXXXXK.s b b g ` #. .&.",
"{ Q ~ { !.[.[.|.Z.< q q 8 d aXlXlXlXlXhXlXlXhX(.H A y.z.b.k.i.d.d.d.d.u.J D B 7 ! oX[. XXX_ 5 9 w u ~ Q U / I f ~ ~ ^ ;.H.N.&.Z.[.!.|.[.( s f ! ",
"[ T / ( |.OX X@XZ.> 8 7 8 u aXhXhXhXhXhXhXhXhX(.H H y.z.b.k.d.d.d.i.i.u.G G B > ! @X|. XeX_ > 7 > 8 / / Q T E n ~ b ~ ;.;.*.#.K. X X|.OX/ y d d ",
"{ Q _ { [.oX|..XJ.> q 7 7 d gXpXpXpXpXpXpXpXpX(.D G e.b.b.j.6.6.0.h.v.a.G G B > ~  X.X{.OX/ > 7 7 8 U U ~ / E z E ! ~ ;.N.=.:.S.|.|.{.|.} d d b ",
"{ Q / }  X@X@X$XJ.- 7 7 5 i 4XuXuXuXuXuXuXuXuXt.H A y.z.z.y.H H 7.c.z.h.H G B > ! @X.X.XrX_ > 0 < 9 / / / / E d s W ) ;.J.H.$.L..XOXOXwX` y i d ",
"Q P I Q ,.,.,.A.} u i i i d 4X7XuXuXuXuXuXuXuX(.G A y.z.z.y.G G 7.c.z.h.H A B 9 W E.T.T.E._ i c u u E f s g g ) ) o.o.o.o.o.^ *.U.A.S.U.} W ^ _ ",
"P c v d < > > - u { _ _ _ f 4X7XuXuXuXuX7X7XuXt.H G e.n.z.y.G G 7.-X-Xm.J G B d Q *.=.*.;.} / / ] Q 6 < 7 > W Z.#.;.1.v w w < 9 U U Y R  .;.;.;.",
"E d d p q 7 7 q y / / 7 ; = 4X7XuXuXuXuXuXuXuX(.D G y.z.z.y.H G 7.:X2X=XS G B d I &.;.;.$.} / Q / W 8 0 0 7 b &.=.#.H.n z z q u / ~ / R #.$.$.;.",
"E d f d q 7 8 q y ( / = & o 4X7X7X7XuX7XuXuXuX(.D A y.z.z.y.H G 7.:X2X=XS G B d Q X.#.&.&.} / / / W 8 7 7 < b ;.;.$.1.d w l 0 u / ~ / T #.;.;.N.",
"E c c d 7 7 8 > d / / ; $ o &X6X6X6X6X6X6X6X6Xt.H A y.z.z.y.H G 8.:X2X=XS G B s W ;.*.;.;.} Q / / Q 6 8 8 < W ;. .&.*.d 8 8 < y ( / I T #.&.&.&.",
"/ Q Q / Y.E.R.W.,.d b & o $ /.1X1X1X1X1X1X1X1Xe.H A y.z.z.y.H G 8.,X2X=XS G C #.#.{ / ( ( f 9 q 9 u E Q U U I b b g W ~ Q I b %.].W.W.W.%./ / } ",
"{ Q Q (  X.X.X%XK.i f & X $ &X1X<X<X<X2X<X<X<Xe.H A y.z.z.y.H H 8.,X2X=XS G C ;. .~ / T / u 7 < 7 9 / ( / / I d s d i / T T ^ ,..X X X@X..U / / ",
"[ Q / [ [..X XOXA.d d & o o &X1X<X<X<X<X<X<X1Xe.H A y.z.b.y.H H 8.:X2X=XS G C ;.#./ / Q _ y 7 q 7 9 / / / T Q v f f f ~ ~ _ W >..X|.{.oX..Q / / ",
"} { / [ |..X.XrXS.y d % X @ &X1X<X<X<X<X<X<X1Xe.H A y.z.b.y.H H 8.:X2X=XJ G C ;. .( U U { y > < < 8 ~ E E Q E u d c y / / / / >.eX.X.XOX../ ( / ",
"~ v f I L.U.K.Y.%.f W = o o &X1X<X<X<X<X<X<X<Xe.H A y.z.b.y.G G 7.:X2X=XJ G C ` ` Q Q Q E b d d v g >.&.%.>.} W ) ^ ^ U I Q E } R.U.Y.Y._ f f W ",
"8 0 7 8 i y s s f / Q ; $ . /.1X<X<X<X<X<X<X<Xe.H A y.z.b.j.6.6.s.3X3X;XD G V > 8 f f d a } ;.&.&.Z..X.X.XOXT.#.;.;.;.g d b i P U U U / 8 < > 7 ",
"9 < 7 9 d f f y Q ] U = & . /.1X1X<X<X<X<X<X1Xe.H A y.z.z.k.d.d.=X8X8X9XD G B 7 9 f d d s ` &.;.$.,. X X XOXR.#.&.$.#.b f d f W / / U / y 7 7 q ",
"9 q 7 7 c b f f E / / = $ . /.1X1X1X2X<X<X<X1Xe.H A y.z.z.k.i.i.=X8XiX0XJ G V 7 9 d f f s ` &.&.$.C.|. X|..XT.#.;.&.;.b v b i P / / / _ y < 7 w ",
"6 > 7 7 d d d d E Q U = $ . /.1X1X<X<X<X<X<X<Xe.A A y.b.z.v.h.h.=X5X5X;XJ G V < q f f d d ` ;.;.#.Z. XOXOXOXR.$.$.&.%.g y d s I / ~ / ) u 7 5 8 ",
"+.` ` _ ^ U U P %.E.F.h 4 + /.1X2X<X<X<X<X<X<Xr.H G y.z.b.n.1X<X-Xg.a.q.J G B i d U I ~ ~ g d d c f %.%.%.%.} W ) ^ ^ K.R.U.Y.-.b I Y I ^ ` _ o.",
"Z.;.&.&._ / / Q ,.@XOXm r & /.<X<X1X<X1X1X1X<Xr.H H y.z.z.n.1X1X-Xa.f.q.A G B b f / ] / / i > < < 7 ~ Q U Q E d s f s [.$XOXrXU.i i f d #.;.;.Z.",
"Z.#.&.&./ Q / I >..X{.m t & B.G.G.*X:X:X:X:X:Xs.6.6.y.h.h.z.:X2Xx.u.q.8.M M N f P / Q Q _ i 8 8 8 9 / / / / E v d c E W..X X.XA.i f f d } ;.#.;.",
"Z.#.&.%._ / { Q ,.@X Xm r & X o o 4.z.z.z.z.z.z.c.c.y.D A e.l.l.j.F A Z s d y u f / U / _ y > 7 < 9 / T T T I d d u d W..X X@XP.v f f v +.&.&.Z.",
"&.#.#.#.W E W f %.|.W.n 3 & o o + 4.z.z.z.z.z.z.c.z.s.H H 7.z.z.a.L A Z ( / / _ _ Q Q Q ~ d 9 u q y ~ Q Q Q / _ / ` ( R.W.W.[.,.u d d u _  . .#.",
"} / / ^ 8 8 8 > b &.&.3 * & $ $ & 4.b.b.b.b.b.b.b.b.s.H H 0.v.v.a.L A N R.@XoXoXU.i d d f Q / / / ~ f d f d ,.wXoXoX|.[ U U ( I 7 7 8 < d g s g ",
"{ Q T ) 8 7 0 < n ;.;.4 * & $ $ & 5.>X>X>X>X>X>X>X>Xg.A L w.i.i.0.L A N W. X|.OXQ.d v f d Q / / / Q d d d u ,.@X}. X.X{ _ / / b 7 0 7 0 u f d f ",
"} Q / _ 7 7 0 7 b ;.&.4 * & @ @ & G.>X>X>X>X>X>X>X>Xg.H H 6.p.i.0.L K N E.}.XXoXU.y d f d E / / / Q f v f d ,..X{. X{.[ _ U ] b 7 q 7 0 u f d f ",
"} / / _ < > > - d N.&.4 * & % & & 3./.&X*X:XM.:X:X:Xg.6.6.6.u.u.6.Z Z k E.#XoX@XT.d d b d Q / / / / i d f y ,.tXOX@X@X{ ~ U T d - < > < y d d f ",
"v y d d &.>.;.;.-.^ / 7 - = + o X $ & & M h.h.h.h.h.d.p.p.w.F L N 2 2 2 Z.T.S.I.;.8 u w 9 ^  .[  .` I E P Q _ @.+.@.`  . .+.} #.C.&.&.Z.` ` ( } ",
"8 1 0 q wX@XOXtXD.u c d c 8 %     O o X N i.f.f.f.f.i.f.i.0.H G N ( _ ^ #.#.X.&.` 5 7 < 5 ` ;.;.;.#./ / _ _ y - > - 6 o.;.;.%.L.eX@XwXOXK.;.;.;.",
"w 7 8 9 [. X XoXL.y f f E 8 % . . . X X j 8.8.8.8.8.t.8.8.9.V V j Q / / #.$.;.;.` < 8 w 7 ) ;.;.;.#.T / I / f q q 0 8 *.;.&.$.S.OX X X.XC.#.&.;.",
"8 7 > 8 [..XoXOXA.i d d d 7 %     . + X X . 2 t e e 3 o X + X o - T T T %.&.&.N.` 0 7 0 > _ ;.&.&.%.T / / / d < < 0 7 *.$.&.$.S.OX X X.XZ.$.;.;.",
"u w 9 u !.|.|..XA.f E W ^ w & . . . + o o o ; e 3 e 4 @ o o o + ; Q Q / #.#.*.*.` q 7 9 8 _ %.%.%.+./ / / / d 7 9 7 8 +.&.&. .K.XX|.|.|.Z.*.%.%.",
"{ Q Q ^ &.&.;.&.P. X|.|.|.C.e * * * e 3 3 e * @ & # & & * * * $ = b d d 9 8 w w u ^ ~ / Q E f f f W %.&.#.%._ i d c d ^ / / ^  .&.;.&.>.( _ / ] ",
"{ / / _ X.&.=.$.L..X X.X.XZ.h 3 4 4 e e e t * @ & $ & * * 2 3 ; - d d v 9 0 0 < w / / / / I d b d f &.;.;.,._ d b d f / / / / } #.$.#.&.( _ Q ( ",
"] Q T _  .;.;.#.S.OX|. XOXZ.#.*.o.n t e 3 t * @ $ @ $ * * t $.^ a f f d 8 8 7 8 u / / Q _ f d b i I &.$.$.&._ v f v f Q Q Q Q ( ;.;.&.&./ _ U ] ",
"[ _ / /  .$.=.} P.@X X.X@XS.&.;.&.m t t r r * o & $ & * * c ;.^ i i y p 7 0 7 < u U I I Q g d d d b &.;.1.;./ y y a i / { / ( +.;.;.&.&.( / ] { ",
"E f g I L.S.K.T.L.L.S.A.U.` ^ ) ^ t 3 3 3 3 ; = * * = = & 5 W ( %.;.&.%.c w y 8 b ,.Z.Z.J._ f E E W ( ( ` / } &.-.&.%.I p s s Q  .#.}  .E d f f ",
"8 < < q XX.XOX$XF.I / I ~ 8 > < > 8 Q I I U } &.;.X.;.7 < l - -.$X.XOXOX_ u b d +.@X@X.X@X>.T / / Q p d d u ,.@XOXOXeXc 1 q > y T Q / / u < > 8 ",
"q 8 7 q [.}. XoXU.I { Q ` u 7 q 0 u _ / / /  .&.=.$.*.8 , q < *.@X}.{. XQ d f y `  X|.{.OX&.I / / ~ E P d u >..X|. X].d 0 8 7 i / / / / u < < q ",
"q 5 7 9 [.}.OXoXR.I / Q _ y < 0 7 y / U U Q  .&.N.;.*.9 , 8 - *.@X X X|.~ d d y +.OX X|.@X>.U / / ~ i d f u ,.@X|.OX}.d < 8 < u / Q U / u < 7 q ",
"y 7 7 u !..X X XF.T / / / y 6 8 7 y Q / / _  .X.#.&.*.q 7 q < %..X|.oX|._ d s f _ oX X XoX<.Q / / ~ P s f d ,.OX X|.|.v 0 9 7 d T / / / y 8 8 8 ",
"/ ~ U Q Z.C.;.K. .s f f E I Q ~ ~ P E P g f Q ] ( ( } E.W.E.!.A.( } [ [ ` *.#.*.#.} } } +.d 8 9 q c W.].W.[.Z.{ } [ [ U.W.E.!.P. .#.%.%.W i d c ",
"[ / T / #.$.=.&.` d d b d Q / / / ~ d d d v E T Q Q ] oX.X.X$XA.Q Q T T #.N.&.;. .Q Q Q Q y 8 7 < d OX.X X$XA.I U ~ /  X.X X@X~.&.=.;.&.^ d d f ",
"{ / / ( #.;.;.=.` i E d d Q / / / Q b d f f W _ / T [ |.|.{.oXK.U / / / *.#.&.;. ./ / Q _ y 7 7 < c  X XoX.XC.~ / / / [. X{. XR.#.=.&.&.W d d f ",
"{ ~ / / &.&.&.Z.[ d d c b E ~ Q I I d f d s E _ / / { |.OX.X@XA.Q T T ( %.&.;.;.#.T T / { y < 0 < i .X.XoX$XA.I / / / !.OXOX@XE.&.N. .;.W d f d ",
"{ Q / / ` ' o.o.^ f I g g } <...<...I W Q / ~ ~ / E / E.W.T.W.>.f ~ f g } #. .#.+.E E I f d i y y b E.W.E.W.>.P Q I / R.!.Q.E.P.} #. .%.^ W W ) ",
"{ U / ^ 8 7 7 < u / / / T E.@X X@X[.&.;.%.&.) d d v f #.$.X.;.b > q 7 7 ~ / / / I > 8 5 , E / / { ` &. .#.#._ d g g s #.#. .&.} U / / / #.H.&.Z.",
"{ Q Q ~ 9 9 7 8 i / / / T E.OX XOXE.$.;.&.;.) d f d f *.;.$.1.! 0 < 9 6 ~ Q / / I 7 7 9 6 f _ / Q ` $.;.;.;.` u f d a #.;.;.;. ./ Q Q / #.;.&.;.",
"{ / / ~ 8 7 7 < u / / / I E..X|.OX!.&.&.$.;.) d b d I #.$.$.;.W > q q > _ / / / P 7 0 7 > f / / U / ;.;.&.;.( i g b f *.$.;.&. .U Q / / #.;.&.N.",
"{ U / ~ 8 > < > u ( T I T E.@X XOXW.&.;.&.;._ d b d b *.%.;.;.I , < > 7 b / / / I < 8 7 5 f / / / ] #.&.&.;.` d d c f #.%.;.;.} T ( U T #.1.&.;.",
"U g g I K.Y.P.U.Z.#.#.%.#.......%.%./ ` ( / f 9 8 9 9 ! W W I %.^.U.Y.Y.%.} #.#.` I I E E P P I b P ` ` ( ` v 8 9 9 8 / } ( / >.E.T.E.!.^ y a d ",
"E d z b  XOXOX#XQ.#.;.;.&./ Q Q / Q ~ / U / u < 7 < 7 d f d u Z.$XOXOXOXZ.;.&.&.#./ ( / / E d d d g U / ~ / d < 7 7 0 Q / Q U >.#X XOX@Xb > 1 7 ",
"E d d g ].}.oX|.R.#.&.&.&./ T / / U Q / U / u 0 0 7 7 v f f y &..X|.|. XZ.$.&.&.#./ / Q / I d f f b / / / ( d 7 q 6 9 I / { I ,..X X|.OXW < q 7 ",
"f n d g |..XOX@XE.#.&.&.&.( ( / ( / / / ( / i < 7 7 7 d d E d ,.@X X.X.XZ.&.;.&.#./ Q / / I i d d f / / / / d < 7 7 7 I T / U ,.OX.X XOXW > 0 7 ",
"I c d b R.E.R.E.K.#.#.#.%./ Q Q W Q Q Q Q Q d u u y d c i u y %.|.!.].W.&.#.#.#.` I I ~ W W W W W I / Q U / E d v c v ~ Q I I %. X!.!.|.W 6 q 9 ",
"{ / / I 8 7 8 5 d / / / / y 8 7 8 8 d f d b ` -.*.;.@.9 8 9 7 f / U T / d d f f d 7 7 7 8 ) &.%.&.*.d d b i ,.eXoX.X[.d < q < n &.&.&.&.b d c b ",
"{ U / / 7 1 7 < d / / / _ u < 0 7 q v b d d ( ;.;.&.*.8 7 7 < c / / / / f c d d i 7 q 0 > ` ;.&.&.%.f d d y ,.@X{. X.Xd < 7 0 n &.$.$.&.! f d f ",
"] E U I q 7 , 7 y / U U / 8 < 7 7 9 d d b d / &.$.&.*.8 < 7 < d / ~ Q U d i d f i , 7 7 > ) ;.#.$.} a d f y ,.@X{.XX{.d < , 7 f &.#.&.&.b p i f ",
"| / { ] q 9 y 7 b [ ] ] [ i 9 9 8 i E P W b  .Z.N.Z.;.u 9 u 8 f | { [ [ Q E E I f 9 q u 8 ` Z.C.Z.;.W E P f A.%X%X%X%Xv 8 y 7 ! Z.Z.C.C._ I E E "
};
