/* XPM */
static char *b4b96dd22e6c44369a94bf6a3ea7b096JJC9r0sSabrbG8Zp[] = {
/* columns rows colors chars-per-pixel */
"72 72 240 2 ",
"   c #1E301A",
".  c #23351B",
"X  c #26391C",
"o  c #2A3D1E",
"O  c #213315",
"+  c #2B3E21",
"@  c #2E411F",
"#  c #30421F",
"$  c #2F4221",
"%  c #314423",
"&  c #3B4B2A",
"*  c #394B26",
"=  c #3A5C2D",
"-  c #38572B",
";  c #3B5E34",
":  c #3D632D",
">  c #3F6628",
",  c #3E6432",
"<  c #3E6339",
"1  c #494521",
"2  c #544D25",
"3  c #504723",
"4  c #4A5C36",
"5  c #515229",
"6  c #665126",
"7  c #41652E",
"8  c #42692D",
"9  c #416633",
"0  c #436A34",
"q  c #4A6C35",
"w  c #416639",
"e  c #446B3A",
"r  c #4A6E3A",
"t  c #4D6237",
"y  c #52643B",
"u  c #516536",
"i  c #4C7335",
"p  c #4F7835",
"a  c #4D743B",
"s  c #4E793A",
"d  c #467039",
"f  c #517636",
"g  c #527B36",
"h  c #52763C",
"j  c #537B3C",
"k  c #597D3D",
"l  c #696932",
"z  c #657D3E",
"x  c #796932",
"c  c #486D41",
"v  c #4D7243",
"b  c #4D714B",
"n  c #527541",
"m  c #547B41",
"M  c #5A7E43",
"N  c #5B7945",
"B  c #627D45",
"V  c #737E6A",
"C  c #877131",
"Z  c #B67C32",
"A  c #805E25",
"S  c #CB791E",
"D  c #CC771F",
"F  c #D17A1F",
"G  c #CC7723",
"H  c #C77921",
"J  c #CB7923",
"K  c #CA7A2A",
"L  c #D17A22",
"P  c #D17725",
"I  c #56813D",
"U  c #5B833E",
"Y  c #5E893D",
"T  c #5A8337",
"R  c #628B3E",
"E  c #63833E",
"W  c #7F833F",
"Q  c #568141",
"!  c #5C8442",
"~  c #5E8942",
"^  c #5D8349",
"/  c #5E8948",
"(  c #618545",
")  c #628B44",
"_  c #688E45",
"`  c #63854A",
"'  c #648B4A",
"]  c #6A8D4B",
"[  c #69854A",
"{  c #748C49",
"}  c #659144",
"|  c #6A9246",
" . c #669249",
".. c #6B934B",
"X. c #6C984B",
"o. c #72944E",
"O. c #739A4E",
"+. c #77984C",
"@. c #6C8D52",
"#. c #648952",
"$. c #6D9352",
"%. c #6E9358",
"&. c #749553",
"*. c #799754",
"=. c #759A53",
"-. c #7A9A55",
";. c #759559",
":. c #7A965A",
">. c #769B5A",
",. c #7C9B5A",
"<. c #718F59",
"1. c #7CA255",
"2. c #7DA25A",
"3. c #76A052",
"4. c #7D9B62",
"5. c #7FA760",
"6. c #98813B",
"7. c #B7823B",
"8. c #CE831F",
"9. c #CC8721",
"0. c #CD8729",
"q. c #DA8B26",
"w. c #D88827",
"e. c #DA952A",
"r. c #D99529",
"t. c #CE8F36",
"y. c #E28E2B",
"u. c #E5972A",
"i. c #E49C3F",
"p. c #D9A131",
"a. c #DAA53B",
"s. c #CFBE3F",
"d. c #E8A82E",
"f. c #F3AB2E",
"g. c #F5A62E",
"h. c #F1B42E",
"j. c #E7AB34",
"k. c #F4A632",
"l. c #F4AA31",
"z. c #F8A735",
"x. c #EFBC35",
"c. c #EAB435",
"v. c #F1BB33",
"b. c #F1B633",
"n. c #EBB52F",
"m. c #EBC43E",
"M. c #EFC035",
"N. c #F4CD36",
"B. c #F6CC39",
"V. c #FACC3A",
"C. c #F8CB38",
"Z. c #F7D036",
"A. c #F6D139",
"S. c #F9D43B",
"D. c #F2EE3E",
"F. c #86924E",
"G. c #819D5C",
"H. c #859752",
"J. c #93974E",
"K. c #81A257",
"L. c #82A45B",
"P. c #85AB5C",
"I. c #89AB5E",
"U. c #87A85A",
"Y. c #8CB25C",
"T. c #9EA35A",
"R. c #839E62",
"E. c #849077",
"W. c #84A462",
"Q. c #86AA62",
"!. c #8AAC64",
"~. c #8BAB67",
"^. c #93AE67",
"/. c #8CB264",
"(. c #8DB26A",
"). c #8FB86A",
"_. c #93B465",
"`. c #92B56A",
"'. c #95BA6C",
"]. c #99BD6D",
"[. c #96B965",
"{. c #9BBD71",
"}. c #95B671",
"|. c #8DA973",
" X c #A1AF68",
".X c #D3B043",
"XX c #D6934B",
"oX c #9CC26C",
"OX c #9DC272",
"+X c #A2C66E",
"@X c #A6CA6E",
"#X c #A3C673",
"$X c #A5C974",
"%X c #A9CC75",
"&X c #A4C57A",
"*X c #A6CB7A",
"=X c #AACD7A",
"-X c #A8C777",
";X c #ACD17C",
":X c #ADD376",
">X c #B1D47D",
",X c #B3D879",
"<X c #B2CB74",
"1X c #BBC14E",
"2X c #D0CE4F",
"3X c #FADB41",
"4X c #E2DA55",
"5X c #E5DC5A",
"6X c #E7CB45",
"7X c #F6E743",
"8X c #F7E74B",
"9X c #FAE74A",
"0X c #F7E94B",
"qX c #F9E84A",
"wX c #F7E945",
"eX c #F8E756",
"rX c #F5D67F",
"tX c #FAF76D",
"yX c #FCFF7F",
"uX c #FBF572",
"iX c #EEE76D",
"pX c #CACA79",
"aX c #AACD81",
"sX c #ADD181",
"dX c #B3D483",
"fX c #B5D884",
"gX c #B0CF81",
"hX c #EFD586",
"jX c #E7EC83",
"kX c #F6EF81",
"lX c #FCFE81",
"zX c #F6F387",
"xX c #FAFDAE",
"cX c #E4EBAB",
"vX c #D2D7A0",
"bX c #F7FDCE",
"nX c #FAFDCC",
"mX c #FAFFD2",
"MX c #F7FED4",
"NX c #E6EEC8",
/* pixels */
"/ I j ` ;XfX=X,X[.) | } ..i q e e i Q I I U I Q Q ! Q -.K.L.,.{.,X:X,X:X' M ! Q / |  .} | n e q w n -.,.,.Q.@.r a e 8 ) '  . .U 0 v n v ........",
"I s s M ].#X&X$X/.U ) Y ) q 9 9 9 q M h j j j j h i j >.-.-.&.!.@X$X#X#X! s g p I ) ~ R ) d , 0 , e &.,.,.L.#.c r c 0 ~ ) ~ Y j , r r r ' ..$.' ",
"I h h ! $X%X*X;X_.~ ) ) ' q , , , 0 m h f k k z z z E H.H.H.F.^.<X%X=X=X) f j h j ) ) ) ) a 9 0 , r *.,.,.G.` v n b a / Y Y ) m , 9 0 e ] $...$.",
"~ M j k /.'.'.].L.) ) ) ' s q q q i ! ! z Z Z 0.a.a.a.a.a.a.a.a..X'.'.`.) j j M Q / / ~ ) a 9 0 , a W.Q.W.~.@.v n v n %.&...] ( h n m M #.#.] ] ",
" .) ) / q 9 9 9 N ,.-.-.,.' ) ) ) _ >.>.F.J J w.l.l.f.l.l.g.l.f.p.9 8 q ! ) ) ~ Y h h g j e , 0 : h &X=XaXdXW.M ^ ` ( ,.W.,.,.(.&X#X#X*X` e a v ",
" .Y Y / w e 9 , M ,.*.-.-._ ) ) R _ ,.*.F.K L q.k.k.k.b.h.h.h.n.a.h a 0 / ) ~ R Y j h g k r 9 9 , i &X*X*X>XW.a M ( ! ,.W.R.G.^.>X#X+X$Xj 9 a v ",
" .) ) ~ e 9 8 9 j ,.*.-.-.) ) ) ) { Z K 0.g.g.u.F L r.9X7X9X7X9X7X4X4X1X) R ) ) / h M j j r 9 9 , s &X#X&X>XQ.n M j M ;.G.W.R.^.%X=X*X=X^ w 9 e ",
" .( ) ) 9 9 q ; N G.-.,.>.) ! Q ! W J F w.g.g.u.L J r.qXwXwXwXwXD.wXwX2X) R ) ) ~ s M j j e , , , s *X=XsXfX~.M M s n @.*.,.:.}.fXgX=XfX#.w e , ",
"/ ! Y Q d s a r U ........K.I.P.I.J.J F w.h.h.u.L J r.9X7X7X7X7X7X7X7X2XQ ~ U I ! Y U ! Q ! ( B B ( ;.$.$.>...' #.k U W.^.}.{.(.W.L.L.W.<.@.] @.",
"Q f g j M j M m k ) Y Y R ].sX=X;XT.J F q.C.C.j.J J w.A.A.A.A.A.A.A.A.s.j s h s Q ' ~ ) ' &.-.,.,...> - ; w M $.| ] ) {.dXgXdX}.h ^ M N 4.~.L.W.",
"I j j j h h h M Q ) ' ' Y '.*X#X=XJ.J F q.N.N.j.S J q.V.V.V.V.V.V.V.V..Xk h M h M ) ~ ) ) o.=.*.=.@.0 e 9 e ^ ..$.] _ {.%X%X;X~.M h Q Q ,.,.,.G.",
"I n j M h h h s Q ) ) ) T '.;X@X%XJ.K F r.N.N.n.8.S q.V.V.V.A.A.B.B.B..Xj h j j I ~ ) ) Y &.,.-.,.$.9 9 9 ; M ....$.&.&X=X%XdX~.a a i g ;.L.,.,.",
"! j h j U U U U Q ~ ~ ~ ) /. X7.Z t.k.k.v.9XqXS.V.B.x.S S 9.eX9X9X9X9X8X5X4X2Xk I | R R | o.;.;.;.] q 0 e 9 M ...._ ] &XaX&X&XQ.g M M k ] &.o.-.",
"} ~ /  .{.OXOX#XL., e e 0 h l G D w.l.f.M.9XqX3XV.V.v.D P 9.9XqX0X0X8X9X9X9X4Xa ^ *XOX$X&X' 7 q r a / ~ Y ) U j / / ( ,.R.G.-.L.OX{.#XOX_ g j ^ ",
" .R ) _ #X=X$X;XL.: e 9 0 s l G H w.j.j.M.9XqX3XZ.A.v.S G 9.9X9XqXqXqX9XwX0X4Xq ^ ;X#X$XsX' : 9 : e ) ) ~ R Q N / M / ,.,.;.&.Q.$X&X#X=X) i h h ",
" .~ ' | OX*X#X%XW.: e 9 9 h l H H .XuXuXeXn.c.v.Z.Z.x.S D 9.9X8XqXqXqXqXwXqX4Xq / $X%X+X=X) : 9 9 q Y Y / ) Q v ! ^ / ,.G.:.o.U.#X#X+X#X..h h M ",
" .~ ) ..$X;X;X>XW.= 9 9 9 a l G G .XlXlXiXh.f.v.N.N.x.S G 9.9X8X9X9X9XqXqXqX4Xq ^ ;X%X%XdX' : w , q ) ) ) ) Q h g ! ` ,.W.R.*.~.%X*X*XaX] i s h ",
"~ I U ~ 2.2.2.P...d s s s j l G G .XyXyXeXl.l.v.B.Z.v.S G 9.9X8X9X9X9X9XqXqX4Xh ! ]._._.'.' s n a a Q j g k k ` ` @.@.@.@.@.( ;./.P.I./...! ( ' ",
"I n m h , : : - a  .' ' ' U l G H p.eXeX6Xw.w.e.B.Z.v.S G 9.9X8X9X9X9X9X9X9X4XU ~ :.:.;.>...) ) } ~ 8 , 9 : ! L.&.,.4.m r r , q Y Y T E o.,.,.,.",
"Q j h p e 9 9 e i ) ) f * @ 2 G H p.9X9X6XJ G e.B.Z.v.S G 9.9X8X9X9X9X9X9X9X4XU U -.,.,.*...) ~ ) ! e w w 9 M -.:.&.R.N v v e d ) / ) E &.*.*.,.",
"Q h j j e 9 9 e i _ ) i % o 2 G H p.9X9Xm.J G e.B.Z.v.S G 9.9X9X9X9X9X9X9XqX4XU ~ +.&.-.-...) ) ) ! e 9 9 , M ,.,.*.4.h r c e d ) / ) R &.,.,.G.",
"! n n h 9 9 0 : h ) ) r $ o 2 G H p.9X9X6XJ G e.B.Z.v.S G 9.9X9X9X9X9X9X9XqX4XE ! ,.;.>.,...~ ) ) ~ 8 0 e , ! ,.o.-.;.h 0 0 , i _ ) U R &.-.=.-.",
") ~ ~ ) (.'.'.{.2.h M 0 o $ 2 G H p.9X9Xm.J G e.B.Z.v.H G 9.9X9X9X8X9X9X9XqX5X-.&. .) _ _ h q e q a Q ~ Y Y U ! M k ! / ~ U M =.oX].].].=.) ) ..",
" .~ ~ _ $X%X%X,XQ.s j 9 X $ 2 G H p.9X9Xm.J G e.B.Z.x.S G 9.0XqXqXqX0X0X0XqX5XG.o./ ) R ) a , , 9 q ) _ ) ) U a g h s ) R R ( 2.%X$X$X;XO.Y ) ) ",
"| ~ ) } OX%X#X*XP.j h 9 o o 2 G H p.9X9Xm.J G e.B.Z.v.S D 0.tXtXtXtXtXtXtXtXiXG.&.( ) ~ ' i 9 e 9 q ) ) ) R ~ m j j j / / ' ! 1.%X#X+X*XO.~ ) ) ",
".. .) } #X%X%XdXI.i h 7 X @ 2 G H p.9X9Xm.J G e.B.Z.x.S D 0.lXlXlXlXlXlXyXyXjXW.o._ Y Y  .i : , , 0 / ! ! ~ Q a h n i ) ) ) ) 1.sX%X%X=XO.) _ ) ",
"/ m j U !./.Q.(.=.j ! q o o 2 G H p.9X9Xm.J G e.B.Z.x.H D 0.lXlXlXlXlXlXyXlXjX;.] ~ ~ ~ ! M h h m k 1.-.=.1...! ` ( ( Y U ~ ! ..)./.(.(.' j j ! ",
"0 w , 0 s i g g j ) ~ h $ . 3 G H e.3XS.x.J G e.B.Z.x.S J 0.lXyXyXyXlXlXlXyXiXr 0 j j j f ..,.-.-.L.%X%X%X=X_.&.,.>.,.k h M s I Y Y Y ) 0 , : 9 ",
"q , 9 q h j j p ~ ) Y f % . 3 H G e.V.V.c.J G e.B.Z.x.S J 0.lXlXlXlXlXlXlXlXjXh e j j h g ] -.,.*.2.$X$X$X=X`.&.-.*.&.M j h j ! ) ) Y ) i 9 9 e ",
"q e 9 9 n M j j Q ) ) i $ . 3 G G e.V.V.c.D G e.B.A.x.H D 9.lXlXlXlXlXlXlXlXjXh r h j j g ] -.-.*.K.#X$X#X%X_.&.,.-.,.M m M s I ) ) ) ' i , 9 r ",
"0 : 9 9 h h h j Q ~ Y q $ . 3 G G q.b.v.j.u.u.d.N.A.x.H D 0.xXxXxXxXxXxXxXxXcXv e j j h f ] ,.,.&.L.$X=X=X=X`.*.*.=.>.k i j g U ) / ) ` a 9 7 0 ",
"$.] ] ' ( Y Y I =.'.Y.=.4 + 3 G G q.l.f.l.l.f.v.N.V.v.J D 0.nXmXmXnXnXmXmXmXNX^ h Y U / / k f h n j =.=.=.=...! ` ( ( Q.`./.(.>.M U T U ( ] ' @.",
"L.,.-.-.' ) ) ~ 2.;X=XI.y % 2 G H q.l.l.l.j.f.v.Z.V.v.S H t.nXmXmXmXmXmXMXmXNX#.j ) } ) ) s : , , 0 ~ Y Y ~ Q h g j g OX>X*XdX/.s s j h &.,.>.L.",
"L.&.=.-.) ~ ) U 1.%X+XL.u % o 2 2 x q.q.u.v.v.c.e.e.u.c.c.6XkXkXkXkXkXjX|.|.4.M I ) ~ ~ ' s 0 e 0 r ) ) ) ) Q m h n Q ].%X$X%XI.s j j h ..,.&.,.",
"L.&.-.>.' )  .~ 1.;X$XW.y % X o X 2 J L r.N.N.j.L P e.9X8X9X0X0X9X9X9X2Xh f i a j ) Y ) ' i : 9 , q ) R R R U f j a j ].%X$X;X~.m j j m $.-.-.L.",
"-.&.&.&.! Q ! j >.#X].G.4 % o o o 2 K L r.N.N.d.L P e.0XeX0X8X8X8X8X8X2X[ ) ) ' ' ~ ~ ~ / j q d e i / ~ ~ ~ ) ' ) ] _ `.].].OX2.d h j a ' o.o.&.",
"..) ) ( 0 0 0 : M ,.=.B & % $ $ $ 2 K L w.h.v.d.L P t.zXzXzXzXzXzXzXzXpX(.sX*X=X/.s h h j ~ ) ) ) / j h j j 2.aX*X*X#X| Y Y _ U 9 9 0 , f k g k ",
"| ~ R ` e 9 w , N ,.,.B & % $ $ $ 2 K P w.g.g.u.L G XXnXbXbXbXbXbXnXbXvX`.$X#X=X[.h m j j ~ ) ) ) ~ h h h a 2.;X@X$X%X| ' ) ) M 9 w 9 w a j h j ",
"..~ ) ' 9 9 w 9 M ,.-.B & % @ @ $ 2 K L w.k.k.u.L G XXnXbXmXbXbXbXbXMXvX(.@X&X*X/.i h j j ~ ) ) ) ~ j m j f 2.%X+X$X+X| ' Y  .M 9 e 9 w a j h j ",
"..) ) ' , : : = f G.-.[ & % $ % % * 6 6 A y.y.y.y.y.i.rXhXhXhXrXhXE.E.V `.:X*X;X_.h h M h ~ ) ) ) ) s j j i 2.fX=X;X;X| / Y R h = , : , i j j j ",
"m i h h -.1.,.,.>.( ) ! h 0 = X X X X X 1 G J q.z.g.g.f.l.g.g.k.a.7 9 q L._.U.^.,.e a r q ( o.| o.] U ! I ~ ' %.$.%.] o.o.$...&.K.-.-.L.] ] _ ..",
"0 < w e aX;X=XfXU.a n h n 9 -     O o o 1 G J q.k.z.k.z.z.l.l.z.a.' ' ( &.&.+.-.] 7 9 , 7 ] ,.>.>.&.) ) ' ' i = : = 7 @.,.>.=.!.sX;XaX=XQ.,.,.,.",
"d 9 0 q OX$X&X*X!.i j j Q 0 - . . . X o % 6 x C 6.6.6.C C C C C x U ) ) &.*.,.,.] , e r 9 ` >.>.>.&.R ) U ) j e e w 0 ;.>.-.*.U.=X$X$X%XK.&.-.,.",
"0 9 : 0 OX%X*X=XI.s h j h e - .   . + X X . - y t u 4 o X + o o * Y ) ) =.=.-.G.] w 9 w : ' ,.-.-.>.R ) ) ) h , , w 9 ;.*.-.*.U.*X$X$X%XL.*.,.,.",
"a r q d {.#X#X%XU.j Q ! ( r = . . . + o + o 5 t 4 t 4 @ o o o + * ~ ~ ) &.&.;.;.] e 9 q 0 ' >.=.=.$.) ) ) ) j 9 q 9 0 $.-.-.o.Q.&X#X#X&XL.;.=.=.",
" .~ ~ ( -.-.,.-.~.$X$X#X#XL.B & * & t 4 4 y & @ % # % % & & & $ $ j h j q 0 r r a ( ~ ) ~ Q j j j ! >.-.&.=.' s h n j ( ) ) ( o.-.,.-.K._ ' )  .",
" .) ) ' +.=.:.*.~.%X$X%X*XL.{ B N N u t t u & @ % $ % & & & N t 9 h h m e w w , d ) ) ) ) U h M h j -.,.>.2.' j M h j ) ) ) ) ..&.*.&.=._ ' ~ _ ",
"} ~ R ' o.,.,.&.U.=X#X&X=XL.&.,.;.;.y t 4 u & @ $ @ $ & & 5 ,.) j j j j 0 e 9 0 a ) ) ~ ' j j M s U =.*.*.-.' m j m j ~ ~ ~ ~ _ ,.,.-.=.) ) Y  .",
"| ' ) ) o.*.:.{ ~.;X$X%X;XU.-.,.-.-.y u y y & o % $ % & & 4 ,.( s s i p 9 w 9 , d Y U U ~ k j h j M -.>.4.,.) i i f s )  .) _ $.>.>.=.-._ )  . .",
"! j k U !.U.W._.!.!.I.P./.] ( ` ( ] [ ( ` ` h t t q t t 9 t ! _ =.,.-.=.n r i e Q 5.L.L.W.' j Q Q ! _ _ ] ) ..-.>.-.=.U p g g ~ o.&...o.Q h j j ",
"0 , , e &X%X=X>XY.U ) U / 0 : , : e ~ U U Y ..-.>.+.>.9 , c = >.>X%X=X=X' a M h $.;X=X%X;X1.R ) ) ~ p f h a 2.;X=X=XsXv < e : i R ~ ) ) d , : 0 ",
"e 0 9 e OX@X&X*X/.U  .~ ] d 9 e w a ' ) ) ) o.-.:.*.;.e > e , ;.;X@X+X$X~ h j i ] $X#X+X=X-.U ) ) / Q I h s 1.%X#X&XoXh w 0 9 s ) ) ) ) a , 9 e ",
"e 7 9 r OX@X*X*X`.U ) ~ ' i , w 9 i ) Y ~ ~ o.-.G.,.;.q > 0 = ;.;X$X$X#X/ h j i $.=X$X#X;X1.Y ) ) / s j j a 2.;X#X=X@Xh , 0 , d ) ~ Y ) d , 9 e ",
"i 9 9 a {.%X$X$XY.R ) ) ) i 8 0 9 i ~ ) ) ' &.+.&.=.;.r 9 e , >.%X#X*X#X' h g j ' *X$X$X*X3.~ ) ) / I g j f 2.=X$X#X#Xm w r 9 h R ) ) ) i 0 0 e ",
") / Y ~ L.K.,.Q.o.g j j Q U ~ / / I Q I k j ~ _ _ _ ..'.].'.{.P._ ..| | ] ;.&.;.&.......$.j 0 q e n {.oX].OXL.| ..| | /.].'.{.~.o.&.=.>.! s j n ",
"| ~ R ) &.*.:.-.] h h M j ~ ) ) ) / h j h m U R ~ Y | *X%X%X>XP.~ ~ R R &.G.=.,.o.~ ~ ~ ~ i 0 9 , h =X%X&X>XP.U Y / ) $X%X$X;X}.-.:.,.-.( j j j ",
" .) ) _ &.,.>.:.] s Q j j ~ ) ) ) ~ M h j j ! ' ) R } #X#X+X*XQ.Y ) ) ) ;.&.-.,.o.) ) ~ ' i 9 9 , n &X$X*X%XK./ ) ) ) OX$X+X$X`.&.:.-.-.! h j j ",
" ./ ) ) -.-.=.L.| h h n M Q / ~ U U j j j g Q ' ) ) | #X=X%X;XI.~ R R _ =.-.,.,.&.R R )  .i , w , s %X%X*X>XI.U ) ) ) {.=X=X;X'.-.G.o.,.! h j j ",
" .~ ) ) ] ` @.@.( j U k k ..3.O.3.O.U ! ~ ) / / ) ! ) '.]._.].1.j / j k ..&.o.&.$.Q Q U j j s i i M '.].'.].1.I ~ U ) `.{.[.].~...&.o.=.( ! ! ` ",
" .Y ) ( 0 9 9 , a ) ) ) R '.;X$X;XOX-.>.>.-.` f j m j &.*.o.,.M : e 9 9 / ) ) ) U : 0 7 > Q ) )  .] =.o.&.&.' h k k g &.&.o.=...Y ) ) ) &.R.-.L.",
" .~ ~ / q q 9 0 s ) ) ) R '.=X&X*X].*.,.-.,.` h j h j ;.,.*.4.^ w , q 8 / ~ ) ) U 9 9 q 8 j ' ) ~ _ *.>.,.,.] a j h f &.,.,.,.o.) ~ ~ ) &.,.=.,.",
" .) ) / 0 9 9 , a ) ) ) U '.%X#X*X{.-.-.&.-.` h M j U &.*.*.,.! : e e : ' ) ) ) I 9 w 9 : j ) ) Y _ ,.,.*.,._ s k M j ;.*.>.-.o.Y ~ ) ) &.,.-.G.",
"} Y ) / 0 : , : a _ R U R '.;X$X=X{.-.>.-.,.` h M j M ;.>.,.,.U > , : 9 M ) ) ) U , e 9 7 j ) ) ) } &.-.-.,.] h j n j &.>.,.,.o.R _ Y R &.4.-.,.",
"Y k k U Q.(.~./.L.&.&.>.&.O.O.O.=.=.) ] _ ) j q 0 r q ^ ! ! U >.(./.(.(.>...&.&.] U U Q Q I I U M I ] ] _ ] m 0 r q 0 ) .._ ) 1.'._.'.{.( i f h ",
"Q h v M $X=X=X:X[.&.,.>.-.) ~ ~ ) ~ / ) Y ) a , 9 , 9 f j h d L.>X=X=X=XL.>.-.-.&.) _ ) ) Q f h h k Y ) / ) j , 9 9 w ~ ) ~ Y 1.:X$X=X;XM : < 9 ",
"Q j h k oX+X*X#X`.&.-.-.-.) R ) ) Y ~ ) Y ) a w w 9 9 m j j i -.%X#X#X$XL.*.-.-.&.) ) ~ ) U j j j M ) ) ) _ j 9 e 8 r U )  .U 2.%X$X#X=X! , e 9 ",
"j N h j #X%X*X;X].&.-.-.-._ _ _ _ ) ) ) _ ) s , 9 9 9 h h Q h 2.;X$X%X%XL.-.,.-.&.) ~ ) ) U s h h j ) ) ) ) j , 9 9 9 U R ) Y 2.=X%X$X=X! : w 9 ",
"! n h M `.'.`.'.Q.&.&.&.>.) ~ ~ ! ~ ~ ~ ~ ~ f a a i h n s a i >.#X{.oX].-.&.&.&.] U U / ! ! ! ! ! U ) ~ Y ) Q h m n m / ~ U U >.&X{.{.#X! 8 e q ",
" .) ) U 0 9 0 7 h ) ) ) ) i 0 9 0 0 h j j M ] >.;.>.%.q 0 q 0 j ) Y R ) g j j j h 9 9 9 0 ` -.=.-.;.j h M s 2.sX*X%XOXf , e , N -.-.=.-.M h n M ",
"} Y ) ) 9 < 9 , h ) ) ) ' d , w 9 e m M h f _ ,.>.-.;.e 9 9 , n ) ) ) ) j n h h s 9 e w : ] ,.=.-.=.j h h i 1.;X+X$X%Xh , 9 w N -.*.*.-.^ j h j ",
"} ! Y U e 9 > 9 i ) Y Y ) 0 , , 9 q h j M f ) =.*.=.;.0 , 9 , h ) / ~ Y j h j j s > 9 9 : ` ,.&.*...f j j i 2.;X+X&X+Xh , > 9 h =.&.-.-.M p s j ",
"X.) | } e q i 9 M | } } | s 0 q 0 s Q I ! M o.L.G.L.>.a q a 0 j X. .| | ~ Q Q U j q e a 0 ] L.K.L.,.! Q I j P.,X,X,X,Xm e i 9 ^ L.L.K.K.' U Q ! "
};
