/* XPM */
static char *xpm_[] = {
/* columns rows colors chars-per-pixel */
"72 72 235 2 ",
"   c #5A2E1E",
".  c #61301D",
"X  c #552C25",
"o  c #5B2D24",
"O  c #552B29",
"+  c #5E3223",
"@  c #6A3728",
"#  c #733E2B",
"$  c #395D2D",
"%  c #385D29",
"&  c #3B5F33",
"*  c #3D632D",
"=  c #3F6628",
"-  c #3E6433",
";  c #3E6339",
":  c #7E442B",
">  c #78442A",
",  c #6E5131",
"<  c #41662E",
"1  c #42692D",
"2  c #416633",
"3  c #436A34",
"4  c #496E35",
"5  c #416639",
"6  c #456B3A",
"7  c #496D3A",
"8  c #4B7335",
"9  c #4F7835",
"0  c #4D743A",
"q  c #4E793A",
"w  c #467039",
"e  c #517636",
"r  c #527B36",
"t  c #51763C",
"y  c #537B3C",
"u  c #597D3D",
"i  c #536E3A",
"p  c #756238",
"a  c #787C3D",
"s  c #65783A",
"d  c #486D41",
"f  c #4D7243",
"g  c #4D714B",
"h  c #527541",
"j  c #547B41",
"k  c #597E43",
"l  c #597E48",
"z  c #617F47",
"x  c #864A25",
"c  c #82452A",
"v  c #874C2C",
"b  c #944B2A",
"n  c #8D562D",
"m  c #885328",
"M  c #93542A",
"N  c #99582A",
"B  c #985B31",
"V  c #AD542A",
"C  c #A6542A",
"Z  c #B35A29",
"A  c #B25729",
"S  c #A05230",
"D  c #966A37",
"F  c #A56534",
"G  c #B87938",
"H  c #AB6932",
"J  c #C7682E",
"K  c #C66C34",
"L  c #C77738",
"P  c #D97534",
"I  c #DA722F",
"U  c #E07B32",
"Y  c #BE7A44",
"T  c #56813D",
"R  c #5B843D",
"E  c #5E893D",
"W  c #5A8337",
"Q  c #628B3E",
"!  c #64853D",
"~  c #7E853F",
"^  c #568141",
"/  c #5C8442",
"(  c #5E8942",
")  c #5D8349",
"_  c #5E8948",
"`  c #618545",
"'  c #628B44",
"]  c #698D45",
"[  c #63864A",
"{  c #648B4A",
"}  c #6A8D4B",
"|  c #6A874F",
" . c #798946",
".. c #659144",
"X. c #6A9346",
"o. c #669249",
"O. c #6C934B",
"+. c #6C984B",
"@. c #72944E",
"#. c #739A4E",
"$. c #78974C",
"%. c #6C8D52",
"&. c #658852",
"*. c #6D9352",
"=. c #6E9358",
"-. c #749553",
";. c #799654",
":. c #759A54",
">. c #7A9A55",
",. c #759559",
"<. c #7A965A",
"1. c #769B5A",
"2. c #7C9B5A",
"3. c #718F59",
"4. c #7CA255",
"5. c #7DA25A",
"6. c #79A255",
"7. c #7D9B61",
"8. c #7FA760",
"9. c #80873E",
"0. c #C8873B",
"q. c #D2893D",
"w. c #D8963D",
"e. c #EA9C37",
"r. c #E69B3B",
"t. c #E99C3A",
"y. c #EA953F",
"u. c #E38C3E",
"i. c #EDA33D",
"p. c #ECAA3E",
"a. c #F5CA3E",
"s. c #848A44",
"d. c #888942",
"f. c #8C984A",
"g. c #989A49",
"h. c #819D5C",
"j. c #8C9852",
"k. c #989A53",
"l. c #A58D43",
"z. c #A89546",
"x. c #B39648",
"c. c #AE9E54",
"v. c #81A257",
"b. c #82A45B",
"n. c #85AB5C",
"m. c #89AB5E",
"M. c #84AA55",
"N. c #96A755",
"B. c #A5A65B",
"V. c #B2AC5A",
"C. c #839E62",
"Z. c #84A462",
"A. c #86AB63",
"S. c #8AAC64",
"D. c #8BAB68",
"F. c #94AE6A",
"G. c #8CB265",
"H. c #8EB56A",
"J. c #92B365",
"K. c #92B56A",
"L. c #95BB6C",
"P. c #99BD6D",
"I. c #97B767",
"U. c #9BBD71",
"Y. c #95B771",
"T. c #8EB171",
"R. c #B0B567",
"E. c #C98B45",
"W. c #DC8E44",
"Q. c #C8954A",
"!. c #D69944",
"~. c #CC9A54",
"^. c #E48E45",
"/. c #EB9442",
"(. c #E89A43",
"). c #D7A84B",
"_. c #C1B24E",
"`. c #D5AA55",
"'. c #C9B558",
"]. c #E8A84A",
"[. c #F3AB45",
"{. c #F3AB48",
"}. c #EDB648",
"|. c #FAB44C",
" X c #F6B64C",
".X c #F6B352",
"XX c #F6B855",
"oX c #E1A552",
"OX c #D2B164",
"+X c #E9B468",
"@X c #9CC26C",
"#X c #9DC373",
"$X c #A2C66E",
"%X c #A6CA6E",
"&X c #A3C673",
"*X c #A5C974",
"=X c #A9CC75",
"-X c #A4C57A",
";X c #A6CA7A",
":X c #AACD7A",
">X c #A9C676",
",X c #ADD17B",
"<X c #ADD376",
"1X c #B1D47D",
"2X c #B5D97B",
"3X c #E9C449",
"4X c #F5C643",
"5X c #F4CA44",
"6X c #F3CA4C",
"7X c #F7C447",
"8X c #F4CA59",
"9X c #F3D056",
"0X c #D4CA71",
"qX c #F3D46D",
"wX c #F4D264",
"eX c #F5D977",
"rX c #F1CB6B",
"tX c #AACD81",
"yX c #ADD181",
"uX c #B3D483",
"iX c #B5D884",
"pX c #B0CF81",
"aX c #DDD685",
"sX c #CECD8A",
"dX c #E2DA8B",
"fX c #F6DD87",
"gX c #ECDD96",
"hX c #F3E38B",
"jX c #F5E286",
"kX c #F7E396",
"lX c #ECE18D",
"zX c #F6E6A4",
"xX c #F7F0B4",
"cX c #FBF6C7",
"vX c #FCFAD3",
/* pixels */
"_ T T _ =X2X,X2XI...X...o.8 6 4 3 8 R T T / ^ / ^ / ^ 6.v.v.>.U.2X<X1X<Xo.j R j _ X.X...O.t 3 8 6 f >.v.2.D.} 7 7 3 1 ' } ' ..R 3 f t h %.+.o.+.",
"T q q k P.*X-X*XG.W ' ( ' 4 ; ; 2 4 j t q q q y t 9 k 1.>.>.-.m.%X>X&X*X/ q r 9 r ' E E ' q - 1 - 3 -.2.2.Z.&.d 7 d 3 / ' ( E t $ 7 i 7 [ o.*.o.",
"T t t / *X:X;X,XH./ ' ' _ w - - 2 3 j j t t t y y t u -.;.;.;.G.:X:X:X:X{ e y y y ' ' ' ' f 2 2 2 7 ;.2.2.C.&.f h g d _ R / ' y & 5 2 7 &.*.*.*.",
"( ^ t u G.L.L.P.M.' ' ' { q 8 8 4 4 ) ^ R / / y ^ r / 2.h.h.h.S.P.P.K.K.' y y ^ ^ _ _ ( ' w 3 2 - 7 Z.D.D.D.&.f h f h -.-.*.} ` t h h l &.*._ } ",
"o.( .._ 3 2 - 2 k 2.>.>.6.{ ' ' ' } 1.:.>.>.} ' ' _ ..#X;X:XtX:.= 3 2 3 / [ ' ( ( y y r T 6 - 1 * h U.pXtXuXZ.l ) [ ) 7.Z.C.2.D.-XU.>X-X[ 4 f f ",
"o.E ( ( ; 6 3 - j 2.;.>.>.] ` ' Q } >.>.>.>.] Q E ' ..*X$X$X,X1.$ 3 2 * ( ' ( Q E t y y y 7 3 3 - 8 -X:X:XpXA.f k ` k 2.Z.C.h.F.1X*X&X*Xu 5 7 f ",
"o.' ' E 6 3 = - u h.-.>.>.} Q ' ' ' >.>.>.2.o.` ' ( ' *X=X%X:X1.& 3 3 3 ( Q _ ../ r ^ r y w 5 2 - q *X*X*X1XZ.j k t k <.C.Z.C.F.:XtX:XtXz 5 2 7 ",
"o.( ..' - 3 w ; h h.>.2.1.' R R / ] >.>.;.2.+.' ..' X.;X:X:X2X>.& 3 - 6 ( Q [ ../ q j y t 7 - < - q -X:XpXuXD.j k q h %.;.<.<.T.uXpXpXuX&.5 2 2 ",
"_ / R / 7 q q 6 R @.+.O.o.v.m.n.n.5.X.+.o.o.^ h e q j 5.n.5.n.o.4 0 0 7 ^ / R W ^ R R / / / ` z z [ ,.=.*.5.O.[ &.W R Z.F.Y.U.T.b.n.b.Z.3.| | | ",
"T q 9 y j y j j r ! E E ' P.,X,X,X@X' ( ' { 0 * - 2 2 / E T E T y y r y t q y q ^ o._ ' { O.>.h.2.] = $ & 5 k *.O.&.[ U.uXpXpXY.t l l k 7.D.h.m.",
"T y T q t y j j / ' { ' R L.;X&X:XH.' ' ' ../ q h t h -.+...( / y t y j T y ^ y j ' ( ( ( @.;.-.;.%.2 3 6 5 ) O.*.o.{ #X=X=XpXD.k y / k 7.7.2.h.",
"T h y j j t q q ^ ' ' Q W P.,X*X=XL.Q ' ' g.3X}.3X}.0XdXsX_ ..W q j y t y y t y T E ..' ! :.>.;.>.*.2 3 5 & l O.o.*.:.-X:X=X1XD.7 t e y 3.7.2.<.",
"/ q T q ^ R / R / ( _ ( ' H.*X&X&XH.( ' ( g.5X5X5X5XqXgXsX( Q W r k j ^ j j t 9 T O.Q Q X.@.;.,.-.} 4 2 3 5 j O.o.} %.U.tX>X-XZ.y z j u } ;.O.>.",
"..( _ o.@X#X#X#Xb.- 3 6 2 r k u / t - g.g.0XeXqX6X5X9XwX8X0X0XV.c.k.:.-.8 - 7 2 ^ ;X#X*X*X[ < 3 7 7 [ / R ' R y _ [ [ 2.C.h.>.b.U.U.-XU.} t y _ ",
"o.Q ( Q &X:X=X,X5.* 3 - 2 q u r r y - 3X5XqXzXgX6X4Xa.a.5X5X5Xp.e.Q.>.2.8 * 6 $ ) :X*X*XuX{ * 5 - 3 ' _ ( E ) j _ l ` 7.h.3.;.m.*X*X&X:X' 0 y j ",
"o.( [ X.#X>X*X=XZ.* 6 6 3 t y t / ] ! wXwXqXfXeXwX9X6X5X6X9XwX Xp.).j.j.s s i $ _ ;X=X$X:X[ * 3 3 3 E E / ' R f ^ l [ <.h.h.%.m.&X&X$X*X} y t j ",
"+.( ' o.*X,X,X2XZ.* - - 2 q t ^ f.7X8XkXkXqX4X6XfXkXwX5X9XkXzXwX4X4Xr.r.r.y.l.< l :X=X=XyX[ * ; - 4 ' ' E ..^ t r k [ 7.C.C.<.D.;X;X;X:X} 0 q t ",
"( T ^ ( 5.5.5.A.O.0 q q q t y y f.6X6XkXkXeX4X3XfXkXwX6X9XkXkXwX4X7Xe.e.e.e.l.4 ) P.K.F.L.o.8 j 0 f / y 9 W R _ [ %.3.%.%.%.z -.G.M.m.I.} ( ` } ",
"E j j q - * * % 0 ' ' ;._._._._.0XjXfX8X8XeXeXeX9X9X}.i.[.9X9X}.i.i.e.e.e.e.w.x.x.D z n p p p , p , , , , p x.c.-.2.7.h f 7 & 4 E E W Q *.2.2.2.",
"^ q q q 6 3 5 d 8 Q ' N.6X5X5X5XqXzXkX6X3XqXkXhX6X5X[.t.i.5X5Xp.r.i.y.e.e.e.i.t.i.B : : : : : : > > > > : C t.).<.$.C.l f f 5 0 ' _ ' R -.;.;.2.",
"^ t y t 6 2 3 &.} :.-.N.9X9X9X9XrXfXfXqXqXeXkXjX8X7X}.}.}.7X7Xp.i.i.i.i.i.i.i.i.i.G B M # # > : > : : > # N r.!.h.;.7.t 7 7 5 0 ' _ _ ! ;.>.;.h.",
"T j j y ; 3 z dXgXcXvXxXhXhXhXhXrX.XXXcXvXzXlXfXXX XqXjXeX|.|.|.|.|.|.|.|.|.|.|. X X|.Q.X X > : : : : + X m r.!.@.;.,.i < 2 - 0 ..' E Q -.>.;.>.",
"..( ( ' J.P.U.dXgXcXvXxXjXjXkXfXrX.XXXcXcXzXhXfXXX.XeXfXeX|.|.|.|.|.|..X.X.X.X|.|.|.|.E.X o > : : : : + X m e.!.k u ) ( / R k -.@XP.L.@X-.' ' O.",
"o.( ( } &X<X:X2XT.gXkXfX8X8X^.^.q.J K +X+X~.Y Y K K (.8X8X|.|.[.i.!.m v v v F i.t.[.|.E.X O > : : : : + X m e.!.r t e ' Q Q ' 4.=X*X*X,X#.R ' ' ",
"+._ E ..#X*X*X;Xm.aXlXqX|..XU P J V A /./.P V V V V W.|.|.|.|.i.e.W.X X O O > r.e.p.[.!.X o > : : : > + X m e.!.y u y ( _ { / 4.=X%X$X:X#.E ' ' ",
"o...' X.*X=X=XuXm.OXqXXX/./.I J J K K H H H K K V V G E.q.[.[.0.H F @ @ @ @ > F F w.p.!.F D > @ @ @ # n n D l.z t h e ' ' ' ' 6.yX=X=X;X#.( ..' ",
"/ j r R D.S.A.H.#.). X(.I P A A P /.^.o O F /.^.Z V b # M t.t.n X o > c : : > X X G r.i.|..X# X o X   q.r.c.} ` { ` [ R T ( / O.H.G.H.H.{ ^ T / ",
"3 6 - 2 9 9 t 9 / `.|.(.I P A V L ^.^.o X F /.^.Z V b c M (.t.n X o : : : > @ X X 0.r.i.].`.>   + + . E.i.R.J.;.>.2.2.u y j 0 W E ! R ' 4 = - 3 ",
"w - 2 7 t y T 9 ` `.|./.P P A A P ^.^.O O F /./.Z V b : M y.t.n O o : : : : > X   L r.l.s ;.~.oX!.q.q.R.>X;XJ.-.2.;.;.k y j y / ' ' E ' 8 2 3 5 ",
"3 6 2 3 j j y y R `..X/.I P A V P /.^.O O F /.^.Z V b c M r.t.n O o : : : : @ X X G i.l.r ] `.|.{.e.r.*X*X=XJ.-.<.;.2.k j j q ^ ' ' ' ..4 5 2 7 ",
"4 * 2 2 y t y q T OXwXoXJ J A V K L L B v H P L C b b c M r.t.n O o : : > > > O X 0.t.l.t O.B.c.c.B.R.:X,X=XJ.;.;.;.:.u 8 q r R ' _ ' [ w 3 < 2 ",
"*.{ } { ' / ( W :.0XjX`.A A V V V V Z /./.L A C c c c # M t.t.M O o : : > > > X X L t.z.` j t t t R :.:.#.:.} ) ' ` ` A.K.G.H.1.j T W u ` %.[ @.",
"b.>.>.>.o.( ' / b.aXgXoXV V V V V V A ^.u.K C C v : : : M r.e.n O o : : : : # O X G e.z.Q 8 - - - 3 _ ( R ' T q r y 9 #X1X:XuXm.q q t j *.2.2.h.",
"b.;.;.:.' ( ' W 4.dXfXOXV V V V V V V Z Z S c c : : : : M r.e.n O o : > : : # O   0.e.z.{ 9 2 3 3 7 ( ' ' ( / j t j / L.=X*X=Xn.q y y y -.>.;.>.",
"b.1.>.:.o.' o.( M.dXhXOXV V V V V V V A V b c : : : : : M r.e.m O O > > : : # X X G r.z.{ 8 * 3 - 6 ( Q Q Q / e t q t @X=X=X,XS.j j y h O.>.>.h.",
">.-.-.,.^ / _ y 5.aXhX+Xq.q.N b b b b b b v # : : : H L 0.t.r.0.G Y @ @ @ @ > G G w.e.z.( q 3 8 w 8 ( / ( / ' { ' } } K.@XL.#X6.q t t q } -.%.;.",
"O.' Q ` 3 1 3 - ^ aXhXrX|.XXM : : c : c c c : : : c E.|.{.r.t.{.|.oXo X O O v .X|.i.e.l.y / ' ' ' _ y y T q 5.tX;X;X*XX./ E ' R - 5 1 - y r t u ",
"o.' Q ` 3 2 3 - z aXfXqX|.XXN x v c c x x x x x x x E.{.[.r.e.[.|.].. . + + m |. Xi.r.l.t ` ' ' Q ` y y t q 5.,X%X*X=XX._ ' ' j - 6 ; 3 t y t T ",
"O.( ' [ 6 5 z dXdXXXXXXX|.|..X.X.X.X.X.X.X.X.X.X.X{.].y.e.e.e.e.e.t.(.!.r.r.(.r.e.e.e.i.!.Q.] ' ' ( y y j q 5.=X@X*X@X+.{ E ..^ - 6 3 6 q j t T ",
"X.' ' _ - - z lXjXXX|.|.|.|.|..X|.|.|.|.|.|.|. X|.[.i.r.r.r.r.i.r.e.i.r.r.r.i.r.e.r.r.r.i.w.] ' ( E t q y 9 5.iX:X,X,XX.( E ' j % - * * 8 t t u ",
"^ 0 y q 6.4.Z.U.F.j.k.f.j.d.s.s.s.s.s. .s. .k.R.R.V.B.s. .d.s.9. .9.~ ~ N.B.B.B.k.a a a a d.$.X.@.@.R / T R { -.=.=.%.@.@.O.%.;.2.>.4.b.@.} } } ",
"- ; ; 6 tX:X:XiXM.0 j t j 3 - - - 3 j y q e G.1X;X:X#X/ q y t / ' O.} ` ;.;.;.<.] < 2 2 < } 2.2.;.;.Q ' o.{ 4 $ = $ < %.2.2.;.S.uX:XtX:XS.2.>.h.",
"w - 3 4 U.=X>X>XS.9 T y j 3 3 3 6 8 t t ) 9 n.=X$X%X-XR j ) q y ..( ( ' ;.-.2.>.} * 3 7 2 [ <.2.2.-.Q ' / ' y 3 6 3 3 -.>.>.$.m.:X%X=X>Xh.-.>.>.",
"w - = w &X>X:X:Xn.q t t y 3 3 6 - 6 l q t 8 m.,X*X=X#Xr e j q R ' Q ' ( $.>.>.h.} 5 5 5 * [ 2.>.>.:.Q ' ( ..t - - ; 3 ,.;.;.;.m.>X%X*X=Xb.;.>.h.",
"0 7 6 8 U.*X&X*XM.u k R [ 7 7 7 7 8 / R / / n.;X@X*XL.` u r u / _ E ( ' *.;.%.,.} 4 2 4 4 ' :.:.-.,.' ' } ' y 2 w 3 3 } 2.<.@.S.-X*X&X-X4.,.:.:.",
"o./ / _ >.$.2.;.D.*X*X&X&Xv.-.;.-.5.*X*X#X-X4.R ' ' O.*.>.>.>.` y j y y 3 3 7 4 7 ` _ ' / R y y y ^ :.>.-.:.' q t j t ' ' ' ! @.>.2.2.4.] ' ' ..",
"o._ ..} $.;.<.;.D.=X*X;X:Xv.-.>.;.v.=X%X=X,X4.R [ ' { :.2.;.>.| y y j ^ 3 5 6 < 4 ' ' ' ' ^ y j t y >.2.2.6.{ t / t y ' ( ' _ O.;.;.:.>.} { ( ..",
"..( E [ -.h.2.-.m.:X&X*X:Xb.;.<.,.Z.:X&X&X=X4.R ' ' ' 1.;.>.2.] y r ^ t 3 3 5 2 0 ' ' ( o.y y T q R ;.<.>.>.{ j y j y E ( ' ( } >.2.>.;.{ ' R ..",
"+.( ' ..@.;.2.@.S.:X*X=X<XS.>.2.>.S.=X=X,XyX4.! ' ' ' 2.<.h.2.' 0 q 8 q 5 ; 2 - 8 ( E R / W y y t k ;.>.C.2.[ 8 8 e q ( o.( ' *.2.2.:.>.} ' ....",
"T T y T S.m.Z.J.S.S.m.n.G.O.[ [ ) %.G.n.A.G.#.} o.@.' ' ` R ` } :.2.6.:.j 8 8 3 j 8.b.5.Z.{ j ^ / ( o.} } ' @.>.:.>.:.W 9 T W / $.*.O.@./ y y T ",
"3 - - 6 -X=X;X1Xm.W ' W ( 3 * * * 3 ' R W E O.1.2.>.2.2 - d % 1.1X;X:X,X[ q / t *.,X=X=X,X6.E ..' E e r j 0 5.,X,X;X,Xh ; 7 $ 8 Q ( ( ' 8 - - 2 ",
"w 3 2 6 @X%X>X*XJ.E o.( } 8 5 6 6 0 { ' ' ' #.>.;.;.,.4 * 3 ; ,.,X%X$X%X_ t y 8 o.*X$X$X,X6.R ' ' _ ^ y y q 5.=X*X*X@Xt ; 3 ; q ' ( ' { w 3 - 6 ",
"6 1 2 7 @X=X:X-XK.E ' ( { 4 - 3 - 8 ' E ( ( @.>.h.<.,.3 1 3 * =.,X*X*X*X' q t 9 *.:X*X*X,X4.R ' ' _ q q y 0 5.1X&X:X*Xr - 2 - 0 ' ' E ' 9 ; 3 6 ",
"8 5 5 0 P.=X*X=Xm.E ' ( _ 8 1 3 2 8 ( ' ' ' -.$.;.>.,.3 2 6 * 1.=X&X;X#X{ t y j [ :X*X*X;X6.( ' ' _ T r u t 6.:X*X*X&Xj ; 7 - t Q ' Q ' 8 - 3 3 ",
"( _ R / 5.4.2.A.#.r y T R T / _ _ T ^ W y y ( ..] ' X.K.@XL.#Xn.] O.+.+.} <.@.=.-.o.X.+.*.y 2 3 6 h U.@XP.P.v.X.O.O.X.G.P.L.#XD.@.-.;.:./ q t j ",
"X.( Q X.-.>.<.2.} q y j q / ..' ' _ y t y j R ' ' / ] ;X=X=X,Xb.R Q Q Q -.h.;.2.$.( ( ( ( 9 - - * t :X=X*X1Xn.R E ( ' #X=X*X,XL.;.<.>.>.) e t T ",
"o.' ' ] -.2.2.<.O.q ^ t y ( ( ' ' _ y j y t / ' Q E ' -X*X&X:XA.R ' ' [ :.:.;.>.@.` ' ( { 8 - 3 - h *X*X;X=XM._ ' ' ' #X*X$X%XI.;.>.>.2.^ t t j ",
"..` ' ' >.>.:.5.X.t t j j R ( ( R W r j t r / [ ' ' X.*X:X=X,Xm.Q Q Q X.:.>.2.2.-.Q Q ' o.8 - 6 - q =X=X;X,Xn.R { ' ' U.:X,X1XL.;.h.$.2.) y j e ",
"o.( { ] } [ %.%.` y k u T O.6.#.6.@.R ` R ' _ ( ' / ' L.P.I.U.4.T ^ y u } @.@.-.*.^ / R T t 0 8 8 j L.I.L.P.4.T ' / ' K.U.I.P.D.O.-.@.#.` k ` [ ",
"o.E ' ` 3 2 - * 0 ' ' ' E L.,X*X,XU.>.2.>.2.` 9 9 h t ;.$.$.h.k * 6 5 2 _ ' ' ' R * - - = / ' _ o.} ;.$.;.;.[ h r r r -.;.@.>.O.R ' ' ' -.h.>.b.",
"o.Q ( _ 3 3 3 3 q ..' ' E L.:X*X;XI.;.h.>.2.{ t y q y 2.>.>.C.l ; - 3 1 ( ( ' ' T 5 3 3 2 y { ' / } ;.2.h.h.} q y y 9 ;.h.j.;.O.' ( ..( $.<.$.h.",
"o.( ....2 3 6 - 0 ..( Q E L.*X*X;XU.;.>.;.>.[ t ^ y T ,.;.;.2.) * 7 6 * [ ' ' ' W 5 5 3 = y { ' E ' >.>.;.>.{ e u j y -.3.h.2.O.( ( ..( -.<.<.h.",
"..R ( _ 3 < 2 * 0 ' E R Q L.:X*X,X@X>.2.>.4.[ q j e y 1.>.2.2.R = - * 2 k ' ' ' u 2 6 3 - T ' E ' ' ;.2.>.>.} j t j r ,.;.2.2.O.E ' E ! -.2.2.2.",
"( / r T A.H.S.H.5.*.,.:.#.#.:.#.#.-.{ } ] ] y 4 3 7 4 ) ` k R :.T.G.D.H.:.O.-.;.} T T ^ / T T ^ ^ T } } o.} j 3 8 3 4 { } ] ' 6.H.I.I.U.` 8 e t ",
"T q h k -X=X:X<XI.;.2.2.2.' ( ( ' ( _ ' E ..0 ; - - 3 q y t 0 5.1X:X:X;Xb.>.>.>.:.' ' ' { / q y t W E ' _ ' r - 5 - 5 / ' E E 5.<X*X:X,Xk $ 5 3 ",
"^ q t / @X%X:X*XJ.;.2.;.>.' Q Q ' E ( ' Q ' q 6 6 3 3 j j j 0 6.=X&X*X=Xv.;.>.;.-.' ( ' ' T e y y j ' ( ' ' r 5 7 < 7 R ' o.R 5.:X*X%X:Xk 2 6 3 ",
"y j h y *X=X:X=XI.;.>.>.>.{ ' ' ' ..' ' ' ' 8 2 - 2 2 t t j t 5.,X*X=X=Xb.;.2.>.-.' E ' ' R e t q y ' ' Q ' q - 5 2 2 W Q ' E 5.:X=X*X:Xk * 6 5 ",
"^ j q ^ H.K.K.L.A.-.;.;.>.' / / R / ( R ( ` e 7 0 8 t h t q 8 :.&XL.@XP.>.-.-.-.O.R R ( / / ) / ) T ' ( R ' k t k h y ) ( W T 1.*XU.U.&X) 1 7 3 ",
"o.' ( / 3 2 3 < 0 ' ' ` ' 8 - w 3 3 y y y / } 1.,.2.=.3 3 3 ; y ' E Q ' t q y T t 2 3 ; 3 [ ;.;.:.,.t y ^ 9 5.yX*X;X&Xt 2 6 ; k >.>.;.>.k t j y ",
"..R ..( ; 5 2 2 q ..' ' { q - ; 5 4 ^ y q q } 2.2.>.:.3 3 3 - y ' ( ' ( T j j y q 2 7 ; * } h.;.>.:.y j t q 6.;X$X*X=Xq - 5 ; k h.;.;.:.[ y t ^ ",
"( ( ( T 3 6 < < 8 ( E E ( 4 * - 2 3 t t j e } >.;.;.,.; 3 3 - y ' _ E ' q q t y q = 3 3 * } >.;.2.X.e t y q 5.,X$X*X$Xt - = - t $.;.2.>.k 9 y T ",
"o...X...3 3 4 3 T o...X.o.9 w w 4 9 / T ^ k @.n.h.b.2.8 6 w 2 T +.o.X.o.( ^ R R t w 3 d 2 } b.v.v.2.^ / W r n.iX1X1X1Xj 3 8 6 ) M.b.v.v.{ T T / "
};
