/* XPM */
static char *xpm_[] = {
/* columns rows colors chars-per-pixel */
"72 72 233 2 ",
"   c #592C1C",
".  c #552B25",
"X  c #5B2E25",
"o  c #552B28",
"O  c #5E2D2A",
"+  c #5E3125",
"@  c #663725",
"#  c #733E2A",
"$  c #723D25",
"%  c #612F1C",
"&  c #395D2D",
"*  c #385D29",
"=  c #3B5F33",
"-  c #3D632D",
";  c #3F6628",
":  c #3E6433",
">  c #3E6339",
",  c #7D442A",
"<  c #7D4627",
"1  c #41662E",
"2  c #42692D",
"3  c #416634",
"4  c #436A34",
"5  c #496E35",
"6  c #416639",
"7  c #456B3A",
"8  c #4A6D3A",
"9  c #4B7335",
"0  c #4F7835",
"q  c #4D743B",
"w  c #4E793A",
"e  c #467039",
"r  c #517636",
"t  c #527B36",
"y  c #51763C",
"u  c #537B3C",
"i  c #597D3E",
"p  c #667738",
"a  c #616F37",
"s  c #486D41",
"d  c #4D7243",
"f  c #4D714B",
"g  c #527541",
"h  c #547B41",
"j  c #5A7D43",
"k  c #587D48",
"l  c #617F46",
"z  c #824626",
"x  c #824429",
"c  c #8E4A29",
"v  c #874B27",
"b  c #924B29",
"n  c #9C4F2A",
"m  c #974C27",
"M  c #84512C",
"N  c #8E532B",
"B  c #8D5227",
"V  c #91542B",
"C  c #945629",
"Z  c #8A5734",
"A  c #985E33",
"S  c #A3532C",
"D  c #AC542B",
"F  c #AE5627",
"G  c #B4592A",
"H  c #986233",
"J  c #967139",
"K  c #BC642D",
"L  c #B77838",
"P  c #A66832",
"I  c #C56A31",
"U  c #C17C35",
"Y  c #C77536",
"T  c #DB7431",
"R  c #D87735",
"E  c #C86C30",
"W  c #8D5B43",
"Q  c #C17F43",
"!  c #56813D",
"~  c #5B833E",
"^  c #5E893D",
"/  c #5A8337",
"(  c #628B3E",
")  c #65843C",
"_  c #73863F",
"`  c #568141",
"'  c #5C8442",
"]  c #5E8942",
"[  c #5D8349",
"{  c #5E8948",
"}  c #618545",
"|  c #628B44",
" . c #698E45",
".. c #63854A",
"X. c #648B4A",
"o. c #6A8D4B",
"O. c #6B8549",
"+. c #778946",
"@. c #659144",
"#. c #6A9346",
"$. c #669249",
"%. c #6C934B",
"&. c #6C984B",
"*. c #72944E",
"=. c #739A4E",
"-. c #7A9449",
";. c #6C8D52",
":. c #658A52",
">. c #6D9352",
",. c #6E9358",
"<. c #749553",
"1. c #799654",
"2. c #759A54",
"3. c #7A9A55",
"4. c #759559",
"5. c #7A965A",
"6. c #769B5A",
"7. c #7C9B5A",
"8. c #718F59",
"9. c #7CA255",
"0. c #7DA25A",
"q. c #79A255",
"w. c #7D9B61",
"e. c #7FA760",
"r. c #AF903F",
"t. c #C88439",
"y. c #D58A3A",
"u. c #DB913A",
"i. c #D6933E",
"p. c #E79C3A",
"a. c #EA9C3A",
"s. c #E59939",
"d. c #ECA13C",
"f. c #F0A33E",
"g. c #8B954C",
"h. c #819D5C",
"j. c #8C9B55",
"k. c #8A8F4A",
"l. c #B49345",
"z. c #BC984B",
"x. c #AB8E4B",
"c. c #81A257",
"v. c #82A45B",
"b. c #85AB5C",
"n. c #89AC5E",
"m. c #8EAA58",
"M. c #B7A454",
"N. c #B6A44D",
"B. c #839E62",
"V. c #84A462",
"C. c #86AB63",
"Z. c #8AAC64",
"A. c #8BAB68",
"S. c #93AD68",
"D. c #8CB264",
"F. c #8DB36A",
"G. c #92B265",
"H. c #92B56A",
"J. c #95BA6C",
"K. c #99BD6D",
"L. c #99B663",
"P. c #9BBD71",
"I. c #98B673",
"U. c #8EB171",
"Y. c #B7BB75",
"T. c #B3AB64",
"R. c #DB8943",
"E. c #CA9A49",
"W. c #DD9A48",
"Q. c #CA8F4B",
"!. c #E18941",
"~. c #EA9444",
"^. c #E19D4A",
"/. c #E49A45",
"(. c #E09F50",
"). c #D9A34D",
"_. c #C9A553",
"`. c #DAAB51",
"'. c #EAA549",
"]. c #F5AC46",
"[. c #F2AC4C",
"{. c #F3A648",
"}. c #F6B34C",
"|. c #FAB54C",
" X c #F9B047",
".X c #EAAC51",
"XX c #F9B452",
"oX c #F6B956",
"OX c #EDB052",
"+X c #CBAE68",
"@X c #E6AD6C",
"#X c #9CC26C",
"$X c #9DC373",
"%X c #A2C66E",
"&X c #A6CA6E",
"*X c #A3C673",
"=X c #A5C974",
"-X c #A9CC75",
";X c #A4C67A",
":X c #A6CA7A",
">X c #AACD7A",
",X c #ABC474",
"<X c #B8C878",
"1X c #ADD17B",
"2X c #ADD376",
"3X c #B1D47D",
"4X c #B6D87B",
"5X c #B0C06E",
"6X c #F7C35E",
"7X c #CAC57C",
"8X c #ECC267",
"9X c #F7C666",
"0X c #F7D879",
"qX c #EACA75",
"wX c #9FB680",
"eX c #AACD81",
"rX c #B5CD82",
"tX c #ADD181",
"yX c #B3D483",
"uX c #B4D783",
"iX c #D0D388",
"pX c #E9D989",
"aX c #F4DD86",
"sX c #E7CC83",
"dX c #EEE28B",
"fX c #F3E38B",
"gX c #F5E286",
"hX c #F4E393",
"jX c #F6EEB6",
"kX c #F8F3BB",
"lX c #F0E6A9",
"zX c #FCFAD4",
"xX c #FAF5C7",
/* pixels */
"] ! ` { 2XuX>X4XL.@.#.@.$.0 7 7 4 9 ! ! ! ^ ! ` ' ' ` q.c.c.c.K.4X2X3X2X$.y ' ` ] #.@.@.$.h 7 9 4 h 3.7.7.Z.;.8 8 4 2 | o.@.@.^ 3 8 h g >.*.%.$.",
"` w w j K.*X;X=XD.! | ^ | e : 4 3 5 j y w w w w u q i 6.1.1.*.Z.&X,X*X*X' w t 0 u ] ^ ( | q - 3 : 6 1.7.7.V.:.s 8 s 3 ' | ] ^ y = 8 8 8 { %.,.X.",
"! y y ' =X2X:X1XD.^ ] | | 7 : > 3 4 h h y t y h y w i <.2.1.<.G.3X>X:X>X| y i y i | | | | q : 3 3 8 1.5.w.h.:.s g f 8 { ~ ^ ' j : = 7 7 :.>.%.<.",
"] j t i D.J.J.K.b.| | | X.0 e 9 5 8 ' ` j ' j i ! i ' 7.h.h.h.D.J.J.J.H.} t ` ` ` { { ^ | q 3 4 : e V.Z.C.A.;.d g d g 4.<.>.o.' y g y k :.:.X.X.",
"$.] @.] 7 : : 3 j 3.5.3.7.X.| | | o.6.2.3.3.o.| | { | $X>X>XeX2.; 3 1 5 ' | | ] ] u u u ! 7 3 3 - h ,XeXeXrXV.k [ ..[ w.B.B.7.A.;X*X*X;XO.7 g d ",
"$.^ ] ] > 7 4 : h 7.3.3.3. .| ( ( o.3.3.3.3. .( ] ] @.=X&X#X1X6.& 7 : - { | ] | ^ y u w u 8 3 4 : 9 ;X:X:XyXC.d j } j 7.V.B.B.S.3X,X*X=Xu 6 8 d ",
"$.] | ] e 4 ; 3 i 7.1.1.1. .| ( | | 3.3.1.7.#.} @.] ( =X-X=X>X6.= 4 4 3 ] ^ ] $.' w j u i e 3 3 : w *X*X*X3XV.h j t j 5.B.V.B.S.:XeX>XeXl 6 1 6 ",
"$.] @.| > 4 e = j h.3.7.6.X.` ^ '  .3.3.1.7.o. .| | &.=X>X>X3X3.= 4 3 6 | | | @.^ w u u t 7 : 1 : w ;X>XtXuXZ.k k q g ;.1.5.5.U.yXtXrXyX:.6 7 6 ",
"{ ` ^ ' e q q 7 i %.>.%.$.c.n.b.b.c.%.<.%.%.j y y 8 k 0.b.b.b.o.5 e q 9 j ' ! ! ' ^ ! ' ! } } l l ..4.,.>.6.%.X.:.! i V.S.I.I.F.V.b.0.V.8.;.;.O.",
"' 0 0 u h i h h t | ^ ^ ( K.tX2XrXrXS.I.wXI.B.j.+.k.+.m.m.g.g.g.k.k.y y t y y t ` $.] { X.%.3.h.7.#.* & = 6 k <.%.$. .P.yXrXyXI.y k k k w.V.h.v.",
"! u u w u u h j ` |  .| ^ J.:X*XrXfXhXxXzXjXfXaXXXXX9XaX0XXX|.|.|._.i ` u u j y ` | ] | } *.3.1.1.;.7 4 4 6 [ %.>.:.o.$X-X-X>XA.j y ' j w.w.7.h.",
"! g u h h w y w ' | | ( / J.2X=XrXhXhXxXzXjXhXaXoX[.9XgX0XoXXXXXXX_.h w h u t r ! ] | | ( =.3.1.h.%.3 4 3 = k %.$.>.>.:X>X=XuXA.y y 9 y 4.w.3.h.",
"` u w u ! ! ' ! ` ^ } | | D.iXpX+XZ M Z Z M M M v v v M M v c v v A _.`.E.E.k.r ! %.( ( #.*.1.8.8.o.7 1 4 3 h %.%.X.;.$XtX;X;XZ.u l j j o.1.&.6.",
"$.^ { $.P.*X$X*Xv.: 7 8 3 y iXfX+X, # , , , , , x , , , , , , < , C OXXXf.a.r.4 ` :X$X*X;X..1 7 5 8 X.} ^ | ` u [ { ..B.h.h.3.v.$XP.*XP. .y u [ ",
"$.^ | ( *X:X-X2Xc.: 6 6 l B.T.M.x.b b b c c c c c b b c b x x H L L L L L P J p k.>X*X-XyXX.- 3 : 4 | { ' ( ` h ' k [ 7.h.5.<.Z.=X*X$XeX .9 y h ",
"&.] X.#.*X;X*X-XV.- 6 k pXhXA , c D D D D S D D D D D D S z , t.|.W.+ o . . z d.s.,X-X%X>XX.- 4 4 5 / ^ { | ` d ' [ [ 5.h.5.;.m.&X*X%X*X%.y w j ",
"@.| ] %.=X2XtX3Xe.- > j sXsXA x m D D D D D S F D D D S S b b Q..XE.+ X . o < R.y.Y.=X:XyXX.- > : 7 | |  . .j w r k ..w.B.B.5.A.=X:X:XtXo.w w y ",
"@.! ' ' 0.0.0.C.&.x.OX_.< < n D D D S D S D D D D D m x V .XXXH   + , , , , ,     r.W.M.J.$.9 g q d ! u t u i { X.o.;.;.8.;.l <.D.b.n.G.o.' } o.",
"! h h w : - - * w M.|.W.< x S D D D D D D D D D D D m , V '.XXA o X , , , , # o . U s.z.5.%.^ @.@.} 2 3 3 : ' h.1.h.w.g 8 8 = 5 ^ ^ t ( *.5.7.7.",
"` w w w 7 7 6 7 0 T.9X@X< x c b c c c c b b b b b b c , V '.|.H o X , , , < # .   L s.E.1.%.( ] | ~ 4 7 6 3 l 3.5.*.B.k g d 7 8 | {  .~ <.1.3.7.",
"` t i w 7 : 4 7 9 Y.fX7X, x , , , , # x # , , , , , , x V '.}.H o . , , , , # . . L s.E.5.%.| | | ! 7 4 3 3 j 7.h.1.B.y 8 8 6 q | ] ] ( 1.3.1.h.",
"` d h w : 4 4 q } rXhXsXZ Z Z A Z c b W W A Z Z V V Z Z J .X}.P # , M N N N M @ $ t.p.E.h.&.] ] ( } 2 3 4 - ' h.+.1.5.8 7 3 : 9  .{ ^ ^ <.3.1.2.",
"@.] |  .F.J.P.pXpXjXxXkXpXaXpXsX8X[..XlXxXlXpXaXOX].8XpX0XoX|.}..X[.].OXOX{.].].'.]. X}..X`.7 7 7 w ` ' ^ ~ i ' k i j { ' ! j <.#XP.#XP.<.|  .%.",
"$.] ]  .=X-XyXdXdXxXzXxXfXfXhXaX0XXX[.jXzXjXhXaXoX|.9XgX0XoX|.|.|.|.XX}.[.}.].}.|.|.|.}.}.OX3 3 3 7 |  . .| ` y t y w  .( ( | 9.-X=X&X1X&.^ | | ",
"$.] ]  .$X=X=X1XS.iXlXpX9X6X(.(.R.I E @X@X(.Q Q Y Y W.8X6X}.|.].f.u.V M M M P d.d. X|._.=.p 4 7 : 9 | | | ^ ' h i u u ] { X.' 9.=X=X%X2X*.' | | ",
"&.$.@.( =X>X-XuXn.Y.fX0XXX XR T I F F y.~.Y S D D D R XX|.|.|.f.a.y.X o . . < s.p.].|._.$.0 = 3 : > ] ' ' ^ j q w h y |  .] ] 9.tX-X=X>X=.| @.| ",
"] h i ! C.Z.C.F.=.T.0X9X'.{.R T I K K Y Y Y K K G D Y W.'.]. Xi.t.L @ o + O < r.t.'.].E.` ` i y j ! q.9.2.9.%.' X.} } ! ! ] ^ %.F.D.D.F.| ! i ' ",
"4 4 : 3 w 0 0 0 ` M.|.[.T T G D I ~.~.$ o A ~.~.F D b , B u.a.V .   , , , x $     U p.l.0 >.h.1.3.v.:X-X-X2XG.1.3.7.7.j u y w ! ^ ( ^ | 9 : - 4 ",
"e : 3 5 y i ! 0 ' N.|.{.T T G D I ~.~.# . A ~.~.F G n , B u.a.V o o , , x , # . . U p.r.u o.3.7.1.0.=X=X-X:XG.<.5.5.1.j i h y ' | ( ^ | 9 4 4 4 ",
"7 6 4 4 h h i u ` M.|.{.T T G D I ~.~.$ X A ~.~.G D b , B u.a.V o O , , , , # . . U p.l.u O.3.3.1.7.=X,X=X-XS.1.3.1.7.j h h w ` | | | $.7 : 3 7 ",
"5 : : 3 w y i w ` N.}.].T T G D I ~.~.# X A ~.~.F D m x B u.a.V o O , x , , # . X U a.l.y #.7.7.1.v.:X>X2X>XH.5.3.3.2.u 9 w r ^  .{ { X.q 3 - 7 ",
"&.o.o...{ ~ ' ! 2.+X6XOXR T G D K u.!.x $ P R.!.S S b , C u.a.V . O # x , x # . X L a.l...i y y g ! 2.2.=.=.o.` } } | C.H.D.F.6.i ! t i ..o.O.>.",
"v.3.3.3.$.] | ! 0.iXaXqXD F D D D G F !.~.Y F D x x , , V u.a.V . O , , , , , . . U a.l. .0 - : > 7 | ^ ^ ] ` y t u u %X1X:XyXD.w w u y >.7.5.h.",
"v.1.3.2.| | | ^ q.iXhXqXG D F F D D D !.~.Y D D x , , , b u.a.C . X , , , , # . . U a.l.| 0 2 7 3 e ] | | ^ ` j u h ` J.=X,X-Xb.w u u h <.3.1.3.",
"v.6.3.6.X.| $.] 0.iXaXqXD D D D D D F G G S z c , , x < B u.a.B . X , , , , # . . U p.l.X.9 - 3 : e | ( | ( ` q t d t #X-X-X2XZ.h u i h %.3.3.v.",
"3.<.<.<.` ' ' ` q.iXfXqXD D D D D D F D F m , , , , , , B u.a.B . O , , , , # .   L p.l.{ r 5 e 8 9 ' ' ^ '  .X.| o.X.H.$XJ.$Xq.8 h w q o.<.;.1.",
"&.} | } 4 3 4 - ` <XfXqXY Y S n n n n n n b , , , , V P L s.a.L A Z @ < # # , Z Z y.a.l.i ' ] | | { ` u u w 0.eX:X:X=X&.^ ^ | i 3 3 4 : y u y i ",
" .] ( } 4 4 4 : k 7XfX0XXX}.A < x , x x , < , , $ x L |. Xd.a.{.}.).+ . o . , oX|.f.p.l.0 { | ( | ^ y y y w 0.1X&X&X=X#.{ | | j : 7 : 4 q u t j ",
"$.] | | 4 3 7 3 j 7XfX0X|.}.C z z x x x z < < z < z L |. Xa.a.].|.).@ X X X M oX|.f.p.l.t ' | | | ] u h i w 0.2X%X=X$X&.{ ^ @.j : 6 4 : y i h u ",
"$.] | X.3 : 8 Y.<X8X6XoX|.|.'.).^.^.^././.W./.W./.W.'.f.d.a.a.d.d.a.y.t.t.t.y.d.f.a.a.s.l.l.|  .] ^ w t u 9 0.uX>X1X1X#.] ^ ^ h & : - : 9 w t i ",
"` w y y q.9.S.fXgX6X|.}.}.}.|.|.|.|.|. X|. X}.}. X|.].d.p.p.d.a.a.p.p.p.a.d.p.a.a.p.p.s.s./.#.#.=.o.! ^ ! } X.,.,.,.o.<.*.*.%.1.7.q.3.v.*.:. .o.",
"4 > 6 7 eX>X:XiXL.O.+._ +.p i p p p +.+._ _ L.<X<X<X5X_ p _ p +.-.k.-._ g.g.g.j.k.a a a a k.h.3.5.1.(  .$.| 5 * ; * 2 ;.7.5.1.Z.tX2XtX>XV.7.7.3.",
"e 4 2 e $X=X:X:XZ.0 u i ! 4 : e 7 9 t y ' 9 m.-X*X&X*Xi i k w ! | ^ (  .=.1.h.3. .: 2 e 3 ..6.5.5.=.( | ^ { u 7 6 > 7 <.5.1.=.n.>X=X=X,Xv.<.1.h.",
"4 > - 5 $X=X:X-Xb.w u t h 4 : 7 3 7 k q g 0 b.2X=X-X$Xu t h t ` | | ( ( 2.1.1.h.o.6 3 4 - X.7.3.3.1.( | | | t : : 7 4 <.1.1.1.n.,X=X-X-Xm.1.3.7.",
"q 8 7 e $X%X*X=Xn.i j ! ..8 7 8 8 e ` ^ ' ' b.:X#X;XJ.} i u j ` { | ] ] >.2.<.8.O.7 4 7 2 X.2.<.<.,.|  .|  .u : e > 5 o.3.1.<.C.*X=X;X*X0.<.<.2.",
"$.' | } 2.3.7.3.Z.=X*X*X*Xc.1.1.<.v.=X%X$X;X9.}  .| o.&.3.3.3.| u ! u u 5 4 7 5 q | ] ] ' ^ i y i ` 1.3.*.6.X.w u h w |  . .} %.3.7.3.0.#.| | @.",
"$.{ | X.=.1.5.1.Z.-X=X-X-Xv.<.3.1.v.-X=X*X2Xq./ | | X.2.3.1.7.O.u h w h 7 4 6 3 7  .] @.X.` u j y i 6.7.5.0.X.w ! y u ] | | | o.3.1.1.2.o.X.] @.",
"@.^ | | 1.h.5.=.Z.:X*X*X>Xv.1.5.1.V.>X*X*X2X9.' | | | 6.1.3.7. .t i j w 3 7 3 3 q | | ] @.u t ` w ! 3.1.3.3.| j y j i ^ ] ] | o.3.5.3.3.| X.^ @.",
"@.X.| @.=.1.5.*.Z.>X=X-X1Xn.1.7.5.Z.-X-X1X1X9./  .] | 7.1.h.7...0 w 0 0 3 6 3 3 8 ^ ~ ^ ( u w i w j 3.3.w.7. .0 0 q w | @.| | >.6.5.3.3.o. .@.@.",
"] u u ! Z.n.Z.Z.Z.Z.D.b.D.#.....' ;.D.b.C.D.=.o.%.*. . .} ' } #.2.7.6.6.y 8 9 4 j e.v.0.v.X.` ` ` ' o.o.o. .#.5.6.3.6./ 0 t / ' *.<.&.*.` t w i ",
"2 : : 7 *X-X>X3Xm.^ ] / | 4 - 3 : 4 ] ^ ! ^ &.7.7.3.6.3 : s & 6.1X:X1X>XX.q ! u $.tX2X-X1Xq.] @. .^ t r h q 0.1X:X>X1Xd > 7 & 9 ( ] ] { e : : 4 ",
"7 5 3 7 $X&X,X:XD.^ $.] X.e 3 7 7 q X.| | | *.3.1.1.4.4 - 4 : 4.2X&X%X%X{ h u 9 %.=X*X%X>Xq./ | ] { ` ! y t 0.-X=X=X#Xy > 7 > w | ] ( X.q 3 3 7 ",
"e - 3 8 $X&X:X*XJ.^ | ] X.5 - 6 4 9 | ^ ^ ] -.1.h.7.4.7 ; 4 & ,.3X=X*X=X| d u 0 >.>X=X&X1Xq.^ X.| { 0 w u w 0.3X*X:X=Xy : 2 : q | ] ^ | 0 > 3 7 ",
"e 4 6 q K.-X=X-Xn.^ ( ] X.9 2 4 - 9 { ( | X.*.2.1.1.<.7 4 e - 6.-X*XeX$XX.y u u X.:X=X*X:Xq.' | } { ! t u y 0.>X=X=X=Xu 6 8 : y ( ( ( @.9 3 3 7 ",
"| { ~ ' c.9.0.C.&.t u u ` ! ^ { { i ! ! u i } @.O.| %.H.P.J.P.b. .&.$.&.o.4.<.<.<.$.%.#.>.u 4 7 4 y P.$XK.K.c.#.%.#.#.D.J.J.P.F.*.1.1.2.` w w h ",
"&.^ (  .<.5.5.5.%.y h j t ] | | | { u w u h ~ ( ] ^ @.=X-X-X1Xb.~ ( ( ( 1.h.1.7.=.] ] ] ] 0 - : : y >X-X=X3Xb.! ^ { | $X2X-X-XI.3.5.5.3.} y t h ",
"@.| | ( =.7.7.4.;.0 ! t u ] ] | | ' j h y u ' X.( ( @.;X=X=X:XC.( |  .} <.2.3.5.*.} | ] $.9 3 4 : h ,X=X:X-Xc.'  .] | P.=X%X=XH.1.5.3.3.' y t h ",
"@.| |  .3.3.1.0.#.y d h j ` ] ] ^ ! t h t 0 ` | | | @.;X>X-X1Xb.^ ( (  .2.3.3.7.<. .( ( $.9 : 6 : w -X-X:X1Xb.^ | |  .P.>X2X3XJ.2.7.=.7.' u i y ",
"$.|  ...o.:.;.;.} i ` i ! $.q.=.2.=.i } ' | { { ] ' | H.K.L.P.0.u { u i %.<.*.<.;.` ` ! i t w 9 7 ! L.J.J.$X0.! | ^ | G.P.L.P.Z.%.1.=.<.} j l ..",
"$.^ | ..3 : 4 - q | | | ( J.1X=X>X*X3.7.3.3.} w 0 h t 1.1.-.h.k - 6 3 3 { | ] | ~ - 4 1 - ` X.' $.X.3.*.1.=.X.w u u r =.1.*.1.*.^ | ( ^ 1.w.3.v.",
"$.^ ] ] 5 7 3 4 w { | | ( J.>X*X=XJ.1.3.3.3...y u w j 6.3.3.B.l 4 : 7 2 { | | | ! 3 4 7 : i X.| ' X.1.1.7.h.o.q i u w 1.7.7.7.*.| | | @.1.5.-.h.",
"&.] { ] 3 3 4 : q @.] | ^ J.-X=X>XP.3.3.3.7...y j w ! <.1.1.7.' - 7 7 - } | | | ! : 7 6 - u X.| |  .3.7.3.3.O.w i h u <.1.5.1.*.] ] | ] <.5.3.h.",
"@.^ @.{ 4 - : - q @.( / ^ #X>X=X2XP.3.5.3.3.X.w h t j 2.1.7.5.' ; - - 3 j ..| | ! 1 7 > ; ` | ( | @.1.3.2.3.X.u w h u <.1.7.5.&.( | ( ( >.7.3.7.",
"^ i i ! C.F.F.F.c.>.<.6.&.=.<.=.2.2.| o. .#.u 4 4 8 4 [ } ' ~ 2.U.D.Z.F.3.%.&.1.o.! ^ ` ' ! ! ` u ! o.;.%.o.j 4 5 7 2  .o. .| 0.J.G.G.P.} 9 r y ",
"h w g k =X2X>X2XL.1.7.5.3.| ^ ] | { { | ^ @.q > 4 : 4 q u w e V.3X>X2X>Xv.5.3.3.1.(  .| | ' t y h u ^ ] | | t : 3 6 6 ^ ] ' ^ 7.2X=X>X2Xk * 6 4 ",
"` w y ` #X%X;X=XH.1.5.3.3.| ( | ] ^ | | ( | q 6 4 4 4 h i h 0 q.-X%X=X*Xv.3.3.3.<.{ ] ] | ! t j w j | | | | u : 5 1 8 ^ | $.^ 0.>X=X=X>Xj 3 s 4 ",
"! h g i =X-X:X2XH.1.3.1.0. .| |  .| | ( ( | 9 3 : 3 3 g y ` y 0.1X-X-X-Xv.1.3.3.1.| ^ | | j y u w i ] ] | | w : 6 6 1 ! | | ^ 0.>X-X-X>X' ; 6 3 ",
"` g w ` H.H.H.J.b.1.1.1.2.| ' ' ^ ' ' ^ | ' y 8 q 9 y h w q 9 2.$XP.#XJ.2.<.<.<.o.! ^ ] ` } ' j ' ! | ] ^  .` y g g i { ^ / ! 6.*XP.K.*X' 2 7 7 ",
"$.| | ! 7 3 4 1 w | ..| | 9 4 e 3 4 h y u ` o.6.4.6.,.7 4 7 : i | ^ ( | t h i j w 3 6 4 3 X.3.2.6.<.t y u w 0.eX:X-X*Xy : 6 : j 1.3.3.3.k u g j ",
"$./ | { 3 > 3 3 q @.( | X.q : > 4 7 j h w y o.7.5.3.<.4 4 3 : g ] { | | h h w t q 3 7 6 - O.7.3.3.<.h h y q 0.>X%X=X=Xy > 4 6 k 3.1.1.3.} h w i ",
"@.` ^ ^ 7 4 2 1 9 | ^ ^ ] 5 : : 3 4 t t j t X.3.3.3.<.4 : 4 : w | ] ] ^ w w u u w ; > 4 - O.7.1.5.#.0 t u w 0.2X%X*X$Xw 3 ; 3 y 3.2.3.3.k 0 w ! ",
"&.@.@.@.7 4 9 3 u &.@.@.$.0 4 4 5 0 ` ` ` j *.b.h.v.6.q 7 q 3 ! &.@.#.#.{ ` ~ ! u e e e 4 o.c.c.c.7.{ ` ! w b.4X3X4X2Xj 4 9 6 [ m.c.c.c.X.! ` ' "
};
