/* XPM */
static char *xpm_[] = {
/* columns rows colors chars-per-pixel */
"72 72 245 2 ",
"   c #150A2E",
".  c #1A0C2E",
"X  c #170627",
"o  c #1B142D",
"O  c #0E0B36",
"+  c #140A33",
"@  c #190933",
"#  c #120A3A",
"$  c #1A0734",
"%  c #181335",
"&  c #0E1037",
"*  c #28072B",
"=  c #280634",
"-  c #350B35",
";  c #271A37",
":  c #2D1130",
">  c #292637",
",  c #353838",
"<  c #2D2B33",
"1  c #4B1435",
"2  c #72253A",
"3  c #395D2B",
"4  c #3A4838",
"5  c #3B5C34",
"6  c #3C632E",
"7  c #3F6628",
"8  c #3E6433",
"9  c #3D6238",
"0  c #414D3C",
"q  c #43553B",
"w  c #41682E",
"e  c #416634",
"r  c #436A34",
"t  c #416539",
"y  c #456B3A",
"u  c #4A6D3B",
"i  c #496D36",
"p  c #4C7336",
"a  c #4D743B",
"s  c #4D7738",
"d  c #52763C",
"f  c #537B3C",
"g  c #597D3E",
"h  c #527A36",
"j  c #151244",
"k  c #181C4B",
"l  c #18194D",
"z  c #381543",
"x  c #1B2350",
"c  c #242B56",
"v  c #333253",
"b  c #2A3368",
"n  c #363B66",
"m  c #343C74",
"M  c #2C3F71",
"N  c #1E2F61",
"B  c #451849",
"V  c #4D1953",
"C  c #552B51",
"Z  c #6F2B4D",
"A  c #743670",
"S  c #5E285E",
"D  c #354470",
"F  c #3E4B43",
"G  c #4A5942",
"H  c #4B4F4C",
"J  c #59694A",
"K  c #4D7244",
"L  c #527542",
"P  c #547C41",
"I  c #5A7D43",
"U  c #597948",
"Y  c #52694A",
"T  c #687857",
"R  c #657452",
"E  c #514F6A",
"W  c #6B506B",
"Q  c #676E63",
"!  c #8C3555",
"~  c #A53E5C",
"^  c #B13F57",
"/  c #8A3B7C",
"(  c #BA4764",
")  c #AC4E70",
"_  c #A54460",
"`  c #CA425B",
"'  c #C84258",
"]  c #D64E5C",
"[  c #C54861",
"{  c #D65466",
"}  c #E55B67",
"|  c #DA6A72",
" . c #ED6469",
".. c #EC6667",
"X. c #F26465",
"o. c #F2636A",
"O. c #EB6D78",
"+. c #56813D",
"@. c #5B833E",
"#. c #5E893E",
"$. c #5D8637",
"%. c #628B3E",
"&. c #5C8442",
"*. c #5E8942",
"=. c #5D8349",
"-. c #568141",
";. c #618545",
":. c #628B44",
">. c #63854B",
",. c #648C4A",
"<. c #6A8D4B",
"1. c #698D46",
"2. c #659144",
"3. c #6A9246",
"4. c #669249",
"5. c #6B934B",
"6. c #6C984B",
"7. c #72944E",
"8. c #75994D",
"9. c #6B8A52",
"0. c #6D9352",
"q. c #6E9358",
"w. c #749553",
"e. c #799654",
"r. c #759A54",
"t. c #7A9A55",
"y. c #7A955A",
"u. c #7C9B5A",
"i. c #759759",
"p. c #728E53",
"a. c #7DA25A",
"s. c #7BA255",
"d. c #7C9263",
"f. c #7FA760",
"g. c #819E5C",
"h. c #82A45B",
"j. c #85A95B",
"k. c #8CB15B",
"l. c #839E62",
"z. c #8AAC64",
"x. c #87A864",
"c. c #8DB366",
"v. c #95BA6C",
"b. c #99BC6D",
"n. c #92B568",
"m. c #99BB71",
"M. c #92AC6D",
"N. c #A1BA7B",
"B. c #9DC373",
"V. c #9DC36C",
"C. c #A4C76E",
"Z. c #A3C673",
"A. c #A5C974",
"S. c #AACD75",
"D. c #A4C67A",
"F. c #A6CA7A",
"G. c #AACD7A",
"H. c #A8C777",
"J. c #ADD17B",
"K. c #AED376",
"L. c #B1D57C",
"P. c #3D4C8B",
"I. c #434C8A",
"U. c #4C5A90",
"Y. c #516696",
"T. c #6D6E8E",
"R. c #556AAE",
"E. c #5767AA",
"W. c #4E6DB3",
"Q. c #536BB3",
"!. c #5669B3",
"~. c #5675B7",
"^. c #5472AF",
"/. c #667BB4",
"(. c #505EA3",
"). c #9A478B",
"_. c #9B4891",
"`. c #A9468B",
"'. c #B44A8B",
"]. c #A54692",
"[. c #B9528F",
"{. c #896A86",
"}. c #CC5B95",
"|. c #CD5994",
" X c #DE6694",
".X c #DD6994",
"XX c #D76999",
"oX c #CF7196",
"OX c #E16693",
"+X c #E16697",
"@X c #E4759A",
"#X c #EA7880",
"$X c #CA6EA4",
"%X c #EB7CA2",
"&X c #5D81BE",
"*X c #7687BC",
"=X c #5D82C2",
"-X c #6488C6",
";X c #6B95CE",
":X c #6C98D2",
">X c #739CD4",
",X c #799ACA",
"<X c #72A4D5",
"1X c #7AA2D3",
"2X c #73A3D9",
"3X c #78ABD8",
"4X c #74A3D0",
"5X c #8D93B7",
"6X c #9D8CAB",
"7X c #D28796",
"8X c #F08492",
"9X c #D894A8",
"0X c #D192A8",
"qX c #F599AB",
"wX c #F49DB3",
"eX c #F99BB5",
"rX c #EB91AB",
"tX c #DEA5B6",
"yX c #AACD81",
"uX c #ADD281",
"iX c #B4D684",
"pX c #B0CF81",
"aX c #8C97C6",
"sX c #9495C5",
"dX c #839CD3",
"fX c #92A2C5",
"gX c #85B6DB",
"hX c #87AACD",
"jX c #A4B2CF",
"kX c #87B9E1",
"lX c #B6C5DE",
"zX c #95CDE6",
"xX c #95CCEA",
"cX c #99CAE9",
"vX c #8EC4E7",
"bX c #BAC9E3",
"nX c #CCDCEC",
"mX c #C8D4E9",
"MX c #D2DCEB",
"NX c #CCDCF1",
"BX c #D9E8F3",
"VX c #FDFBFD",
"CX c #F3F9FD",
"ZX c #F0ECF3",
"AX c #F5D3E3",
/* pixels */
"*.+.-.=.K.iXK.L.V.#.6.2.4.p i y i p -.+.+.-.+.-.-.&.-.a.h.h.t.b.L.L.J.K.4.P &.-.&.3.2.2.6.d r y y f t.u.u.x.9.y i y w :.4.4.2.@.r K a K 5.6.6.4.",
"-.s s &.b.Z.D.Z.c.+.*.#.:.i 8 8 8 i f f f f f f f s P r.t.e.7.j.C.H.Z.Z.@.s h s +.*.*.%.:.a 6 r 8 i w.u.u.x.9.K u u r &.:.*.#.f 6 i a u >.4.0.4.",
"+.d d &.A.K.F.J.n.#.:.:.*.y 8 8 8 r P P s d d d d f g w.e.t.w.c.L.H.H.G.1.s f f P ,.*.*.:.a e 8 8 u t.i.d.f.=.K L Y a *.&.@.:.f 5 q t y 9.q.4.0.",
"*.P f g c.v.v.v.s.:.1.:.4.s p a i i &.I @.&.-.g +.f &.u.h.g.g.z.b.b.b.v.*.d g g -.*.*.*.*.a r r 8 u x.z.x.z.q.K K K K q.w.p.<.;.d d g P 9.,.,.9.",
"4.*.2.*.i 8 r r I t.t.u.u.,.*.*.*.<.r.t.t.t.<.:.:.*.2.B.F.G.yXr.7 r r i &.:.*.*.#.f f h +.i e w 6 d Z.G.yXpXx.U =.>.=.u.x.u.u.M.G.N.Z.F.>.i u K ",
"4.#.#.*.9 y 8 8 P u.t.t.u.1.:.:.%.1.a.r.t.t.1.%.*.*.2.A.C.C.J.u.3 r 8 6 *.,.*.2.@.f P f g i t r 8 p D.G.G.pXf.L P >.I u.l.l.u.c.L.A.Z.A.g e K K ",
"4.:.*.*.y 8 w 8 g u.w.i.t.1.:.%.*.1.t.e.e.u.4.:.2.*.2.Z.A.C.G.r.5 r i 8 *.#.*.4.*.f f f f u e t 8 s F.H.D.L.h.P P f f y.l.l.l.M.G.yXF.yXI t e y ",
"4.*.2.:.y 8 p 9 P g.t.u.t.:.&.@.&.1.u.t.t.u.5.:.:.:.3.F.G.G.L.u.3 r e t *.%.,.:.*.s f f f y e r 8 a F.G.pXiXz.U I d L q.e.u.u.M.iXpXpXiX9.t e 8 ",
"*.&.@.-.a s a y @.7.5.5.4.h.k.j.j.a.4.5.6.4.*.a f f -.s.j.a.j.1.i a a a -.&.@.+.@.@.@.@.+.&.;.I I >.q.q.0.a.5.,.,.g @.x.M.m.m.M.h.h.h.x.q.9.p.9.",
"-.f h f P P P P h ;.#.#.:.b.J.G.G.V.2.@.*.4.s 6 8 8 8 +.#.+.*.-.P f f d f s f s -.4.*.:.1.7.t.u.g.3.7 3 5 9 I r.4.0.1.m.pXpXiXM.d =.U U d.x.h.h.",
"+.f f s d f P -.@.:.:.:.@.v.F.Z.F.n.:.:.*.*.f y y 8 p 2.2.2.:.&.f f s -.P f g f P ,.*.:.;.7.t.e.e.p.t y 8 y =.5.0.<.,.B.G.G.uXz.I P &.I u.u.i.l.",
"+.L P P f f d s &.:.:.:.$.v.K.A.S.V.%.:.1.< o o > o o o > < :.+.s P P s f d f f +.*.2.*.%.w.t.t.t.<.e r 8 9 U 5.4.0.q.F.G.S.uXz.u d p g i.d.< > ",
"-.+.f s +.@.g @.&.*.*.:.:.c.F.Z.Z.c.;.=.U   @ #   + # $ $ + 1.+.f f I P f P d s +.3.%.%.3.7.q.p.w.<.i r i e P 4.4.5.>.yXpXH.D.x.f I I ;.<.I . $ ",
"2.*.*.4.B.B.B.B.a.8 y y r d I g K q 4 F H m m m D M m m D m Q Q Y J >.r.p e i r =.F.V.F.D.,.w i u u *.&.&.*.&.d =.=.=.u.g.g.t.h.m.d.T T G C Z Z ",
"6.#.*.:.Z.G.A.J.h.6 y 8 e a f h :   + + l !.~.Q.Q.Q.Q.!.!.E.l + $ @ , u.i e y 3 -.K.Z.A.pX,.6 e 6 y ,.*.*.#.&.P &.=.>.u.g.p.w.j.B.o + * . 1 ( ( ",
"4.*.,.3.B.H.A.G.h.6 y r r d d L c l x x b ~.~.~.~.~.~.~.~.^.N x l x v p.i r t 6 =.F.A.A.G.,.6 r r i #.&.*.:.-.K &.U >.y.g.y.p.g.M.1 1 1 1 2 ] ] ",
"4.*.:.4.A.J.J.L.f.3 e r 8 u o O U.R.W.R.~.2X2X2X2X2X2X2X2X2X^.Q.R.R.I.  o q t 5 I L.C.S.uX,.6 9 8 r :.:.:.1.@.f h P >.y.x.l.J X : _ ( ( ( { ..X.",
"*.+.+.-.a.a.a.z.0.a a a s G # O U.W.W.W.~.<X<X<X<X2X2X2X2X2XW.W.W.W.I.# o i p i ;.b.n.n.v.1.a f a K &.+.h g g =.>.0.p.9.9.9.G * * ^ ' ' ' ] ....",
"#.K -.f 8 8 6 3 p 1.1.t < v Y.(.;X:X>X>X2XxXvXxXxXkX3X<X<X2X<X:X>X<X-X(.Y.c > u &.y.y.p.i.5.#.2.2.&.7 8 t 6 >.g.w.g.d.U 4 > C _ ^ O...X...O.qXqX",
"-.f f s r r r y p :.*.4 O l E.W.;X<X2X<X3XxXzXzXxX3X<X3X<X<X<X<X2X<X;XW.E.j + 4 @.t.u.u.e.7.:.*.:.&.y r t e I t.t.w.x.L ; * 1 ( ' X...X...O.wXqX",
"-.f f s y 9 r y p @.q E m P.=X-X<X4X3XgXkXxXxXxXzXvXgX3X<X<X<X<X2X<X:X-X-XD m E G >.e.e.t.5.*.:.:.&.y r e 8 I u.g.e.R G C Z ! { ..X...#X8X8XqXqX",
"-.L P f 8 r r 6 s > . b R.~.<X<X<X3XgXzXxXzXxXxXzXzXzXvX<X<X<X3X<X<X1X<X>X~.!.b + , e.u.u.5.&.*.:.@.w r y 6 &.u.p.y.o X ! ' ] o.......8XqXwXqXwX",
"2.-.*.1.c.v.v.v.a.; + b !.~.<X4X4XhXhXhXgXxXzXzXzXzXzXvX<X<XhXhXaX-X;X<X2X~.!.b # < :.1.1.d y y i a -.&.@.@.+.&.g I @ $ ! [ ] ....| | 7X9X9XqXqX",
"6.*.*.<.A.K.A.J.z.; + b Q.~.<X4XBXCX5X% n xXxXzXzXzXzXvX4X4XBXCXT.& D 1X2XQ.!.b # < :.%.:.a e e e i :.:.1.1.@.s d d ; $ Z ` ] ....ZXCXW < Z wXwX",
"2.*.*.2.B.F.A.G.j.> # b R.~.<X,XBXVX6XX v xXxXzXzXxXxXvX<X4XZXVXT.o b 4X<X~.W.b j > =.*.4.y e y 8 a :.:.:.%.I g f L * * ! ' ] ..| ZXVXE . C wXqX",
"6.2.:.2.A.S.A., > I.Y.!.>X:X<X<XD F >   v cXzXzXxXkX3X3X<X1Xn v ; . n 1X<X>X:X^.(.E > < 4.s 6 e 8 8 *.-.&.#.g y ; < ! ~ [ .. .X.| C C % X W wXqX",
"&.-.g @.z.z.x.  j I.Q.=X2X<X<X1Xc $ # + v xXxXxXxX3X2X2X<X3Xk # # # n 1X<X1X<X&XQ.I.O % =.-.f g P @.t.s.r.s.<.J $ * ~ ` { X.X.X.| * + +   C wXqX",
"r y 8 6 s d d   O P.Q.=X2X<X2X1Xc $ $ + c kXvX3XvX3X2X<X<X1Xk % @ + b 1X2X<X<X&XQ.I.O @ -.0.u.i.t.h.S.G.S.K.c.R . - ~ ' } X.X.X.| * @ $   C 8X8X",
"i 8 e i d g I   O P.Q.=X>X2X1X1Xc + # O c 1X<X<X3X<X<X<X<X1Xk @ $ @ n 1X<X<X2X=XW.I.# % I <.t.g.w.u.F.F.F.S.n.R X = ^ ` { X.X.X.| *     + 2 .. .",
"r y e r P P U   j I.!.~.2X>XaX5XC z z l b 1X2X2X<X<X2X2X2X1XN x z - E sXaX1X2X&XW.P.# @ I 1.e.t.e.h.A.A.C.S.c.J   = ~ ` } X.X. .} 1 - 1 : 2 ..X.",
"r 8 e e f f U   O I.Q.=X2XaX$X$XoX$X6X,X<X<X2X<X2X2X2X2X<X<X1X1X$X$XoX$X$XaX<X&XW.I.O . I w.g.t.w.h.H.G.J.G.M.R @ * ~ ` ] X.} ' ' ( ( | ....X. .",
"0.4.<.,.&.&.=.  # P.W.=X1XsX$X$XoX$X6X>X2X<X2X<X4X,X4X,X<X<X<X1X5X$XoX$X$XaX>X&XW.I.+ @ 9.g d L L +.r.8.r.r.4.G   * ~ ' } X.} ' ' ' '  .X...X.} ",
"h.u.t.t.1.*.>.+ O I.R.R./.~.aXsXsXsX>X<X2X<X>XD x x x D <X2X2X<XdXsXsXsXsX~.~.Q.W.I.O . <.a 8 8 8 8 *.*.@.*.&.q @ * ~ ` ` ] ] }  .} } X.o.....| ",
"h.e.t.r.:.*.,.@ O D ^.W.!.~.>X2X<X2X<X<X<X<X1XN &   & N 1X2X2X<X<X4X2X2X>X~.W.Q.W.P.#   <.s 8 r r i *.2.:.%.&.G   X ! ' ` ` ] o.X.X.o.X.o.X. .| ",
"h.i.t.r.1.*.4.5 H E E U.!.^.-X=X:X<X<X<X<X<X1XY.U.E U.Y.4X<X<X<X<X2X>X=X-X~.W.P.m E 0 q ,.a 6 r 8 y *.:.%.*.g a 4 , C Z ~ ' ` } ] X.o.o.X.X.X...",
"t.w.q.r.&.-.&.g r., O n /.^.^.W.:X2X2X2X2X2X2X2X2X2X<X<X2X<X2X2X<X>X;XW.Q.Q.Q.b & < #.*.&.s i i i a *.*.*.*.*.,.:.>.: * Z ' ` ` ' o.o.o.X.X.X...",
"5.:.:.;.r w r 6 P H > E *X*X!.R.;X;X;X;X:X:X;X;X:X:X:X:X:X:X;X:X;X;X-XW.W.(.I.m > 4 s f g *.:.:.*.*.f f f s a.yXF.D., o C ~ ^ ' ' } } } } } } } ",
"3.*.:.&.r r y 8 P u.u.F & k E.!.W.W.W.Q.Q.Q.Q.W.W.W.W.W.Q.Q.Q.W.W.Q.W.Q.E.l + Q n.s P d f &.:.%.:.*.f f P s a.J.C.C.K.3.< = 1 ( ` ' ` ` ' ` ` ' ",
"6.*.:.:.r e y e I g.i.G . k Y.R.R.R.R.R.R.R.R.R.!.Q.Q.!.R.R.R.!.!.R.!.!.E.k o d.k.h f g s @.:.:.*.*.f P P s a.K.C.Z.C.3., . C ( [ ( ( ( ( ( ( ( ",
"2.:.:.>.w 3 6 3 d g.t.g.y.T l j j j j j j j j j j j j j j j j j j j j j % m.D.G.n.f d P f &.%.1.:.*.s f g p a.iXG.J.J.3.:.1.G - - - * - * - = - ",
"P s f a a.s.u.s.i.*.,.&.,.u o O +   + +   +   + @ @ @ @ .   +     @ @ . o z.j.M.t.i u u t ;.7.3.7.p.@.@.+.&.1.q.q.q.p.<.7.5.J X $ $   + $ +     ",
"8 9 9 K yXF.J.iXj.a L f P e 4 4 4 4 G 5 4 q R T T T T G q 4 0 q G G G G J 8.e.t.<.w r e w <.g.t.t.t.%.:.,.:.p 3 7 3 w p.u.u.p.9.l.d.d.d.R J R J ",
"p 8 r p b.A.F.F.k.s g f -.r r r r p f f &.p z.S.C.C.D.g P -.f @.2.*.*.2.w.e.u.u.1.8 y y e >.i.u.i.8.:.:.#.*.d y r y r w.y.t.w.j.J.C.C.S.g.p.t.g.",
"8 y 7 r B.S.G.S.j.a f f d y 8 r 8 y P f K p z.K.A.S.B.f K P d -.:.%.:.*.r.t.e.g.<.t e t 6 <.u.t.t.r.%.:.*.2.f 8 8 9 r q.t.t.e.j.H.C.S.H.h.t.g.t.",
"i K y i b.A.B.H.j.g &.@.;.i i u u p &.@.&.&.j.F.V.B.m.:.f f g &.*.*.*.*.q.r.p.w.<.i r r i ,.r.w.w.q.:.:.1.1.f e i 8 r 5.t.e.w.j.D.F.Z.D.a.w.r.r.",
"4.&.:.;.s.t.g.t.z.A.H.B.Z.h.w.e.w.a.A.A.B.F.s.&.1.:.4.5.t.t.t.;.f -.f f i r i y i ;.*.:.&.@.f f g &.w.t.w.r.:.s f P d ;.1.1.;.7.t.g.t.s.3.,.*.2.",
"4.*.:.,.8.e.y.w.z.H.A.S.G.h.e.t.e.h.S.C.F.F.s.$.,.:.1.t.t.e.t.<.f f f P r t r 8 a :.*.:.2.-.f P f g t.u.u.a.1.s -.P g *.:.:.;.<.e.e.w.t.1.,.*.2.",
"2.*.%.,.8.g.y.e.j.G.Z.D.G.h.w.u.p.x.G.C.Z.K.s.&.*.:.:.i.e.t.g.>.f g f f r r 8 r a :.:.*.4.f s -.a @.e.t.i.r.,.P d P f #.*.:.:.4.t.u.i.r.1.*.@.2.",
"4.,.%.2.8.e.y.<.z.L.A.S.J.j.t.g.t.z.S.F.G.uXs.$.1.:.1.u.i.h.g.1.a s s s e t r 8 i #.@.@.*.f f f s I t.i.d.a.1.s s s a :.4.:.:.0.i.i.t.s.<.:.2.2.",
"#.f f -.z.j.z.c.z.z.k.j.c.3.>.>.I 0.c.k.z.c.r.<.<.5.1.:.&.&.@.<.r.a.t.r.d y p r -.x.h.a.h.,.g -.-.&.5.<.<.1.5.t.r.t.r.@.s h h %.7.w.7.7.@.f f g ",
"r 8 8 y D.S.S.L.k.@.:.@.*.w 6 6 8 r #.@.+.#.3.r.i.t.t.8 9 K 5 t.L.F.J.G.,.a @.f 0.J.K.A.J.s.#.2.:.*.h s d a j.J.G.S.uXa 5 K 6 p %.*.:.:.a 8 6 r ",
"i r 8 i V.C.H.F.c.@.1.*.,.a t y y a ,.2.:.:.8.t.y.e.i.r 7 8 5 i.J.C.C.A.&.P f p 4.F.A.V.G.s.#.*.:.&.@.g f a s.S.A.Z.V.f 9 r r a :.*.*.:.a 8 8 y ",
"y 7 8 i B.S.S.D.n.#.:.*.,.i 8 r e p ,.#.%.;.7.t.g.u.y.y w e 3 q.J.A.F.A.:.L f s 0.K.A.Z.J.s.#.,.:.*.s f f s a.J.Z.J.C.d 9 r 8 a 1.#.#.:.a 8 e y ",
"s 8 e K V.S.H.A.k.%.%.*.,.p 7 r 8 p &.:.:.,.7.8.e.r.w.y t y 8 t.S.A.F.B.,.d f d :.F.A.A.F.s.&.*.,.*.+.h g d a.G.A.B.A.g 9 y 8 f %.:.:.:.p r w y ",
"4.&.*.&.a.h.t.z.6.f f +.&.-.*.*.*.-.@.+.f f ;.:.1.1.1.n.b.v.b.j.2.6.6.3.<.y.w.w.w.4.4.5.0.f r y r L m.V.V.B.a.3.5.6.3.c.b.v.b.c.7.w.t.w.P f d P ",
"4.*.%.2.w.r.y.i.1.f P P s &.4.*.:.*.f h f 0 4 0 4 4 0 J R R L.j.%.#.%.%.w.g.t.i.8.*.*.:.*.s 8 8 8 d G.F.Z.J.j.+.#.*.:.B.S.A.G.m.t.y.t.t.&.d t 5 ",
"4.*.:.:.w.u.u.i.0.s P d f *.*.#.4.;.P L P . $ $ $ $ $ $ $ $ D.x.@.1.;.;.w.e.t.u.7.;.:.#.1.a 8 r e L A.C.F.S.h.*.:.:.:.B.A.V.S.n.w.y.t.w.&.K % & ",
"4.*.1.:.s.u.w.a.3.a d P -.&.*.*.P L L U J B B B B B B B B z yXd.I P %.1.r.t.t.u.w.#.%.:.4.p 8 r 8 p S.S.F.L.j.@.1.:.:.B.G.K.J.b.w.y.p.d.J J v C ",
"4.#.:.1.<.>.0.<.1.f &.+.g 6.s.6.H @ . X z _.].]._._.].].]._.z X . o 4 I <.7.7.w.0.&.&.@.f f p a p P b.b.v.b.a.+.&.@.*.n.b.n.b.z.0.< o % % n sXfX",
"4.#.:.:.r q 8 8 u :.:.;.%.v.uXF.H = = = B `.'.`.`.].`.`.`.].z = = = , u >.:.:.:.@.6 8 8 6 &.*.*.4.,.t.8.w.e.,.d g f h w.e.7.t.w.,.> # % & n fXfX",
"4.%.*.*.r i 8 p a 2.*.1.#.c.H > / _._.).].XXXX+X+X+XXX+X+X+X]._._.).A : < >.*.1.@.e r r 8 g ,.:.&.1.w.i.u.g.<.a g f s w.g.g.p.> > 5XaXaX5XfXnXnX",
"6.*.4.*.r 8 8 8 a 2.*.%.$.M.: = / `.].].'. X X X X+XOX XOX+X`.`.].].A = o 9.:.*.+.e t r 6 P :.:.%.1.t.u.t.t.<.p g f g w.e.y.9.X % 5XfXfXfXjXnXBX",
"2.@.*.*.i 8 8 6 a :.#.f 4 Q A A [.}.|.|.}.rXrX%XrX@X X X X X|.|.|.|.'.A A H 0 &.@.e r 8 6 +.*.%.:.2.e.t.t.t.4.P a P g r.T G H E U.lXlXlXbXnXZXBX",
"*.@.f &.x.c.c.z.j.0.w.R X - ).`.}. X X+X@XeXwXqXeX%X X XOX X+X+X X X}.`._.- . T <.+.-.&.-.@.+.&.g +.>.0.4.<.P r i y w 1.q @ v E.5XnXnXnXMXBXVXVX",
"-.a L P F.S.G.K.b.p.p.Q V S '.'.XXOXOX@X7XeXeXwXeXrX@X@XOX.XOX.X.X X|.[.'.S V Q T ;.1.:.:.&.s d f f #.*.*.:.f 8 8 8 t L H D T.jXjXNXnXBXMXZXVXVX",
"-.f a @.V.C.H.A.M.q X V ].'.XX X+XOX%XwXwXwXwXwXwXwXwXrX.X.X.XOX.X XOXOXXX'._.V @ 0 :.*.:.@.d g f -.:.:.:.:.f e i r < o T.fXjXNXNXnXnXZXVXVXVXVX",
"+.-.a f A.A.G.G.v.H + S ].'.OX XoXoX0X9X0X9X9XqXwXwXwXrXOXOXoX7XoX}.oX.X X'.].S @ 4 #.2.1.+.d g s f *.:.:.:.s 8 8 t > % T.fXjXnXnXMXMXBXBXZXVXVX",
"+.K P -.v.n.v.v.h.H $ V ].'. XXXAXZX6X: C 7XtXtXqXwXwXrXOXXXAXVX{.* C .X X'.].V @ 4 &.&.I ;.I I &.@.:.*.@.:.&.d P L > & Y.5XjXnXnXCXVXQ ; Q VXVX",
"4.:.*.&.r r r w u 0 = V `.'..XXXAXVX6XX > 9XtX7X7XrXeXqXOXoXAXVXT.o V .XXX`.].V $ , e 8 e >.e.8.r.q.d f g s a.uXK.G.v % T.fXjXNXMXVXVXE + E VXVX",
"2.#.:.*.9 9 r , , W A `.}.XX+XoXW E v   z 0X0X9X9XoX@X@X+XXXW E z   C .X+XXX}.).W S , 4 e <.g.8.t.r.g d d p a.F.J H T.T.fXbXmXnXMXE E ; + E VXVX",
"*.*.#.@.u 9 w o $ A `.[. X XOXXXB @ $ @ B 0X0XtX9XoX.XOX X@X- . + $ C .XOX X+X|.'./ $ o w >.g.e.i.5.f h f p a.F.o % 5XfXbXnXnXMXMX.   + % E VXVX",
"4.2.2.2.y r p o = A ].[.+X.X.XoX1 @ $ + < oXoX7XoX@X.X X.XXX- $ $ $ C .X.X X.X[.].A $ % y <.h.g.h.a.&.-.+.+.h.G.o % *XfXbXnXnXnXmX% # @ $ E ZXZX"
};
