/* XPM */
static char *xpm_[] = {
/* columns rows colors chars-per-pixel */
"72 72 228 2 ",
"   c #150C2E",
".  c #180C2E",
"X  c #150A33",
"o  c #180C32",
"O  c #150D39",
"+  c #190F3B",
"@  c #141136",
"#  c #1A1332",
"$  c #16113A",
"%  c #1C193A",
"&  c #130F2E",
"*  c #24193A",
"=  c #2B0F34",
"-  c #272734",
";  c #333C36",
":  c #2A2D31",
">  c #395D2B",
",  c #3A4738",
"<  c #3A5833",
"1  c #3C632D",
"2  c #3F6628",
"3  c #3E6433",
"4  c #3E6339",
"5  c #445A3A",
"6  c #41662E",
"7  c #42692D",
"8  c #416634",
"9  c #436A34",
"0  c #496E35",
"q  c #416639",
"w  c #456B3A",
"e  c #4A6D3B",
"r  c #4A643C",
"t  c #4B7335",
"y  c #4D743B",
"u  c #4E783A",
"i  c #4D7636",
"p  c #527B36",
"a  c #52763C",
"s  c #537B3C",
"d  c #597E3E",
"f  c #517636",
"g  c #1E1B43",
"h  c #211C45",
"j  c #221A49",
"k  c #272548",
"l  c #2B2B52",
"z  c #34335A",
"x  c #383759",
"c  c #32314D",
"v  c #3B3E64",
"b  c #473D58",
"n  c #3C4165",
"m  c #3D4268",
"M  c #3C4240",
"N  c #4A5845",
"B  c #49524E",
"V  c #4B6843",
"C  c #586C48",
"Z  c #4D7244",
"A  c #537542",
"S  c #547B41",
"D  c #597D43",
"F  c #597A49",
"G  c #586650",
"H  c #63794B",
"J  c #677B54",
"K  c #444869",
"L  c #544C68",
"P  c #575369",
"I  c #474D74",
"U  c #4D537A",
"Y  c #545777",
"T  c #65597A",
"R  c #6D5C75",
"E  c #596172",
"W  c #636F7B",
"Q  c #C94275",
"!  c #56813D",
"~  c #5B833E",
"^  c #5E893D",
"/  c #5D8637",
"(  c #628B3E",
")  c #568141",
"_  c #5C8442",
"`  c #5E8942",
"'  c #5D8349",
"]  c #5E8849",
"[  c #618545",
"{  c #628B44",
"}  c #698E45",
"|  c #63854A",
" . c #648C4A",
".. c #6A8D4B",
"X. c #6A874F",
"o. c #659144",
"O. c #6A9246",
"+. c #669249",
"@. c #6B934B",
"#. c #6C984B",
"$. c #73944E",
"%. c #74994D",
"&. c #6C8C52",
"*. c #688754",
"=. c #6D9352",
"-. c #6E9358",
";. c #749553",
":. c #799754",
">. c #759A54",
",. c #7A9A55",
"<. c #759559",
"1. c #7A955A",
"2. c #769B5A",
"3. c #7C9B5A",
"4. c #728D53",
"5. c #7CA155",
"6. c #7DA25A",
"7. c #79A255",
"8. c #7C9B62",
"9. c #798E64",
"0. c #7FA760",
"q. c #819E5C",
"w. c #81A257",
"e. c #82A45B",
"r. c #84AB5C",
"t. c #89AB5E",
"y. c #84AA55",
"u. c #8CB15B",
"i. c #829A64",
"p. c #84A462",
"a. c #86AA62",
"s. c #8AAC64",
"d. c #8CA96A",
"f. c #91AD6C",
"g. c #8CB265",
"h. c #8DB46A",
"j. c #92B465",
"k. c #92B56B",
"l. c #95BB6C",
"z. c #99BC6D",
"x. c #96B965",
"c. c #9BBD71",
"v. c #95B771",
"b. c #91AC72",
"n. c #9CC26C",
"m. c #9DC373",
"M. c #A2C66E",
"N. c #A6CA6E",
"B. c #A3C673",
"V. c #A5C974",
"C. c #AACC75",
"Z. c #A4C67A",
"A. c #A5CA7A",
"S. c #AACD7A",
"D. c #A8C777",
"F. c #ADD17B",
"G. c #ADD376",
"H. c #B1D47D",
"J. c #B4D97A",
"K. c #575A82",
"L. c #5C628A",
"P. c #5A6387",
"I. c #5E6993",
"U. c #65688C",
"Y. c #6D728B",
"T. c #70728C",
"R. c #626993",
"E. c #676A97",
"W. c #6B739B",
"Q. c #6D7396",
"!. c #727695",
"~. c #78648F",
"^. c #757BA6",
"/. c #6E75A2",
"(. c #8C6893",
"). c #BA779C",
"_. c #CC6E98",
"`. c #D06E97",
"'. c #CD79A3",
"]. c #CD5A89",
"[. c #7F89AC",
"{. c #848DB3",
"}. c #8D95BA",
"|. c #8990B0",
" X c #93A2BF",
".X c #A98AA7",
"XX c #CC8CAD",
"oX c #C0A6BB",
"OX c #AACD81",
"+X c #ADD281",
"@X c #B4D684",
"#X c #B0CF81",
"$X c #949CC3",
"%X c #959CC6",
"&X c #8F9AC2",
"*X c #8FA3C4",
"=X c #93A2C5",
"-X c #95A2C8",
";X c #9AA5C9",
":X c #A2AACB",
">X c #A4B4CE",
",X c #A5B5D2",
"<X c #ACBAD6",
"1X c #B3B9D6",
"2X c #D7B8D3",
"3X c #D6B3CF",
"4X c #B5C5DE",
"5X c #B9C7DC",
"6X c #BBC9E2",
"7X c #D9C3DB",
"8X c #C3CDDE",
"9X c #C1CCE4",
"0X c #C3D3E9",
"qX c #CDDCED",
"wX c #C8D5E7",
"eX c #D1DCEC",
"rX c #D7D6E9",
"tX c #CCDCF1",
"yX c #D4D5EB",
"uX c #E1CDE7",
"iX c #D8E3EC",
"pX c #D2E2EF",
"aX c #E5E7ED",
"sX c #E9EDF3",
"dX c #E8F1F6",
"fX c #E9F1F8",
"gX c #FDFCFD",
"hX c #F5F6FD",
/* pixels */
"` ! ) ] C.J.F.J.x.o.#.o.+.i 0 w 9 t ) ! ) ~ ! ) _ _ ) 7.w.q.3.z.J.G.H.G.+.s _ ) _ o.o.o.#.a 9 0 w S ,.3.8.s...e y 8 7 { o.o.o.^ 9 Z a Z @.#.#.#.",
") u u D z.B.Z.V.g.! { ^ { 0 3 3 9 0 s s u a u s s i D 2.,.,.$.t.N.D.B.B._ y p i d { ^ ( { y 3 7 3 9 >.3.3.p.*.V y V 9 _ ] ` ` f > e e y | +.-. .",
"! u a _ V.F.C.F.j.` { { ] 0 4 4 q 7 S a p a a S S p s ;.,.:.;.j.H.Z.S.S.[ a d a S { { { { y 4 9 3 w :.,.8.q.] Z y Z V ] ~ ^ { S 5 8 8 9 *.=.=.#.",
"` D p d g.l.l.l.6.{ { {  .u 0 i 0 e _ _ D _ _ s s s ~ q.w.q.q.s.z.z.l.k.[ p ! ) ) ] ` ` [ y 8 9 3 y p.d.a.f.*.Z A Z S -.;.;...D a A a F  .&.] &.",
"+.` o.] 0 3 3 9 F 3.,.,.7. .[ [ { ..,.2.:.,...{  .` o.m.S.S.OX>.2 9 9 0 ` { ` ` ` s s p ! w 3 7 1 A Z.S.OX@X0.F ' | H 3.i.3.3.k.OXm.B.A.X.9 y A ",
"+.^ ` ` 4 w 9 3 S 3.:.,.,.} ( { ( ..,.>.3.,.} ^ { ` o.B.N.n.F.2.> 8 3 1 `  .` o.^ u S u d 0 q 9 3 t Z.D.S.#Xa.Z D [ _ 3.p.i.q.f.F.B.B.Z.s 8 Z V ",
"+.{ ` ^ w 3 7 3 d ,.:.,.,.o.{ { { { ,.:.:.3.+.( { ` o.B.C.N.S.2.< 9 0 3 ` ^ ] o.` u ! s s e q 9 3 i A.V.Z.H.a.S D u D <.i.p.i.f.S.S.S.S.' q 6 w ",
"+.] o.{ 3 9 0 4 D q.,.3.2.[ _ ^ _ } 3.,.,.3.=.{ o.` O.A.S.S.H.,.1 w 3 q { o.[ { ~ u S s s 9 8 1 3 y D.S.S.@Xd.D ' y a =.:.3.3.b.@X#X#X@X*.q 9 5 ",
"` _ ~ _ e i y e d $.@.@.+.e.u.r.r.6.+.@.#.+._ u p u D 6.r.6.r.+.0 i y y ) _ _ ! ~ ~ ~ ~ ! _ [ H D [ <.-.=.2.#.| | ! ~ p.f.v.c.f.p.e.6.p.-.*.4.X.",
") y p s S ) S S d ( ^ ^ { z.F.S.F.l.{ ` {  .i 1 3 3 3 ~ / ~ ^ ) a s s a p u a u ) +.`  . .$.,.q.3...2 > < q D =.+.=.| c.@X#X@Xv.f ' ' S 9.d.e.p.",
"! s s u s u s ) ! { [ { ^ l.A.B.S.x.{ { ` [ S 3 V 4 w [ +.` { _ S u s D S s ) a ) { ` ` ( $.:.:.,.&.w 9 w w ' @.=. ...m.C.C.#Xd.D a _ D 8.8.3.q.",
"! S S ) u S a y ) { o.( / l.F.V.C.l.( { } a , ; ; ; ; , 5 e { _ u S u u s S a p ! ` o.` ^ %.3.:.3.=.8 8 3 3 F #.+.=.=.A.S.C.F.d.y a y f <.6.H C ",
") u ! u ) ~ _ ~ ~ ` ` ` { g.Z.B.B.h.` | d # X o   o X o o - } ~ s s D D u S y p ! #.( ( O.$.<.<.<...0 6 8 q D @.+. .&.Z.#XZ.Z.t.s H d d | *.# X ",
"+.` ] +.n.m.m.m.6.3 w w 9 f _ d A a q V N z z x z z z z c K b.i.4.4.;.;.t 4 w 9 ' A.m.V.Z.{ 6 9 e e ] ` ` ` ~ a ] ] ] 8.i.q.,.e.c.f.k.b.H V g g ",
"#.( { ( B.S.C.F.e.1 w 8 9 y s p - # o   v %X=X=X=X=X&X=X=X}.X # O # C 3.t 6 w > D F.m.V.#X..1 q 3 8 [ [ ` ^ ' A _ F | 3.q.:.;.t.B.- # o # k n n ",
"+.^ | O.m.D.B.C.p.1 w 8 9 A s D * @ $ @ v =X*X X=X=X=X=X=X}.@ @ $ $ G 3.t 9 w 1 ' V.C.N.OX{ 1 8 8 0 ^ ^ ` ( ! y ' ' ' 1.q.1.4.t.c.# X X X l m m ",
"+.` ` #.V.F.F.H.p.> q 9 1 e - % }.}.}.&X:XqXwXqXwXqXqXwXqX0X}. X$X}.U.- : 3 8 1 F H.C.N.+X .1 4 3 0 ` { [ { _ u p D | 8.i.i.C : * O $ X @ x I.I.",
"` ! ~ ) 6.6.6.a.@.t y u y V & @ &X*X*X*X>XqXqXqXqXqXqXqXqX0X*X=X=X$XP.X # 0 y 0 _ z.j.j.z. .u a y A ) ! p d d | | &.&.&.4.&.N o g l h g k I E.I.",
"^ S S S 1 3 1 > y  ...A 5 B v K.6X4X4X6XwXdXsXdXdXiXiXqXqXqX4X4X4X6X=XU.Y., , y _ 1.1.<.,.@.^ o.{ ` 3 1 q 1 _ e.>.q.8.S < , c c z K.I I U E.[.[.",
") u u u w 8 w w t ( { 5 X z /.}.tXwXqXqXiXgXgXgXgXiXwXqXqXqXqXqXqXqX4X=X$X$   r ~ ,.,.3.1.@.{ ` { _ 0 w 9 q D ,.1.$.i.F : . k K m R.R.I.I.^.-X*X",
") a s u w 3 9 w i { S B x P.,X>XqXqXiXiXaXgXgXgXgXaXiXiXqXqXqXqXqXqX6X>X:Xv x G A :.:.q.,.@.] [ { _ 9 8 8 8 H 3.q.,.1.e c % l I U R.E.E./.^.:X;X",
") S S a 4 9 9 1 u ;   U.=X,XtXqXqXeXfXgXgXgXgXgXgXgXgXdXqXqXqXqXqXqXqXqXtX=X=XK . 5 :.,.2.@.` ( ` ^ 7 8 9 3 _ 3.4.4.-   c c n R.I.I.R.&X%X-X-X;X",
"o.` ` o.h.l.k.z.6.- X R.=X>XqXeXiXeXaXaXsXgXgXgXgXgXgXsXqXqXqXiX8X5X0XqXtX=X%Xm o , [ } ..p 9 0 0 Z _ ^ ^ ~ ~ _ D a * o o @ n R.R.Y.~.{.;X;X-X-X",
"+.` ` O.m.C.C.J.p.- X U.*X>XqXeXhXgXE * R gXgXgXgXgXgXsXqXiXhXhXL % U.pXtX=X=Xv o ; { ( [ y 3 q 3 0 ] { [ O.d y p a # O o # K U.[.aXrXU l I -X&X",
"+.` ^ o.m.C.V.Z.t.- X U.;X>XtXeXgXgXL O P gXgXgXgXgXgXsXeXeXgXhXB X T tXtX=X=XK O , [ (  .i q 9 3 0 { ` { ( _ D a A % X % z U U.{.hXhXc X z %X%X",
"#.+.{ o.m.C.V.J B Y.W.;X6X6XqXqXP B * o P gXgXgXgXsXiXpXeX9XL L +   U.tXqX6X9X|.!.W , 5 +.t 3 8 3 4 ` ` _ ` d e , ; c l U K.K.R.K.L L h X z %X&X",
"_ S s ~ s.g.p.# @ {.-X6XqXqXtXyXo X o O P gXgXgXgXiXeXqXqX9Xo X X X Y tXqXqXtX,X=XQ.. : _ D a a ) _ 5.,.%.5.$.r o O z v K.R.E.R.K.X X X O l &X&X",
"9 w 8 7 f y f o O {.=X6XqXqXqXqX$ X X X P sXdXdXfXpXqXtXwX9X  X o . T yXeXeXqX<X=XE.. - f =.q.,.,.e.C.C.C.F.f.H o X l v L.E.I.R.K.X + O O z (.&X",
"e 3 8 e a s S o @ {.=X4XqXqXpXwX# o + X K yXqXeXeXqXtXqXqX6X. X . . K.pXpXqXtX<X%XQ.o * d ..,.,.:.6.V.A.V.S.j.H   X k n L.I.R.R.Y X X O X z ^.^.",
"9 w 8 9 S D A . $ {.$X4XqXeX7X7X= = * * Y tXqXtXeXqXqXqXqX9X* h = = ~.uX7XeXtX,X=XQ.O - a ..,.3.:.3.Z.N.B.C.g.C X X k n L.I.~.~.T = = o + z ^.^.",
"7 3 8 8 u a A . $ {.*X6XeX3X_._.`.`.3XyXeXqXqXqXqXqXqXqXtXqXqXrXXX`.`.`.).uXtX<X$XQ.X - a 4.3.3.:.e.D.S.F.G.k.C X X h v L.~.(.`.'.XX).(.W.W././.",
"=.+... .] ^ ' . O {.*X6XtX3X].Q ].`.3XeXqXqXqXyXtXyXqXqXqXeXqXrXXX`.`.`.).rXtX,X=XW.X - ` d f A A ~ >.%.>.%...V X X k m L.U.(.'.XX).'.(.W.E.W.W.",
"e.3.3.,.o.` |   @ {.*X;X:X>X2X3X3X2XyXqXqXqX5XK x x x !.qXqXqXeX2X2X7X2X7X:X>X;X=XQ.o : +.i 1 4 3 9 ` ^ ~ ^ ) 5 o X k n K K K.(..XoX.XY.E.E.E.R.",
"e.,.%.>.{ ` | & @ |.*X X*X>XtXqXqXqXqXqXqXqX8X*   X   E qXqXeXtXeXpXtXtXtX=X=X*X=XQ.X :  .y 9 9 9 e ` o.o.{ _ q o X l n n m U U.R.W.Q.U.I.I.R.K.",
"e.1.>.2...{ ..r C Y.P.{.*X;X4X1XqXqXqXqXqXpXwX!.T.T.Y.}.eXqXqXeXtXqX0X1X1X=X=XW.Y P r s  .t 1 4 3 w ] ^ ( ^ D y 5 , k k v n I U K.I.R.R.E.R.R.L.",
">.;.;.;._ ) ` s >.N % !.=X=X X XqXqXqXqXqXqXtXtXqXqXqXpXeXqXtXqXqXpX4X*X=X=X=Xn   , { ` ` p 0 e w t ` ^ ` ^ [  .[ H * X z v v v K E.R.I.R.R.R.R.",
"#.{ ( [ 9 7 9 1 s r B Y.[.[.*X*X6XtX0X0XwX0X0X0X0X0X0X0X0X0X0X0XwXwX<X=X=X[.{.P ; < a a s ` { { { ] s s s u 6.+XC.Z.N : z z v n K L.L.L.U.L.L.L.",
"+.[ ( [ 9 9 w 3 F 3.q.5 & x =X*X*X*X*X=X=X-X-X*X=X=X=X*X=X=X%X-X=X=X=X=X X$ @ i.x.p D a f ` { ( ( ` u S S y 6.F.N.C.C.O., X k v n n m n n n v K ",
"O.` { | 9 8 8 5 d :.4.C & b -X-X-X-X-X=X-X-X-X-X-X%X-X-X=X;X=X%X-X-X=X=X$X% # d.g.i s s p ' [ { { ^ s S s f 6.C.n.V.n.O., & k m m m n n n v v v ",
"+.{ o.| 8 > 6 > f q.q.q.3.J h h j j h h h h h h h h h h j h h h h h h g c S.D.F.j.s S ) a ~ { } ` { u p ! t 6.@XF.F.F.O.] ^ V g $ + $ + $ $ + * ",
") i ! Z 7.7.5.,.2.[ | ] { y     o o o X o o o o X X X . o o o o o X o X : k.t.g.3.9 y e 9 [ $.O.%...~ _ ! `  .=.=.-...$.$...C * o . # . . o . . ",
"4 4 4 V OXS.F.@Xy.y S a s q < < < < r w 5 5 J i.i.i.9.N 5 5 5 V C C A V H :.:.,.X.6 q 8 6 ..q.,.,.:.( {  . .0 1 1 > 6 ..q.3.;.1.b.f.b.b.4.J J J ",
"t 9 9 t m.V.V.S.a.u ! s ) 0 3 9 q 0 a D ` t d.G.M.N.Z.s A F u s o.{ [ [ >.:.,.,.} 6 9 w 8 | ,.3.3.;.} ( ~ { s 8 w 4 9 <.3.:.$.t.S.V.N.C.w.<.,.,.",
"3 3 2 9 m.C.A.S.r.i s a s w 9 3 8 w S y A t r.F.V.C.B.d a F p ~ { ( { ( ;.,.,.3...q q q 3 | 3.,.,.;.( ` { o.s 3 3 w 8 <.:.:.:.t.D.B.D.C.t.:.,.q.",
"i e w y c.B.B.C.y.d _ ~ [ y w e e e _ ` _ ~ e.A.n.B.v.[ d s d _ ] ^ ` ` ;.<.;.<...w 9 9 0 [ >.>.>.=.{ { ..} p 3 0 4 9 =.,.1.$.s.Z.B.B.B.6.>.>.>.",
" ._ ` [ ,.%.q.:.d.V.B.B.B.w.$.:.;.6.B.M.Z.Z.5.` } { +.#.:.,.,.[ s ! s a 0 8 e 0 e [ ] { ` ~ s s s ' >.,.;.>.| u s S f { } { ( $.3.3.,.w.O.[ ` o.",
"#.` {  .$.,.1.:.s.S.B.D.S.w.:.,.:.e.C.N.V.F.7.^  .{  .>.,.:.3...s u S ) 9 w w 3 t { { { { ) a S a d ,.3.,.6. .u ! S s { { { [ ..:.:.>.,.} | ` o.",
"o.` {  .%.q.1.$.t.S.M.D.OXe.;.3.;.p.S.B.B.C.5.~ { { { 2.:.,.,...p D s s 9 9 3 3 i  .{ ^ +.s s ! u d :.,.1.,.{ S s S s ^ ` ` { ..,.3.,.:.{  .^ +.",
"+. .` o.%.:.1.} s.H.V.C.F.t.,.3.,.s.C.C.+XF.5./ { { { 3.,.6.3.[ y u i i 8 q 9 3 e ` / ^ ^ s p u u D ,.,.8.q.{ f t f y ` +.` ( =.2.,.,.3.} [ o.o.",
") ! s ~ s.t.d.j.a.d.u.r.g.@.[ | _ =.g.t.a.g.>...@.$.{ [ ` _ [ ..>.2.5.>.S w t 9 ) 0.6.e.6. .D ' _ _ ....&.{ O.3.>.,.>.! i ! ! [ %.$.@.;.` s s s ",
"7 3 3 w B.C.S.H.u./ ` ~ ` 9 1 8 3 8 ` ~ / ^ #.>.q.%.3.q 4 V > <.J.A.F.S.| u ~ a =.F.C.C.F.7.^ o.{ ^ i p a y e.+XF.S.+XA 4 e 1 t ( ` ^ ] t 4 1 9 ",
"w 0 q 9 n.N.Z.A.g.^  .` ..t q w w y  .o.] { $.,.:.:.1.9 2 9 4 <.S.N.B.B.` s s i ..V.B.M.F.7.^ { { ] ) s s u 6.C.B.V.n.p 4 9 3 y { ` {  .y 3 3 w ",
"e 3 3 e m.N.D.A.l.^ ` `  .0 1 w q t [ ^ ^ ` $.,.q.3.<.w 2 9 1 =.H.V.V.V.` u a u =.F.B.N.+X7.~ { { ] u i s y 6.F.B.F.V.a 3 7 3 y { ^ ^ { i 4 8 w ",
"t 3 q y z.C.D.V.u.^ { ` ] t 7 9 6 i ` ( o.| $.%.:.:.<.w 8 w 1 2.C.B.A.m.X.a s s  .A.V.B.A.7.` [ { ] ! p s p 7.S.m.V.m.s 4 e 3 a ( } { { i 3 9 w ",
"` ` ~ ` e.5.3.a.#.p s ! ~ ! ~ ] ] ! ! ! d a ` } ..{ O.x.n.x.m.a.} #.#.O.@.<.;.;.;.+.#.@.=.p 9 9 0 A c.m.n.c.e.} #.#.O.j.l.l.m.s.$.;.>.:._ y y S ",
"#.` ( +.>.:.1.,...y s D u _ o.{ { ] s u s S ! o.{ ^ { A.S.C.F.e.^ { ( ( ;.q.:.3.$.` ^ ` ` i 3 9 3 f A.C.Z.H.r./ ( ` { m.C.C.F.v.:.1.,.1.[ p p S ",
"+.{ { } $.3.,.,.&.u ) u p ` { ` { ` D S a s _ { ( ^ ( B.B.N.S.a.~ [ [ | ;.>.,.,.$.` { ^  .t 9 8 8 S B.V.A.C.y.] { { } m.B.M.N.x.:.,.,.,._ A p S ",
"O.[ { { 3.3.,.6.O.a S a D ) ` ` ~ ~ p S p i _ | { } O.Z.F.C.F.r.( ( ( } >.5.3.3.;.^ ( { +.y 3 8 3 y C.C.A.F.r.~ O.[ { m.C.F.F.l.:.q.:.,._ a D p ",
"+.` { {  .X.&.&.[ d _ ! ! +.>.%.>.%.~ [ [ { ` ` ` _ { l.z.x.z.6.! _ s ~ @.$.$.;.@.' ~ ~ ! u y t t s x.z.l.z.5.! ` ~ ^ k.c.x.c.d.@.;.$.%.[ _ _ | ",
"+.^ { [ 9 3 4 1 y { [ { ( l.F.C.S.m.,.3.>.,.| y i S a :.:.$.q.' 1 q q 8 ' { { ` _ 1 3 3 6 ~ [ ] o.&.,.$.:.:. .u s d i ;.:.$.,.#.^ { { { ;.i.,.q.",
"+.o.` ` 0 8 8 9 u +.` { { l.S.B.D.z.:.,.:.3. .a s S a 2.3.,.i.F w 3 9 7 ` ` { o.! q 9 w 3 )  .{ _ ..:.,.3.q...u s s t :.q.q.1.$.{ ` ` { $.1.$.q.",
"+.` { ` 9 3 w 3 y ` { { ^ l.C.B.C.c.:.,.:.3.| a _ p ) ;.:.:.3._ 1 w w 1 | [ ` { d q 8 8 3 s  .{ ^ { 3.,.:.,.X.y d D s ;.4.q.:.$.^ ] o.` ;.:.q.q.",
"o.^ +.` 0 1 3 1 y o.` / ( l.F.V.F.l.,.,.,.5.| u S p D ;.,.3.,._ 2 1 1 3 _ [ { { / 3 9 3 7 ! { ^ ` o.:.,.,.,.+.! a S s ;.,.3.,.@.( { ( ( 4.3.,.q.",
"` s d ! a.h.h.g.e.=.;.>.%.>.%.#.>.>. ...} } ! 9 9 w 0 ' _ _ ~ >.b.g.f.h.>.@.;.>. .d _ _ ! ! ! ) ! ! X.&.@...S 3 e 0 0 { ..} { ,.l.j.j.z.[ f f a ",
") y A D V.S.S.G.j.:.q.1.,.} ^ ` [ ` ` +.^ { i 4 4 3 9 u s u y 0.H.S.F.S.e.,.,.3.>.{ o.} } ~ y s s s ^ ` [ ` p 3 8 q q ^ { ^ ^ 5.G.A.S.F.D > q 8 ",
") u y _ n.M.D.B.k.:.,.,.,.} ^ { { ^ ] { ^ o.y w 9 9 8 S D s i 3.C.B.M.V.e.:.,.:.$.[ ` ^ ] ~ p s s ) { { { o.s 8 w 6 e ~ { +._ 6.C.V.M.S._ 3 e w ",
"! S y s B.V.S.F.z.;.,.:.,.{ } { { { { ( } [ y 8 3 9 8 a a ) u 6.F.C.C.C.e.:.3.,.>.{ ` { [ ! f a a s ` { { ( u 3 8 8 8 _ ` ( ^ 6.S.C.C.S._ 2 w 3 ",
") S S ) h.l.k.l.a.;.:.;.>.] ~ _ ` ` _ ^ ` [ f y y t a A u y t >.m.z.n.l.,.=.;.;...~ ~ ` ' [ _ [ ' ! { ^ ~ { ' a F A s ` ` ~ ! >.V.c.c.B._ 7 w w ",
"+.` ` ) 0 7 0 6 y [ { { ] i 3 0 8 0 a s s ) ..,.1.2.=.0 9 e 3 ! { ^ ( { p S D ) p 3 9 4 7  .:.:.,.;.a s s u 6.+XC.C.m.f 8 w q A ,.,.:.5.F a S s ",
"+.^ o.` 4 4 q 3 u o.} { +.u 3 4 3 0 D s y p +.3.3.>.<.9 8 8 3 S { ` { { S S u a y q w w 1 ..q.:.,.>.s s s i 6.C.M.V.C.y 3 8 q D 3.:.:.:.| S u D ",
"` ^ ^ ^ w 4 2 9 i ` ^ ^ ` 0 3 3 q 9 p u D y  .:.:.;.<.9 4 8 3 u { ] ` ` u u p a u 2 8 4 1 | q.$.2.@.t s u i 6.S.M.Z.n.y 9 2 q a ,.%.,.,.D u u ! ",
"+.o.O.( e 9 t 3 s #.o.O.+.u 3 t 0 i _ ) _ ) >.e.e.e.2.i 0 y 8 s #.o.O.+.` ) _ ~ s w w y 9 ..e.w.e.3.` ) ! ! r.@XH.H.J.D 9 0 q _ t.w.6.w.| / ) _ "
};
