/* XPM */
static char *xpm_[] = {
/* columns rows colors chars-per-pixel */
"72 72 247 2 ",
"   c #160A1C",
".  c #290A1A",
"X  c #2B131C",
"o  c #36151C",
"O  c #340B14",
"+  c #150A2E",
"@  c #190A2C",
"#  c #1A0826",
"$  c #140A33",
"%  c #190C32",
"&  c #170A38",
"*  c #191436",
"=  c #15112C",
"-  c #290927",
";  c #310A25",
":  c #261A2A",
">  c #221B32",
",  c #35122F",
"<  c #2A2535",
"1  c #363839",
"2  c #302B2F",
"3  c #1A222A",
"4  c #501D17",
"5  c #501933",
"6  c #572726",
"7  c #4B2832",
"8  c #622D2F",
"9  c #602317",
"0  c #395D2B",
"q  c #394738",
"w  c #365833",
"e  c #3C622E",
"r  c #3F6728",
"t  c #3E6433",
"y  c #3E6339",
"u  c #44573A",
"i  c #4F4D3C",
"p  c #75453A",
"a  c #41682E",
"s  c #416634",
"d  c #436A34",
"f  c #496D35",
"g  c #416639",
"h  c #456B3A",
"j  c #4A6D3B",
"k  c #4B643C",
"l  c #4C7335",
"z  c #4D743B",
"x  c #4D7738",
"c  c #52763C",
"v  c #537B3C",
"b  c #597D3E",
"n  c #527A36",
"m  c #1A1742",
"M  c #272448",
"N  c #292953",
"B  c #353457",
"V  c #35314B",
"C  c #3B3E64",
"Z  c #201A42",
"A  c #593944",
"S  c #793250",
"D  c #384D45",
"F  c #3C4165",
"G  c #3C4368",
"H  c #4A5842",
"J  c #55544E",
"K  c #784E4F",
"L  c #4B6942",
"P  c #586748",
"I  c #4D7244",
"U  c #527542",
"Y  c #557B41",
"T  c #5A7D43",
"R  c #597A48",
"E  c #5D6957",
"W  c #62794B",
"Q  c #687857",
"!  c #747759",
"~  c #44486B",
"^  c #4D537A",
"/  c #4D4F71",
"(  c #68547B",
")  c #834637",
"_  c #914F33",
"`  c #A65E38",
"'  c #DD7A38",
"]  c #CE6C39",
"[  c #E27B35",
"{  c #E37939",
"}  c #E0762B",
"|  c #8A3353",
" . c #A33D55",
".. c #8D5B47",
"X. c #B24F57",
"o. c #987353",
"O. c #AF704F",
"+. c #B14763",
"@. c #B66F6B",
"#. c #C84359",
"$. c #CE5351",
"%. c #C87549",
"&. c #DC7B44",
"*. c #D87949",
"=. c #C97551",
"-. c #E47949",
";. c #D45368",
":. c #E45963",
">. c #DB7378",
",. c #EC6669",
"<. c #F26468",
"1. c #EB7775",
"2. c #E1585F",
"3. c #56813D",
"4. c #5B833E",
"5. c #5E893E",
"6. c #5D8637",
"7. c #628B3E",
"8. c #5C8442",
"9. c #5E8942",
"0. c #5D8349",
"q. c #568141",
"w. c #588550",
"e. c #618545",
"r. c #628B44",
"t. c #63854A",
"y. c #648C4A",
"u. c #6A8D4B",
"i. c #698D45",
"p. c #659144",
"a. c #6A9246",
"s. c #669249",
"d. c #6B934B",
"f. c #6C984B",
"g. c #72944E",
"h. c #76984D",
"j. c #6C8C52",
"k. c #698754",
"l. c #73895A",
"z. c #6D9352",
"x. c #6E9358",
"c. c #749553",
"v. c #799754",
"b. c #759A54",
"n. c #7A9A55",
"m. c #7A955A",
"M. c #7C9B5A",
"N. c #769759",
"B. c #718F4C",
"V. c #7DA25A",
"C. c #7BA255",
"Z. c #739768",
"A. c #75B572",
"S. c #DD8A3A",
"D. c #E2863D",
"F. c #819D5C",
"G. c #829655",
"H. c #AF845B",
"J. c #82A45B",
"K. c #85A95B",
"L. c #92AC59",
"P. c #849E64",
"I. c #9E8564",
"U. c #A78364",
"Y. c #B18062",
"T. c #8AAC64",
"R. c #87A765",
"E. c #91AD6C",
"W. c #8CB366",
"Q. c #95BA6C",
"!. c #95B76A",
"~. c #9BBD71",
"^. c #96B671",
"/. c #8EAB74",
"(. c #B5BA6B",
"). c #D48D52",
"_. c #E9984C",
"`. c #EC9D52",
"'. c #E79A57",
"]. c #E78F43",
"[. c #D2AE58",
"{. c #E6AD5B",
"}. c #EAAB5B",
"|. c #EBA956",
" X c #F1A559",
".X c #E7B15D",
"XX c #E7A34E",
"oX c #D48F6C",
"OX c #E89672",
"+X c #D8B16B",
"@X c #E6AC62",
"#X c #E9A866",
"$X c #E7B767",
"%X c #ECB171",
"&X c #84C678",
"*X c #9DC373",
"=X c #94C172",
"-X c #9CC36A",
";X c #A4C76E",
":X c #A3C673",
">X c #A5C974",
",X c #AACC75",
"<X c #A4C67A",
"1X c #A6CA7A",
"2X c #AACD7A",
"3X c #AAC475",
"4X c #ADD17B",
"5X c #ADD376",
"6X c #B2D57C",
"7X c #B7C36E",
"8X c #F7CC77",
"9X c #F4D276",
"0X c #F4D17A",
"qX c #EDC370",
"wX c #505786",
"eX c #5C628A",
"rX c #566D93",
"tX c #65688D",
"yX c #626993",
"uX c #676A97",
"iX c #6D7097",
"pX c #526EAE",
"aX c #727AA6",
"sX c #8C6893",
"dX c #B76E9B",
"fX c #D46D8E",
"gX c #DA7391",
"hX c #6E999E",
"jX c #72A4D8",
"kX c #6D96CF",
"lX c #868CB4",
"zX c #A98AA7",
"xX c #EF908C",
"cX c #D590A8",
"vX c #E8AC96",
"bX c #AACD81",
"nX c #ADD281",
"mX c #B4D684",
"MX c #B3CF90",
"NX c #98C893",
"BX c #F0CD89",
"VX c #949BC4",
"CX c #98A4C9",
"ZX c #A0A5CC",
"AX c #FAF8FB",
"SX c #F4EFE9",
"DX c #DCDEEC",
/* pixels */
"9.3.q.0.5XmX4X6X-X5.a.p.a.x h h d l 4.3.3.8.3.q.q.8.q.C.J.F.F.Q.6X5X4X5Xs.Y 8.q.8.p.p.p.a.c d d d Y C.M.M.R.j.j f h a r.s.s.s.4.s z U I s.f.s.d.",
"q.x x 8.Q.:X<X>XW.6.r.5.y.d t d d d v v v x v v v l q.N.n.v.g.L.;X1X:X:X4.x n x 3.9.r.7.r.l t t t d v.M.M.R.k.j z L h 8.r.5.5.n t f f I t.d.z.s.",
"3.c c 8.>X5X1X4XW.5.r.r.9.l t y t d R c x v c v c x b c.v.n.c.W.5X,X2X2Xr.x v v Y y.9.p.y.z t d s h v.M.M.P.w.I I I L 9.5.8.r.v e u f h y.z.z.b.",
"9.Y v b W.Q.Q.Q.J.r.r.r.y.x d l h l 8.8.T 8.b b 3.b 8.M.J.F.F.T.~.Q.^.!.e.v b b q.9.9.8.r.z g d t f R.T.R.T.j.I U I U x.c.j.u.e.c I Y R k.k.0.s.",
"s.9.p.9.f t d d R M.n.n.V.y.r.r.r.i.n.N.n.n.a.r.y.8.s.*X,X2XnXb.0 d a f 8.r.r.9.5.v v n q.h t a t z <X2XbXmXR.R 0.t.R M.P.M.M.E.<X<X:X<Xt.f j I ",
"s.5.5.9.y h t t Y M.v.n.M.y.r.7.r.p.M.b.n.n.i.5.9.9.p.:X;X-X4XN.e h t e 9.y.9.9.3.v Y v b f s d t l <X2X2XnXR.z T e.t.M.R.P.P.T.4X3X;X>Xv t I I ",
"s.9.p.9.h y a t b n.v.n.n.i.7.r.9.i.n.v.m.M.d.e.p.9.p.:X,X,X2Xb.0 h h s 9.7.r.s.9.v q.v v f d d t x <X:X~.6XR.Y T v b N.P.R.P.T.2XbX2X2X0.g a f ",
"s.9.r.r.y d l t R F.n.M.N.r.8.3.8.i.M.n.v.M.d.9.p.9.a.1X2X2X6Xn.0 d s g 9.r.9.p.8.x v v Y d t a t x 2X2XmXmXR.R Y z U j.v.m.m.^.mXnXbXmXk.g h u ",
"9.8.4.q.z l I f 4.d.z.d.a.J.K.K.K.K.p.d.a.d.q.v v x R V.K.V.K.y.f z z h q.9.4.3.8.4.4.4.8.8.e.W W e.x.x.z.C.z.y.y.b 8.R.E.^.^.E.K.J.J.R.x.k.B.k.",
"q.x n v Y 3.Y Y v 7.5.5.r.Q.4X4X4X=Xr.5.r.s.v e t t t 4.5.6.5.8.b b v v c x c x q.s.9.r.y.g.v.M.M.i.a 0 w y T z.s.z.r.~.nXnXMX^.v R R R Z.R.F.K.",
"3.Y v x Y x Y Y 4.r.r.r.5.Q.2X<X1XW.p.r.9.9.Y t h d d 9.p.9.r.4.Y x v b v v q.v q.y.9.9.8.g.v.v.v.u.d h d h 0.d.z.y.y.~.,X,X4XT.R v 8.T M.M.M.F.",
"3.Y v Y Y v c x 8.r.r.7.6.Q.5X;X5XQ.7.7.b 2 > > > > > > < y y.8.x Y v x c v v v 3.9.p.r.7.h.M.v.M.z.s d t y R d.s.z.c.bX2X,X6XT.z x c c N.F.Q P ",
"q.v v v 4.4.8.4.4.9.9.9.r.W.>X*X;XW.e.9.u @ @ # # # # @ + > i.b v Y b T c Y c x v a.7.7.a.g.c.x.c.u.f s h d Y d.a.y.k.bXbX3X3XR.v R T b u.k.* % ",
"s.5.9.s.Q.<X*X*XJ.t h h d c 8.b u u q i p p ) ) p ) ) ) p K Q E P P g.c.l d h d 0.1X*X>X<Xr.a j j j y.8.5.9.4.c 0.0.0.M.P.F.n.K.~.E.E.E.R P * * ",
"f.7.9.r.:X2X,X2XV.e f s s c v c . . O O ) ' [ -.&.{ { &.&._ # $ + = P M.f s h 0 q.5X:X>XnXu.e t e d r.9.9.5.8.R 8.q.t.M.F.m.c.T.<X2 * * % M ~ C ",
"s.8.y.p.-X1X:X,XR.e k s s U c c 4 4 4 9 ` D.D.D.D.D.D.D.].` 4 6 5 o J j.f d d e 0.1X,X:X2Xy.e d f h 5.8.8.r.b I 8.w.0.m.F.m.B.K.~.= $ $ $ N G G ",
"s.r.r.s.>X4X4X6XR.0 t d t u X 4 H.).).).{.`. X@X X X|. X}. X' *.).=.6 = < t d s W 6X,X,XmXy.e t t h r.r.r.y.4.x n 8.t.m.R.P.P 2 < & m $ = C tXrX",
"9.3.q.8.V.V.V.T.d.z x z v u O 9 ).S.].S.XX{.{.{..X.X.X}.}._.' { ' ' 9 . < f f h 4.!.!.W.Q.y.l U z z 8.v n v b t.t.j.j.k.k.l.H * & N M m M G tXeX",
"3.v Y z t t e 0 z y.a.H 1 p ` O.`._.XXXX.X8X8X8X8X}.}.}.{.}.|. X X X=.=.K < 2 z 8.m.m.c.n.d.7.p.p.8.r t s e T J.c.F.M.R w q V V B wX^ / ^ iXkXlX",
"q.3.v x y d d h l r.r.: . _ ' ].|.}.{.{.qX8X0X0X9X.X}.}.|.}.}.}. X}.D.{ ) . @ k 4.n.M.m.v.z.r.9.r.5.h g d d W n.M.g.P.R 1 $ M F ~ yXrXyXrXaXCXVX",
"q.x v n h t t d d I k K ) %.]._.}.}.%XqX8X9X9X0X9XqX$X.X.X|.|.|.{.@X_.].O.) p H u B.v.n.N.a.r.9.r.8.h d d t T M.m.v.m.j V * N ^ ^ yXyXuXaXaXCXCX",
"q.Y Y v h d d t j $ O =.' _.#X{.|.}.9X0X9X8X0X9X0X0X9X$X.X{..X.X}.{.}.}.'.' ] . + H v.M.M.d.8.r.r.5.a t f e 8.M.B.m.< % M V F rXtXtXyXVXVXVXCXZX",
"p.8.9.y.W.Q.Q.Q.l.$ . =.' '.@X+X%XBXvX7X0X0X9X9X0X0X0X$X{.+X+XvXoXoX#X{._.{ %.; % q r.i.i.c d h f z q.8.8.4.4.T T T > $ = * F yXtXtXuXlXZXCXCXCX",
"f.9.9.s.>X,X,X6Xm.% . *.[ _.@XBXSXSX2 X U.0X0X0X0XBXBX$X.XBXSXSX3 . H.{._.} %.; $ 1 r.7.r.x s g t f y.r.r.y.b v n c * $ % * ~ tXlXDXDX^ N ~ ZXVX",
"p.9.8.p.*X,X:X<Xl.. O ] { '.{.BXAXAXM @ U.0X0X0XBXBXBX$X.XBXAXAX* # H.{._.' ] O   1 i.7.s.l d h t f r.r.r.7.8.Y c c * $ * B / yXhXAXAXA $ N VXVX",
"f.p.r.p.>X,Xm.1 8 @.O.}. X X{.H.1 V = # U.BX0X0X0XqXqXqX$XY.A N $ # Y.{.|. X'.O.O.A < q s.l e g y t 9.q.8.9.b j q 1 B N ^ eXeXeX( / / Z m N VXVX",
"9.v b 4.T.T.J $ 8 &.}  X.X}.#Xo.# @ & @ U.0X9X9X8X$X+X%X%Xo.# + + # H.{.{.}.XX[ &.6 @ > 8.T c c q.4.C.C.h.C.g.k & $ B C eXyXyXyXwX+ & & m N VXVX",
"h h t t x x q @ 8 &.[  X@X}..Xo.# $ $ @ o.qXqX$X$X@X%X+X@Xo.# & $ + Y..X}.{. X[ ' 6 @ > c d.F.n.n.J.,X,X,X4X!.W % $ N C eXyXyXyXwX& & & $ N lXaX",
"d t s f c b q @ 6 ].[  X{.|.#XO.- $ & # o.{.{.|.{.{.{.|.@Xo.: & $ + @.`.}.{. X{ &.6 @ * b u.n.G.c.M.>X1X>X2XW.P @ @ M C eXrXyXtX( & $ & & B aXaX",
"d d s d Y Y V + 6 &.[  X{.#XOX=.5 , , 4 O.{.{.|.}.{.{.{.$XO.o , , 5 =.OX#X}. X{ &.4 @ > v u.n.n.v.J.:X1X>X>XE.W & & M C eXyXiXiXtX& & - & B aXaX",
"l t s s Y v q + 6 &.D. X#XoXfXfXfXfXOX+X{.{.{.{.}.|.#X|.{.@X#X%XfXfXfXfXoX}.|.[ { 6 @ * c u.F.M.c.J.1X,X5X2XE.W @ $ M C eXuXsXfXdXcXdXsXiXiXaXaX",
"z.y.u.y.8.8.D + 8 -.[  X X1.gXgXfX>.#X#X{.{.{.@X@X+X#X{.|.}..X#XfXfXfX>.1.#X`.' ' 4 # > t.b c U U 4.b.h.b.b.d.H $ $ M C eXuXsXfXcXcXdXsXuXiXiXiX",
"K.n.M.n.y.7.D % 8 -.[ { D.'.OXOXOX#X}.}.}.@XH.4 7 2 2 H.|.{..X@XOXOXOXOX>.] ] ] ] 6   : r.x e t t h 8.9.5.5.q.k $ $ M C ~ ~ eXsXzXZXcXtXiXiXuXtX",
"J.c.v.b.r.r.u % 6 &.[ { [  X X X}.}.{.}.}.$XH.  # # . o..X|.}.}.}. X}.|.).X.X.X.X.4 # : y.x t d d j 9.p.y.5.8.u + $ N C C G / eXyXiXtXtXrXrXtXwX",
"J.N.b.b.y.r.9.q J ) ) } [ D._._.}.}..X}..X.XoX....K ..)..X|.}.}. X|.XX).=.X.` ) 8 J u c y.l e d t h 9.5.7.7.b z u D M M C F ~ wXwXuXyXyXtXiXtXtX",
"n.c.c.c.8.8.8.3.j.% ; *.{ [ [ D.|. X}..X X|.{.@X{..X@X.X{.|.}.|.|.|.).%.O.O.o.O . 1 7.e.9.v d z h x 8.9.r.8.r.y.r.t.> + B F C C ~ uXyXyXyXyXrXtX",
"d.r.r.e.f t t e v 1 2 O.` ] { D. X X`.`. XXX`.`.`._.`.XX`.`.`.`._._.&.O.O.....2 2 w n v b 9.r.r.r.9.Y v v x V.bX1X<XH 2 B B F G G eXeXeXeXeXtXtX",
"a.8.7.t.d d h t R F.F.> . ..{ { ' } } ' { { [ [ } D.[ [ [ [ [ [ } } ] ] _ O . /.!.x v c x 8.r.r.r.r.v v Y x V.4X;X>X1Xa.1 $ M F F F G G G C C C ",
"s.9.r.r.d d j s T v.m.1 # ..*.*.&.&.).' &.*.&.&.*.*.&.&.&.&.*.*.{ ] %.%...O : E.W.n c b x 4.r.r.9.9.v c v x V.,X;X>X;Xa.q * M G G G C C G F C C ",
"a.r.r.t.s 0 e 0 c F.v.F.M.P - X ; ; ; ; X ; ; X . o ; X ; X ; o o O . . - 2X<X2XW.v v q.v 8.7.r.r.5.x v 3.x V.mX4X4X4Xa.r.r.L * & m & m * & * & ",
"q.l Y I C.C.C.V.N.9.y.8.y.u + + + + $ + $ $ + + $ + + + + $ % + +   +   : W.L.E.M.d z z f e.g.B.g.B.4.9.b 5.t.x.z.x.d.g.B.c.P * % @ * @ % % % > ",
"t y y h bX1X4XmXK.l Y v Y t q w q w H w u q E l.l.! Q H u q q u H H H w W v.c.n.u.e d t a u.M.n.m.v.7.r.y.y.l 0 e 0 a j.M.M.c.v./.E.E./.l.Q W k.",
"z d t l *X>X>X2XW.x b v Y d t d d l c v 8.l K.2X;X;X<X4.U R x 3.r.9.8.y.c.v.v.M.u.t g h s t.n.n.n.c.7.r.5.9.v d d h h x.n.n.v.K.,X;X3X1XJ.c.n.M.",
"y t r l *X,X3X,XK.l v v v h t h t h Y v c x K.4X>X,X*Xv c R x 8.r.7.r.8.v.n.n.F.u.g d g t t.M.M.b.b.7.r.9.p.v t t y d c.m.n.c.L.1X,X;X,XK.v.n.G.",
"z h g z ~.;X<X>XK.b 8.4.e.f j j j z 8.8.8.8.K.<X-X<XQ.e.b v b 8.9.r.8.9.z.N.z.c.u.f d h d y.b.c.b.z.r.r.y.y.n d f t d d.n.n.c.T.:X:X:X:XV.c.b.b.",
"s.8.9.r.n.n.M.v.T.:X:X:X:XJ.c.v.c.V.>X-X<X<XC.7.s.7.a.z.v.b.n.t.v q.v v l h f h j 8.9.r.8.4.v v b 8.N.n.c.b.y.x v Y c r.r.y.4.g.M.M.n.J.i.r.r.s.",
"f.9.r.y.h.v.m.c.E.,X;X,X2XJ.h.M.v.J.5X;X,X1XC.6.y.r.y.n.n.v.v.u.v v v Y d d g t z r.r.9.y.6.v Y z b n.M.n.V.y.x q.Y v 9.r.r.r.u.v.v.b.v.i.y.9.p.",
"p.8.7.y.g.F.M.v.K.2X:X1X<XJ.c.m.c.R.2X;X<X,XC.8.9.r.r.N.v.n.F.i.v b v v a h t d x r.r.9.s.v x q.v 4.v.v.n.n.y.Y c Y b 5.9.9.r.u.n.M.n.b.y.y.4.p.",
"f.9.p.y.h.v.n.B.T.4X>X5X,XK.n.M.n.T.,X,XnX4XC.4.r.7.y.M.n.F.V.e.x l x x t y d e z 9.4.4.r.v x v x T n.n.M.P.r.x l l z 9.s.r.p.z.n.n.n.M.p.r.p.p.",
"3.3.v 3.T.K.R.E.T.T.W.K.W.a.t.t.8.d.W.K.T.W.b.s.d.g.r.r.e.8.e.u.b.M.b.C.Y z l h q.V.K.V.J.y.3.8.q.0.i.i.u.r.d.n.b.M.b.6.x n n 8.g.z.z.g.8.v v b ",
"d t t h <X,X2X4XL.3.5.6.9.a t t e h 9.6.3.5.d.n.M.h.n.s t L w n.6X1X4X2Xy.z 3.c s.4X2X,X5XC.5.s.r.9.n x Y z K.nX5X2XnXU y h e x 7.9.9.r.z t e d ",
"h d d h :X;X:X2XW.5.s.9.y.z s h g I y.p.r.r.g.n.m.v.m.f r h t x.4X;X:X:X9.c v x u.1X;X:X4Xb.4.r.r.9.8.Y v z C.,X:X:X-Xc y h t v r.r.9.y.z t t h ",
"d a s f *X,X2X:XQ.5.r.9.y.d t h d z 9.7.7.8.h.n.F.M.x.f t d 0 x.6X>X>X>Xr.U x x z.5X>X:X4XC.4.y.9.9.x n v l V.4X<X2X;Xc y a t z r.7.7.r.x t t h ",
"d d d z ~.,X:X,XK.5.7.9.y.l a d e x 8.r.r.y.g.h.v.v.c.h d h t b.,X*X1X>Xy.c b c y.1X:X>X1XC.9.9.t.9.3.n 3.c C.,X:X>X>XY y j t v 7.r.7.r.l t d h ",
"p.9.8.8.C.C.M.R.g.n v 3.8.q.5.9.0.3.3.3.v b e.a.i.r.a.Q.Q.!.*XK.p.a.d.f.u.N.c.x.b.a.a.d.d.v d h h Y ^.*X=X*XJ.i.a.a.p.W.~.Q.~.T.g.c.b.N.8.x c Y ",
"f.9.7.y.c.n.m.n.s.v Y Y x 9.r.r.r.9.v v z k k u u u u ! R.:X6XK.8.5.7.7.v.F.n.n.g.9.9.9.9.x t s t c 2X,X:X6XK.4.9.9.r.-X5X>X4X^.v.m.M.n.9.c x b ",
"s.r.r.r.c.M.M.n.j.x Y v x 9.9.7.i.e.Y c u = @ @ @ # $ @ @ ! 1XT.e.r.r.e.c.n.n.n.g.8.y.r.y.x t d s U >X;X1X,XK.9.y.r.r.*X>X;X,X!.v.v.n.n.8.c x Y ",
"s.r.r.i.C.M.c.J.a.c Y c Y 8.9.9.U R U P i 5 5 6 6 6 6 6 6 ! ^.V.b 5.7.i.b.n.n.M.c.7.7.7.s.l t g y x ,X5X1X4XK.4.s.r.r.~.2X,X4X!.v.F.v.M.9.c b v ",
"s.7.r.r.u.t.z.y.r.v T 4.b d.C.u.* & & & | +.$.&.&.{ ' ' &.` # * > > k b d.c.c.g.z.q.q.6.b v x l l b !.Q.Q.-XC.3.7.6.r.!.~.!.~.T.d.c.g.g.e.T e.t.",
"s.5.y.e.s g y t z r.y.7.7.Q.2X/.; ; ; - | #.$.' ' [ D.' S._ O . . . u e 0.r.r.9.4.e d t r Y 9.9.s.y.v.c.v.c.t.c v v x c.v.g.v.g.5.r.r.r.c.M.M.F.",
"s.9.9.9.d f t d x r.r.i.r.l.< A +.+.+.+.;.<.,. X X X X X|.'.] *.=.O.i : u 7.r.r.4.s d h d Y y.r.8.i.v.M.F.F.u.z b v x c.G.F.n.c.r.9.9.r.v.m.h.G.",
"s.7.s.9.r h h t z r.r.7.4.Q - 5 #.#.#.#.;.<.'. X{.}.|.}..X_.' } { %.9   q r.r.r.3.s g g e v r.r.5.y.n.n.h.n.u.x b Y v c.v.v.n.d.5.9.p.r.c.M.v.F.",
"s.8.r.9.d e e t z r.r.j H K |  .;.:.:.<.gXxXxX8XqX{.{.}.|.{._._.].)...P H y j r.b t d t t 3.r.9.9.p.v.n.n.M.y.v c Y v c.v.M.n.g.5.r.7.7.g.M.v.F.",
"5.b v 4.T.E.W.W.V.c.l.< @ | #.#.<.<.<.<.xXxXvX0X9X.X}.}.{.{.{..X+X[.L.G.P   2 v.i.4.q.8.4.3.3.4.Y 3.u.j.u.d.Y d f h f y.a.y.r.C.!.!.!.Q.e.z n c ",
"3.v U T <X2X2X5X^.k.l.A 5  .#.2.,.,.gX1.xXBXBX8X8X$X$X.X|..X[.(.-X-XL.C.9.w w w.w.9.s.r.r.8.c v c 3.5.r.9.r.v t s g g 8.r.9.5.C.4X>X,X4XT 0 g d ",
"q.l z 4.-X;X2X;XP.> - +.#.:.<.,.<.,.xXvXvXBX8X8X0X0X9X$X.X(.=X&X&X&X&X&XA.A.A.3 * w.9.9.9.4.v v 3.Y r.9.r.r.v s f a f 4.r.s.8.V.,X>X:X2X8.t L d ",
"3.Y I v >X>X2X2XP.& - +.#.:.<.,.>.fXcXcXBX8X9X0X0X9X0XqX+X7XNXNXA.hXhX&XA.A.hX3 * 8.9.s.r.T c c x c r.r.7.r.x t g d t 4.7.7.5.V.2X,X,X2X8.r y d ",
"q.Y v q.W.!.!.Q.l.& ; +.#.:.<.xXSXSXA , U.0X9X9X0X8X0X7X=XMXSXDX3 3 A.&XhXrXrX3 + v 3.9.8.8.8.e.8.3.r.9.4.r.8.c U U Y 9.9.3.4.b.>X~.~.:X8.a h h ",
"s.r.p.q.h d d a J # ; +.#.2.,.cXAXAXZ # U.0X9X8X8X9XBX7X&XNXAXAX= $ Z.&XhXpXpXm $ g t t r 0.v.h.b.c.v v Y x C.bX,X>X<Xc s g y R n.n.h.C.T c Y v ",
"p.5.9.9.y y 0 2 A | | :.2.,.,.@.J / $ # U.BX9X9X9XqX$X~.&XA.J ~ $ $ hXhXkXkXkXwXwXD 1 w t s.F.v.n.b.v c v x C.4X;X:X,Xx t d s Y F.v.v.v.t.Y v Y ",
"r.q.5.5.h t q + 5 ;.#.<.<.<.,.+.- & & # I.0X0X9X9X@X+X(.&Xk.$ & $ $ hXjXkXkXjXpXpXm m 1 e y.M.c.m.d.x v v x V.2X;X:X:Xc t r d c h.v.v.n.8.x x 3.",
"f.p.p.p.h d q + 5 X.#.<.,.,.,.X.- & $ # o.qXqXqXqX[.^.NX&Xk.$ & + $ pXjXjXjXjXpXpXN m V d u.K.F.J.M.8.q.3.3.K.mX6X6X4Xv d x g 8.K.J.F.J.y.3.q.8."
};
