/* XPM */
static char *xpm_[] = {
/* columns rows colors chars-per-pixel */
"72 72 243 2 ",
"   c #0E0729",
".  c #150B2E",
"X  c #17072A",
"o  c #1A142B",
"O  c #0C0B32",
"+  c #140A33",
"@  c #190B33",
"#  c #180D39",
"$  c #17113A",
"%  c #19143C",
"&  c #1B1637",
"*  c #28062B",
"=  c #221C33",
"-  c #320D2B",
";  c #15252D",
":  c #2A2A34",
">  c #343738",
",  c #302B2F",
"<  c #200D1C",
"1  c #551A39",
"2  c #4D162E",
"3  c #441F2D",
"4  c #395D2B",
"5  c #394837",
"6  c #3C5A36",
"7  c #3C632D",
"8  c #3F6628",
"9  c #3E6433",
"0  c #3E6339",
"q  c #46573C",
"w  c #41682E",
"e  c #416634",
"r  c #436A34",
"t  c #496E35",
"y  c #416639",
"u  c #456B3A",
"i  c #496D3A",
"p  c #4B653B",
"a  c #4B7335",
"s  c #4D743B",
"d  c #4E783A",
"f  c #4D7636",
"g  c #52763C",
"h  c #537B3C",
"j  c #597E3E",
"k  c #527936",
"l  c #1C1941",
"z  c #27244A",
"x  c #2B2B52",
"c  c #363559",
"v  c #332E50",
"b  c #3B3D64",
"n  c #393963",
"m  c #201A42",
"M  c #571A41",
"N  c #4F3547",
"B  c #713351",
"V  c #3E4542",
"C  c #3C4165",
"Z  c #3D436A",
"A  c #3C486D",
"S  c #3E4771",
"D  c #495743",
"F  c #494C4C",
"G  c #4B6843",
"H  c #556946",
"J  c #4D7244",
"K  c #527541",
"L  c #547B41",
"P  c #597D43",
"I  c #5A7B49",
"U  c #5D6C52",
"Y  c #697757",
"T  c #617F46",
"R  c #42496E",
"E  c #42456A",
"W  c #4A4E76",
"Q  c #4D537A",
"!  c #545477",
"~  c #544E67",
"^  c #68547B",
"/  c #DA7A3B",
"(  c #E37437",
")  c #893454",
"_  c #A33D55",
"`  c #B4465E",
"'  c #A74D5E",
"]  c #976C58",
"[  c #BA4765",
"{  c #AA4864",
"}  c #AA695D",
"|  c #C94458",
" . c #CF4E52",
".. c #CF5067",
"X. c #E45963",
"o. c #D47871",
"O. c #ED656A",
"+. c #EC6667",
"@. c #F26468",
"#. c #E96F76",
"$. c #E16D51",
"%. c #9A343F",
"&. c #56813D",
"*. c #5B833E",
"=. c #5E893D",
"-. c #5D8637",
";. c #628B3E",
":. c #568141",
">. c #5C8442",
",. c #5E8942",
"<. c #5D8349",
"1. c #5E8849",
"2. c #618545",
"3. c #628B44",
"4. c #698E45",
"5. c #63864A",
"6. c #648B4A",
"7. c #6A8D4B",
"8. c #6A874F",
"9. c #659144",
"0. c #6A9246",
"q. c #669249",
"w. c #6B934B",
"e. c #6C984B",
"r. c #73944E",
"t. c #74994D",
"y. c #6C8C52",
"u. c #688655",
"i. c #6D9352",
"p. c #6E9358",
"a. c #749553",
"s. c #799754",
"d. c #759A54",
"f. c #7A9A55",
"g. c #759559",
"h. c #7A965A",
"j. c #7C9B5A",
"k. c #769B5A",
"l. c #718E50",
"z. c #7CA155",
"x. c #7DA25A",
"c. c #79A456",
"v. c #7D9A62",
"b. c #778B66",
"n. c #5BBB66",
"m. c #6FB170",
"M. c #77C876",
"N. c #819D5C",
"B. c #82A45B",
"V. c #84AB5C",
"C. c #89AB5E",
"Z. c #81A356",
"A. c #8CB15B",
"S. c #839C66",
"D. c #8C9D72",
"F. c #A38466",
"G. c #84A462",
"H. c #8AAC64",
"J. c #88AB65",
"K. c #8CB265",
"L. c #8DB46A",
"P. c #92B465",
"I. c #93B56B",
"U. c #95BB6C",
"Y. c #9ABC6D",
"T. c #96B965",
"R. c #9BBD72",
"E. c #96B671",
"W. c #90AE6C",
"Q. c #B3B96C",
"!. c #D08D4B",
"~. c #DCB25D",
"^. c #E8AC5D",
"/. c #E1B058",
"(. c #E9976E",
"). c #D4B068",
"_. c #E9A665",
"`. c #EAAA74",
"'. c #DF935A",
"]. c #9CC26C",
"[. c #9DC373",
"{. c #85C778",
"}. c #A2C66E",
"|. c #A6CA6E",
" X c #A3C673",
".X c #A5C974",
"XX c #AACC75",
"oX c #A4C57A",
"OX c #A5CA7A",
"+X c #AACD7A",
"@X c #A8C777",
"#X c #ADD17B",
"$X c #ADD376",
"%X c #B1D47D",
"&X c #B4D97A",
"*X c #F4D279",
"=X c #F2C774",
"-X c #555985",
";X c #5C638B",
":X c #576589",
">X c #5E6993",
",X c #62668E",
"<X c #67678D",
"1X c #77638E",
"2X c #636693",
"3X c #636993",
"4X c #686C97",
"5X c #6B729D",
"6X c #6C7396",
"7X c #73769B",
"8X c #6E6A8F",
"9X c #757BA4",
"0X c #787DA4",
"qX c #6E75A1",
"wX c #715F88",
"eX c #896691",
"rX c #B36F9D",
"tX c #D26F93",
"yX c #E46C8A",
"uX c #CD79A3",
"iX c #7C83A6",
"pX c #7E89B2",
"aX c #8286A6",
"sX c #848CB5",
"dX c #8E94B9",
"fX c #A98AA7",
"gX c #EF908C",
"hX c #F2B78D",
"jX c #D590A8",
"kX c #F79AA5",
"lX c #D09FA9",
"zX c #AACD81",
"xX c #ADD281",
"cX c #B4D684",
"vX c #B0CF81",
"bX c #949CC4",
"nX c #99A5CA",
"mX c #9EABD0",
"MX c #A2ABD1",
"NX c #F9F7FD",
"BX c #EEE8EE",
"VX c #DCDEEC",
"CX c #F9CD8E",
/* pixels */
",.&.:.1.#XcX#X&XT.9.0.9.e.a u t t a :.&.:.&.&.:.:.>.:.z.Z.Z.N.Y.&X$X#X$Xq.L >.:.,.0.9.9.e.g r t u K k.Z.v.H.7.i a e w 3.q.9.9.>.r i L J i.e.e.w.",
":.d d P T. X.X.XK.&.,.,.3.t 9 9 9 t g h d h h g h k P k.f.s.l.C.|.@X X.X>.d k k h ,.,.;.3.a 9 r 9 r a.j.j.G.u.G i J w >.3.,.*.k 7 i i i 6.q.p.q.",
"&.g g >..X#XOX#XK.*.3.,.1.t 0 0 9 t L h k h h L h k h a.s.d.a.W.%X@X+X+X6.k h g P 3.,.3.6.s e e e i s.j.v.x.u.J J J J 1.>.*.3.L q 9 r r u.i.i.i.",
",.P k j K.U.U.].V.3.4.3.q.d t a t t T >.:.>.P h P h >.j.Z.N.N.K.Y.Y.I.I.2.g &.:.:.,.1.=.,.s e e 9 i G.J.G.L.u.J K J K p.a.i.7.2.g K g I u.q.1.6.",
"q.,.9.,.t 9 9 r I j.f.f.x.6.3.2.,.6.j.d.f.f.w.3.4.,.3.[.+X+X+Xd.4 r r t >.6.,.,.,.h h &.h a 9 r 7 L oX+XzXvXx.<.<.5.5.j.G.N.j.W.oXoX XoX5.r s J ",
"q.=.,.,.u 0 9 9 P j.s.s.d.4.;.3.;.7.k.k.f.f.4.*.,.,.9..X|.].#Xk.7 e 9 7 ,.3.,.9.=.d h d h u e t 9 a  X+X+XvXG.K P 2.I j.G.S.N.W.%X.X}.OXj e J J ",
"q.,.9.,.u u 8 9 h f.s.f.f.4.3.3.3.4.f.s.h.j.w.;.,.,.9. XXX X#Xf.9 r t 9 ,.=.,.q.,.g h &.&.i e e 9 a oX@XoX%XB.L P k P g.N.S.S.W.+XzX+X+XI y w u ",
"q.,.3.3.0 9 a 0 I N.f.j.k.3.>.&.>.4.f.f.f.j.w.3.9.3.0.OX+X+X%Xk.4 e 9 y 3.3.3.3.*.d L h g u 6 w 9 d OX+XvXcXH.I P s K l.f.j.h.W.cXvXvXcXu.y w q ",
",.:.=.:.i s s t *.r.e.w.w.Z.C.V.V.c.e.e.e.w.>.d d d <.c.V.c.V.7.t a s a P >.&.&.*.*.*.>.:.2.2.T T 5.p.p.i.j.i.6.u.&.*.G.W.E.E.W.B.B.B.G.p.8.l.8.",
">.d k h :.h L L k ;.=.=.3.U.#X#X#XU.3.>.,.6.s 7 e 7 9 &.-.*.=.:.L h g L k d h d :.q.,.,.6.w.f.N.f.w.8 4 9 e I i.q.q.6.R.cXvXcXE.g I <.I v.J.N.B.",
"&.L h d d h P P *.3.6.3.>.U.OX XOXT.3.4.,.3.d 9 u e u 9.9.q.3.>.L d g :.L h :.h :.1.,.3.;.r.s.s.s.y.r u 9 u >.w.i.q.6.[.XXXXvXJ.T g j T v.v.j.N.",
"&.K L L L d g d :.3.;.3.-.T.$X.XXXU.;.3.3.q > : : : : : > p 9.>.d L L k L h k h &.,.9.3.;.a.f.s.f.i.e r 9 6 I i.q.p.a.oX+XXXvXJ.i g a g g.h.H F ",
":.&.d d *.*.*.:.>.,.,.,.3.K.OX X XL.>.1.G + + O @ @ + + + = ;.*.k L h P g P g d &.0.;.;.0.r.g.a.g.7.t e t e P e.w.6.y.oXvX@X@XG.j T j g 7.q * o ",
"9.,.,.q.R.[.[.[.x.9 u u r g >.j K J D G F l l l % l % l l z D.b.Y u.a.i.a 9 i e <.OX].OXoX3.w i i i 5.>.*.3.h h 1.1.1.j.S.N.f.B.R.S.D.S.Y F 1 3 ",
"q.=.3.4. XOXXX#XB.7 r e r g h h X . @ # z C C C C b C b b n     .   q f.a e u 4 <.+X.X.XvX6.7 e 7 t 3.,.*.;.:.K :.I <.v.N.h.a.C.W.X X X * B `  .",
"q.,.6.4.[.XX XXXG.7 u e r K h I . O + O z C C Z Z Z Z b n n O O O   F a.a r e 7 >.OX.X|.zX6.7 e e u -.,.1.3.>.s 1.<.5.h.N.h.l.C.D.- * - - )  . .",
"e.,.,.e..X#X#X%XG.7 e 9 w 6 o & $ & O O b ,X,X;X3X,X;X;X;X-XW -X-X-X! = : 9 e 9 I +XXX|.vX6.7 y 9 t ,.3.6.3.P g k :.u.h.G.S.D = 1 { { { ` ..@.+.",
",.&.*.:.x.x.z.J.i.a d d s 5 @ % x z % z W >X3X3X>X>X3X2X2X2XW -X-X! c O = i i r 2.Y.T.W.Y.6.a d K s :.h k k j 5.5.i.y.8.y.y.N * 1 [ | | | X.+.#.",
"&.L L L 9 7 7 4 f 6.;.q > v x c Q W W Q 5XpXpXsXpX4X2X2X4X4X2X4X4X6X,X! Q : > a >.h.h.a.f.w.;.9.9.,.r 7 e 9 I Z.s.N.v.L 5 : B B _ X.X.+.X.yXgX(.",
":.&.d f 0 u u u f ;.;.: + z b R ,X>X2X,XiXnXnXnXnX5X3X3X5XqXqX9X0X0XiX6X,X  . 0 *.f.j.f.h.i.3.,.3.*.u u r e 2.f.h.s.S.L = X ) |  .@.@.@.#.gXkXkX",
":.g h d u 9 9 u f *.H v = x R Q 2X>X4X4XiXnXnXmXmXiX9X5X6X6X6XiXaXiX7X6X,X& & F G l.r.f.h.w.3.,.3.:.u e e 9 I N.f.s.b.D M 1 _  .X.@.+.#.yXgXhX=X",
":.L L g r r r 7 g & . v v C 3X>X>X3XdXnXdXnXnXnXmXMXMXnX9XiXiXiXiXaXiX7X8XC c & X q h.h.k.w.>.3.3.>.w e t e >.j.r.Y . * { | X.@.@.@.O.kXkXhX*X*X",
"9.,.,.4.K.U.U.U.k.@ + o & C ,X,X6X<XdXnXnXnXnXnXmXmXMXnXiXiXiXiXaXsXiX7X<XC x # X > 3.4.7.k r u t s :.>.*.*.&.>.P p @ * [ | X.O.+.o.o.jXlXhX*X*X",
"q.,.,.q..XXXOX&Xx.@ + $ & C <XiXVXVXW x A nXnXnXnXnXnXdXiXaXBXBX~ & C <X>Xb n $ . > 3.;.3.s e e e t 3.4.3.4.:.g k H X * { | X.O.gXBXBXN - F.*X*X",
"e.,.,.9.[.XX X+XN.o + = c W 3XaXNXNXc . c bXbXbXbXbXbXbXaXdXNXNXv . c ,X,Xb Z % . > 3.,.4.a e u 9 t 3.3.3.=.>.g h H * - ` | X.O.jXNXNX: X F.*X*X",
"q.9.3.0..XXXI.> v v x Q -X;X3X,X! ~ m O x bXbXbX0XsX0X0XaXaX^ ~ & . n 2X;X-X-Xn c c : 5 q.a 9 e 9 9 ,.>.:.=.P q , N ) ) X.X.@.O.[ ~ ~ o X F.*X*X",
">.L h *.J.K.u.+ @ c b -X2X2X2XQ O + # # x bXbXbXsXsX0X0XaXqX# + @ + n 2X3X3X>XR b z . = >.P g g :.:.k.z.z.c.7.5 X 1 [ | O.@.@.@.' X + @ X F.*X*X",
"r u r 7 g k q + + x C 2X2X2X2X-X+ + # # x bX0X0XpX0X0X0X0X4X# @ @ + n 2X>X3X3XA b z + = d i.N.f.f.B.XXXXXX$XH.q + 1 [ | @.+.@.@.' * + + X ] =X=X",
"t 9 e t g h p . + z C :X>X3X<X-XO # # @ x 0X9X9XqX0X0X0X0X4X+ + + l n wX3X3X>XA C z + = j 7.f.N.s.x.XX@XOXXXK.F X M [ | O.@.@.+.{ X + # o ] _.^.",
"r u r e L P D + + z b :X2X8X1XwX* @ @ # n 0X9X9X9X9X9X0X9X8X# l * # B 1X8X<X3XR Z z + & g 4.s.f.s.N. X@X.XOXP.V @ M [ | O.@.O.O.[ - - - < ] ^.~.",
"r 9 e e g g D @ + m b ;X<XrXtXuXjXrXeX5X5XqXqXqX9X9X9X0XqXqX<XwXrXtXtXuXrX<X3XR C z + = g l.N.j.d.B.OXXX#XXXL.N + M [ | O.O.#.yXyXtXtX`._.^._.).",
"i.q.7.6.,.>.G + + z C :X<XeXrXjXuXuX1X5X4X5X5XqX9X9X7X7XqXqX4X1XrXuXtXtXrX1X2XR b z + = 5.j g g K h d.d.t.d.q.> + M [ | O.O.X.yXtX#.o.`.^.^.~.Q.",
"B.h.d.f.9.4.G @ . z C Z R ^ eXaXlXfX8X4X4X4X2Xx v x x n 4X4X4X2XeXeXeX1X1XR R b Z z + = 6.f 9 9 9 r ,.,.*.=.:.> + 1 `  .$.( (.(.(.(.`.^./.).U.v.",
"B.s.d.f.4.;.G @ + x C C C ! <X3XiX6X3X3X>X2X-X@ @ @ + n 4X2X4X2X2X;X2X2X2Xb Z Z E z   & 6.d r u 9 i ,.3.3.3.>.5   1 [  .( ( '.`.^.^.^.^.~.Q.zXv.",
"B.h.d.k.6.,.1.5 F m z C C R Q -X>X3X3X3X4X2X;Xc n n n Q >X4X4X4X2X2X2X-X-XS Z c x v 5 i 6.a 7 9 9 t ,.3.;.;.*.y > N ) %.$.( ^.CX'.^.~.Q.Y.[.{.m.",
"z.a.s.d.:.:.>.h l.& O c C C C R 4X>X>X3X2X3X3X3X2X2X2X2X>X4X4X3X2X2X-XS A S R l + > >.,.>.k t a u a 1.,.,.>.3.6.3.U - 2 $./ _.hX!._.~.].{.{.{.M.",
"w.3.3.2.t w r 9 j , = c c c Z R ;X;X;X;X,X-X,X;X;X,X;X;X;X2X2X3X2X2X-XS S Z b x = 5 d h h >.3.3.3.,.&.h h d x.xXOXR.N , } !.(.hX`.=X).].M.M.M.M.",
"0.>.;.2.e e r 9 L j.S.: $ z Z C C C C C b E C Z n b b b C Z Z Z E R A A n O O b.T.k :.h k >.3.;.,.,.g L h s x.%X}.}..X0.> 2 ] gX/ / !.c.n.n.n.n.",
"w.,.3.6.r r r e I f.s.> @ z Z C C C C C E C E E C C C C b Z Z b b E Z C n   o v.K.f h h g >.3.3.3.*.h L h s x.XX}. X|.0.> - ] (.( ( !.n.n.iXm.m.",
"9.,.4.1.9 7 9 4 g N.f.N.v.D % $ $ $ $ $ # # @ # # % # # $ % % # $ l $ & & E.oX+XP.h h P h ,.;.4.,.3.k d &.a x.cX+X%X$X0.3.*.q , < 3 , ; ; ; ; ; ",
"L d &.J c.z.z.j.g.1.3.3.6.q O . . + +   + . + X @ @ X +       +         o P.C.W.f.t i i r 2.r.7.r.7.*.,.&.>.6.p.y.p.7.r.l.w.D <   X X X X # X @ ",
"9 0 0 u zX+X#XcXV.a g g L 9 5 5 5 5 D 6 5 q U Y Y Y Y D 5 5 5 q F q q q I s.s.s.8.w r e w 7.N.f.f.s.;.3.6.4.a 4 8 4 w y.j.j.l.H b.b.b.b.U U U H ",
"i 9 9 i R..XOXOXH.k &.h P r r r 9 a d L 1.a H.+X}.|. Xj I I g *.4.3.2.2.a.s.j.j.5.e r u e 5.k.f.k.a.4.=.*.,.h u u u e g.j.s.d.C.+X X XXXN.s.s.s.",
"9 t 8 a [.XXXXXXV.d h g d u 9 e 9 u :.d g f V.#XOXXX[.h g L k :.3.;.3.;.d.f.s.j.7.y y y e 5.j.f.f.d.;.3.3.9.g 9 9 0 r s.s.s.s.C.+X|.|.+XB.s.N.N.",
"s i u s R.|. XOXC.j :.*.5.i t i i a >.*.P >.V.OX]. XE.>.j k j >.>.,.,.3.i.d.a.a.7.t r r t 3.d.d.a.p.3.4.4.9.k 9 a 0 r 7.f.h.r.H.@X X X Xx.a.d.d.",
"q.>.>.2.f.f.j.s.J. X X X XZ.a.s.g.x..X.X XoXf.;.4.3.w.e.f.f.f.2.h &.g L r r p t i 2.1.3.>.P h h h >.s.f.a.k.6.d g L k 3.3.4.*.r.j.j.f.j.4.3.3.9.",
"q.,.3.6.r.s.h.s.H.XX XXX+XZ.s.f.s.B.XX|.OXXXz.*.6.3.6.d.f.s.j.7.h g h :.r y y 9 a 3.3.;.3.*.g L g h k.j.f.j.6.d :.L h 3.3.3.3.7.s.s.s.d.7.6.,.9.",
"9.,.;.6.t.N.N.r.C.+X XoX+XB.s.h.a.G.XX X XXXc.=.3.3.3.k.h.f.h.4.k P :.d t r e r d 3.3.3.q.h h &.d *.s.f.f.f.3.P g L h ,.,.3.3.7.f.j.f.d.4.3.>.9.",
"q.q.,.3.t.a.j.l.H.%X.XXX#XV.s.N.f.H.XXXXxX#Xz.*.4.3.4.j.f.B.j.6.a d f k e 9 r e i ,.*.*.;.&.h h k P f.f.v.j.3.f f a d 3.q.3.;.i.k.f.f.f.w.3.9.9.",
",.h h *.H.C.G.P.H.H.A.V.K.w.5.5.>.y.K.C.J.K.t.7.w.0.3.3.2.*.>.7.d.z.k.k.L i a r :.B.V.x.G.6.h :.:.<.7.7.i.4.r.d.k.f.d.*.f k &.2.r.a.w.a.:.k h &.",
"w 0 9 u oXXX+X%XA.*.;.*.3.r 7 e 9 e ,.*.&.=.e.d.f.s.k.y 9 G 4 k.%XOX+X+X6.s :.h w.#XXXXX#Xc.=.9.4.,.k k g s x.#XXX+X#XK 0 u 7 a ;.,.,.3.a 9 7 r ",
"i t 9 t ].|. XoXK.*.9.,.6.a e y u s 6.4.3.,.t.f.s.h.h.t 7 e 0 a.+X|.}.}.1.L h f q.OX.X}.#Xt.*.3.,.,.:.h h g x.XX.X.X].g 0 r 9 d 3.,.3.3.J e 9 u ",
"u 7 e i ].XXXX@XI.=.,.,.6.t 9 e e a 3.=.=.,.r.f.N.j.g.r w r 7 p.%XOX.X.X3.g g f i.+X.X.X#Xc.*.6.3.1.d d h d x.#X.X+X|.g 9 r 9 a 3.,.=.3.i 9 r u ",
"f 9 y s Y.XX@X.XA.=.3.,.6.a w r w f 1.;.3.6.r.t.h.d.g.r r u 9 k.XX X+X[.6.K h h 6.OX.X.XOXz.,.,.3.,.&.k h g z.+X[..X[.P 0 i 9 g ;.3.3.3.a r 9 u ",
"9.,.>.>.x.f.j.H.e.k h &.:.:.,.,.1.h :.&.h h 2.0.4.3.0.U.Y.U.Y.V.4.e.e.0.7.g.a.a.a.e.0.w.i.h 9 t u K U.].].[.Z.4.e.e.0.K.Y.T.R.L.r.s.d.s.>.d d L ",
"q.,.;.q.d.f.k.j.7.g L P k >.9.,.3.6.h k h L *.;.3.*.4.OXXXXX%XB.*.=.;.;.a.N.f.f.r.,.*.3.,.a r 9 9 g +X+X@X#XV.*.=.1.3.].#XOX+XE.s.h.f.j.>.k g h ",
"9.3.3.4.r.j.k.g.i.k P d k ,.,.,.3.,.h L h h >.6.;.=.4. X X XOXH.*.4.3.6.a.s.d.f.r.3.3.3.6.a r e 9 K  XXXOXXXB.,.3.3.3.[..X}..XT.s.f.f.f.>.g k P ",
"9.2.3.3.f.j.f.x.0.d L g L >.,.,.*.*.h h k k :.3.3.3.0.@X#X$X#XV.=.;.;.0.d.f.j.j.a.;.=.3.q.a 9 y 9 d XXXXOX%XV.*.4.3.4.R.+XXX#XY.d.N.s.f.>.g P k ",
"q.,.6.6.7.8.i.7.2.h *.j &.q.z.t.f.t.>.>.>.3.>.1.,.>.3.I.Y.T.Y.z.h >.h j 7.a.r.a.y.:.>.&.h k d a a h T.Y.U.Y.z.&.>.*.;.I.R.T.Y.J.r.a.r.t.2.I >.5.",
"q.=.3.3.e 9 0 7 J 3.3.3.3.U.#X.X#XR.f.j.f.k.5.k d L k s.s.r.N.I 7 u y e 1.3.3.,.*.7 r 7 w :.6.>.q.7.f.r.s.a.6.K h &.k a.s.r.d.a.*.3.3.3.g.N.f.B.",
"q.=.9.>.a t 9 a d 9.3.3.=.U.#X@XOXY.s.j.f.j.6.g h d h f.N.s.N.5.0 9 t w >.,.3.3.*.e e u r :.6.3.>.6.s.f.j.N.7.a h g f s.N.N.s.l.3.,.,.3.s.s.s.N.",
"q.9.1.,.9 9 9 9 s 9.,.;.-.U.OX X+XU.s.f.s.f.5.g P d :.d.d.s.j.I 7 u u 7 6.3.3.3.&.9 u u 7 h 3.3.,.4.f.j.s.f.7.d j P h a.s.s.h.r.,.,.9.,.l.f.s.N.",
"9.;.9.,.t 7 9 7 s ,.3.*.;.].#X.X+X].j.f.d.j.,.K P d P g.s.j.j.:.w 7 7 e P 2.3.3.j w r e w &.3.,.,.9.s.f.d.f.6.:.g P h a.f.j.f.r.;.3.;.;.a.v.s.N.",
">.:.h &.J.W.J.K.V.p.a.d.i.e.t.t.t.d.4.7.4.4.&.t 9 t t <.2.>.*.d.W.K.K.K.k.e.a.s.7.*.:.:.P &.&.&.&.&.8.y.w.w.L 9 i t t 3.7.3.3.z.U.P.P.Y.2.a k k ",
":.d K I OXXX+X$XT.s.f.h.f.4.,.,.3.,.,.6.=.9.s 9 9 9 u d h g s x.%X+XXX+XB.h.f.f.s.3.4.3.3.:.k L g h =.,.3.3.d 9 9 u y ,.3.=.;.x.$XOX+X#XP 4 y e ",
":.d g >.].}.+X}.I.s.j.f.f.3.=.=.3.=.,.3.-.3.d u u 0 e L h :.d x.XX}..XXXZ.s.f.f.r.3.3.=.3.&.k :.h :.3.3.3.3.k e t w u *.3.q.:.z.XX.X}.+X>.9 G e ",
"&.:.K h .X.XXX+XI.s.f.d.j.4.4.3.3.3.3.3.4.3.a e 9 r e g g :.d x.#XOXXXOXZ.f.f.k.a.9.=.,.3.P g k g h 3.,.=.4.g 9 q e e *.=.9.=.x.+XXXXX+X>.7 u 9 ",
":.K d :.L.U.I.Y.H.a.s.s.d.2.>.>.>.,.>.=.,.2.g i s f g K g s t d. XU.].].f.p.a.a.7.*.>.,.>.2.P >.:.*.4.,.*.6.:.g L L g >.,.*.&.d.@XR.Y. X1.8 i t ",
"q.3.3.&.t w r w d 3.3.2.1.a t 9 r t h h h :.7.k.g.f.p.u r u 9 h 9.*.;.3.h g P &.g r 0 r r 6.s.s.k.g.g g :.k z.xX+XOX Xk e u e L f.f.s.f.I g L h ",
"9.=.3.3.0 0 e e s 9.3.3.1.d 9 9 e r L P d d 7.j.f.d.k.r r e 9 L 3.1.3.,.&.L g g s e u u 7 6.N.s.k.d.h L g s c.+X}.|.OXg 9 e y I f.h.s.f.1.h g :.",
"9.:.,.&.u 9 8 e a ,.-.=.9.t 9 9 r r g d P g 4.f.h.d.a.e 9 9 9 h 9.,.=.,.d d k h d 7 9 9 7 8.f.s.f.0.k k &.f x.#X}.oX Xg 9 8 e g f.s.f.f.P k d &.",
"q.9.9.9.i u a e &.q.e.9.q.d t i t a >.&.:.:.r.V.N.B.j.s u a r &.q.q.0.w.,.:.>.*.h t u s r 7.B.Z.B.j.:.:.&.h V.cX$X%X%Xh u a u >.V.Z.Z.z.6.&.>.>."
};
