/* XPM */
static char *xpm_[] = {
/* columns rows colors chars-per-pixel */
"72 72 233 2 ",
"   c #150C2E",
".  c #190C2E",
"X  c #19142B",
"o  c #150B33",
"O  c #180B32",
"+  c #150D39",
"@  c #190F3B",
"#  c #141136",
"$  c #1A1332",
"%  c #16113A",
"&  c #1C193A",
"*  c #0D0D31",
"=  c #24193A",
"-  c #2B0F34",
";  c #282A2F",
":  c #282835",
">  c #2F3931",
",  c #353B37",
"<  c #30382E",
"1  c #385C2C",
"2  c #384635",
"3  c #3A5635",
"4  c #354F2F",
"5  c #3C632D",
"6  c #3F6628",
"7  c #3E6433",
"8  c #3E6339",
"9  c #465D39",
"0  c #44493B",
"q  c #41662E",
"w  c #42692D",
"e  c #416634",
"r  c #436A34",
"t  c #496E35",
"y  c #416639",
"u  c #456B3A",
"i  c #4A6D3B",
"p  c #49653A",
"a  c #4B7335",
"s  c #4D743B",
"d  c #4E783A",
"f  c #4D7636",
"g  c #527B36",
"h  c #52763C",
"j  c #537B3C",
"k  c #597D3E",
"l  c #517636",
"z  c #50673D",
"x  c #1E1B44",
"c  c #211C45",
"v  c #221A49",
"b  c #272548",
"n  c #2B2B52",
"m  c #34335A",
"M  c #393759",
"N  c #322F4F",
"B  c #3B3E64",
"V  c #473D58",
"C  c #3C4165",
"Z  c #3D4268",
"A  c #3E425C",
"S  c #474E4E",
"D  c #4B6943",
"F  c #546946",
"G  c #4D7242",
"H  c #4D714B",
"J  c #537442",
"K  c #547B41",
"L  c #5A7D43",
"P  c #5A794A",
"I  c #5A6C52",
"U  c #61774B",
"Y  c #667654",
"T  c #444869",
"R  c #544C68",
"E  c #575269",
"W  c #474D74",
"Q  c #4D537A",
"!  c #545777",
"~  c #65597A",
"^  c #6D5C75",
"/  c #596171",
"(  c #626D7C",
")  c #C94275",
"_  c #56813D",
"`  c #5B833E",
"'  c #5E893E",
"]  c #5D8637",
"[  c #628B3E",
"{  c #568141",
"}  c #5C8442",
"|  c #5E8942",
" . c #5D8349",
".. c #5E8849",
"X. c #618545",
"o. c #628B44",
"O. c #698E45",
"+. c #63864A",
"@. c #648B4A",
"#. c #6A8D4B",
"$. c #6B834F",
"%. c #659144",
"&. c #6A9346",
"*. c #669249",
"=. c #6B934B",
"-. c #6C984B",
";. c #73944E",
":. c #74994D",
">. c #6C8D52",
",. c #668853",
"<. c #738C56",
"1. c #6D9352",
"2. c #6E9358",
"3. c #749553",
"4. c #789754",
"5. c #759A54",
"6. c #7A9A55",
"7. c #75955A",
"8. c #7A965A",
"9. c #769B5A",
"0. c #7C9B5A",
"q. c #728E4C",
"w. c #7CA255",
"e. c #7DA25B",
"r. c #79A255",
"t. c #7C9B61",
"y. c #7FA760",
"u. c #819E5C",
"i. c #81A257",
"p. c #82A45B",
"a. c #84AB5C",
"s. c #89AB5E",
"d. c #84AA55",
"f. c #8CB15B",
"g. c #829E62",
"h. c #84A462",
"j. c #86AA62",
"k. c #8AAC64",
"l. c #8BAB69",
"z. c #91AF69",
"x. c #8CB264",
"c. c #8DB369",
"v. c #92B465",
"b. c #92B56A",
"n. c #95BA6C",
"m. c #99BC6D",
"M. c #96B965",
"N. c #9BBD71",
"B. c #96B672",
"V. c #8EB171",
"C. c #A0BF73",
"Z. c #9CC26C",
"A. c #9DC373",
"S. c #A2C66E",
"D. c #A6CA6E",
"F. c #A3C674",
"G. c #A5C974",
"H. c #AACC75",
"J. c #A4C57A",
"K. c #A6CA7A",
"L. c #AACD7A",
"P. c #A8C777",
"I. c #ADD17B",
"U. c #ADD376",
"Y. c #B1D47D",
"T. c #B3D87A",
"R. c #575A82",
"E. c #5C628A",
"W. c #5A6387",
"Q. c #5E6993",
"!. c #65688B",
"~. c #6D728B",
"^. c #626993",
"/. c #676A97",
"(. c #6B739B",
"). c #6D7396",
"_. c #727695",
"`. c #746D8E",
"'. c #757BA6",
"]. c #6E75A2",
"[. c #8C6893",
"{. c #BA779C",
"}. c #CC6E98",
"|. c #D06E97",
" X c #CD79A3",
".X c #CD5A89",
"XX c #7F89AC",
"oX c #848DB3",
"OX c #8D95BA",
"+X c #8990B0",
"@X c #93A2BF",
"#X c #A98AA7",
"$X c #CC8CAD",
"%X c #C0A6BB",
"&X c #AACD81",
"*X c #AED181",
"=X c #B4D684",
"-X c #B0CF81",
";X c #949CC3",
":X c #959CC6",
">X c #8F9AC2",
",X c #8FA3C4",
"<X c #93A2C5",
"1X c #95A2C8",
"2X c #9AA5C9",
"3X c #A2AACB",
"4X c #A4B4CE",
"5X c #A5B5D2",
"6X c #ACBAD6",
"7X c #B3B9D6",
"8X c #D7B8D3",
"9X c #D6B3CF",
"0X c #B5C5DE",
"qX c #B9C7DC",
"wX c #BBC9E2",
"eX c #D9C3DB",
"rX c #C3CDDE",
"tX c #C1CCE4",
"yX c #C3D3E9",
"uX c #CDDCED",
"iX c #C8D5E7",
"pX c #D1DCEC",
"aX c #D7D6E9",
"sX c #CCDCF1",
"dX c #D4D5EB",
"fX c #E1CDE7",
"gX c #D8E3EC",
"hX c #D2E2EF",
"jX c #E9EDF3",
"kX c #E9F1F6",
"lX c #FDFCFD",
"zX c #F5F6FD",
"xX c #E5E7ED",
/* pixels */
"| _ { ..H.T.I.T.M.%.&.%.-.f u t r a { ` L _ _ { } } { r.i.i.0.m.Y.U.I.U.*.L _ { ..&.%.%.-.h t t u d 6.0.u.k.>.i s r w O.#.%.%.` r G h G =.-.1.-.",
"{ d d L Z.F.J.G.x._ | | | t 7 7 e t j j d j d j j d j 9.6.4.;.k.D.H.F.F.} d g d g | ' [ o.a 5 7 7 u 3.0.t.p.+.D i D r { | | ' h 1 i i s +.=.1.*.",
"_ h h } G.I.K.I.c.} o.| ..t 7 8 7 r K g g k h L K g k 3.4.6.3.v.Y.P.L.L.@.s _ h j O.o.| @.d 7 r e i 4.0.9.g.,.G J H s ..` } o.K e y r u ,.1.*.1.",
"| L g k x.n.b.Z.d.o.O.o.*.d t s t s L  .L { j j j j } 0.u.u.u.k.m.m.b.b.o.g L _ { ....' ..s e r 7 i h.k.l.k.,.H G G G 3.3.=.#. .z h J L ,.,.@.*.",
"*.| %...t 7 7 r L 0.6.6.9.#...o.| #.5.5.6.6.#.X.#.| %.A.L.L.*X5.1 r r t { o.o.| | j j _ _ i 7 q 7 h F.&X&X-Xj.{ ..+.U 0.h.u.0.V.J.J.F.J.#.u G G ",
"*.' | | 8 u r 7 K 0.4.6.6.O.[ [ [ #.9.6.6.6.O.[ | | %.A.D.Z.I.9.1 r 7 5 X.%.| o.' h j d j t e r 7 a K.P.L.-Xy.G L X. .8.h.g.u.z.Y.G.S.K.k e i G ",
"*.| o.| u 7 w 7 k 6.4.6.5.#.o.[ o.O.6.4.6.0.=.[ o.| [ G.H.G.L.5.7 r t 7 } ' ..%.| d _ j j i u r 7 s K.P.P.Y.p.K L d L 7.g.g.g.z.L.&XL.L.P y q u ",
"*.| %.| 7 r t 8 P u.6.0.9.o.} ` } O.0.6.4.0.-.o.%.o.-.P.L.L.Y.6.1 e e y o.[ o.%.` d K j j u 5 q 7 s P.L.*X=Xk.P { s h <.4.u.8.V.=X-X&X=X,.y t 3 ",
"| { ` { a s s t ` =.-.=.*.p.s.a.a.a.O.-.-.*.} h h h L e.a.e.a.#.t s s a { } } _ ` ` ` _ { } X.U L +.7.2.1.9.-.+.,._ } h.z.B.B.z.p.p.e.j.<.,.q.$.",
"} s g _ K K K K g [ ' ' [ m.I.L.I.n...` X.J 2 < < > > 2 3 p ' { L j j h g d j d { #.| o.@.;.6.u.0.O.6 1 7 y L 1.*.=.X.A.=X-X=XB.h P  .K t.h.Y I ",
"_ K d j d j K L } o.@.@.` n.L.F.L.b.o.O.L . o o o o o O o : o.{ K h j { L d _ j { ..| o.[ ;.4.4.4.>.r r u y  .1.1.#.#.N.H.H.-Xl.L k { L t.<.x o ",
"{ d K K d K h s L o.[ [ ] n.U.G.N.j. .P Y m m m m m m m N T ,.P G J h s K h g j _ | %.| ' 3.0.4.u.1.e u y 1 L ;.*.1.1.K.L.H.-Xl.i J i J <.I v x ",
"} d _ d _ ` { ` { | | o.o.x.K.F., @ O X M ;X1X,X;X<X<X<X<XOX# X $ $ 9 K K K s s _ &.[ [ &.;.7.3.<.#.t e u e L *.*.#.#.J.-XP.J.h.L X X X + b Z B ",
"%.| ..*.A.A.A.F.p.7 u u r h X.} = + % # C <X<X@X<X<X<X<X2XOX* % % + I 1.a e t u  .K.Z.K.F.@.q r t i +.} ' | j j  ... .g.u.u.6.p.B.# # o * n Z Z ",
"-.[ o.[ F.H.G.I.p.5 r e e i ; & OXOX>XOX3XuXiXuXuXuXuXpXuXwXOXOX>XOX!.: ; u u 1  .I.A.G.*X#.5 7 5 t o.| ' [ { K } P  .t.u.<.U : : % # + * B Q.Q.",
"%.| +.&.A.P.G.H.h.5 u e r D   * >X1X<X<X4XuXpXuXiXuXiXuXuXuX@X<X,X;XW.o $ t u 5 } K.H.D.L.@.5 u u t ' } ..o.{ G }  .+.0.u.8.F O & n c % b W /.Q.",
"-.| | *.G.I.I.=Xh.5 e 3 > S Z R.0XwXqXwXiXkXkXkXkXgXpXuXuXuXqX0X0XwX;X!.!.2 2 3 L Y.H.H.*Xo.1 u 7 r o.o.+.O.L h g } +.t.Y F V n m R.W W R./.XXoX",
"| _ _ } e.e.e.a.#.s d 2 o m (.OXsXiXuXuXgXlXlXlXlXgXpXuXuXuXuXuXuXuX0X,X@Xo   9 L m.v.v.n.#.s h s s { _ g g k X.+.>.>.>., O b B T ^.^.Q.Q.].1X1X",
"_ K { K 5 5 5 1 s @.+.S M W.5X5XuXuXhXgXjXlXlXlXlXxXgXgXuXuXuXhXuXuXwX4X3XB M H J <.8.3.8.*.| %.%.} q 7 e 7 L p.3.e.t.F N & n W Q Q./././.'.2X2X",
"{ d d d u u u u f > $ !.,X5XsXsXuXuXkXlXlXlXlXlXlXlXlXkXuXuXuXuXuXuXuXuXsX<X;XT . 9 6.0.8.;.[ | o.` u u u r L 6.8.q.: o N N C ^.Q.Q./.OX:X:X1X3X",
"{ d j d u 7 7 u f ; + ^.,X4XuXpXgXgXxXxXjXlXlXlXlXlXlXjXpXuXpXaXrXwXyXuXsX<X<XZ O 0 q.6.9.=.o.o.o.} t u 7 7 U w.u.<.= o X $ C ^.Q.!.!.+X3X:X1X1X",
"{ K L d u u r 5 K : o !.@X4XuXpXzXlXE = ^ lXlXlXlXlXlXjXpXgXzXzXR & !.uXuX<X<XZ O S 4.8.9.=.` o.o.` q r t 5 L u.;.q.= o o & C !.XXjXgX! n W 1X:X",
"| | | O.c.n.b.n.e.: * !.@X4XsXuXlXlXE o E lXlXlXlXlXlXkXpXgXlXzXV   ~ hXsX2X:XC o 2 O.O.O.h t u t s } } ` ` _ } k h & o & m Q !.[.lXjXn x n :X>X",
"-.| | &.F.H.P.U S ~.'.3XyXwXsXiXR R =   E lXlXlXlXxXgXgXuXqXT R & # ~ uXuXwXtXOX_.( 2 9 +.d 7 e 7 t ..o.o.O.{ i 2 , N n Q R.W.^.!.R R x x m :X>X",
"*.| } %.A.K.m.$ # +X;XwXuXuXuXpXX o o o E lXlXlXlXgXuXuXuXtXo o +   ! hXpXpXsX5X<X).O ; #.a e u 7 t o.o.o.[  .p O O m B W.^.^.Q.R.o o + + n :X>X",
"-.%.o.&.G.L.F.$ + oX,XwXuXuXuXuX# o o o R jXjXkXkXhXuXuXuXtX  O o . !.dXpXpXsX6X1X(.O : @.a 7 e 7 7 | } } } k 9 O o n B E.^.^.^.R.o o + x m >X[.",
"| K j ` k.k.h.. % oX,X0XuXuXuXdX@ O O o T pXuXpXuXuXsXuXuXwXo o o O R.dXsXuXsX6X:X).o ; } L h h { { 6.r.r.r.#.z o   b B R.^.^.^.Q O o o o n '.'.",
"r u 7 q f h h   % oX;XwXuXpXeXeX- - = = ! uXuXuXhXuXuXuXuXtX= = - - ^ fXfXpXsX5X;X/.o : h 1.u.6.8.p.H.H.H.U.v.U O o b B R.^.`.`.~ - O o o m '.'.",
"t 8 e t h j J   + oX,XwXpX9X}.|.|.|.8XpXuXuXuXuXuXuXuXuXuXuXsXaX$X|.|.|.{.aXpX5X<X).O : k #.6.6.6.0.K.H.H.H.v.I O O v B Q.^.[.|.$X$X{.[._.(.].].",
"r u r u K K P . % XX,XwXsX9X.X) .X|.9XuXuXuXuXdXuXuXpXpXuXpXuXaX$X|.|.|.{.aXsX5X,X).o : k #.6.6.4.i.G.G.G.H.l.U O O v Z E.^.[.}.$X{.}.[././.(.(.",
"w 7 7 e h j K   % oX,X2X2X4X8X9X9X8XaXpXpXsXwXT M m M _.pXuXuXpXeXeXeX8XeX3X3X2X<X).+ : h #.u.0.4.p.P.L.I.L.z.I O o b B T T R.[.#X%X#X`./././.^.",
"1.#.#.@...` } . # +X1X,X,X5XsXuXdXpXpXsXpXuXwX=   o   ! uXuXuXpXpXpXsXsXsX<X,X1X<X).O ; +.k h J J j 5.:.:.:.q.D O o n B B B ! /./._._.^.Q./.^.R.",
"a.8.6.6.*.| o.p U ( W.oX<X2X6X0XsXuXuXsXuXuXiX_.~.~.~.OXuXuXuXsXpXuXwX0X7X<X<X).! E z k o.s 5 7 7 u } | ` | { s 9 3 b b B C W Q R.Q./.^./.^.^.W.",
"p.6.4.6.O.| o.` w.0 & _.@X<X@X@XuXuXuXuXuXuXuXuXhXhXuXuXpXuXsXuXpXuX0X,X,X<X<XB   2 | | o.d 5 u u t | o.%.' { L h J $ + m C C C T /.Q.Q.^.^.^./.",
"p.7.5.5.@.| %.| a.Y S ~.XXoX<X<XwXyXyXyXyXyXyXyXiXyXyXyXyXyXyXyXiXyX0X,X,XXXoXS ; y ' o.#.a 5 u 7 u | [ [ [ { s h h < , M M M Z Z E.!.W.E.W.E.W.",
"5.3.5.1.} }  .j 5.P.A.F * M <X<X,X1X,X1X,X<X1X1X,X<X,X1X,X1X1X:X<X<X,X@XOX% + I #.| | | | d r a t a | | | } o.#.@.+.#.v.S * b C C C Z C Z Z Z Z ",
"-.O.[ X.r q r 7 j 6.4.F X M 2X1X2X1X1X1X;X:X2X1X1X<X1X<X;X:X2X2X1X1X1X:X;X$ X V.f.d h h _ } o.o.o...K j j d e.*XK.K.F.-.2 X b T C C C Z B T C B ",
"*.X.[  .r r r 7 L 0.u.6.8.U b & v v v c c c c c v c c c c c c c c v v v N G.C.L.M.d K K g } o.o.| | d K j s e.I.D.D.H.&.@.@.F % % @ % % @ @ @ @ ",
"&.| [ +.r e r y L 6.6.4.4.U X   . O $ o o . O O O O O O O O O o O O O o ; H.J.L.x.g j j s } o.o.o.' j K j g e.H.S.G.A.-.@.' J $   .   O   O . . ",
"*.| %.+.e 5 5 1 l u.4.u.0.#.J J J D 4 3 3 2 F U I Y F F D z F y 2 3 3 3 g.U.L.L.M.j h { j ` [ O.| o.d g j f e.=XL.I.I.%.| ' } i 4 3 4 4 e p p z ",
"{ s d K r.r.0.6.9. .o...@.g s d h s G f s a 5.n.v.b.k.` k } } _ g g j j p.v.k.z.6.r s i r +.;.&.;.#.` } _ } @.2.1.2.#.;.>.3.=.3.i.6.w.p.;.#.O.#.",
"7 8 8 u &XK.I.=Xd.a K h h u 7 7 e w { h d h c.I.L.I.F.} d h g } #.#.o...3.4.4.4.#.5 u e q #.u.6.8.6.[ o.@.O.a 1 5 1 q >.u.6.4.k.-XL.&XL.l.9.6.u.",
"a t 7 a A.G.H.L.x.d _ j { r r u u a h K  .f a.H.S.G.J.k K P d _ %.' | o.4.4.u.6.#.7 u u e +.8.8.0.;.O.' ' | j r u u r 3.6.4.4.s.L.G.G.P.u.4.6.6.",
"7 7 7 a A.H.P.L.a.s j h j t 7 u e u K d h a a.I.G.H.A.g d K h } o.o.[ o.:.6.4.u.#.y e e 5 @.0.6.6.5.[ o.| %.j 7 7 8 r 3.4.4.4.s.P.D.G.H.p.4.6.u.",
"s s r a N.D.F.K.s.j } ` +.i i i i s } { } } a.P.Z.J.N.| k g k } ..| | o.1.9.>.7.#.r r r t O.5.5.5.1.@.@.O.O.j 7 u u r =.6.4.;.k.J.P.A.F.e.3.5.5.",
"*.}  . .5.6.0.4.k.G.F.F.F.i.3.4.3.e.G.D.A.J.r.| %.o.#.=.6.6.6.X.j _ h j t r i r i X...| } _ j j j } 5.6.3.5.o.s h K g X.O.@.[ ;.i.6.6.p.&.o.o.%.",
"*.| O.@.:.4.7.4.l.H.G.H.H.p.4.6.4.p.H.D.K.K.r.` @.o.O.8.8.6.4.O.j d h { u y u 7 a o.| o.%._ h K h k 6.0.8.e.#.d { h j o.| o. .#.4.4.3.4.#.@.} %.",
"%.| [ @.:.u.8.4.p.L.S.P.L.p.3.0.3.g.L.D.F.U.i.` | o.| 9.4.4.u.@.g L { j q r e r s O.o.| @._ j { d ` 4.4.8.5.o.K j L j ' | o.o.&.6.0.6.5.O...' %.",
"%.| o.%.;.5.8.q.k.L.H.H.U.s.6.0.4.s.H.G.*X*Xi.] O.o.@.9.6.u.0.@.d g f d 7 u r 7 a } ] ` ' j d k d k 6.6.t.0.X.a a l d o.%.' [ 1.8.9.6.6.&.o.%.*.",
"} _ g { j.k.k.z.k.k.a.f.x.*.+.+. .>.x.f.j.x.:.*.=.=.O.@.X.} X.#.5.9.5.r.K u t r L y.a.e.p.@.L { {  .*.#.>.O.;.6.5.6.5.` d _ _ } :.1.;.;.} h d _ ",
"r 7 7 i A.U.L.Y.f.] | _ o.r 5 e 5 u | ` _ ' -.6.6.4.6.e 8 u 1 9.*XH.I.K.+.d j k 1.I.H.H.I.r.[ %.O.' l l h s a.I.I.I.I.G 8 u 5 a [ | [ ..a 7 7 r ",
"t r u u Z.D.P.P.x.' #.| @.t e u u s @.%.o.o.;.4.8.6.7.r 5 u 7 7.L.D.S.D...h _ f #.G.F.S.I.r.` o.|  .{ ` K d r.H.F.F.Z.h 7 r u s o.o.| @.s 7 7 u ",
"u 5 e t A.H.H.J.b.' | | @.t 5 u e a o.' ' X.;.6.u.0.7.u 6 r 1 1.Y.K.G.F.o.G g s 1.K.H.D.I.r.} o.o...d g j d e.I.G.K.D.k 7 e 7 a o.' ' o.s 7 7 u ",
"f 7 y d m.H.K.H.a.[ o.| +.f 6 r q a ..[ o.@.:.:.4.6.3.u 7 i 7 9.H.F.K.A.@.h k h ..I.F.F.K.r.| o.o..._ g j h r.L.G.G.A.j 8 i 7 h [ O.[ o.f 7 r u ",
"|  .` } e.i.0.h.:.g j _ { _ } | .._ _ _ g L | %.O.O.&.b.Z.n.Z.a.[ =.-.-.=.7.3.3.3.-.*.-.-.h 7 t r h N.Z.m.N.i.&.=.-.&.x.m.n.N.c.;.3.6.3.{ s g K ",
"-.| [ %.5.4.8.6.#.d j { j } *.o.o...j j h K { [ X.` O.G.I.G.*Xa.X.[ [ [ 3.u.4.8.;.' | | | d 7 5 7 h K.H.K.Y.a.` '  .o.A.H.H.L.B.6.8.8.6.+.g j j ",
"%.| o.O.:.0.8.7.=.d { d g | o.| O.} { G j g } o.o.' O.F.G.F.L.a.[ o.o.o.7.3.6.6.;.o.o.| #.a 7 u 7 K F.D.K.H.d...O.| O.A.F.Z.H.M.4.8.6.6. .g j L ",
"%.| o.@.w.6.4.e.&.h K h L { o.} ` ` g K g j } O.o.[ %.P.H.H.I.a.' [ [ &.5.6.6.0.3.[ [ o.*.a 7 u 7 s H.U.K.I.a.' O.o.o.N.I.U.I.n.4.u.4.6. .h j h ",
"*.| o.@.#.$.>.#.+.j { k _ *.r.:.5.:.` X.} o. . .| } X.n.m.M.A.r.g  .j k #.3.3.;.1.{ } ` j h s f t L M.m.n.m.w._ ' ` | b.m.m.N.k.-.3.:.5.X.} } +.",
"-.' O.X.e 7 u 7 s o.O.o.' Z.I.F.I.N.6.0.6.6.o.s d K k 4.4.;.0. .5 u e e  .o.o.o.` 5 7 5 6 { @.| *.@.4.4.4.;.+.h j j g 3.4.q.6.=.` o.[ o.3.u.6.u.",
"*.' | | r t r r d o.| o.| n.L.P.P.n.4.6.4.0.+.h g h j 8.6.6.g.U u e r w ..| o.o.` u e u 5 L @.o.} #.3.8.u.u.#.s K g l 3.u.u.6.q.o.| o.| <.4.;.u.",
"-.| ..| q u 7 7 G %.| o.] n.G.F.H.A.4.6.4.0.+.h K j _ 5.4.4.0. .5 u u 5 o.o.o.o.j e u e 5 j *.o.' O.6.6.4.6.@.h k L j 3.7.4.0.;.` | o.| ;.4.u.u.",
"%.X.%.| r 5 q 5 s %.o.] [ Z.I.G.I.n.6.8.6.w.o.d L h { 9.6.0.6.` 6 5 5 e L o.o.o.` q u 7 w _ o.' | %.6.8.5.6.#.j h K k 1.4.6.6.=.o.O.[ [ ;.g.6.u.",
"' { g { j.c.c.c.e.1.3.5.1.-.5.:.5.5.O.#.O.O._ r r t r  .X.L ` 5.V.l.c.c.5.=.3.3.#._ { } { _ _ { { _ #.#.#.=.K r u t t O.*.O.@.0.b.v.M.m.X.a l h ",
"{ d J L K.H.L.U.M.4.0.8.6.O.| | ..| ..%.' o.s 8 7 7 e s g d s y.Y.L.I.L.p.8.6.6.5.[ O.o.o.{ h L d g ' | o.o.d 7 e e y } o.' ' w.I.K.L.I.L 1 y u ",
"{ d h { Z.S.P.D.b.4.6.6.6.@.[ | [ ' | o.' o.d u u r u K L j f 9.H.S.D.G.p.4.6.4.3.@.| ' o.` g j L { o.o.o.o.g u r q t } o.*.} e.U.G.G.L.{ e u r ",
"_ K G k G.G.L.L.m.3.6.6.6.O.O.o.o.%.o.o.[ O.f e 7 e e h h { g e.I.K.H.H.p.5.6.6.5.o.| o.o.k a k d L | | [ [ s 7 y y e ` o.[ ' e.H.H.G.L.L 5 u 7 ",
"{ K d { b.b.b.m.j.3.4.;.5.X.` } ` } | ` o.} h i s a h K g G a 5.A.N.Z.n.4.3.3.3.#.` ' } } }  .}  .g o.| ` @.{ h L J k } ' _ ` 5.P.N.m.F.} r t r ",
"*.| o._ r r r q s o.O.X.o.t 7 a r r K j h { #.9.7.9.1.u u r 7 g o.' [ o.j h L { g e u 7 r o.4.4.5.3.h j { s r.*XK.K.A.l 7 u 7 P 6.6.4.6.L h K L ",
"%.' [ ..8 8 r e s %.o.o.*.d 7 8 e t K K h g #.0.8.6.9.r 7 u 7 K o.| | o.{ K h h s e i 8 5 #.u.4.9.5.j j k a r.I.D.G.H.s 7 e y L 6.4.6.4.+.j j j ",
"| } ' ' u r 5 q a | ' ' | t 7 7 e r h g K h #.5.6.4.5.7 7 e 7 h %...| ' d d g h d 5 r 8 5 +.6.4.0.&.a g j d e.L.S.P.F.s 7 6 e h 6.:.6.6.L d d _ ",
"-.%.%.%.u r t u { -.%.%.*.d 7 a a a } _ } { ;.a.p.p.8.s u a u _ *.%.&.-.| { ` ` h t u s u #.p.i.p.0. .` _ j a.=XU.Y.Y.k u a r  .s.p.i.i.@._ { } "
};
