/* XPM */
static char *xpm_[] = {
/* columns rows colors chars-per-pixel */
"72 72 245 2 ",
"   c #0A121B",
".  c #280A1B",
"X  c #321117",
"o  c #0D0B29",
"O  c #140B2D",
"+  c #190A2D",
"@  c #1A0927",
"#  c #0D182A",
"$  c #15162B",
"%  c #150A32",
"&  c #180933",
"*  c #160A37",
"=  c #1A1436",
"-  c #0D0F32",
";  c #2A0928",
":  c #281628",
">  c #221C34",
",  c #36102E",
"<  c #1B2C33",
"1  c #19312D",
"2  c #282735",
"3  c #343938",
"4  c #2C2C31",
"5  c #531837",
"6  c #572D32",
"7  c #602C2D",
"8  c #571F17",
"9  c #395C2B",
"0  c #3A4A37",
"q  c #3D5935",
"w  c #3D632E",
"e  c #3F6628",
"r  c #3E6433",
"t  c #3D6238",
"y  c #44573B",
"u  c #4D4D3D",
"i  c #724238",
"p  c #41682E",
"a  c #416634",
"s  c #436A34",
"d  c #426539",
"f  c #456B3A",
"g  c #4A6D3B",
"h  c #496B36",
"j  c #4C7336",
"k  c #4D743B",
"l  c #4D7738",
"z  c #52763C",
"x  c #537B3C",
"c  c #597E3E",
"v  c #527A36",
"b  c #506B3E",
"n  c #1C1840",
"m  c #262348",
"M  c #2A2B52",
"N  c #363457",
"B  c #353548",
"V  c #3A3C65",
"C  c #201A42",
"Z  c #6A3048",
"A  c #355B4D",
"S  c #3D4443",
"D  c #3B6651",
"F  c #3A684C",
"G  c #3C4166",
"H  c #495B45",
"J  c #4C574F",
"K  c #4B6742",
"L  c #566A48",
"P  c #4D7245",
"I  c #527441",
"U  c #547B41",
"Y  c #5A7E43",
"T  c #597948",
"R  c #496556",
"E  c #4F6F55",
"W  c #677A57",
"Q  c #667751",
"!  c #4D4F72",
"~  c #597069",
"^  c #6E5556",
"/  c #8C4A34",
"(  c #A35A37",
")  c #DC7C3A",
"_  c #D26F3D",
"`  c #E27B35",
"'  c #E57936",
"]  c #913653",
"[  c #B0485E",
"{  c #9A7254",
"}  c #AC714E",
"|  c #B14763",
" . c #A76360",
".. c #C84359",
"X. c #D15154",
"o. c #DB7A46",
"O. c #CB784C",
"+. c #D45368",
"@. c #E45963",
"#. c #EC6669",
"$. c #F26468",
"%. c #EB7775",
"&. c #E06D70",
"*. c #56813D",
"=. c #5B833E",
"-. c #5E893E",
";. c #5D8637",
":. c #628B3E",
">. c #5C8442",
",. c #5E8942",
"<. c #5D8349",
"1. c #568141",
"2. c #52905E",
"3. c #618545",
"4. c #628B44",
"5. c #63854B",
"6. c #648C4A",
"7. c #6A8D4B",
"8. c #698D45",
"9. c #659144",
"0. c #6A9246",
"q. c #669249",
"w. c #6B934B",
"e. c #6C984B",
"r. c #72944E",
"t. c #76984D",
"y. c #6A8A52",
"u. c #738A59",
"i. c #6D9352",
"p. c #6E9358",
"a. c #749553",
"s. c #799654",
"d. c #759A54",
"f. c #7A9A55",
"g. c #7C9B5A",
"h. c #78965A",
"j. c #708D4C",
"k. c #7CA258",
"l. c #579468",
"z. c #588D6C",
"x. c #7D9564",
"c. c #6F9B71",
"v. c #5CBA6A",
"b. c #5CBA67",
"n. c #5CB06F",
"m. c #64BC6A",
"M. c #64B969",
"N. c #63B374",
"B. c #64B772",
"V. c #72AC76",
"C. c #72C36E",
"Z. c #79C674",
"A. c #78C776",
"S. c #6BC270",
"D. c #E3863D",
"F. c #DD8A3A",
"G. c #819D5C",
"H. c #809A57",
"J. c #B0865D",
"K. c #82A45B",
"L. c #85A95B",
"P. c #8CB15B",
"I. c #849C63",
"U. c #99886D",
"Y. c #A38465",
"T. c #8AAC64",
"R. c #87A764",
"E. c #91AE69",
"W. c #8CB366",
"Q. c #95BA6C",
"!. c #95B76A",
"~. c #9BBD73",
"^. c #96B777",
"/. c #84B97C",
"(. c #D49052",
"). c #EA994C",
"_. c #EA9B55",
"`. c #E58942",
"'. c #E6AD5B",
"]. c #EAAB5C",
"[. c #EAAA56",
"{. c #EDA556",
"}. c #E99971",
"|. c #E8A965",
" X c #EBAD6C",
".X c #DE9E69",
"XX c #82C976",
"oX c #84C67A",
"OX c #82C879",
"+X c #87C57A",
"@X c #9DC373",
"#X c #9DC36C",
"$X c #A4C76E",
"%X c #A3C673",
"&X c #A5C974",
"*X c #AACD75",
"=X c #A4C67A",
"-X c #A6CA7A",
";X c #AACD7A",
":X c #A8C777",
">X c #ADD17B",
",X c #AED376",
"<X c #B1D57C",
"1X c #F5D17A",
"2X c #F4D375",
"3X c #F1C672",
"4X c #565985",
"5X c #5D638C",
"6X c #62678D",
"7X c #626993",
"8X c #646995",
"9X c #6B729B",
"0X c #73779C",
"qX c #69708E",
"wX c #767DA3",
"eX c #6E75A1",
"rX c #D0718C",
"tX c #E37085",
"yX c #BA7F86",
"uX c #7C83A6",
"iX c #7E89B2",
"pX c #7BC880",
"aX c #B38D86",
"sX c #94B383",
"dX c #A4AE88",
"fX c #848CB5",
"gX c #888DB0",
"hX c #A7BEAC",
"jX c #EAA393",
"kX c #9CD293",
"lX c #93CA8A",
"zX c #B4D684",
"xX c #A8D08A",
"cX c #ACDCA3",
"vX c #B3DBAC",
"bX c #B0DEA5",
"nX c #B2D4AE",
"mX c #EBC98A",
"MX c #949CC4",
"NX c #99A5CA",
"BX c #9EABD0",
"VX c #A2ABD1",
"CX c #F9F8FB",
"ZX c #F0F1EB",
"AX c #DCDEEC",
/* pixels */
",.*.1.<.,X<X>X<X#X:.q.9.w.l s h h l *.1.*.*.*.1.>.>.1.k.K.K.f.^.<X,X<X,X6.U >.1.>.0.9.9.w.z f h f U f.k.g.R.y.g k s p 4.9.q.9.=.a k U P q.e.q.q.",
"1.l l >.Q.%X=X&XW.;.:.4.4.h r r r h x x l x l x x l U d.f.s.r.P.$X:X%X%X>.l v l *.4.-.-.4.l e a r s a.g.h.R.5.P g K s >.,.,.-.x w j g g 5.w.i.q.",
"*.z z >.&X;X-X>XW.,.4.4.,.f r t r s U z l z z U z x x s.f.f.r.W.<X*X*X;X4.x x c x 6.4.,.4.I r a r g d.g.x.R.5.P I P P <.=.>.4.c a y a g y.i.i.p.",
",.U x c W.Q.Q.#Xk.4.4.4.q.l j l h k >.>.>.>.>.x *.x >.g.K.H.H.T.!.~.!.!.3.z *.x 1.<.,.,.4.k r s r g R.R.R.T.y.P I P I i.a.i.7.Y b I z Y 6.y.6.6.",
"q.,.9.,.f a r a Y g.f.f.g.6.4.4.4.8.f.h.f.f.7.3.6.,.9.@X;X;XxXd.e s a h >.6.,.,.,.v x *.*.h a a w U =XxX;XzXR.U <.5.<.g.R.g.g.E.=X=X=X=X5.f k P ",
"q.-.,.,.t f s r U g.s.f.g.4.4.4.4.8.g.d.f.f.8.:.,.,.9.&X$X#X>Xg.9 h r w ,.4.,.9.-.x U l x g s s r j %X;X:X<XR.z Y 3.>.x.I.R.g.E.>X$X#X:XY a g P ",
"q.4.4.-.f r e r x H.s.f.f.8.:.4.4.4.f.s.f.g.w.:.4.,.:.&X*X$X;Xg.t r h r ,.-.,.6.,.z 1.x x j a a r l =X%X:X<XR.I Y x U f.I.R.I.E.%XxX;X;XT d p g ",
"q.,.9.4.r f j t Y G.f.g.h.4.>.*.>.8.g.f.s.g.w.4.9.4.e.=X;X;X<Xf.w s r d 4.:.4.9.>.l U v z f a a r l =X;XxX<XT.T U j I y.s.f.x.E.zXzXzXzXy.d s y ",
",.>.=.1.g j I j >.w.e.w.q.K.P.L.L.k.q.e.w.q.>.z v l U k.L.K.L.7.s l k j 1.,.*.*.=.=.=.-.>.>.3.Y Y 5.p.p.i.k.w.6.y.*.=.K.E.^.^.E.K.K.K.R.h.y.j.y.",
"1.l l *.U x U U v 3.-.-.4.Q.>X;X>XQ.9.>.,.q.l w r r r -.;.*.:.*.x x z U x l z x 1.6.,.,.4.r.f.g.g.0.e 9 q d T a.q.7.3.~.zXzXzXE.x T T U x.R.G.K.",
"*.U x l U x U U =.4.6.4.=.Q.-X%X-XQ.4.4.,.4.k a K r j 6.9.,.4.>.x l x U 1.z 1.x 1.4.,.,.3.r.f.s.s.j.a f r f <.w.i.7.q.~.*X*X>XE.Y c Y 3.x.g.g.G.",
"*.I x U x x k l >.4.:.4.:.Q.,X&X*X#X-.9.=.3 > > > < $ > 2 0 8.Y l U U l x x z v x ,.q.4.:.a.f.h.g.i.s s r t T e.q.p.i.xX;X:XzXR.g k v z p.p.3 2 ",
"1.*.x l c *.=.>.>.,.,.,.4.W.%X%X@X!.>.<.K O O % O O O % & > 8.Y x Y Y Y x U z l *.w.:.:.0.r.a.a.a.7.s a s d U q.w.q.7.=XzX:X=XR.v <.Y c 7.H % & ",
"q.-.,.q.@X@X@X%Xk.r f f p z >.c K q 0 S J D D D D D D D D R W E L L 7.i.j s f s >.-X@X&X=X6.p s g g 5.>.-.4.>.z <.<.<.x.G.H.s.K.^.{ u.W b i i / ",
"e.-.,.8.%X-X&X,XK.w f s a k c z - % = # A B.M.v.B.B.v.b.M.z.o - % o 0 h.h a f 9 <.>X@X&XzX5.w s w s 4.4.,.-.1.U ,.Y 5.g.G.u.a.T.E.. . X X / ) ` ",
"q.,.6.9.%X-X%X:XR.w f s s k I L 3 1 < 1 F S.m.m.S.m.M.m.M.n.1 < 1 1 J y.h s s w <.&X*X$X;X6.w a s h -.,.,.:.U P <.<.5.g.G.h.j.H.H.8 8 8 8 ( D.D.",
"q.,.,.q.&X>XzX>XR.9 s s r y @ 1 N.N.N.N.V.OXOXOXXXXXoXOXOXA.M.N.l.pXE 1 2 t s w T ,X*X*XzX6.w f t h ,.4.4.8.Y z v >.5.x.R.I.L X 8 (.(.(.(._.{.[.",
"4.*.1.,.k.K.k.L.w.j k k j 0 # 1 B.b.v.m.C.OX+X+XXXXXOXXXoXA.b.b.n.pXD   # j j s 3.!.!.E.!.6.j z k k 1.*.v x c 3.6.y.y.y.y.y.u X 8 (.F.(.`.[.[.'.",
"*.U U l r 9 r 9 l 6.6.u 2 R c.V.pXA.A.A.lXcXcXcXcX+XXXOXXXXXA.A.v.pXV.2.z.3 3 h >.h.h.a.f.7.-.9.9.>.p r a r T K.a.g.x.Y 0 3 7 ( } ).).).[.'.3X3X",
"1.x x l f f f f j 4.4.2 - A v.m.OXoXoXoXkXvXvXvXbXlXoXXXOXXXOXOXA.A.S.b.2.  o q =.f.g.f.s.i.4.,.4.>.s f d a 3.f.h.s.R.I : : / D.F.[.'.[.'.3X2X2X",
"1.z x v f r r f l I y R D l.m.C.oX+XlXkXcXvXvXvXvXkXkXlXA.XX+XXXA.OXZ.S.n.D R J y y.r.s.d.w.,.,.4.>.f s r r Y H.g.s.Q u i i O.).(.'.'.3X X2X1X1X",
"1.U U z r s s r z + o l.B.C.+XZ.+XoXcXbXcXbXvXvXvXvXvXkXoXXX+XXXlXA.XX+XZ.B.N.< + u h.g.g.w.,.4.4.=.p s s r >.g.j.Q % . O.`.).|..X'.'.2X2X2X1X2X",
"9.,.,.9.W.Q.Q.Q.f.= - l.b.S.A.lXlXkXhXhXnXvXvXvXvXvXvXkXoXlXlXkXpXsX/.OXA.M.N.< O 3 4.8.6.z h g h k 1.,.>.=.*.Y Y K % . O.` _.{.'.3XjX3XmX3X1X1X",
"q.,.,.q.&X*X*X<Xg.= o l.b.S.oXkXZXZXB = ~ vXvXvXvXvXbXkXoXlXZXCXB   E OXZ.M.N.< + 3 4.:.4.k r r a h 4.4.4.8.*.c v K % X O.' _.].3XZXZX4 $ Y.1X1X",
"q.,.,.9.@X&X%X;XG.$   l.m.C.oXxXCXCXm O ~ nXvXvXnXvXbXxX/.kXCXCXN @ R oXZ.M.M.1 o 3 4.-.9.j a f t j ,.9.4.-.>.1.c b . X _ ` _.].mXCXCXm @ Y.1X1X",
"q.q.4.0.%X*XE.3 B z.l.Z.Z.Z.oXV.3 B O - ~ nXvXvXvXcXlXlX+X/.B N & O R lXZ.Z.A.l.z.R 4 0 q.j r a r r ,.*.1.,.1.S 2 6 } } _.).{.'.J.B N = o Y.1X2X",
",.U x =.T.W.W & < N.b.Z.XXXX+Xc.o & & % ~ vXbXvXbXlXV.XXoXc.# * % o R oX+XXXOXS.b.A O > >.Y z z 1.>.k.k.d.k.q.0 & 7 ` ` [.|.].].{ ; & * @ Y.mX2X",
"s f r p l x y & < N.b.Z.+XXX+Xc.o & & O ~ kXkXkXkX+XXXXX+Xc.$ * & O E oXXXXXZ.S.b.A O > z i.G.f.f.K.&X*X*X,XW.6 & 7 o.D.[.'.'.].{ @ % * @ { 3X3X",
"f r a h z x d & < n.v.A.OXoX+Xc.o + O O R +X+XoXXXXX+XOXOXc.# % & & R +X+XOXOXm.n.A O > c 7.f.f.s.k.-X-X&X-XW.B % 7 o.` {.[.].].{ & & *   { '.'.",
"h s s a U U H % < N.b.Z.A.^.E.gX, , : 1 E oXoXXXXXXXXXOX+XV.1 2 , 2 ^ dX^.+XoXm.v.A O = z 7.f.f.s.f.%X*X&X&XE.H & 6 o.` {.]. X}. .5 5 , 8 } ].].",
"s r a a z x H % < n.v.Z.lXdXrXrXrXrXhX+X+XoXOXXXXXXXOXOX+X+X+XsXaXrXrXrXaX^.OXm.B.A O > z j.G.g.s.K.:X;X;X,X!.S + 7 ' ' _.|.}.rXrXrXrX X X'.].].",
"i.q.7.6.4.>.K % < n.b.A.oXaX&.yXrXaXdX/.oXXXoX/.lX/./.+X+XXXOXsXaXrXrXrXaXlXA.m.v.A % > 5.c z I I *.d.t.d.d.7.3 + 7 o.' {.|.&.tXtXtXrX.X'.'.[.].",
"K.f.f.f.4.4.L % < N.b.b.m./.sXdXdXsX^.XXoXlXV.1 2 < 1 P oXXXXX+XdXdXdX^.sXm.m.m.v.A * > 4.j w r r r ,.,.>.-.>.3 O 7 ) ' D.D.).}.}. X}.].].'.'.J.",
"K.a.f.f.4.-.P % < N.v.b.b.C.A.Z.+XOXOXoXA.+Xc.  - O o R +XoXXXoXZ.lX+XXXZ.b.v.v.B.A % 2 5.l s s s g ,.9.4.-.>.3 % 7 o.' ' ' ).].'.[.[.'.].].'.J.",
"K.f.d.h.7.4.6.0 H J A n.b.B.S.C.XX+XOXXXoXoXpXR E E P c.lXZ.Z.oXZ.oXZ.C.S.v.N.F A J q b 6.l w s r f ,.4.:.:.Y h 0 u 7 / o.' `.`.).].].'.].].'..X",
"g.a.d.i.>.>.1.*.i.= $ l.b.b.b.S.XXXXXXXX+XXXOXoXA.lXXX+XXXXXOXOXoXA.m.B.v.v.B.1 @ 3 >.4.,.z h f f j >.,.4.=.3.6.4.L > ; O.' ' ' F.[.].].|.].[.'.",
"e.4.4.3.s e s r c 3 4 ~ 2.n.n.b.A.A.A.A.A.A.A.Z.Z.A.Z.Z.A.A.A.A.A.A.S.v.n.2.z.B 4 0 z x x >.4.4.9.,.1.x x l k.xX-X~.3 2  .( _ ' `._._.)._.{.).).",
"6.-.4.3.h a f r U g.x.3 # A n.b.b.b.b.b.v.v.n.v.b.v.v.v.v.v.v.v.b.v.v.v.l.# o c.P.l U x x >.4.:.4.,.x z U l k.>X$X$X*X0.: . ( ' ' ` ) ` ` ` ` ' ",
"q.,.4.3.s a f d Y f.f.y $ J N.B.N.N.N.n.N.N.N.N.N.B.N.N.N.N.N.N.B.N.B.N.z.$ $ I.W.v x x x =.4.4.,.,.x x x z k.,X$X:X@Xw.4 @ / (.o.o.o.o.o.o.o.o.",
"w.4.4.6.r w w 9 z G.s.g.g.R # # # < # # < # # # < # # # < # $ # # # # # 2 ;X=X;X!.x x U x =.4.8.4.,.l x x l k.zX;X>X,X0.,.3.J ; X X : , X ; , X ",
"1.l U l k.k.f.f.d.<.6.,.6.q O O - & O % % * % % & & & & * % % % % & & % > !.L.E.g.h k f s 3.r.0.t.7.=.>.*.,.4.p.i.p.i.j.r.r.H + & % + & % % & & ",
"r t t f xX-X,XzXL.j U z I a 0 0 0 0 H y q 0 Q u.W u.W H 0 y y y K K H K Q t.t.s.7.p a a p 7.G.f.s.f.:.4.6.4.h 9 w 9 a j.g.g.a.Q I.x.x.x.Q L L L ",
"f s r j ~.*X-X-XW.l *.v 1.s a f r l z U >.l R.&X%X$X%Xc U <.k *.4.,.4.4.a.s.f.g.8.a s f a 5.f.h.g.a.:.4.,.,.c f s f a a.g.s.s.L.*X&X:X*XH.s.s.H.",
"s r e j %X*X-X;XL.z z x U s s r t f U l k j T.>X&X*X@Xx z U z =.4.:.:.3.d.f.f.G.7.d d d r 5.g.f.d.s.:.4.4.9.z r a d a a.s.s.s.P.:X$X:X;XL.s.H.g.",
"l K f g ~.$X%X:XL.>.>.c 3.g g g g j >.=.>.>.L.-X#X=XQ.3.x c c >.,.4.,.,.a.d.a.p.7.h s h s 6.d.d.d.p.4.4.6.9.x a h s s w.s.s.a.T.%X=X%X%Xk.a.d.d.",
"q.>.,.,.t.f.G.f.T.&X%X%X%XK.a.f.a.k.&X$X@X=Xk.,.9.4.w.w.f.f.f.3.x 1.x x h a h h j 3.,.,.,.*.c x x >.s.f.s.d.4.l z U z 4.8.6.=.r.f.g.f.k.8.6.,.9.",
"q.,.4.7.d.s.h.s.T.*X&X:X-XK.a.f.s.K.*X*X&X*Xd.-.6.4.4.g.f.s.s.7.x z x U f f t r f 4.4.9.6.1.z U z c f.g.f.g.6.x 1.z x 4.,.4.3.w.f.s.a.f.8.7.,.9.",
"9.,.:.6.r.H.G.r.L.;X%X%X;XK.s.h.s.I.;X%X%X,Xk.=.4.,.4.h.s.s.g.8.x x *.x s s r s j 6.4.,.9.x v 1.l *.f.s.f.d.6.U x U x -.,.4.4.7.f.g.f.f.9.<.=.9.",
"q.q.,.4.t.f.h.0.T.<X*X,X,XR.f.g.h.T.*X*X;XzXk.=.8.4.4.g.g.K.g.4.k j l l r f r r g ,.=.,.-.x x x z Y f.f.x.g.4.j j v l ,.q.4.8.i.f.h.f.f.8.4.9.9.",
"*.*.x *.T.L.R.E.T.R.L.P.T.8.5.5.,.y.W.P.R.T.f.q.0.0.8.4.>.>.3.7.d.k.d.d.x f l h 1.k.L.k.R.6.1.1.>.>.7.8.i.4.r.f.d.f.d.*.l v *.=.t.i.e.a.>.c *.*.",
"s r r f %X*X;X<XP.*.4.=.,.s w r w s 4.=.*.-.e.f.g.f.f.a t K 9 g.zX&X;X>X6.z U z i.>X,X&X;Xk.-.4.4.>.l x z k L.>X,X;XzXI t K 9 l :.,.3.4.g r r r ",
"h s a g %X$X%X=XW.:.4.4.7.j a f f k 6.4.4.,.e.f.s.s.h.f e s t p.,X$X&X&X>.x v j q.-X$X$X>Xt.-.4.4.,.1.*.U k k.*X%X%X#Xl t s r l 4.4.,.4.k r r f ",
"f e r g @X$X:X&XW.-.,.,.6.f r f a k 4.-.,.,.t.f.G.g.h.f e s 9 p.>X=X&X&X,.I x l i.-X*X$X>Xk.*.4.4.<.l x v k k.>X&X-X$Xz r a r k 4.4.:.4.j r a g ",
"l r d k @X*X:X*XP.4.4.,.,.j p s p j ,.4.9.,.t.t.s.s.s.h s f r d.,X@XxX@X7.I x c 6.-X&X&X-Xk.,.4.4.,.*.v x z k.;X&X&X&XU t j r z :.4.:.4.j a a s ",
"9.,.>.,.k.k.g.R.t.l v *.>.*.-.,.,.U *.v x U ,.9.8.3.8.Q.Q.!.~.L.:.e.q.0.7.a.a.p.a.q.w.e.e.x s f f U ~.#X#XQ.L.0.w.w.0.W.Q.Q.@XW.r.a.a.d.>.k v I ",
"q.,.4.9.a.f.h.f.7.x x U x >.q.,.,.6.U x U d y y y y y W x.$X>XL.:.:.:.:.s.G.f.f.t.-.,.,.,.l r r r z -X*X%XzXL.*.-.,.4.@X,X&X*X^.s.g.f.g.3.k a y ",
"q.4.4.8.a.g.f.h.i.l 1.z v ,.,.4.4.4.U z P = & & % % * * * L &XR.:.4.4.4.s.s.s.f.r.>.4.-.6.l r s r I *X$X=X*XL.,.4.4.8.@X&X$X*X!.s.g.s.g.Y y @ + ",
"q.4.4.4.f.f.f.k.0.z k U U >.,.,.z c I L H = n n n n n n n S ^.x.Y =.:.8.d.f.g.g.a.-.:.8.q.j r f r l *X*X&X>XL.=.6.4.4.~.;X*X<X!.s.h.y.u.T u 5 5 ",
"q.-.6.4.7.7.i.y.3.x >.c *.w.k.e.> $ = - m G G G V V V V V V - O $ $ y c 7.d.r.a.i.>.>.=.x z j h j x !.Q.Q.@Xk.*.4.-.4.W.~.!.~.T.y.+ & * ; Z ..X.",
"q.-.4.,.s q f r k 4.4.4.:.!.xX@X= - * - M G G G V V V V V V - o o o 3 a ,.4.,.,.=.w a w e >.6.,.q.y.f.a.s.t.5.z x v v a.r.r.s.r.Q ; ; ; ; ] ..X.",
"q.-.,.,.j s r s z 4.4.4.:.u.3 2 - n - - V 5X7X7X7X5X5X5X5X4X4X4X4X6X! 4 S >.,.4.=.s a f a x 6.4.-.8.s.f.g.G.7.l c z v a.H.H.Q > 5 | | [ [ +.$.$.",
"q.9.,.,.s r r r k 4.4.:.;.W * = M M n m G 7X7X8X8X8X5X8X8X5X! 4X4X! N * 3 6.4.4.x a f a e x 6.4.,.4.g.g.f.g.6.z U z c a.s.g.J + 5 ........@.#.#.",
"9.:.q.<.h r r w k 4.3.h 0 J N N 4XG G 4XeXiXiXiXiX8X8X8X8X9X8XqX8X9XqX! ! 0 y 3.=.a s a a *.4.-.,.9.s.s.f.f.7.1.x U c a.T H ] ] [ +.@.@.@.tXjXjX",
">.*.x =.R.T.W.W.L.i.p.0 * m V ! 7X8X7X5XuXNXNXNXNXeX5X8X9XeX0X0X0XgX0X0X6Xo $ 7.7.*.1.1.>.*.*.*.1.*.7.y.8.q.U r h h h 7.4 @ ] [ ..$.$.$.$.jXjXjX",
"1.z I U =X,X;X,X~.j.u.J = M ! ! 8X8X9X9XwXBXNXBXBXiXeXeXeXeXwXwXwXuX0XqX6X> C W y.3.8.4.6.>.x z x x -.,.4.4.x r r a d Y Z 5 ] X.@.$.#.tXtXjXjXmX",
"1.l z >.#X$X:X%XE.2 + M M V 6X6X7X8XfXMXMXNXBXNXNXBXVXMXeXwXuXuXuXuXuX0XqXV N > + b 4.-.4.*.v x x 1.4.4.4.4.x r h q O ; | ..@.$.$.$.#.jXjXjXmXmX",
"*.U I x &X&X-X,XE.> % = $ N 8X6XqX7XMXNXNXNXMXMXBXBXBXMXwXwXwXgXuXgXuX0XqXV M * % b -.9.4.x z z z x 4.4.:.4.l r d y & ; | ..+.$.#.&.rXjXjXmX2X2X",
"*.U l 1.!.Q.E.~.k.= % = = ! 7XgXAXAX! M G NXMXMXNXNXNXMXgXgXAXZX! > V 8X6XV V = % d =.>.>.3.>.>.>.*.4.,.=.4.>.z I L & ; | ..@.#.jXZXZX5 ; J.1X2X",
"q.4.4.*.s r s p f = % C N ! 6XuXCXCXN * N NXMXMXMXMXMXgXgXgXCXCXN O N 6X8XV V n O 0 t r r q.f.a.f.p.z x U l k.xX>XE.; ; [ ..@.#.jXCXCXC & Y.mX2X",
"9.-.4.4.t t w 3 3 N M ! ! 5X6X5X! ! n - N MXMXMXgXfXuXgXgX0X! J * % V 7X5X4X4XN B B 3 0 w 7.G.s.f.d.x z x l k.R.J ^ ] ] @.@.$.#.| J ! = O Y.1X2X",
"4.1.-.*.f s 9 % % N G 5X8X8X7X4XO = * * M MXMXMXgXiXuXuXuX0X> & & % V 7X7X7X6X! V M * 4 w 5.g.t.f.w.v z x l g.u.& 5 ....#.$.$.$.| + & & @ Y.1X2X",
"e.9.9.9.h a y % - M G 5X8X8X7X4X& & * * N fXwXwXiXwXwXwXuX9Xn & * * V 7X7X8X8XG G m % 3 s w.K.K.K.g.>.>.*.z R.u.= 5 | ..$.#.#.#.[ ; % % @ { 3X3X"
};
