/* XPM */
static char *xpm_[] = {
/* columns rows colors chars-per-pixel */
"72 72 242 2 ",
"   c #0D0D28",
".  c #140B2E",
"X  c #1A0A2C",
"o  c #1A072A",
"O  c #17162C",
"+  c #150A32",
"@  c #190A32",
"#  c #180935",
"$  c #1B1332",
"%  c #181537",
"&  c #0D132D",
"*  c #280729",
"=  c #23182E",
"-  c #2C0731",
";  c #310932",
":  c #350933",
">  c #221B37",
",  c #360C2C",
"<  c #1A2B32",
"1  c #1C312F",
"2  c #25212C",
"3  c #292635",
"4  c #353838",
"5  c #313035",
"6  c #05141C",
"7  c #471334",
"8  c #521533",
"9  c #72253A",
"0  c #552C3C",
"q  c #395D2B",
"w  c #3A4938",
"e  c #3C5A35",
"r  c #3D632E",
"t  c #3F6628",
"y  c #3E6433",
"u  c #3D6238",
"i  c #43543D",
"p  c #45583B",
"a  c #414C39",
"s  c #41672E",
"d  c #416634",
"f  c #436A34",
"g  c #416539",
"h  c #456B3A",
"j  c #496D3A",
"k  c #4A6B37",
"l  c #4C7336",
"z  c #4D743B",
"x  c #4D7738",
"c  c #52763C",
"v  c #537B3C",
"b  c #597E3E",
"n  c #527A36",
"m  c #526F37",
"M  c #2B2B52",
"N  c #35345A",
"B  c #2F2E49",
"V  c #3B3E63",
"C  c #1E1A41",
"Z  c #561E41",
"A  c #543650",
"S  c #752B47",
"D  c #6B3352",
"F  c #3B574B",
"G  c #3A654C",
"H  c #3E4166",
"J  c #4B5943",
"K  c #4E534F",
"L  c #58694B",
"P  c #4D7244",
"I  c #527441",
"U  c #557B41",
"Y  c #5A7E43",
"T  c #597848",
"R  c #506B4C",
"E  c #687758",
"W  c #657650",
"Q  c #454866",
"!  c #51506F",
"~  c #635B72",
"^  c #5C6A6D",
"/  c #617069",
"(  c #893453",
")  c #903650",
"_  c #A53E5C",
"`  c #B13F57",
"'  c #B3475C",
"]  c #BB4663",
"[  c #B84866",
"{  c #A84A6B",
"}  c #944666",
"|  c #CB4255",
" . c #C5435C",
".. c #CA425B",
"X. c #D34C5B",
"o. c #D44A59",
"O. c #D9535E",
"+. c #C44661",
"@. c #D55466",
"#. c #E55C65",
"$. c #E75D68",
"%. c #D8656B",
"&. c #D76673",
"*. c #D57376",
"=. c #EE6566",
"-. c #ED656A",
";. c #E8686B",
":. c #F26565",
">. c #F2646A",
",. c #E96F77",
"<. c #EB5C5F",
"1. c #56813D",
"2. c #5B833E",
"3. c #5E893E",
"4. c #5D8637",
"5. c #628B3E",
"6. c #568141",
"7. c #5C8442",
"8. c #5E8942",
"9. c #5D8349",
"0. c #5E8849",
"q. c #55935D",
"w. c #618545",
"e. c #628B44",
"r. c #63854B",
"t. c #648C4A",
"y. c #6A8D4B",
"u. c #698C46",
"i. c #659144",
"p. c #6A9246",
"a. c #669249",
"s. c #6B934B",
"d. c #6C984B",
"f. c #72944E",
"g. c #75994D",
"h. c #6B8B52",
"j. c #738959",
"k. c #6D9352",
"l. c #6E9358",
"z. c #749553",
"x. c #799754",
"c. c #759A54",
"v. c #7A9A55",
"b. c #7A965A",
"n. c #7C9B5A",
"m. c #769759",
"M. c #708D4C",
"N. c #7DA25A",
"B. c #7BA255",
"V. c #59936A",
"C. c #789469",
"Z. c #5CBB6A",
"A. c #5DBA67",
"S. c #5AAB6B",
"D. c #64BC6B",
"F. c #62B374",
"G. c #65B972",
"H. c #74AE77",
"J. c #79C775",
"K. c #6EC26F",
"L. c #819E5C",
"P. c #82A45B",
"I. c #84AB5C",
"U. c #86A85B",
"Y. c #8CB15B",
"T. c #839D63",
"R. c #8F8F7F",
"E. c #84A462",
"W. c #8AAC64",
"Q. c #89AA65",
"!. c #8CB366",
"~. c #95BA6C",
"^. c #99BC6D",
"/. c #92B468",
"(. c #9ABD72",
"). c #95B674",
"_. c #8EAF6C",
"`. c #A1BF76",
"'. c #84C67A",
"]. c #83C879",
"[. c #85C678",
"{. c #9DC373",
"}. c #9DC36C",
"|. c #A4C76E",
" X c #A3C673",
".X c #A5C974",
"XX c #AACD75",
"oX c #A4C57A",
"OX c #A6CA7A",
"+X c #AACD7A",
"@X c #A8C777",
"#X c #ADD17B",
"$X c #AED376",
"%X c #B1D57C",
"&X c #575A82",
"*X c #5D628A",
"=X c #64688A",
"-X c #626993",
";X c #656B99",
":X c #6C7297",
">X c #737CA4",
",X c #CC738C",
"<X c #EB7983",
"1X c #BA7F86",
"2X c #7E88AB",
"3X c #7BC880",
"4X c #9DB083",
"5X c #8D96BB",
"6X c #878EB4",
"7X c #A5A894",
"8X c #F48791",
"9X c #F49CAD",
"0X c #FA99A8",
"qX c #F09DB3",
"wX c #D68C9B",
"eX c #99CE8F",
"rX c #AACD81",
"tX c #ADD281",
"yX c #B4D684",
"uX c #A5D293",
"iX c #B3DBAC",
"pX c #AED6A9",
"aX c #949CC5",
"sX c #8F9AC2",
"dX c #93A2C4",
"fX c #98A3C9",
"gX c #A4B1CF",
"hX c #B6C6DE",
"jX c #BBCAE3",
"kX c #CCDCED",
"lX c #C6D5E8",
"zX c #D3DCEB",
"xX c #CCDCF1",
"cX c #CAD2EA",
"vX c #D8E3EC",
"bX c #D6E3F0",
"nX c #E9EDF3",
"mX c #E9F1F6",
"MX c #FDFCFD",
"NX c #F7F6FA",
"BX c #F1EBED",
"VX c #C3CDDE",
/* pixels */
"8.1.6.0.XX%X#X%X~.5.a.i.s.x f j h l 1.1.1.2.1.6.6.7.7.B.P.L.L.^.%X$X%X$Xa.v 7.6.7.p.i.i.s.c f l h I v.N.n.Q.h.j j h s e.i.i.i.3.h P c P k.d.a.s.",
"6.x z 7.^. XOX.X!.3.e.3.e.f y f f f b c x v x v v x 6.m.v.v.M.Y.|..X X X7.z n x 1.3.3.5.e.z r r y f z.n.n.E.r.P j P f 7.e.8.3.c q j k z t.a.l.a.",
"1.c c 7..X#XOX#X!.3.e.e.a.f y u d f U c c c c U U n b z.x.x.z.!.%X@X+X+Xu.x b c b 0.8.e.i.z y f y j b.n.C.P.r.P z R z r.3.7.w.v e d h g r.k.k.k.",
"8.Y n b !.~.~.^.U.5.e.e.t.v f l f l 9.7.7.7.1.b v v 7.n.P.L.n.!.^.^.~./.0.c 1.1.7.0.0.8.0.z f f y j P.W.Q.Q.l.P I P P l.z.k.y.w.m I U Y h.h.0.t.",
"a.8.i.0.f f y f Y v.v.v.n.s.w.w.8.u.m.m.x.v.y.e.t.8.i.{.+X+XrXm.q f s l 7.e.e.8.3.v v n b z d s y c oX+XrXtXE.U 9.r.r.n.T.n.n._.rX X XOXr.h z P ",
"a.3.8.8.u h f y U n.v.v.c.e.e.5.e.p.B.v.v.v.u.5.8.8.i. X|.}.#Xn.q h y r 8.e.8.8.3.x v v v k d h y l @X@X+XyXE.I Y w.Y b.E.T.L._.#X X{..Xb d z P ",
"a.8.i.8.h h t f b n.x.v.v.t.e.5.3.u.v.x.v.n.s.w.8.8.i. XXXXXXXc.y f f d 8.5.t.i.0.v 6.v v j d d y x OX@X X%XQ.U Y n Y b.T.T.T._.+X+X+X+XY g r h ",
"a.8.e.e.y y f y Y L.v.n.m.e.8.2.7.u.n.v.v.n.s.e.i.e.p.OX+X+X%Xv.q d y g e.5.0.i.7.x v v v f d d y z OX+XrXyXQ.U Y z c k.x.b.L._.yXtXtXyXh.J f p ",
"8.7.2.6.j z z f b s.s.s.s.N.Y.I.I.N.a.s.a.s.7.x x z 6.N.I.N.I.y.k l z j 6.7.2.1.2.3.1.7.1.7.w.Y Y w.l.l.k.B.s.t.h.v 7.E._.).(._.P.I.P.E.l.h.M.h.",
"6.x n v 6.1.U U n e.3.3.e.~.#X+X+X}.i.7.8.a.z y d f y 2.4.1.3.1.Y b v v v x v x 6.a.0.e.t.f.x.L.L.s.t q e g T k.a.k.w.(.yXtXyX).v T T Y C.Q.L.Q.",
"6.U x v v v Y Y 7.e.w.i.3.^.+X XOX/.e.e.8.0.z h h f h w.i.t.u.7.v x v v U v 6.v 6.e.8.e.5.f.x.x.b.h.d h y h 9.s.k.t.y.{.XXXX+XQ.U v 7.Y n.T.n.L.",
"1.U v U U v c z 7.e.e.5.4.~.XX.XXX}.5.e.7.5 2 O = $ = < 2 4 u.b v U U x U c n v 1.8.e.5.5.f.n.b.L.s.f f y u Y k.a.k.l.OX+X@XyXQ.z z c v m.j.4 3 ",
"6.v v v 1.1.7.1.7.8.8.8.e.!. X{.{./.8.0.L # + o X # # @ # > u.T v b b U c U n z 1.s.5.5.p.f.l.z.z.y.h d f d U s.s.u.h.(.#X@X@XE.U T Y Y t.W & . ",
"i.8.8.i.{.{.{. XN.y f h f c 7.b R w w w K S S S S S S S S D E L J R M.z.l d k h 7.OX{..XoXu.s j k j t.7.3.8.7.v 0.0.r.T.L.L.L.U.(.j.E E J K G G ",
"a.3.0.5. XXXXX#XP.r h d d c b n $ X # o 8 ] +.] +.+.+.+. ._ * # # + K x.k d j q 9.#X{..XtXt.r d r f w.e.8.8.7.U 9.U 9.n.L.b.j.Y.rX. % % & G Z.F.",
"a.8.t.p.{.@X XXXE.r h f d c P T 7 7 7 8 9 +.X...X.X.X...o.' 8 7 7 7 K j.k d d r 9. XXX|.+Xt.r f f f 3.2.7.e.6.P 7.9.r.b.L.j.M.L.T.< 1 1 1 G K.K.",
"d.8.8.s..X#X#X%XE.q d f y g   * { ] [ [ +.>.>.>.>.>.>.>.>.;.] ] [ [ D o = h d d Y %X|.XXtXt.r h y f w.e.w.e.7.n n 7.r.n.T.T.J * 1 H.F.F.F.G.J.].",
"8.1.2.6.N.N.N.W.s.z c z z J * , ` | ....X.;.;.;.;.:.:.:.:.;.| ..| | ( * * j j j Y ^././.~.t.l c U z 7.1.n b b r.r.h.j.h.h.h.w 6 1 G.A.Z.D.J.].].",
"3.P 6.v r r r q c e.y.i 3 A } ' $.-.-.-.,.0X0X0X0X>.=.:.:.:.=.;.=.$.@.{ } 3 = m w.b.b.z.n.u.3.i.i.8.r y d r Y P.z.P.C.U 4 % K 3XF.J.J.J.J.eXuXpX",
"6.v v x h h u h l 5.e.5 * 8 +.| >.-.-.-.,.0X0X0X0X<X;.=.:.:.:.=.:.:.@...[ * o K 2.v.n.n.b.s.e.8.e.7.h f j d Y v.b.z.T.U 3   F S.K.].].].'.eXiXiX",
"6.x v v h y f h x c J A D ) @.#.>.>.,.<X8X9X9X9X9X8X8X,.=.:.:.:.:.=.$.O.@.S D K J r.f.L.m.s.8.8.e.1.f f f y Y n.L.x.E e K G V.K.K.].[.eXuXpXiXiX",
"6.U U c y h f r U $ o ( +.X.>.>.>.>.8X0XqX9X9X9X9X9X9X8X;.:.=.:.>.=.>.:.-...[ Z o 5 b.x.n.s.8.e.5.w.s y h y 7.n.M.M.#   V.F.K.J.].].].iXiXiXiXiX",
"i.8.8.i.!.~.~.}.L.= # ( ..X.>.;.<XwXwXwXqX9X9X9X9X9X9X8X=.=.,.wX&.%.%.:.-...+.8 X 3 e.u.u.v f k f I 7.8.3.3.b 9.Y I O & V.Z.K.J.].eX4XeXpXpXiXiX",
"a.8.8.a..XXX.X#XW.@ # ( +.X.:.%.BXBX~ > D qX9X9X9X9X9X8X;.,.BXBXA * ( ;.>.X.[ Z @ 2 e.5.w.z d d f f w.e.e.e.b c m I & & V.Z.D.eXuXmXmXB + ~ iXiX",
"d.8.8.i.{.XX X@XQ.* * ( | X.=.*.BXNX! X D qXqX9X9X0X0X8X;.*.NXMXN . S ;.=.|  .Z * = u.5.u.z d h y z w.e.e.5.w.U v I . 6 q.Z.K.].uXNXBXB . ^ iXiX",
"a.a.i.5. XXX X4 5 } _ +.$.-.:.;.0 A $ . A qXqXqX9X8X,.=.;.%.0 B $ . S ,.>.;.-.' { D 3 4 t.l d d y y 8.8.8.2.b p 3 4 V.V.H.J.].].H.B B $ . / iXiX",
"0.U b 1.Q.!.T.+ - _ ..#.>.:.:.&.* + + + D qX9X9X0X,.>.:.:.%.* X @ X S =.:.=.:.X.+.( o $ 8.Y c c Y 1.B.c.c.B.y.i + < F.Z.J.[.].].H.  # # X ^ pXiX",
"f u f s x m P + - _ | #.:.:.:.&.* + @ @ Z 8X8X8X8X,.=.=.<.%.* O # @ S ;.:.=.>.O...( # - c k.L.x.v.P.XXOXXX$X/.L # < F.A.J.].].].C.  # + . ^ eXuX",
"f y d k c b T . - _ ..#.>.>.:.&., . + @ 9 %.=.>.:.:.=.=.:.%.* o o o S ;.:.:.>.X.+.( # @ U M.v.v.z.P..XOXXXOX/.J + < F.Z.J.].[.[.C.  + % & K eX'.",
"f h d f U U L X - _ ..O.-.:.#.&.8 , 7 , 9 =.:.:.:.:.=.:.=.%.8 , , , ( ;.=.:.>.X...( @ = U y.v.v.v.n. X X XXX!.J + < F.Z.J.].4X).R.: : 3 1 R J.'.",
"l r d d c v T . - _ ..#.>.#.| .. .] @.,.;.:.:.;.:.=.:.:.=.=.;.,.+.+. ...| -.>.O. .( @ $ U M.L.n.z.P.XX+XOXXX_.J + < F.Z.K.).7X*.,X,X,X7X'.eXJ.].",
"k.t.y.t.0.2.T + * _ ..O.>.#.| ..| | $.>.:.:.>.;.%.;.%.=.=.:.:.=.o.......| -.-.@...( @ $ r.b c c I b c.c.B.g.t.F + < F.Z.J.).4X,X,X,XwX).J.H.J.).",
"P.v.v.v.e.e.r.+ - _ ....o.O.$.$.$.=.:.:.:.<.%.8 7 7 7 ) ,.:.:.:.=.=.$.$.$.o.o...+.( @ $ t.z r y u f 0.3.3.7.7.w # < F.Z.A.D._.4X4X`.4X).].J.eXH.",
"P.b.x.c.t.8.9.. o ) ......X.>.>.:.:.:.:.:.:.%.7 o O o 9 ;.>.:.=.:.=.:.>.>.| .. .] ( * $ t.x y f f z 8.e.i.8.1.w # < F.Z.Z.Z.K.3X].[.'.'.].].[.H.",
"P.m.v.c.t.e.a.w K D S _ ....O.O.=.>.:.:.:.:.%.) ) ( ) ' ;.:.:.>.=.:.#.O.@.+.+.) S A a k t.l t f y h 8.5.3.5.7.k w F J G S.Z.G.K.K.].].J.].].'.H.",
"v.z.c.k.7.7.7.1.b.= * S  ... .| >.:.=.:.:.:.-.>.:.;.=.=.:.:.:.:.:.=.#.| ....+.8 o 2 7.3.0.x f z z l 8.7.3.8.w.t.e.T .   V.Z.Z.Z.K.].].J.'.].].].",
"d.e.e.w.f s f y U w = D } ` ..| $.$.$.$.#.$.$.$.=.=.#.#.$.$.#.$.$.$.@. .+._ ( A 2 w n v b 7.e.e.8.0.v v v x N.rXOX{.4 2 ^ q.S.Z.Z.J.J.J.J.J.J.J.",
"p.7.5.w.f y f y Y n.B.A - 8 +......... . . ... . .| |  ....... .....+. .[ - - E /.x Y c x w.e.e.5.8.v v v z N.%X.X.X.Xp.< & G S.Z.Z.Z.Z.Z.Z.Z.Z.",
"p.8.e.t.h f h d Y v.c.J @ Z { ] ] ] [ ] [ ] ] ] [ ] [ ' [ ' [ ] ] [ [ [ { * @ C.!.n v v n 7.e.e.w.8.v U U x N.XX|. X|.s.5   G F.Z.F.F.G.F.F.F.F.",
"s.e.e.9.d q y q c L.v.x.n.E : : ; ; - ; ; ; ; ; ; ; ; ; ; ; ; ; ; ; ; ; : rX@X#X/.v c 6.c 3.5.e.8.5.x v 1.l N.yX#X#X#Xi.e.3.F & & < & & & < O O ",
"6.z U P B.B.B.B.m.0.e.0.e.h   . X X . . + + + + # # @ + + + + + + X X + = /.U._.v.k j j h w.f.p.f.M.2.8.1.7.t.l.k.l.M.z.M.z.J . # # # # # # o + ",
"y y u h rXOX#XyXU.z c v U d w w w w J p w e E j.E j.E J w i i p J R J J L g.x.v.y.s f d s y.L.v.b.x.5.e.a.e.l q t q s k.L.v.M.E T.j.j.T.E L L W ",
"z h y l {..XOX@X!.l 1.b Y f f f y f U v 9.l E.OX|.|.{.b U 9.z 1.i.8.8.w.x.x.x.n.u.y h h d r.b.v.n.f.e.5.2.e.v f h f f l.n.v.x.U.+X|. XXXL.z.x.v.",
"y y t l {.XXOX+XI.x c n U f y f y h U v c l I.#X.XXX{.b c U c 2.e.5.5.e.f.L.x.L.y.g d g r t.n.n.v.c.5.e.e.e.v y y u f l.b.x.x.Y.+X|..XXXP.x.b.L.",
"z j h z (.|. XXXI.b 7.2.w.k k j j z 7.2.7.7.I.OX{. X^.w.b v b 7.0.3.8.8.k.m.k.z.y.k f f f t.c.z.c.l.e.u.u.e.b y j u f y.v.b.f.U.@X X{.@XN.c.c.c.",
"a.7.7.w.c.v.L.x.Q. X X{. XP.x.b.z.N. X|.{.oXB.7.e.e.s.s.c.v.v.r.v 1.v v f h h k z w.8.8.8.7.v v v 7.c.v.z.c.t.z v U n e.e.u.w.f.n.n.n.B.u.e.8.i.",
"a.8.e.t.f.x.b.z._.XX.X.X@XU.g.v.x.P.XXXX X+XB.3.t.e.e.c.v.b.v.u.v c v U f h f y f e.e.e.i.1.c U c b c.n.b.B.t.x 1.U v e.e.w.e.s.g.v.z.v.u.t.8.i.",
"i.8.e.t.f.L.L.f.U.+X X@X+XP.z.b.z.E.+X X XXXB.3.e.e.e.v.b.x.n.y.n Y 6.v f f d f z e.e.e.t.1.v 1.x 1.x.b.v.v.t.U v U 1.8.8.e.8.u.n.b.n.v.e.t.2.i.",
"d.8.e.i.c.z.n.M.W.#XXXXX#XP.v.L.v.W.XX.XrX#XN.4.e.8.e.n.b.L.n.w.z z x x f u f y z 8.1.3.3.1.v v n Y c.v.n.L.u.x x l z e.a.5.5.k.m.b.c.B.u.e.i.i.",
"2.1.b 6.W.U.Q.!.W.W.Y.Y.!.a.r.r.9.h.!.Y.W.!.g.s.s.f.w.u.7.7.5.y.c.B.c.c.U z f f Y N.I.N.E.t.v 7.6.9.s.y.h.e.s.v.m.v.c.1.x 1.1.w.g.z.f.f.7.v v 1.",
"f y y h {.XX+X%XY.1.e.1.7.f r s r f e.1.1.3.p.m.n.g.n.d y P q m.%XOX#X#Xt.z b x a.tXXXXXOXB.3.i.e.3.n x c z I.#X#X#XtXz u h r l 5.8.e.w.z y y f ",
"j s d h |.|.@XOX!.4.u.w.y.l g h h z t.i.e.e.g.v.b.v.m.f r f y m.$X|.|. X0.c 1.l y..X|.|.#XB.2.e.e.0.6.b U z B.XX|. X}.c u f y z e.8.e.e.j y y h ",
"j r y h {.XX@XOX~.2.8.8.t.f y f y l e.3.3.w.f.v.L.n.j.k s f q l.%X.X.X X0.c v l k.OX.X.X#XB.2.e.e.8.x v v z N.#X XOX Xn y f y z e.5.3.e.z y d h ",
"l y h z ^.XX.X.XY.3.e.8.0.l s f y l 8.e.e.t.f.f.x.x.l.k f h y m.XXoX+X{.t.I v b t.OX.X.XOXB.8.0.t.8.1.n b n B.+X.X.X XY g k y c 5.e.e.e.z y f h ",
"i.7.2.7.N.B.n.W.d.n v 1.7.6.3.8.8.6.1.1.b n 5.u.u.u.p.~.}./.(.I.u.d.s.d.s.b.z.c.c.s.p.s.k.v f f h c ).}.^.{.P.p.s.d.p.!.^.~.{.Q.f.z.v.z.7.z n U ",
"d.8.i.e.g.v.b.b.y.c v Y x 7.i.i.i.0.v n v J e i w w a L W T.%XP.3.3.5.5.z.n.x.v.f.2.8.e.8.x y y y c +XXX X#XI.1.3.8.8.{.XXXX$X).v.b.v.v.7.c g i ",
"i.0.e.e.z.n.n.b.k.x Y x v 8.8.e.e.0.Y z I @ + + + # # o @ B OXQ.3.e.w.w.z.x.x.n.f.7.e.5.t.l y f y U |.|..XXXU.0.e.e.e.{. X|..X~.z.v.v.n.7.j % + ",
"i.8.u.u.B.n.z.P.p.c U U b 6.8.8.I T I T R N N N N N N N N Q ).n.Y b 5.u.c.v.v.n.z.e.5.e.a.z y h y z XXXXOX%XI.2.i.e.e.{.#XXX#X^.b.b.h.j.T J C C ",
"i.8.e.y.y.r.k.t.w.b 1.1.1.a.B.g.3 % . + N fXaXdXaXdXdXdXdX5X+ % # % p b s.z.g.f.y.7.7.1.b c z l l b ^.^.~.^.B.1.w.1.5./.(./.^.Q.l.O + % % C V H ",
"a.3.e.w.d d y y z e.e.w.e.~.#XOX3 % % % H dXdXdXdXdXdXdXdX5X& % % % F d 8.e.8.e.7.r f s t 6.e.8.a.t.v.f.b.z.r.n b v n z.x.f.x.f.9.& + + + M H H ",
"a.3.8.8.f f f h x a.8.i.3.E.5 B 5X5X5XsXfXkXlXlXkXlXkXcXxXjX5XsX5X5X=X= 5 w.e.i.1.d h f r U t.e.7.u.b.v.n.L.y.z c v n z.L.L.W 2 C % % & & V -X-X",
"a.i.i.0.s f f y z 8.e.8.3.T.. & sXaXdXdXgXkXzXvXkXkXkXxXxXlXdXdXdXdX*X+ $ s.8.e.1.d g f r 1.e.e.8.e.v.n.g.n.y.z b U b z.x.x.L @ % M C C C ! -X;X",
"i.3.8.0.f r y r z i.5.m w ^ H &XhXhXhXhXlXmXmXmXmXvXkXkXkXkXhXhXjXjXdX=X=XJ p 7.1.d h y s 1.w.e.e.i.z.v.x.n.a.6.n U b z.W p K M N &X&XH &X;X6X2X",
"2.b b 2.Q._.Q.!.I.k.z.i . V :X5XkXkXkXvXvXMXMXMXMXvXkXkXkXkXkXkXkXkXhXsXsX% O W y.1.1.7.7.1.1.1.1.1.y.h.s.y.U y j h s u.4 . M V H -X;X-X*X>XfXaX",
"6.v I Y .XOX+X$X^.M.j.^ N &XgXgXxXkXbXvXBXMXMXMXMXnXvXvXvXkXkXkXkXkXjXgXgXH V E h.5.e.e.t.7.x c U 1.3.8.w.8.n u f y g U F % M ! ! ;X;X;X:X>XfXgX",
"6.x c 1.|.|.@X X_.w . =XdXgXxXkXkXkXmXMXMXMXMXMXMXMXMXmXkXkXkXkXzXkXkXkXkXdXdXH . w e.w.e.1.n b v U e.e.e.i.v f h s 2 + B M V -X-X-X-X5XaXfXfXfX",
"1.U P 1. X X+X#X).5 . ;XdXgXkXkXvXzXnXvXBXMXMXMXMXMXMXnXkXkXvXzXVXVXlXxXxXdXdXH + w 3.e.e.b m v x v 8.e.5.e.x y d p $ + @ $ Q -X-X=X=X5XgXfXfXfX",
"6.U z 6.~.~./.~.Q.3 % =XdXgXkXvXNXMX~ > ~ MXMXMXMXMXMXnXkXvXMXmXQ > =XzXxXdXdXH . w 2.7.7.w.7.9.6.2.e.8.3.w.7.c U I > + # % H -X2XbXvX! M Q fXaX",
"a.e.8.7.f f f s P 3 + =XdXgXxXzXMXMX! # ! MXMXMXMXMXMXmXkXvXMXNXA & &XxXxXdXdXQ + 1 y y t a.x.x.x.l.n v Y x B.rXOX(.% + C M ! -X2XNXnXV # M fXsX",
"i.3.e.8.u u s 4 w :X>XfXjXjXkXzX! Q > + ! MXMXMXMXnXvXvXkXVXK Q > + *XzXkXjXjX5X>X~ 5 w y y.L.g.c.m.U c v l B.(.L K N M ! &X*X-X*X! ! C + N aXsX",
"8.8.8.2.h f r O % 2XdXjXxXkXxXcX= . . + ~ MXMXMXMXvXkXkXxXVX# # # + ~ kXkXbXxXgXdX:X# 2 r r.n.x.v.d.n n 1.z N.Q.+ % N H *X;X-X-X! + # # # M sXsX",
"a.i.i.i.f f z . % 6XdXhXkXkXkXkX$ + + # ! BXnXnXmXbXxXxXkXVX+ # + . *XzXkXzXxXgXdX:X# 3 h u.P.P.U.n.9.6.1.c E._.+ + M V *X-X-X-X&X# # # # N sX>X"
};
