/* XPM */
static char *xpm_[] = {
/* columns rows colors chars-per-pixel */
"72 72 250 2 ",
"   c #021219",
".  c #120515",
"X  c #280613",
"o  c #0C0A2B",
"O  c #17092B",
"+  c #0B0939",
"@  c #140A33",
"#  c #190C33",
"$  c #150939",
"%  c #191437",
"&  c #171429",
"*  c #270326",
"=  c #221A38",
"-  c #2F0D2D",
";  c #182922",
":  c #1C2E32",
">  c #262829",
",  c #333937",
"<  c #2B2C34",
"1  c #002C13",
"2  c #4E1719",
"3  c #52211B",
"4  c #4A102C",
"5  c #733A27",
"6  c #395C2C",
"7  c #394638",
"8  c #3B5B33",
"9  c #3C632D",
"0  c #3F6628",
"q  c #3E6433",
"w  c #3E6339",
"e  c #44573C",
"r  c #41682E",
"t  c #416634",
"y  c #436A34",
"u  c #496E35",
"i  c #416639",
"p  c #456B3A",
"a  c #4A6D3B",
"s  c #4C643E",
"d  c #4B7335",
"f  c #4D743B",
"g  c #4E7738",
"h  c #52763C",
"j  c #537B3C",
"k  c #597E3E",
"l  c #527936",
"z  c #774637",
"x  c #171042",
"c  c #272548",
"v  c #2B2B52",
"b  c #353458",
"n  c #33324C",
"m  c #3B3E64",
"M  c #392569",
"N  c #201A42",
"B  c #573A69",
"V  c #3C4165",
"C  c #3C4368",
"Z  c #495743",
"A  c #4D564A",
"S  c #4A6844",
"D  c #566848",
"F  c #4D7244",
"G  c #537542",
"H  c #547B41",
"J  c #597D43",
"K  c #597A48",
"L  c #506A57",
"P  c #637A4B",
"I  c #697859",
"U  c #42476C",
"Y  c #4D537A",
"T  c #4E4E72",
"R  c #797E6C",
"E  c #695866",
"W  c #D77B39",
"Q  c #E37838",
"!  c #E9772F",
"~  c #C4453C",
"^  c #87304E",
"/  c #B04557",
"(  c #BA4865",
")  c #AA506B",
"_  c #9B585D",
"`  c #C7435A",
"'  c #CB474F",
"]  c #D4774F",
"[  c #E7714D",
"{  c #C34363",
"}  c #C25067",
"|  c #E65965",
" . c #D17374",
".. c #EC6667",
"X. c #F26568",
"o. c #EB6874",
"O. c #56813D",
"+. c #5B833E",
"@. c #5E893D",
"#. c #5D8637",
"$. c #628B3E",
"%. c #568141",
"&. c #5C8442",
"*. c #5E8942",
"=. c #5D8349",
"-. c #5E8849",
";. c #5B8752",
":. c #618545",
">. c #628B44",
",. c #698E45",
"<. c #63854A",
"1. c #648B4A",
"2. c #6A8D4B",
"3. c #6A874F",
"4. c #659144",
"5. c #6A9246",
"6. c #669249",
"7. c #6B934B",
"8. c #6C984B",
"9. c #73944E",
"0. c #74994D",
"q. c #6C8C52",
"w. c #678753",
"e. c #6D9352",
"r. c #6E9358",
"t. c #749553",
"y. c #799754",
"u. c #759A54",
"i. c #7A9A55",
"p. c #759559",
"a. c #7A955A",
"s. c #7C9B5A",
"d. c #769B5A",
"f. c #728D55",
"g. c #7CA155",
"h. c #7DA25A",
"j. c #77A255",
"k. c #779767",
"l. c #5BB76A",
"z. c #62B969",
"x. c #64B474",
"c. c #7AAC64",
"v. c #7BC979",
"b. c #59C065",
"n. c #819E5C",
"m. c #869552",
"M. c #82A45B",
"N. c #84AB5C",
"B. c #89AB5E",
"V. c #81A356",
"C. c #8EB55C",
"Z. c #839E62",
"A. c #8E9374",
"S. c #84A462",
"D. c #8AAC64",
"F. c #89AA66",
"G. c #91AD6C",
"H. c #8CB266",
"J. c #95BB6C",
"K. c #99BC6D",
"L. c #93B568",
"P. c #9BBD72",
"I. c #96B773",
"U. c #8FA972",
"Y. c #AEB66A",
"T. c #B5AF5C",
"R. c #D18C4A",
"E. c #E59351",
"W. c #DAB15B",
"Q. c #EBAC5B",
"!. c #E7AC59",
"~. c #EBAD5C",
"^. c #D89370",
"/. c #EC9573",
"(. c #D2B367",
"). c #E7A964",
"_. c #EAB469",
"`. c #9CC26C",
"'. c #85C777",
"]. c #9DC373",
"[. c #94C170",
"{. c #A2C56E",
"}. c #A6CA6E",
"|. c #A3C673",
" X c #A5C974",
".X c #AACC75",
"XX c #A4C67A",
"oX c #A5CA7A",
"OX c #AACD7A",
"+X c #AAC477",
"@X c #ADD17B",
"#X c #ADD376",
"$X c #B1D47D",
"%X c #B4D97A",
"&X c #F3D27B",
"*X c #F6D276",
"=X c #F3D177",
"-X c #E68038",
";X c #5A4698",
":X c #545883",
">X c #5C628A",
",X c #547194",
"<X c #65688D",
"1X c #626993",
"2X c #676A97",
"3X c #69759A",
"4X c #736B92",
"5X c #6957A4",
"6X c #4C6CAB",
"7X c #576AB3",
"8X c #526DAF",
"9X c #7376AB",
"0X c #5D519E",
"qX c #536BC1",
"wX c #8C6893",
"eX c #876FB2",
"rX c #AB6EA2",
"tX c #D16D96",
"yX c #D86F99",
"uX c #70A991",
"iX c #7A8CB5",
"pX c #75ACAE",
"aX c #709A96",
"sX c #7AC081",
"dX c #7997D2",
"fX c #75A3D8",
"gX c #71A5D0",
"hX c #888DB5",
"jX c #9BA29D",
"kX c #F39793",
"lX c #F0AC8C",
"zX c #F69CAB",
"xX c #D69DA7",
"cX c #89C489",
"vX c #AACD81",
"bX c #ADD281",
"nX c #B4D684",
"mX c #B0CF81",
"MX c #F9CC83",
"NX c #F8CA97",
"BX c #F6D3A5",
"VX c #C8DBBB",
"CX c #949BC4",
"ZX c #8A99D1",
"AX c #98A4C9",
"SX c #80A4DE",
"DX c #A0A5CC",
"FX c #FBFAFB",
"GX c #ECF2EF",
"HX c #CEDFD6",
/* pixels */
"*.O.%.-.#X$X@X%XC.4.5.4.7.g y p y d &.J O.O.O.%.%.=.O.j.V.n.n.K.$X#X@X#X6.H &.%.&.5.4.6.5.H u p p H i.s.s.F.3.a f y r >.6.4.5.+.t F H F 6.0.7.5.",
"%.g g J K.|.XX XH.@.*.@.-.u w y t u j j j g g j j g k d.i.i.9.B.}. X|.|.&.g l g O.*.@.@.>.f 9 q q y u.s.Z.M.3.S a a y &.>.*.@.h 6 d f a 1.6.r.6.",
"O.j j &. XOX.X@XL.+.>.>.-.u q w q y H j g h j H j h j t.y.y.t.L.$X+XOXOX>.g O.j J >.>.*.>.f t t t a y.s.k.M.w.F F F F *.+.+.>.j 8 e y p w.e.e.e.",
"*.J h k H.J.J.[.M.>.,.>.6.g u d u f J &.&.&.k k j k &.n.V.n.n.D.K.K.J.L.:.j k k %.-.*.*.*.f y y q a M.F.S.F.r.F G F F r.t.e.q.&.f G k K ;.2.1.1.",
"6.*.4.*.p t q t J s.i.i.j.1.>.:.>.2.i.u.i.i.2.>.>.*.4.].oXOXvXd.6 y t u &.>.*.*.*.h j l +.p q t q h XXvXvXmXS.%.K <.=.s.S.Z.s.G.+XXX|.XX<.t F G ",
"6.@.@.*.w p y q H s.y.a.i.,.$.>.$.,.d.i.i.i.,.$.*.*.4. X}.`.@Xd.9 y t 9 =.4.*.*.@.g j j l p y u q d XX+XOXnXS.F &.<.&.s.S.Z.s.G.$X X{.XXk i f S ",
"6.*.*.*.p y 0 q k s.y.i.i.,.>.>.>.>.i.i.y.s.2.>.>.*.4.|..X XOXu.8 y y t *.@.>.6.*.j H j O.a t t q g XX X X$XM.H K h J a.Z.Z.Z.G.OXvXoXOX<.i r p ",
"6.*.4.>.y w u w J n.i.i.d.>.&.+.=.,.i.i.y.s.7.>.4.>.5.oXOXOX$Xi.9 y t i *.>.>.4.*.g H l j p q r q g oXOXvXnXD.K &.g G q.y.s.s.G.nXmXvXnXw.i t i ",
"*.&.+.%.f f f p k 7.7.7.6.M.B.N.N.N.4.7.5.7.&.g h g J h.N.h.N.6.u f f u J &.O.O.+.+.+.&.&.J :.P &.P p.r.e.d.e.1.w.l +.S.G.I.P.G.S.N.V.S.p.w.f.3.",
"%.g l j H j H H l >.@.@.>.K.bX#X@X[.>.+.>.6.g 9 t t q +.#.O.@.%.j k j j j g j g %.6.*.*.1.7.y.n.s.5.0 6 w t K e.6.e.:.P.nXmXmXI.h K K H k.F.n.S.",
"O.H g j j j j J &.>.1.>.+.J.oX|.OXH.>.4.*.>.F t p y p 1.6.*.6.O.j g j j k j +.h %.1.*.4.$.9.y.y.i.q.y y t p =.7.e.e.1.]..X.X@XG.H j &.J s.Z.s.Z.",
"O.H H H j j j g &.$.>.$.#.J.#X X#XJ.$.>.>.G 7 , , , , 7 7 s 4.O.g H H f j j h j O.*.>.*.$.u.i.y.s.e.t y t 8 H e.6.e.e.oXOX.XmXF.h f f l p.s.P D ",
"%.j j j +.&.+.J +.*.*.*.>.H. X|.|.H.-.1.J O O @ @ @ # @ @ O 6.+.k H j J j H h g O.5.$.$.5.9.t.p.t.2.u t y t H 7.6.1.w.XXvX+XoXF.k P k k 3.w.% % ",
"6.@.*.4.[.].].|.h.q p p t h &.k J P D L L 4 4 4 2 3 3 3 3 3 A.A.f.f.t.t.u t p y =.oX]. XXX<.r p p a <.&.@.*.&.j <.-.-.Z.n.n.i.M.P.U.G.G.P S % % ",
"8.*.*.>. XOX.X@XM.9 p t t f j h n O $ $ # ) ( ~ Q ! Q Q Q [ z * + # O f.u t p 9 %.@X|. XmX1.9 t 9 y >.>.*.*.&.H &.K =.s.n.f.t.D.+X< & % % c C C ",
"6.&.1.5.`.XX|..XS.9 a y t j j &.b * * - * ) ` ' W W Q ! -XQ 5 X O * * I d y p 6 -.oX X}.OX1.9 y y y @.*.*.@.J f =.=.<.s.n.y.f.B.P.& $ @ + c C C ",
"6.*.*.6. X@X@X$XS.6 t q t a n O 4 ( ( ( / o.X.[ Q.Q.Q.Q.Q.Q.E.R.] ]  .z . , r r =.$X}.}.bX1.9 w w u >.>.>.,.J h l &.<.s.Z.Z.D < c % % + o V >X<X",
"*.O.*.%.h.h.j.D.7.f j g g s c - 4 { ` ` { o.o..._.~.Q.Q.Q.Q.E.! ! W ] z . > u u J K.L.L.J.1.f j f f J k h l +.:.<.q.q.q.f.f.Z # + v N N c T 1X>X",
"@.H H j q 9 q 6 f 1.1.G > & z } } o.X.X.X.zXkXkX*X*X~.~.Q.Q.Q.Q.E.Q.).T.A.R ; e :.y.a.f.s.2.$.4.$.&.0 q t t =.n.t.n.k.G 8 7 n n b :X:XU Y 1XiXiX",
"%.j g g p y p p d $.>.e @ O B ` | X.X.X.X.zXzXlX*X*X_.~.Q.Q.Q.Q.!.W.(.T.m.R   > +.i.n.s.y.7.>.*.4.&.p p p t J y.a.9.S.K < O c U C 1X1X1X>XiXAXAX",
"%.f j g p q t p d *.J A X 4 ^ ' | X.X.o.o.kXlXlX=X*XW.W.!.!.(.(.(.Y.C.C.j.;.1 ; G y.y.y.p.7.>.*.*.&.u y w q :.s.n.y.a.S n % v T Y 1X1X2X3X9XAXDX",
"%.H H j w y t 9 l , O O { / | X...X...zXzXNX&X&X&X&X*X=X!.).Y.[.v.'.v.v.v.v.l.uX  = a.n.i.7.&.>.>.*.r t y r &.s.9.f.< & n v V 1X1X1X1XCXAXAXAXDX",
"4.*.*.,.H.J.J.K.h.< $ * ` ` | .... . .xXxXNX*X=X&X&X=X=X(.(.+XI.cXcXcX'.'.sXuXaXo O >.,.1.j u a u F %.&.&.+.+.J J h = O % % V 1X1X<X4XhXAXAXCXDX",
"6.*.*.6.|.#X X%XD.= $ * ( ` | X.kXGXFXO - BX&X=X&X=X=X&XK.[.VXGXFX& o k.v.uX6X,X@ @ >.$.>.f q t q u >.>.>.5.k g l h % @ # % V <X3XGXGXT v U CXCX",
"6.*.*.4.]..X|.+XD.< # * ( ' | X.xXFXFXo O BX&X=X*X*X*XMX|.'.VXFXFXO o k.cXpX6X6X+ + :.$.4.d y p q u >.>.>.$.+.k k h % @ % b T 1XhXGXFXn # b CXCX",
"8.4.>.5. X.X|.D > - ) ) ..X.X.X._ . & o o BXMX&X*X=XW.W.P.v.L   O $ @ aXpXgXfXSX6X7X= < G f 6 i q q *.*.&.@.J s , , n v Y >X>X1X<XT T = + b CXCX",
"=.H j +.F.H.S.= O * { { | X.X.X.) $ $ # @ BX&X*X*X=XW.).+X'.S o $ # $ 8XfXfXdXfX6XqXx O , k j h %.&.j.i.u.g.9.S # $ b V >X1X1X1X:XO # # $ v CXhX",
"y p q r g g h = # * { ` ..X.X.X.) O @ O o MX_._.~.=XT.K.J.v.L o $ # # 3XgXfXfXfX6X6Xx + > 7.n.i.i.M.OX X.X#XL.P # $ v V >X1X1X1X:X$ $ $ $ b hXhX",
"u q t u j j J = O * { ` | X.X...) O @ + $ lX).!.!.W.K.'.'.'.L & $ # x 7XfXgXfXfX6X7Xx o > 2.i.s.p.g. XoX.XOXL.D O @ v m >X,X1X1X;X$ # $ # n 9X9X",
"y p y y H H K = # * ` ` X.X.X.X./ * * X . _.).W.(.Y.P.v.'.'.L o $ # $ 5XZXZXfXfX6X7Xx o > 2.y.a.y.n.|. X|..XD.P @ @ c m >X>X4X4XE N # # % b 9X9X",
"r q t t h j G = # - { ` X.X.o.yXyXtXtX/.(.!.Q.(.].[.'.v.'.'.pXgXZXtXyXyXyXrXeXeX;X;Xx # ; 3.n.s.y.M. XOXOX.XG.P @ @ N m >X4XwXyXtXrXrXwX4X3X3X9X",
"e.6.3.1.-.+.K = O * { ` ....o.tXtXo. .).)._.W.(.cXcXcXI.cXsXpXgXZXrXyXyXyXrXeXeX;X;X$ O > k l h G k u.u.0.u.,.S @ @ c m >X<XwXtXxXxXyXwX2X3X2X9X",
"M.i.i.i.6.*.1.= O * { ` [ [ /.lXkX/./.).~.T.Y.P.; ; ; ; aXpXgXgXdXhXCXrXrXwX;X5X;X;Xx $ < d 9 t t y *.&.+.*.&.e @ @ c V C U Y wXjXxXCX4X1X2X2X<X",
"M.t.y.i.>.*.1.= O O { ~ Q ! -XW.!.~.W.).W.Y.'.cXo $ + o dXfXgXfXfXfXfX9XeXeX;X;X;X;Xx O e h y y t a >.>.>.*.+.s O @ v V V C Y <X1X3X4X<X1X1X1X:X",
"M.i.u.u.1.>.6.s A T ) / [ -XE.BX!.!.W.(.Y.].'.cXS L L L iXgXgXgXfXiXZX9X5X5X;X;XM M L H <.d r t q p *.>.$.$.k f e 7 c c m V T :X:X1X1X1X1X1X1X>X",
"d.t.t.t.-.%.-.O.f.e - 4 E.-X^.BXR.Q.).[.'.'.'.v.cXsXsXb.gXgXfXfXfXeXeX0X;X;X;X;X$ # :.*.:.g y u f d *.+.*.&.>.1.>.<.= @ b V m m U 2X1X1X1X1X1X1X",
"7.>.$.:.u 0 y q k s < B  .^.^.MXNXNXlX[.v.v.v.v.v.v.v.v.pXgXgXfXSX9X9X0X;X5X;X;X= > j j k *.>.>.*.*.j j j g h.vXoXXXZ , b b V C U >X>X>X>X>X>X<X",
"6.>.$.<.y q p q P m.m.e - 2 z lXW W R.c.l.z.z.b.z.z.z.z.aX6XqX6XqX7XqX0X;XM $ * C.g %.H g &.>.$.$.-.j j H f h.@X{. X X5., + c V C V V V U m V V ",
"5.*.>.:.w y y q K m.n.D * - _ /.! Q W x.l.x.x.x.x.x.z.x.,X6X7X7X7X6X7X;X;XT $ > H.l l j g &.>.>.>.@.j J j g h.#X{. X{.5.7 & c V V V V U m V V V ",
"5.*.>.1.q 9 9 9 h n.y.n.a.P : . X X .                   o $ + + + x + x x A.+XOXL.j H H k &.>.,.*.*.h g O.d h.nXOX@X@X5.1.>.S % x % $ $ % $ % # ",
"%.f O.f j.j.h.s.d.*.1.-.>.s & . o O O @ @ @ @ O # $ # @ o @ $ $ + $ $ $ O F.D.D.s.y f a u :.9.5.9.9.+.&.O.+.1.r.e.r.2.9.9.t.D % # # & # # # = # ",
"q w w S vXoX@XnXV.f H j J t 8 7 7 7 Z Z e e L R I I I A Z Z e Z A S D D P y.y.y.2.r y t q 2.s.i.y.y.$.>.6.,.u 6 0 6 r q.s.a.t.y.U.G.U.U.f.3.P P ",
"f y q d P. X XOXH.g O.l O.y q y 0 d j H &.d B..X{.}.|.k F H h O.>.*.$.:.t.y.s.s.2.q p p q <.d.i.d.t.$.>.&.*.j p p p y p.i.y.y.B.OX|..X+Xn.y.y.n.",
"w q 0 d ]..XoXOXN.f j h j y y w q p G j h g B.#X X.X].j f H h +.>.$.$.$.y.i.y.n.2.i t i 9 3.s.i.i.u.$.>.>.4.j q q w y t.i.y.y.B..X}.|.OXM.y.n.i.",
"d a y f P.}.|. XB.k J +.:.f u a p f &.&.&.&.N.oX`. XI.>.k h k &.*.>.*.*.r.t.t.t.2.u y y u 1.u.t.t.r.>.>.,.,.g q u q y 2.i.y.t.D.XX X|.|.h.t.u.u.",
"6.&.-.:.i.i.s.y.F. X|.|.|.V.t.y.t.h. X{.XXXXj.+.>.>.6.9.y.i.i.>.l J j j u y p u a :.*.>.&.+.j k k &.p.i.u.i.1.g j H h >.,.,.:.7.i.s.i.h.,.>.>.4.",
"6.*.>.1.0.y.a.y.F..X|..XOXM.y.i.y.M..X}. XoXg.+.1.>.1.i.i.y.i.3.j j H %.y i i q u >.>.>.>.%.j H g k i.s.i.d.1.g %.H j >.>.>.:.7.y.y.p.i.2.1.*.4.",
"6.*.>.1.9.n.n.9.B.OX|. XOXn.y.a.t.S.OX X|.#XV.+.*.>.>.d.y.i.i.,.h O.j j y y t t f >.>.*.6.j l %.g +.y.y.i.i.1.H j H k @.*.*.*.2.i.i.i.u.,.>.&.4.",
"6.1.*.4.9.p.i.2.D.$X X.X#XB.i.s.i.F..X#XOXbXg.#.,.>.,.d.s.n.h.<.h f g g q w t q f *.+.+.*.l j j j J i.i.s.s.,.g d h g >.6.>.$.e.i.i.i.i.6.,.4.6.",
"@.j l O.D.B.F.H.D.D.C.N.H.2.:.<.&.q.H.B.D.H.i.6.2.5.,.,.&.+.:.2.u.j.u.u.H f d y J h.N.M.S.1.J %.%.&.2.2.2.2.7.d.u.y.u.O.g l l :.9.e.e.9.&.j l O.",
"y q q a XX.XOX$XC.k >.+.>.r q 9 q y *.+.O.@.5.d.i.i.p.t q S 6 d.$XOX@X@X1.f %.h 6.@X#X X@Xj.@.4.>.+.l g f f h.@X@XOX@XG w p 9 g $.*.>.>.u q q q ",
"p t y p `.}. XoXB.$.,.*.1.f i p p f 1.>.*.>.0.i.a.a.p.y 9 y w t.@X}.{.{.-.j O.d 6.oX{.{.@Xj.+.>.>.-.&.O.k g h..X X|.`.j w y y g >.>.*.>.f q w u ",
"p r q a ].}.+XoXL.@.>.*.1.u q y w g >.@.@.*.9.i.n.s.p.p 0 y 6 r.@X X X X:.h j d e.OX X}.bXj.@.,.>.*.g l j f h.$X|.OX Xl w y q f ,.@.@.>.g q y p ",
"d y i f `..X X XN.$.*.*.1.d r t 0 d *.$.>.1.9.9.y.y.r.p y p q d..X|.oX].1.j h k 1.oX X XoXj.&.>.1.*.+.l O.h h.OX|. X|.j w p t h $.>.>.>.f q t p ",
"*.=.@.&.h.h.s.D.0.l j O.%.O.*.*.-.k +.O.j k &.5.,.,.5.L.`.J.`.N.,.8.5.8.7.p.t.p.p.5.6.7.e.l t p p h I.].`.[.M.,.7.8.5.H.K.J.K.H.9.t.t.u.&.g g H ",
"8.*.$.4.t.i.a.i.1.j j O.h =.4.*.>.-.H g j H +.$.*.@.,.oXOX X$XN.+.>.$.$.t.n.y.i.9.@.&.>.*.d y q q h OX X|.@XN.#.$.&.>.]..X.XOXI.i.a.i.s.&.h g H ",
"4.*.>.,.t.n.d.d.e.g O.h l *.*.*.>.*.J j k l &.1.>.@.,.|. X].OXD.+.,.>.:.t.u.i.s.9.:.>.@.1.d q y q H |.}.oX.XN.*.,.*.,.]. X{. XL.t.i.i.i.&.H h k ",
"6.-.>.>.i.i.y.h.5.j F j %.&.*.*.+.+.h j l g &.>.>.>.5. X#X.X@XN.@.$.$.5.u.i.i.s.t.>.$.>.6.f q i q g .X#XoX@XN.+.,.>.>.P.oX@X@XK.i.s.y.i.J j k j ",
"6.@.>.,.2.3.q.2.<.j k k O.7.j.0.u.0.&.:.&.>.>.-.*.&.>.L.K.L.].i.O.=.l +.7.t.9.t.2.%.&.O.O.j f d u k L.K.J.K.g.O.&.+.>.L.P.L.K.D.9.t.0.0.:.J :.:.",
"8.@.,.:.t q y q f >.,.>.$.J.@X X@XP.i.s.u.d.<.g g H k y.0.9.n.K 9 i w t &.>.*.>.&.9 y 9 0 &.*.*.6.1.i.9.p.y.<.j j O.l 9.y.9.i.9.+.>.>.$.t.Z.i.n.",
"6.$.*.*.u y y y g 6.>.>.*.J.OX|. XK.y.i.i.i.<.h k j j d.s.i.n.<.p q u r :.&.>.>.+.t t u q j 1.>.&.2.y.y.s.n.2.f k l l p.n.n.y.t.>.*.6.>.p.i.y.y.",
"6.*.6.-.r w w q f 4.*.@.@.J..X|.OXP.y.i.y.s.<.h J g O.t.y.y.s.K 9 p p 9 1.1.>.>.O.q p i 0 J >.>.>.>.i.s.y.i.2.g k k h u.y.y.y.9.@.>.*.*.t.i.m.n.",
"4.@.*.*.u 9 t 9 f >.>.@.$.J.@X X@XK.i.i.i.h.>.f %.h J t.i.s.d.&.0 9 q q J >.>.>.+.q p t q O.>.@.>.4.y.i.u.i.1.H j H h t.u.i.i.7.$.>.+.$.e.s.y.n.",
"*.k j +.F.H.H.H.h.e.t.u.e.0.0.0.0.u.1.2.,.,.O.y y p u =.:.+.+.u.U.D.H.H.u.7.t.u.2.+.O.%.&.O.O.O.J O.1.q.2.7.J q u p u 1.2.2.,.j.J.L.L.P.:.d l h ",
"%.j G K  X@XOX#XL.y.i.n.y.,.*.*.>.*.*.1.@.4.f q w q y f j j f h.nXOX#XOXM.i.i.i.p.>.>.>.1.&.g j j l @.*.>.>.g q t t i &.>.@.@.j.@X X.X@XJ 6 i y ",
"%.f f O.`.{.oX}.L.y.i.y.i.,.@.@.>.@.*.>.@.>.g p y y y H J j g d..X|.|. XV.y.i.i.9.>.>.>.*.O.h O.j %.>.>.>.>.h y y r a +.>.6.+.h..X X|..X&.t S y ",
"O.%.j k  X XOXOXJ.y.i.i.i.,.>.>.>.>.>.>.>.,.d t q t t h j %.h h.#X X.X XM.p.i.i.u.>.@.>.,.k g j j j *.*.@.>.h q p i t +.>.$.@.h.OX.X.XOX&.0 w t ",
"O.F F O.H.J.L.J.D.t.t.t.u.<.&.&.+.&.*.*.&.:.h f g f h G j f d u.].P.`.K.i.t.t.t.2.+.+.*.&.:.J &.=.k >.*.@.>.&.h G G k &.*.+.+.u.oXP.P.|.&.r p u ",
"6.>.*.&.p 9 y r f >.,.:.1.d y q t u j j j %.2.d.p.d.r.u q u q l >.*.$.>.g j j k h t y q y 1.y.y.i.r.h j k j j.bX XOX].h q p q K i.i.y.i.K j H H ",
"4.@.>.*.p w t t g 4.>.>.1.g q p y u H J j g 6.s.i.u.p.y w y q H *.*.>.*.H H H j f t p p 9 1.n.y.i.t.j k j p j.@X}..X Xh t t i J i.y.y.i.<.k j j ",
"*.*.@.+.p y r t d *.@.@.*.y q q w u j g H g ,.y.a.y.t.y q w q j 4.*.*.@.j g h j g 0 q q 9 3.i.y.i.8.g h O.g h.@XK. X|.h q 0 t h i.y.i.i.&.g g O.",
"8.4.4.4.p y d t O.6.4.4.8.j q y u d O.O.=.O.t.M.M.M.d.f u f t O.8.6.5.6.*.%.+.+.j u p F y 2.M.V.M.d.&.%.O.l N.nX%X$X@XH y d p &.B.V.h.V.<.+.%.%."
};
