/* XPM */
static char *result[] = {
/* columns rows colors chars-per-pixel */
"72 72 251 2 ",
"   c #030302",
".  c #070905",
"X  c #051808",
"o  c #16160D",
"O  c #131D11",
"+  c #140C0A",
"@  c #271712",
"#  c #331D14",
"$  c #2A190E",
"%  c #07280B",
"&  c #1B2815",
"*  c #093411",
"=  c #093B15",
"-  c #183516",
";  c #0D3210",
":  c #232C18",
">  c #392516",
",  c #25331B",
"<  c #29371E",
"1  c #3E371B",
"2  c #192B34",
"3  c #313225",
"4  c #151C2B",
"5  c #472A19",
"6  c #55351D",
"7  c #44341B",
"8  c #4A2921",
"9  c #513627",
"0  c #09430D",
"q  c #0A4312",
"w  c #084719",
"e  c #174717",
"r  c #09551A",
"t  c #17591B",
"y  c #22581D",
"u  c #2C441D",
"i  c #1A641B",
"p  c #07611D",
"a  c #0C5A25",
"s  c #344927",
"d  c #39592B",
"f  c #30552A",
"g  c #0A6B26",
"h  c #0A6725",
"j  c #166729",
"k  c #077B2E",
"l  c #0A7A2D",
"z  c #0A762C",
"x  c #0A7931",
"c  c #18762E",
"v  c #3D632D",
"b  c #3A6627",
"n  c #287C26",
"m  c #3E6432",
"M  c #3C6538",
"N  c #286C2D",
"B  c #21731D",
"V  c #45572B",
"C  c #564B3A",
"Z  c #455933",
"A  c #524B2B",
"S  c #6D4425",
"D  c #724324",
"F  c #705631",
"G  c #41682E",
"H  c #416634",
"J  c #436B34",
"K  c #496D35",
"L  c #416639",
"P  c #446B3A",
"I  c #496D3A",
"U  c #4D6139",
"Y  c #556939",
"T  c #4B7336",
"R  c #4D743B",
"E  c #4E793A",
"W  c #4C7736",
"Q  c #527B36",
"!  c #51763C",
"~  c #537B3C",
"^  c #597D3E",
"/  c #537638",
"(  c #557629",
")  c #6F6934",
"_  c #60561E",
"`  c #24374C",
"'  c #1C3A45",
"]  c #2F4D69",
"[  c #565348",
"{  c #486B44",
"}  c #4D7244",
"|  c #527541",
" . c #547B41",
".. c #5A7E43",
"X. c #5A7947",
"o. c #5A6F43",
"O. c #76644A",
"+. c #657C46",
"@. c #746E4B",
"#. c #717369",
"$. c #5E5F5D",
"%. c #916F37",
"&. c #90744A",
"*. c #A37D45",
"=. c #877D67",
"-. c #17852D",
";. c #29852B",
":. c #2C9734",
">. c #369B34",
",. c #2D8B30",
"<. c #3DA333",
"1. c #3AA236",
"2. c #3CA12E",
"3. c #56813D",
"4. c #5B833D",
"5. c #5E893D",
"6. c #598137",
"7. c #479036",
"8. c #628B3E",
"9. c #65873C",
"0. c #44A233",
"q. c #4BA52F",
"w. c #568141",
"e. c #5C8442",
"r. c #5E8942",
"t. c #5D8349",
"y. c #5E8948",
"u. c #618545",
"i. c #628B44",
"p. c #63864A",
"a. c #648B4A",
"s. c #6A8D4C",
"d. c #698B46",
"f. c #659144",
"g. c #6A9246",
"h. c #669249",
"j. c #6B934B",
"k. c #6C984B",
"l. c #72944E",
"z. c #739A4E",
"x. c #77984D",
"c. c #6C8D52",
"v. c #668A54",
"b. c #6D9352",
"n. c #6E9358",
"m. c #749553",
"M. c #799654",
"N. c #759A53",
"B. c #7A9A55",
"V. c #759559",
"C. c #7A955A",
"Z. c #7C9B5A",
"A. c #769B5A",
"S. c #728D51",
"D. c #7CA255",
"F. c #7DA25A",
"G. c #76A052",
"H. c #7EA046",
"J. c #7D9B61",
"K. c #7FA760",
"L. c #958D31",
"P. c #A98B31",
"I. c #B0A534",
"U. c #82BD34",
"Y. c #C4AD35",
"T. c #96C837",
"R. c #A8D33B",
"E. c #DAC93E",
"W. c #F8FB3D",
"Q. c #C3E43C",
"!. c #819D5C",
"~. c #918D4E",
"^. c #B18D4C",
"/. c #81A257",
"(. c #83A45C",
"). c #89AB5E",
"_. c #85AB5C",
"`. c #92B054",
"'. c #B2A64C",
"]. c #859E64",
"[. c #988E72",
"{. c #B7966F",
"}. c #84A363",
"|. c #86AB63",
" X c #8AAC64",
".X c #8BAB68",
"XX c #8CB264",
"oX c #8EB36A",
"OX c #92B56A",
"+X c #95BA6C",
"@X c #9ABD6D",
"#X c #93B565",
"$X c #9BBE71",
"%X c #95B771",
"&X c #93AE6E",
"*X c #C49751",
"=X c #DBAD59",
"-X c #D7AB5A",
";X c #DBB256",
":X c #CBB346",
">X c #C9A879",
",X c #C09D75",
"<X c #9CC26C",
"1X c #9DC273",
"2X c #A2C66E",
"3X c #A6CA6E",
"4X c #A3C673",
"5X c #A5C974",
"6X c #A9CC75",
"7X c #A4C57A",
"8X c #A6CB7A",
"9X c #AACD7A",
"0X c #A8C777",
"qX c #ADD17C",
"wX c #ADD177",
"eX c #B1D37D",
"rX c #B4DA79",
"tX c #A7CD41",
"yX c #D6CC45",
"uX c #E3C84B",
"iX c #EAD748",
"pX c #E6C951",
"aX c #EEE246",
"sX c #F3E745",
"dX c #F8F842",
"fX c #3A4F94",
"gX c #727283",
"hX c #7FC7DC",
"jX c #43ADCF",
"kX c #8F8C97",
"lX c #A2B786",
"zX c #93A7A4",
"xX c #CEB18B",
"cX c #D3B58D",
"vX c #CFAF8A",
"bX c #C6BEB6",
"nX c #AACD81",
"mX c #ADD182",
"MX c #B4D583",
"NX c #B0CF81",
"BX c #93C3A2",
"VX c #E5CC93",
"CX c #E5CCA4",
"ZX c #EFD8B0",
"AX c #FAE6BD",
"SX c #E1D099",
"DX c #97A4C8",
"FX c #FDE7C1",
"GX c #F6E7C3",
"HX c #FDF2DD",
"JX c #F7FAFA",
/* pixels */
"r.3.3.y.wXrX9XrX#Xf.g.f.h.W P P K W 3.3.3.3.3.w.w.e.w.A.B.B.Z.+XeX3XwX6Xd.~ e. .r.g.f.f.k.! J K J  .B.F.Z..Xc.I R P G i.g.i.g.4.L { ~ | j.z.h.k.",
"w.E E ..@X4X7X5XXX5.i.5.i.K m J m J w.~ E E E | M c N b E 7./ F &.~.~.~.+./ Q Q ~ 8.5.8.u.T v J M J M.Z.Z.}.p.{ I { H e.i.r.4.~ v I I I y.h.n.a.",
"3.~ ! e.5X9X8XqXXXr.i.i.a.P M J M K X.X.~  .!  .N z r = n 2._ D %.*.*.*.@.Y ~ ! ^ u.i.i.a.E m H L I M.Z.J.Z.v.} ! } { y.4.r.u. .M H P P v.b.j.b.",
"r.w.! ^ XX+X+X@X(.i.i.i.a.E T J J T M c ,.7.7.7.>.:.i 0 n 2.`.*X*X*XuXiXyX'.~.&.+.u.y.e.i.R L H v I }.|..X.Xv.} | } X.b.m.j.s.u.Y | ! ..v.v.a.s.",
"h.r.i.y.K H m H X.Z.B.B.Z.s.u.r.e.a.n x >.<.<.0.<.>.i 0 ;.0.`.;X=X=XuXdXiX=X*X*.) E w.Q 3.J H G v | 7X9XnXNX|. .t.p.+.J.}.Z.J.&X8X7X4X7Xp.J I o.",
"h.5.5.r.M P J m  .Z.M.B.v e j j c j ,.:.2.<.<.<.1.0.i 0 n 2.tXdXW.W.iXuXiXsXW.iXI.%.o./ ~ I L J m T 0X0X9XMXK.| ..e.e.Z.}.].!..XeX4X2X0X^ H } { ",
"h.y.i.5.P J G H ^ Z.M.B.f q h x k k :.<.1.<.<.<.<.<.i 0 n 2.R.dXW.W.iX=XiXW.W.W.:X*.) Q ^ T L J m E 0X0X4XeX|.| ..~ ..V.].}.].oX0XnX0XnXp.L H P ",
"h.r.f.i.J M J m X./.L f h g z x :.:.1.<.<.<.0.>.B t n ,./.'.:XuXiXW.iX=X;XuXuX;XiXyX'.&.o.P v v m E 7X9XnXMX XX...R ! c.M.Z.C.&XMXMXNXNXv.L H m ",
"r.e.5.w.R W E P 3.j.u q g k k l >.<.1.<.>.<.0.<.i 0 ;.<.'.;X;X;XiXW.iX=X=X=X=X-XuXW.Y.*.@.^ 9.+.u.+.V.n.b.Z.b.a.v.~ 4.|.&X%X%X&X|.(.F.}.V.v.S.c.",
"w.W Q ~  .^  . .b f h h k k k k :.<.n i i i ;.0.i 0 n 2.T.iXsXiX:X:X*.%.^.=X*X%.%.*.L.) p.j.!.!.Z.g.b d M M ..z.j.h.a.$XNXNXMX%X~ X.X...J.}.(.}.",
"3. .~ ! | E ~  .e q z l x k l l :.0.i 0 q q ;.2.i 0 ;.2.R.W.W.dX:X*.%.D *.=X^.D D D _ y.8.l.M.M.M.c.H J L L t.j.b.h.a.1X6X6XqX.X..~ e...J.J.Z.!.",
"3.| ~  . .E , - a g z l x k k k -.-.;.;.,.;.B y n ;.T.Q.yXpX:X'.*X,X,X{.O.> A Y Y / y.f.8.l.Z.M.Z.b.L P m v X.j.h.n.m.7X9X6XNX.XI E R / V.J.Z.M.",
"e.E 3.E w.^ O   a k k k l l -.k l l :.1.<.0.i q ;.q.R.W.pX=X^.*.,XcXcXcXO.  , E 6.j.8.8.g.l.V.V.m.s.K H J L  .j.h.a.c.1XNX0X7X|.^ X...^ s.m.j.B.",
"f.r.r.h.$X1X:   a k k k k x k k k k -.-.i t h g c -.R.W.iX=X-XvXVXZXCXcXO.  : J e.8X1X5X7Xi.G P P I p.e.r.r.3.~ y.y.p.].].!.M.(.$X$X4X4Xs./ ~ t.",
"k.8.r.i.4X7X,   h x k k k k k k k k k k r 0 p l z z T.W.iX=X=XVXCXAXCXvXO.  , v t.qX4X5XNXs.v m m J i.i.r.5.e. .e.X.t.Z.!.C.m.).5X4X4X9Xa.T ~  .",
"h.r.a.i.U s - * g k k -.r w r r g k p r h g r t 9.'.'.I.E.dXVXZX[.C F &.8   4 v t.5X6X2XnXi.v J L J 5.r.r.r.^ } t.t.t.C.!.C.S.).4X4X2X0Xh.~ !  .",
"h.r.i.u.<   = 0 g k k z r = 0 q g k r e j -.a w *.-X^.*.E.W.VXAX=.+ 8 D #   , v X.eX3X6XMXa.d M m J u.i.u.i.e.~ Q ..p.J.].].M. X6X0X0XnXh.E E ~ ",
"i.3.w.^ <   = q g k p r % X * 0 r r J.[.lXlX].~.&.%.^.*X*X:XVXFXbXkXgX] $.=.[ & Z @X#X#X+Xa.E ~ E R e.3.^ Q ^ u.a.c.c.v.c.c.+.m.XX_.XXXXs.e.u.s.",
"3. .w.R O   = 0 g k w = X . % 0 = e $XAXFXFXCXvX&.D ^.;X^.%.cXFXHXJXDXfXkXvX&.  s C.C.S.Z.s.r.f.8.e.G m H H ..!.m.!.J.X.I { H K 5.5.Q 8.l.Z.Z.Z.",
"w.E E K O   = q g k % X d V - X X X &.{.ZXFXZXZX&.D Y.aXP.%.>XFXHXJXDXfXkXcX#.  s B.Z.Z.M.j.8.r.i.e.J P J H ..Z.C.l.].X.} } L T i.y.i.8.m.M.M.Z.",
"w.! ~ K o   * q g z %   I ^ &       F *.CXAXAXAX&.D Y.W.P.D vXFXHXJXDXfXkXvXO.  u x.M.Z.A.j.i.i.i.e.J P H H ..!.!.M.J.! I R M R u.r.y.8.m.Z.Z.!.",
"r.|  .~ f u % % w r X   K ^ G d +   : 7 [.,XBXhX[.^.iXW.P.D ,XFXFXHXbXkX#.C C s Y Z.m.Z.A.j.4.i.i.r.G H J v e.!.S.C.V./ H H m T f.y.5.8.l.M.M.B.",
"y.5.r.i.XXOX&   * = .   H u.r.u.&     . O.*.jXjXlX-XaXW.P.D ,XFXFXFXCXcXO.  3 m.m.i.i.g.i.^ J J J E e.e.e.4.3...^ ^ e.y.e.3.e.m.<X@X<X<Xx.u.d.h.",
"h.r.r.d.5X6X!.S.; X s d / u.u.i.L.I.L.*.9 3 ' ` '.aXI.%.^.{.vXCXCXVX=.C C ^ s.Z.l.y.i.8.u./ L L L K r.u.i.g.3.~ Q ~ ! u.8.8.i.D.6X5X4XqXz.5.8.i.",
"h.r.r.f.1X6X4X1X: . K ^ ^ 3.r.i.R.W.uX-X7     . I.dXL.D [.vXvXxXvXvXO.. Z C.M.M.m.i.i.i.a.T L P M T i.y.i.8.e. .~ ^ ~ r.y.a.w.D.6X2X3X8Xz.r.i.i.",
"k.f.8.g.4X9X6XMXu.s ! Q Q r.f.i.) _ _ A : % . . L.iXF $ A X.) X.C C o.c.c.M.M.!.x.i.8.5.h.T v H m m r.r.w.r.^ R ~ | / i.i.i.i.D.mX6X6X9Xz.i.i.i.",
"y. .^ 3.|.XX XoXz.3.e.e.^ 3.^ ~ O     . * q X . %.-X_ . % q 0 = %   o..Xb.d.v.s.a.e.5.r.w...! ! ^ 3.D.B.z.D.s.u.p.u.u.4.4.w.w.z.oXXXXXoXi.3.3.y.",
"J J M G / W Q W ^ y.r.a.a.T v L O   # 5 t h r e s S F %.1 X q h *   o : s H L d H  .~ ! Q j.!.Z.B.(.6X6X6XeX#Xm.Z.Z.B.^ ~ ^ W 3.8.4.8.i.K m v J ",
"J m J K ~ ~ ^ W w.f.5.8.f.K v L O . 5 D N c l l * . &.;XS   w k 0 . . . , m P J K 3.E ~ ~ s.Z.M.M./.8X5X5X9XoXm.Z.M.m...^ E  .e.y.8.5.r.T H L P ",
"J P H J  . .3.~ w.i.f.i.r.T s : 2 ' 3 # V V j z u 5 6 F :   w x 7.L.( y y : s L I ~ ~  .~ d.Z.Z.M.Z.4X0X0X5XXXM.Z.B.Z... ...E w.a.i.f.h.K H H I ",
"T H H H | ~ ~ ! w.r.5.5.a.J &   ` ] 4 . 6 D b z A S $       w l U.W.T.q.t   & M J ^  ./ / s.!.Z.N.(.6X0XwXwXOXM.M.M.B.^ W W E 3.i.i.u.p.R J H H ",
"b.a.d.p.y.4.4.6.N.+XXX#XU , O.#.3 4 4 * 6 D A V > $ e r #.zX{ * b q.q.<.y   , ~ ! 8.4.e.y.^ / ! | 3.A.N.z.N.s.e.u.u.u.|.OXXXoXZ. .6.3.6.u.v.d.s.",
"(.Z.B.B.f.i.f.w.(.9X6X6X< + =.vX3 . ; 0 A S S S o   w g BXJX$.  0 l :.1.y   , X.^ r.f.8.i.E v M M J r.r.4.5.e.E Q ~ Q 1XeX6XMX).R E ~ ! m.Z.Z.!.",
"(.N.M.B.i.r.i.4.D.6X3X2Xs   9 [ : % t B ( ( ( ( - . #.BXzXDX$.` - * j -.w   ,  .3.a.r.r.a.W J J H T r.i.f.r.e. .~ | w.@X6X4X8X).E ~ ~  .b.B.m.Z.",
"(.m.N.N.a.i.h.r.D.qX6X6X3       ; 0 ;.0.2.<.<.0.- . zXJXkX] ] ] 2   = x w   & | ~ f.5.i.a.T v m m J u.8.8.8.3.E ! E ~ @X6X6XqXXX . .^  .j.Z.B./.",
"Z.m.m.m.y.w.e.~ N.4X@X@XV.Z O   X % j -.1.<.<.<.j w ] #.$.[ [ [ 3   X = X   < a.a.5.e.r.r./ K I I T r.r.r.r.u.a.i.a.s.OX<X@X1XG.T ! E ! s.m.S.m.",
"j.i.i.u.J H J m ..M.x.x.B.i.<     . r z >.0.<.1.-.z * . > S D S #     .     Z nXXX/ ! ~ ^ e.i.i.i.r.~ ~ ~ E F.nX8X8X4Xg.w.5.i.3.v J H H E ~ / ^ ",
"f.r.8.u.J J J m X.Z.Z.B.B.d.,   $ > - = c -.1.1.>.,.=   O.{.{.{.C . + @ @ @ 3 { V < d X.E u.i.8.y.r.~ ~ ~ E F.qX3X5X6Xg.a.i.f...m P H M E ~ ~  .",
"h.r.i.a.J J J L ..B.Z.Z.M.u.,   6 S @   a x >.>.0.0.e . [.GXGXGX=.  @ 8 8 8 @       , ~ E 4.i.i.i.5.~ ~  ./ F.wX2X5X2Xk.y.5.i.e.L P J M E ~ ~ ^ ",
"k.i.i.y.m v v d / !.M.Z.Z.g., . 6 D > @ * w e y y y %   C =.=.=.9   @ 8 6 6 8 # o   ,  .^ 4.8.i.r.i.E ! ~ W F.MX9XqXwXf.y.5.r. .v m d m T / / ^ ",
" .W  .E Z.G.Z.Z.A.y.u.u.a./ &   6 D 9 8 +       .                   @ 8 6 D D D 5   , I J u.l.g.l.s.4.r.3.4.a.b.b.n.c.l.s.j.m.m.!.B.G.(.l.s.d.g.",
"H M L P nX9XqXMX_.W ~ ~  .J f < > # 8 8 # @ .   Z +.+.d s s s d &   + @ # # # > 1 < d H H s.!.Z.C.B.8.i.h.a.T d b d G c.!.Z.M.|.MX9X9X9X|.Z.Z.B.",
"I J m T 1X5X6X6X XW ~ ^  .J J J O   # 8 8 8 + . !.3X4X^ X.w.E 3.s               s H H I H p.A.B.Z.l.9.i.w.i.~ P P P J m.Z.M.x.).9X4X4X6X(.C.M.!.",
"J H b K 1X6X7X9X_.E ~ ~ ~ J M J s s : @ @ @ +   !.6X1X^ | ..E e.! V d d Z U Y Y +.L L L m p.B.B.B.N.8.i.i.f.~ m m P L m.M.M.M.).6X2X6X6X(.M.Z.Z.",
"W P P T $X3X4X5X_.^ e.3.u.R K I I I :           Z.4X+Xi.~ ^ ^ e.y.u.r.i.n.N.m.V.d.P J J K u.N.N.N.b.u.i.a.i.~ H K M J s.B.B.m.|.0X4X1X0XF.N.N.M.",
"a.y.r.u.B.B.Z.M. X5X4X2X4X/.m.M.m.(.M.! o.o.Z s e.8.s.j.M.B.B.a.~ ^ ~ E K H P K R u.r.i.r.w.^ ! ^ e.N.Z.N.B.i.E ~  .! i.i.d.9.l.!.Z.B.F.g.u.i.f.",
"h.y.i.a.x.M.C.M..X6X4X6X0X(.x.Z.M.(.6X3X6X8Xx.5.f.i.a.B.B.M.Z.u.~ E  ...J L P m K i.i.i.f.e.!  .~ ^ B.Z.B.Z.a.E 3. .^ r.i.i.y.s.l.M.N.B.d.a.i.f.",
"f.r.i.a.l.Z.Z.M. X0X4X7X9X(.m.C.C.}.9X4X4XwXD.e.y.i.u.N.M.Z.Z.d.! ^ 3.E J J H H W a.i.r.h.~ ~ 3.E ^ B.M.B.B.i. .~  .~ 5.r.i.r.s.Z.Z.B.M.i.a.w.f.",
"k.i.r.f.l.M.C.S.).eX3XwXwX).M.!.B.|.6X6XmXqXD.5.i.8.i.Z.B.!.Z.i.E E E W J M m m T 4.5.4.5.3.E ~ E ..M.B.].Z.i.T W / E i.a.r.f.b.B.B.B.B.h.i.f.f.",
"5.~ ~ 3.|.|. XoX X|.XX_.XXh.p.p.e.c.XX).|.XXN.s.s.l.i.i.u.u.u.s.N.F.B.N. .I T J  .K.(.F.}.a. .e. .y.h.s.s.i.l.N.A.M.N.3.Q Q Q 4.N.j.j.m.e.~ ~ ^ ",
"H m m P 4X6X9XeX`.6.i.4.r.H v m m J r.4.4.5.j.N.Z.B.Z.H L P f A.qX6X9X9Xa.E ^ ~ b.qXwX6XwXG.5.f.i.r.Q /  .R F.qXwX9XmX~ M { v W 8.r.r.u.R m m J ",
"K K H I 2X3X4X8XXX4.h.u.a.T L P P R a.f.i.i.z.B.M.M.V.K v J M A.qX2X2X4Xy.! 3.T j.8X2X4XqXG.4.i.i.r.w.^ ~ ! D.6X4X4X<X! M J m ~ i.r.i.a.T m M J ",
"P v m I 1X3X0X8XoX5.r.r.a.K m J L T u.5.5.r.l.B.!.Z.V.J G J d n.eX5X5X4Xy.! ! T b.wX6X4XqXD.e.i.r.y.E W ^ E F.eX4X8X4X/ m H H T i.i.5.i.W M J P ",
"W M P R @X6X7X6X_.8.i.r.a.T G J G T r.8.i.a.z.x.M.M.V.J H I v A.6X4X9X1Xs.! ~ ^ u.8X5X4X8XG.r.i.a.r.3.Q ^ / F.qX5X5X4X^ L P H ! 8.i.8.i.T m J J ",
"f.y.4.u.(.B.Z.|.z.Q ~ 3.e.w.5.r.r.3.4.3.~ ~ i.g.d.i.g.OX<X+X<X_.g.k.k.g.j.V.m.m.m.h.k.h.b.~ J J P | $X<X@X<XF.h.j.k.g.XX@X+X$X.Xl.m.M.m.../ E  .",
"h.8.8.i.N.N.Z.B.s.~ ~ ^ ~ w.f.y.y.y.~ ! ~  .w.8.r.r.d.8X6X6XmX_.4.r.8.8.m.!.M.Z.l.5.r.i.r.W m m v / 8X9X4XmX_.6.5.r.i.1X6X6XqX%XB.C.Z.B.e.~ E  .",
"h.i.i.d.m.Z.B.M.j.E  .~ ! i.i.8.i.r. .E  .~ e.a.8.8.f.4X5X2X8X|.4.i.u.u.A.N.B.B.l.i.i.5.a.T m J H  .4X3X5X6X(.r.i.i.i.1X5X2X3X+Xm.Z.Z.B.e.! E ^ ",
"h.u.i.i.B.Z.M.F.g.~ ~  .w.w.r.e.4.6.^  .Q Q w.a.i.i.f.0XqX6XqX).8.8.8.g.N.B.B.Z.m.8.8.i.h.T m P m W 6X6X8XqX).4.h.i.u.$XwXqXeX+XB.!.x.Z...~ ^ ~ ",
"h.5.i.a.s.s.c.c.u.^ 3.3.^ k.G.z.G.x.^ e.e.u.r.e.e.w.i.%X@X#X1XD.^ e.~ ^ j.N.m.l.b...w.3.^ E E T K ^ +X@X@X@XD.w.e.4.8.OX@X@X@X Xj.m.l.N.u...u.u.",
"h.8.i.p.H v L v I i.i.u.5.+XqX6X9X1XZ.Z.B.N.p./ ~ w./ C.x.x.Z.t.v P m L y.u.i.r.4.m J v v e.u.r.h.a.B.m.m.m.p.E ~ 3.Q m.S.l.M.j.4.i.8.8.m.!.Z.!.",
"h.r.r.r.J J J J E f.r.i.5.@X8X4X8X@Xx.Z.M.Z.p.! ^ E ^ V.!.M.Z.X.M M K G y.r.i.i.3.L H J H ~ a.u.e.s.B.B.!.!.d.E ^ ~ Q m.!.!.M.l.i.y.i.i.m.Z.x.!.",
"k.5.f.y.H J J M R i.i.i.5.+X6X4X8X$XM.Z.M.Z.p.~  .Q ^ A.M.M.Z.p.v I J v u.u.i.i.6.L P J v  .f.i.r.i.M.Z.M.B.s.E ^  .~ m.C.!.Z.s.5.y.f.5.m.C.M.!.",
"f.e.f.y.K v m m R i.5.5.5.<XqX4X6X<XB.B.B.D.u.E ^ ! ^ n.M.Z.B.e.G v d H ..i.i.i.4.H J J m 3.i.8.i.i.M.Z.B.B.v.~ !  .~ m.N.B.B.l.8.u.5.8.m.Z.M.Z.",
"5.6.~ 3.|.oXXXXXF.b.m.A.j.z.N.z.N.N.a.j.d.d.3.J J I J y.u...4.A.oXXXoXoXB.j.l.N.s.3.w.w.4.3.3.3.w.3.s.s.h.s.^ J I J K i.s.g.i.B.+X#X#X$Xu.T / / ",
"w.E | ..4X6X9XwX#XM.!.M.Z.d.5.i.y.i.r.i.5.f.R m m M P E ~ ~ T K.eXqX6X0X(.B.B.Z.m.8.f.i.f.e./ ~ E ~ 5.r.u.r.! M J L L 4.i.5.5.D.wX5X9XqX..v M L ",
"w.E ~ w.<X4X0X5XOXM.M.Z.B.i.8.i.8.4.u.i.8.i.E P P J J  .~  .R B.6X4X5X6X/.M.B.B.m.u.i.r.u.3.! 3.~ w.i.i.i.f.Q H J G I 4.i.h.4.F.wX5X2X9Xe.m P J ",
"3. .| ^ 1X6X9XwX+XM.Z.M.B.g.i.f.i.f.i.i.i.i.T H m H H ! ~  .~ F.qX5X6X5X(.B.B.B.N.i.5.f.i.w./ ~ ~ ! r.i.r.f.~ v L H H 3.i.8.5.F.9X6X5X9X4.v P L ",
"w.| E w.+XOXOX+X|.N.l.M.N.u.4.w.4.w.r.r.r.u./ I R K !  .E E K N.1X$X<X@XZ.b.m.m.s.4.4.e...p.e...t.3.i.5.5.u.e.! X.| ~ y.r.4.3.A.0X$X$X4Xe.G I J ",
"f.y.i.3.J H K G ! u.i.i.i.T J J J K E ~ ~ w.j.A.V.A.c.P J J m ~ i.5.8.i.E  .^ ^ E H J L H u.Z.x.B.n.! ~ ^ E F.nX5X9X1X/ m P m  .B.B.M.D.X.~ |  .",
"f.5.i.r.M M H H E i.i.i.a.E m M J J ..^ E ! d.Z.Z.B.V.J J L m  .i.y.i.i.3. .E ~ E L P M Z s.!.x.B.N.~ ~ E W G.wX2X5X6X! m P L X.B.M.M.M.p.^ E ^ ",
"i.r.5.5.P J G G T 5.5.5.y.K m m L J ! !  .! i.M.m.B.m.J m L m ~ f.r.r.5.E E ! ~ E b J P b p.Z.M.B.j./ Q E E F.qX2X4X2X! m b H ! B.x.B.B.e.W E 3.",
"h.f.f.f.P J K L 3.k.f.f.h.Q J P K W w.4.e.w.N._.!.(.Z.E J T J ~ h.f.g.k.e.w.e.4.~ J P R J s.(./.(.Z.y.w.3.~ ).MXeXeXeX..J T L e.).(.!./.a.4.w.w."
};
