/* XPM */
static char *result[] = {
/* columns rows colors chars-per-pixel */
"72 72 256 2 ",
"   c #020202",
".  c #0B0402",
"X  c #070906",
"o  c #130904",
"O  c #021304",
"+  c #041705",
"@  c #16160D",
"#  c #191814",
"$  c #061314",
"%  c #26170E",
"&  c #062B07",
"*  c #05320C",
"=  c #0F2E12",
"-  c #382316",
";  c #29301A",
":  c #13232C",
">  c #303A24",
",  c #111C24",
"<  c #482A1A",
"1  c #4B371C",
"2  c #4E3024",
"3  c #683E23",
"4  c #0A4719",
"5  c #154716",
"6  c #0A4D22",
"7  c #374928",
"8  c #3A592B",
"9  c #3C5E32",
"0  c #374A2B",
"q  c #067C2D",
"w  c #0A7B2D",
"e  c #0C792B",
"r  c #0A7B31",
"t  c #097931",
"y  c #10712B",
"u  c #3D632D",
"i  c #3F6628",
"p  c #3E6433",
"a  c #3E6339",
"s  c #2C7931",
"d  c #25411E",
"f  c #595617",
"g  c #70491A",
"h  c #554422",
"j  c #465A29",
"k  c #4F552B",
"l  c #6C4326",
"z  c #724324",
"x  c #744728",
"c  c #735333",
"v  c #41662E",
"b  c #436A2D",
"n  c #416634",
"m  c #436A34",
"M  c #496D36",
"N  c #416639",
"B  c #446B3A",
"V  c #496D3A",
"C  c #486436",
"Z  c #4B7335",
"A  c #4D743B",
"S  c #4E793A",
"D  c #4C7537",
"F  c #527B36",
"G  c #52763C",
"H  c #537B3C",
"J  c #597D3D",
"K  c #517636",
"L  c #586D2E",
"P  c #5B641D",
"I  c #36506F",
"U  c #2B4359",
"Y  c #5B4E47",
"T  c #745849",
"R  c #486D41",
"E  c #4D7244",
"W  c #527541",
"Q  c #547B41",
"!  c #5A7D43",
"~  c #587C47",
"^  c #647A45",
"/  c #776A4C",
"(  c #4F4E72",
")  c #855833",
"_  c #A27E3D",
"`  c #8A6426",
"'  c #9C7C46",
"]  c #86765D",
"[  c #8F6945",
"{  c #A37D44",
"}  c #A47B4A",
"|  c #A07C51",
" . c #877664",
".. c #0D812C",
"X. c #1B892D",
"o. c #1E8932",
"O. c #0D8030",
"+. c #389E35",
"@. c #228C31",
"#. c #3CA334",
"$. c #3AA336",
"%. c #3CA42D",
"&. c #56813D",
"*. c #5B843E",
"=. c #5E893D",
"-. c #5A8337",
";. c #519736",
":. c #628B3E",
">. c #60863C",
",. c #709A30",
"<. c #42A133",
"1. c #50A331",
"2. c #67B030",
"3. c #568141",
"4. c #5C8442",
"5. c #5E8942",
"6. c #5E834A",
"7. c #5E8948",
"8. c #4C905D",
"9. c #618545",
"0. c #628B44",
"q. c #688E45",
"w. c #63854A",
"e. c #648B4A",
"r. c #6A8D4C",
"t. c #6C854E",
"y. c #659144",
"u. c #6A9246",
"i. c #669249",
"p. c #6C934B",
"a. c #6C984B",
"s. c #72944E",
"d. c #739A4E",
"f. c #77984C",
"g. c #6C8D52",
"h. c #658A52",
"j. c #6D9352",
"k. c #6E9358",
"l. c #749553",
"z. c #799654",
"x. c #759A53",
"c. c #7A9A55",
"v. c #759559",
"b. c #7B965A",
"n. c #7C9B5A",
"m. c #769B59",
"M. c #718C51",
"N. c #7CA255",
"B. c #7DA25A",
"V. c #76A052",
"C. c #7D9B61",
"Z. c #5B9961",
"A. c #92883A",
"S. c #AA853B",
"D. c #AD9338",
"F. c #B49C3B",
"G. c #B9A539",
"H. c #8DBC39",
"J. c #C9B73A",
"K. c #D3BF3E",
"L. c #99CB37",
"P. c #A3CC38",
"I. c #D3C53D",
"U. c #DFD83D",
"Y. c #FAFD3C",
"T. c #F6FD3A",
"R. c #EBE83E",
"E. c #E5DC3C",
"W. c #819D5C",
"Q. c #859C59",
"!. c #958444",
"~. c #A9834A",
"^. c #B09054",
"/. c #81A257",
"(. c #82A45B",
"). c #85AB5D",
"_. c #89AC5D",
"`. c #84AA55",
"'. c #8FB556",
"]. c #839E62",
"[. c #988564",
"{. c #AD8866",
"}. c #B79066",
"|. c #84A362",
" X c #86AA62",
".X c #8AAC64",
"XX c #8BAB68",
"oX c #92AF69",
"OX c #8CB264",
"+X c #8DB36A",
"@X c #92B56B",
"#X c #95BA6C",
"$X c #99BD6D",
"%X c #94B566",
"&X c #9BBD71",
"*X c #97B771",
"=X c #8EB171",
"-X c #A2AB79",
";X c #BEA442",
":X c #CB9E54",
">X c #D9AC58",
",X c #DAB555",
"<X c #D2B44C",
"1X c #D1AA69",
"2X c #E0AB5A",
"3X c #9CC26D",
"4X c #9DC373",
"5X c #A2C56E",
"6X c #A6CA6E",
"7X c #A3C673",
"8X c #A5C974",
"9X c #A9CC75",
"0X c #A4C57A",
"qX c #A6CA7A",
"wX c #AACD7A",
"eX c #A8C777",
"rX c #ADD17C",
"tX c #ADD376",
"yX c #B1D47D",
"uX c #B4D97A",
"iX c #D3C143",
"pX c #E7D847",
"aX c #E8D550",
"sX c #F4EB47",
"dX c #FAF943",
"fX c #EEE644",
"gX c #3A5194",
"hX c #47538B",
"jX c #778DAB",
"kX c #54A1B4",
"lX c #34B2DD",
"zX c #4CACD4",
"xX c #BFA88A",
"cX c #9296B0",
"vX c #D4B48C",
"bX c #D3B486",
"nX c #D5B792",
"mX c #CEB08A",
"MX c #AACD81",
"NX c #ACD181",
"BX c #B4D684",
"VX c #B0CF81",
"CX c #E2C49B",
"ZX c #EBD1AC",
"AX c #FCE5BE",
"SX c #F8E7BB",
"DX c #D4C9AF",
"FX c #D0D5D5",
"GX c #FDE6C1",
"HX c #F8E8C4",
"JX c #FCF4D8",
"KX c #DCDAE6",
"LX c #F9FAF8",
"PX c #EAEAE8",
"IX c #DFECE1",
"UX c #939CC3",
/* pixels */
"5.&.3.7.9XuXrXuX'.i.u.y.i.D B B m Z &.&.&.4.&.3.3.5.3.B././.n.$XyXtXrXtXi.J 3.3.4.u.y.y.a.G m B m G c.B.W..Xg.R V M b 0.0.i.y.*.m E W E i.p.p.p.",
"3.S S ! $X8X0XqXOX=.0.5.0.M p m m B J G H N M p M p B 7.w.6.^ g.5X9X7X7X4.S F F H 0.=.:.0.Z u m p B z.n.n.|.w.R V R m 4.0.5.4.F 9 R V A e.p.j.i.",
"&.G G 4.qX9XqXrX+X4.0.0.7.M p a p m ~ H Z   O t r e q q q t *   ^ eXwXwX0.S J G H 0.5.0.e.A p p p V z.n.C.(.h.R W E E 6.*.9.0.Q j 9 n B h.j.p.j.",
"5.! F J OX#X@X3X`.0.0.0.i.S M Z M M 4.W C O + ..O.e O.O.O.r * O j ].*X=X9.S J 3.4.7.7.=.0.A B m p V |..X|.+Xh.E W R W v.l.r.r.9.G W ! ! h.h.e.r.",
"i.5.y.5.B p p m ! c.n.c.n.e.0.0.5.i.n.X + q w $.<.<.#.#.#.#.o.t 6   v V 4.0.0.5.=.H H H &.B p p p A 0XwXMXVX|.~ 6.w.~ C.|.n.C.oX0X&XeX0Xw.N V W ",
"i.=.5.5.a B m p ! n.z.c.c.q.0.:.=.> d 4 6 q ..o.o.@.o.X.X.X.O.q y 4 @ = 7.0.5.=.=.H H S H V m m p D 0X9XwXBX XE ! 9.9.n.|.].n.oXyX8X7X9XJ n E E ",
"i.5.0.5.B m i p J n.z.z.z.r.:.0.5.  X q O.q O.q ..O.q O.O.....q q q O   J :.e.y.5.G 3.F J B m m p S 0X0X0XyX_.W ! F Q b.].].].oXwXMXwXwXw.N n B ",
"i.5.y.0.m a M a ~ Q.z.n.m.0.4.8 a * * @.o.o.@.@.X.o.o.X.X.@.X.o.X.X.* * 7 7 7.0.4.S H H H B p n p S eXwXwXBX.X~ ~ A Q M.z.n.b.=XBXVXMXBXh.N N a ",
"5.4.=.3.V D A B &.p.p.p.i.`.B.  X t e $.$.$.#.$.#.#.<.%.%.%.#.%.+.%.e w O   v &.*.*.*.3.4.4.9.^ ^ w.k.k.j.B.j.e.h.H 4.|.oX*X*XoX).(.(.|.k.t.g.t.",
"3.D F H Q J Q Q F 0.=.=.q..X|.+ & s s ,.2.2.2.2.2.:.;.;.1.2.2.2.2.;.X...& & 7 n &.e.5.y.e.s.c.c.n.u.i 8 9 a ! j.p.p.0.&XBXVXBX*XG ~ ~ ~ C.XXQ.(.",
"&.Q H H Q S Q ! 4.0.e.0.*.# O t y ~.{ 2X,XdXdXdX<X!.~.S.^.Y.Y.Y.I.{ <.;...q *   H e.5.5.:.s.c.l.c.g.n B a B 6.p.j.h.i.4X9X9XMXXX! H 4.4.C.C.n.W.",
"&.W H Q Q S G S 4.:.0.=.-.# . k f pXpXsXaXF.G.Y.T.pX<X{ D.Y.J.F.J.pX,.!.s q *   J 5.y.0.*.x.c.z.c.j.n m p p ~ a.i.j.j.qXwX9XVXXXV G G G k.C.n.Q.",
"3.&.S S &.&.4.&.3.=.9.9.0.# + x g dXY.Y.R.~.S.Y.Y.Y.U.{ D.Y.G.{ J.T.S.S.s q &   &.i.:.:.,.l.l.v.l.r.B m B m ! p.p.e.r.0XVXeX0X|.J ! ! J w.v.p.x.",
"i.=.7.i.4X4X4X7XB.T c ] ] < < S.{ J.J.pXpXI.<XJ.pXT.R.I.I.T.:X_ D.<XiXI.L j 1 - [.[./ / *Xw.v V V V 7.4.*.5.J G 6.7.w.C.W.W.c.).&X&X7X&Xr.F J 6.",
"i.:.0.:.7XwXqXrXB.!.} bXbX) ) <X>X' } >X<XdXsX!.<XdXY.Y.T.T.G.| ~.!.sXdX` z z g mXmX~.{ *Xt.u p v N 0.0.=.=.4.W 4.~ w.n.b.v.M..XqX7X4XwXq.D G ! ",
"i.5.e.u.3X9X7X9X).z 3 AXAX} _ Y.sX_ ~.sXfXS.S.} I.Y.fX,X>X' 1XmX}.S.sXY.D._ nXSXSXHXc l *Xq.u m m B =.*.7.0.3.E 4.6.w.m.W.Q.M._.6X7X7X7Xp.H A ! ",
"a.5.5.i.8XrXrXuX|.l l HXGX~.D.dXdX' _ T.R._ } { J.Y.fX2X>X{ 1XnX}.} dXY.F.!.CXHXGXGX) 3 oXe.8 B p M 0.0.0.0.! G F 4.w.C.].].b.XX8XwXwXwXi.S F H ",
"5.&.4.4.B.B.B. Xp.M V c c kXkXc ` 1X>XT.dXsXsXsXpX,X>X} ~.bXbXvXZXZX,X,X~.S.kXzXT ) Q..X$Xe.D G A A 3.J F H J w.e.g.g.g.M.M.^ l.OX)._.+Xr.4.w.w.",
"*.Q 3.S p u p 8 Z e.i.l x lXzXl g >X>XY.Y.Y.Y.Y.aX2X:X{ ~.mXvXnXZXSX>X>X~.~.kXlXl l M.l.m.r.=.y.:.4.v p n p 4.(.l.W.C.W V R a M =.4.-.>.l.n.n.n.",
"3.S S S B m B B Z 0.0.  X xXmX} { _ { >X>X>X>X>X:X_ [ 3 ) vXZXGXZXvXx g pXY.f X H n.c.n.b.s.0.5.y.4.m B B N ! z.b.s.].~ E E B Z 0.7.0.>.l.z.z.n.",
"3.H H H B p m B D y.=.X   mXbX!.S.{ ~.1X1X>X,X>X:X} [ z ) nXZXAXZXnXx z E.T.f . 4.c.f.n.z.p.0.5.0.4.B m n p ^ n.Q.z.C.G B B B A 0.7.5.:.z.c.c.W.",
"3.W Q G a m m u G e.0.    z x dXR.g z o - _ _ } ) x [ bXnXvX[ 3 - o ' !.fXT.f . 4.n.b.m.n.r.5.0.0.5.v m N u 4.n.M.z.v.G m m p Z 0.0.=.:.l.c.z.m.",
"0.5.5.0.+X#X@X#XB.G J     l g Y.sXg l X % | } { ) 3 [ vXmXvX| ) - . ' ' fXY.f   l.u.0.q.0.H B V B A 4.4.=.*.&.4.! J ! w.4.&.! l.3X&X3X3Xx.9.0.u.",
"a.5.5.u.8X9X8XuX XD J G A @ % ,X<X3 l KXFXhX( x | bXCXGXZX3 hXhXcXPXc x :X,Xh   s.4.0.:.0.S p n n m 0.0.q.0.*.G F H F 0.:.=.0.N.9X7X6XrXd.*.=.0.",
"y.5.5.y.4X8X8XwX).F G H H ; ; :X:Xx x LXKXgXhX/ {.nXZXGXZXT ( gXUXLXl h ^.}.h # s.9.0.5.e.Z n N p Z 0.5.0.:.4.Q H J H 4.7.h.4.N.9X6X5X9Xd.4.0.0.",
"a.i.y.:.7XwX8XBX_.Z H F F =.y.l 3 } } AXDXgXhXLXJXGXAXGXJXLXhXhXcXHX#       ! B.d.q.:.=.i.Z n n p p 5.4.3.5.J G G Q F 0.y.5.5.N.NX9X9XwXd.0.0.q.",
"5.3.J &..XOX XOXx.H 4.3.&.4.! l l ' ' AXFXhXhXLXJXGXGXAXHXLXcXgXcXSX@   X X ~ t.w.4.*.5.4.! G G ! 3.c.N.V.N.r.4.w.w.9.*.&.5.*.p.+XOX+X+X0.&.&.7.",
"m a m p D S F F &.0.7.i.7.M p n a . . { ^.HXHXSXGXAXGXGXGXHXSXHXvX' o . n p n u m Q J S F p.W.m.z.(.wX9X9XtX%Xz.c.n.n.J H Q F &.:.>.*.0.M p u m ",
"M a n M G J H D 4.y.-.y.i.Z 9 N N O O } ^.HXGXGXGXAXGXGXGXAXGXSXbX} +   n m m m M J S H J r.n.z.z.n.qX9X9XwXoXl.c.b.z.J H G Q 5.0.0.=.0.Z n m B ",
"m m m m Q Q J H &.0.0.:.7.Z p   O y y 3 z x x nXvXvXvXvXnXbX[ x x x y t +   0 p V H G ! K r.z.c.m./.7X7X7X8XOXl.c.z.n.! Q Q S 3.0.0.0.i.B p n B ",
"b p n n S G J S 3.4.5.&.J 9 0 , , 8.8.h h k k -X-X-X-X-X-X-X^ h h h 8.8.= o > p n M Q F G r.W.n.v.`.9XwXwXtX@Xz.c.c.m.H Z F F &.0.0.7.e.S n v n ",
"k.i.r.w.7.*.5.&.d.#XOX      $ I I LXLX4 4 q e w r r t e e e e t 6 5 KXLXT 2 o       G 7.9.J G G W J x.x.x.d.r.4.w.9.w. X@XOX+Xm.J &.F J w.r.r.M.",
").c.c.c.y.y.0.5.B.0X0X# . o @ I I KXIX= 5 e q q q q q q q e q q y = FXIXY 2 # . o o G *.0.Z u m p a 7.=.4.=.4.S F G F 3XyXeXBX_.S S H Q j.n.n.W.",
"(.l.c.m.0.5.5.&.N.  . l x x l I I X . z k q q q q q q q r r e q b g o   U I Y 3 z z o   G G v N m V 0.0.0.=.4.Q H Q 4.#X8XeXqX_.S G H G s.c.z.c.",
"(.v.x.m.e.0.i.5.N.  o {.{.{. ., : 4 4 K L j j j ,.L.L.L.H.j j j L F +   , : T {.{.{.@   ! M u m m B 0.=.:.:.&.S F E F 3X9X8XrXOXQ Q J Q j.c.m.W.",
"c.l.l.l.4.3.4.&.x.X . mXvXvXmX. O w q +.;.g z z F.dXT.T.R.z z z P #.+   . . ] vXvXvX@   G G M M B Z 5.4.0.4.0.e.e.e.r.@X3X#X4XB.A G S S r.s.s.l.",
"a.9.0.9.b m m p J > > ]  .] / ; > 6 6 %.;.P L j ,.P.L.P.H.k L L -.#.O   > k Y ] ]  .> ; G 4.0.0.0.5.3.H H S B.NXqXwX8Xa.*.5.0.&.m m i a S H F H ",
"q.5.:.9.m m m p ~ m.z.@ .   $ 0.5.  X #.$.<.+.q ..q w w e q @.<.%.%.+   XXeX0       A H S 5.0.0.0.5.H G G S B.rX6X6X8Xu.0.0.y.! p a m a S J G J ",
"u.5.q.7.m a B N ! m.z.z.l.0.-.5.0.    + + O & +.%.+.+.+.%.+.X...4 +     # # M.&X_.D H H F 4.0.5.0.4.J H H G B.9X3X8X3Xa.7.=.y.! m B m a A ! Q ! ",
"i.5.q.7.p u u 8 G Q.z.Q.n.p.y.i.0.        . O #.$.%.#.#.+.<.X.t 4 X X     . |.VX%XH W ! F 4.:.q.5.=.S S &.D B.BXwXyXrXi.0.=.5.G 8 p u u Z S G H ",
"3.S Q W V.N.n.c.m.7.e.7.0.H S G S V B   . - - = & * = & = j 7 > > 1 2 1 o . t.oXb.m A V B 0.s.u.f.r.*.4.&.5.w.v.j.k.g.s.s.s.r.z./.c.N.).M.r.q.u.",
"p a a B MXrXrXBX`.A W S Q m p a p b !   o < <           o < 2 - 3 3 z z o   G Q.t.v n p n r.Q.z.z.c.:.0.i.0.Z 8 u 8 v j.n.m.z..XVXwXMXwX.Xn.n.Q.",
"B m p M 4X8XqX9X XF H J ! b m m m Z G 8 7 % # C.z.Q.n.C 7 % < 3 3 3 < - k V z.n.q.n B B v w.m.m.n.l.:.0.4.5.H N B B m l.n.c.z.).wX6X8X9XQ.l.z.n.",
"m m i M 4X9XeXwX_.A H F G m a B p B ~ A V   # NX8X9X4XF G   2 x z z o   r.z.z.W.r.N n N u t.n.c.z.l.:.0.0.y.F p p a m l.z.z.f.).eX8X8X9X(.z.n.c.",
"D V B V 4X6X7XqX).J 4.&.w.V V V V Z 4.*.4.J ).0X3X0X#X9.J G ; o o o J 7.l.l.l.l.r.V m m b e.x.l.x.j.0.0.q.0.H n D a m p.n.c.s..X0XqX7X7X(.l.x.x.",
"e.4.0.7.d.c.n.z.XX7X7X7X7X`.l.z.l.B.8X8X0X0XN.=.0.0.i.l.z.z.;       S Q M n M N V 9.7.0.4.4.H J J 4.z.m.x.c.0.S H W F 9.q.w.>.s.c.n.z./.0.0.0.y.",
"i.5.y.e.f.c.b.z..X9X8X9XeX(.l.z.z.`.9X6X7XrXN.*.e.0.0.n.c.z.z.w.G G G 3.N m B p M 0.0.0.y.&.G Q G J n.m.m.n.e.S 3.W J 5.0.0.9.p.z.z.l.c.r.e.5.y.",
"y.5.:.w.l.W.b.s.).wX7X0XwX(.z.b.v.].wX8X7X9XN.*.0.0.0.m.z.c.n.q.F J J S b B n m D e.0.=.i.H H 3.S *.c.z.m.z.0.! H Q H =.5.0.5.r.c.n.c.c.0.e.*.y.",
"a.7.5.y.s.c.b.u..XyX9X9XtX_.z.W.z..X9X9XrXNXN.*.q.0.q.n.n.W.n.w.S D Z F p B m p D 5.*.*.=.&.H G S ! c.z.C.W.0.D D K S 0.i.0.q.j.m.m.c.c.q.0.y.i.",
"*.&.H &..X_. XoX.X.X_._.OXi.w.w.7.g.OX_. XOXc.i.i.u.q.w.4.4.9.u.x.B.m.x.Q B Z m 3.B.(.(.B.e.3.4.4.4.r.r.r.0.s.z.m.c.x.&.D F F *.d.s.s.s.4.H H &.",
"m p p B 7X9XwXyX'.&.0.&.0.m u n u m 5.*.*.=.a.x.n.f.m.n a B 8 m.rXwXwXrXe.A 3.G j.rXwX9XrXN.:.0.0.=.F D Q A `.rXrXwXNXW 9 B u D :.5.4.0.Z p u b ",
"B m m M 3X6X0X9X.X4.y.0.e.A n N B A e.0.0.0.s.z.b.z.v.M i B a l.wX6X5X8X7.G &.Z i.qX5X7XrXV.*.0.0.7.3.&.G A B.9X5X7X3XF a m B S 0.5.0.e.A a a B ",
"B v n V 3X9XeX0X+X=.0.5.e.M p m a D 0.:.:.4.s.z.W.n.v.B b m u k.yX9XqX8X0.G H Z j.wX8X8XNXN.4.0.0.7.S F H A B.yX7XwX6XG a n p A 0.0.:.0.D a m B ",
"Z p N A $X9XeX9X_.:.:.5.0.Z v m v Z 5.:.0.e.d.f.z.c.l.B m B p x.9X4XqX4Xw.G H J 0.qX8X8XqXV.5.0.9.7.&.F H G B.wX8X8X4XJ N V p G :.:.:.0.D i m N ",
"y.7.*.4.B.N.n. Xd.F H &.4.3.5.5.7.&.3.-.H J 5.y.q.0.u.#X#X#X4X_.q.a.u.a.r.v.l.z.l.a.u.p.j.F m B N ! &X4X3X$X`.i.p.a.u.OX#X#X4XXXs.l.m.z.4.A S Q ",
"i.5.:.u.x.z.b.m.p.G H Q S 5.0.5.0.7.Q S H W 4.:.9.=.0.eX9X9XrX(.*.:.:.:.l.W.z.m.s.=.4.0.7.D i n u K wX8X0XuX(.&.=.7.5.8X9X8XrX*Xc.b.z.m.9.G S Q ",
"y.0.0.q.l.n.m.b.r.S &.F G 5.5.5.0.0.! W J H 4.e.0.=.y.7X7X6XqX X*.0.0.e.l.m.c.c.s.0.0.=.e.Z p m p W 7X6XqX8XB.5.0.0.0.4X8X5X9X%Xl.c.c.c.7.G F ! ",
"i.0.0.0.N.z.c.B.u.G E Q 3.4.5.5.&.&.F Q S F 4.0.0.0.u.0XrX9XrX_.:.:.:.q.m.z.c.c.l.:.:.0.i.Z p m p S 9XtXqXuX_.*.0.0.0.&XrX9XrX$Xm.Q.z.c.4.G J G ",
"i.5.0.e.r.t.g.g.9.J 4.J &.i.N.d.V.d.*.9.*.0.7.4.4.4.0.@X$X%X4Xn.&.7.K J r.l.s.l.j.! 4.&.J S S M Z ! %X$X#X3XB.*.0.*.0.@X&X%X$X.Xp.l.s.x.9.! 4.w.",
"i.=.0.9.n p n u A 0.0.5.0.#XrX8XwX7Xz.n.m.z.9.G F Q H z.f.f.n.6.u N n m 7.0.0.0.&.u m u u 4.0.7.e.e.z.f.m.l.w.G H H F s.z.s.z.s.*.0.:.:.l.].c.(.",
"i.5.5.5.m B m m S y.5.0.=.#XwXqXeX$Xz.c.c.c.w.G H S J m.c.c.].^ m p B v 4.4.0.0.*.m m B p J e.0.5.r.z.m.n.Q.e.A J H F l.Q.n.n.s.0.5.0.y.l.b.z.z.",
"a.=.7.5.v m m p S 5.0.0.-.$X9X7X9X4Xz.z.c.n.w.G ! S J x.c.z.n.! u B B u e.0.0.0.H n N m u 3.0.0.=.0.z.c.c.c.r.A ! G J l.z.b.n.p.5.5.0.5.l.z.Q.Q.",
"y.>.y.7.B u u u A 0.:.*.:.3XrX7XrX#Xc.m.c.c.e.S ! F ! k.z.n.m.*.i u u n ! e.0.q.*.n B n i 3.0.5.0.y.z.n.x.c.r.&.S Q H x.z.n.z.s.:.:.:.:.l.C.z.W.",
"5.&.J &. X+X+X+X(.j.l.m.p.d.d.d.x.x.q.r.q.q.H m m Z N 7.9.! >.m.=XOX.X+Xm.u.s.x.r.&.3.3.4.&.&.&.H &.g.r.r.p.Q p M B M w.p.0.0.N.#X@X%X#X9.Z K G ",
"3.S W ! eXwXqXtX%Xz.Q.n.m.q.5.5.5.5.7.0.=.0.D a a p m A ! S D B.yXwXrXwX(.z.c.B.z.:.0.0.0.4.S Q S H =.5.0.0.S a m n N 4.0.=.=.N.rX8XwXwX! 8 a m ",
"3.S G &.3X6XwX7X@Xz.z.z.c.0.:.5.0.=.0.0.=.0.S B m m m Q H Q Z B.9X5X8X8X(.z.z.c.l.0.0.5.0.&.F J H ! 0.0.0.0.F n B v V *.0.i.4.B.tX8X6XwX4.p R m ",
"H Q S J 7X8X9XwX#Xz.c.z.c.e.q.0.0.0.0.0.q.0.Z p p n n G G 3.G B.rX8X9X9X(.z.c.c.x.0.=.0.e.J G H S J 7.0.0.0.F p n n n *.5.:.=.B.wX9X9XwX*.u B p ",
"3.Q W 3.#X#X@X#X Xl.z.f.z.0.*.4.*.5.4.=.0.4.G A S Z G W S A Z m.4X&X3X#Xz.l.l.l.r.*.4.5.4.9.! 4.3.&.0.=.*.0.! G ~ W H 4.5.*.&.x.0X4X$X7X4.b B B ",
"y.0.0.&.m v m b G 0.0.9.0.D m p m m G H H 3.p.v.v.n.j.B m B v J :.=.:.0.H W ! J S n B a b e.m.l.m.l.F H J S B.NXeXeX4XG p B p ~ c.z.z.N.~ G Q Q ",
"y.=.0.7.a a n n S y.0.0.e.S p m N B Q ! A F r.z.m.z.m.m m a p S 5.7.0.0.&.Q S H S n B B u r.Q.f.z.l.Q H G D B.wX6X7XwXS p n N ~ N.b.z.z.w.J G &.",
"0.3.=.*.B m v m D 5.=.=.5.M p p b N H F ~ F w.c.z.c.k.m p p p H y.5.5.=.S S F H S i a p u w.c.z.m.u.D H S D B.wX5X7X4XA n i n G c.f.z.c.! F S &.",
"a.y.y.y.B m Z p H a.y.i.i.S m B Z D *.&.4.3.x.).Q.(.n.A B A m &.a.y.a.i.4.3.4.&.G M B A m r.).Q.(.n.7.3.&.&.).uXyXuXuX! m Z n w.).(./.B.e.&.3.4."
};
