/* XPM */
static char *_7afe0f9e20a4724d2ae38444251f50druxWVBI3fzSJVcXY[] = {
/* columns rows colors chars-per-pixel */
"72 72 256 2 ",
"   c #020202",
".  c #030C03",
"X  c #0A0B06",
"o  c #090807",
"O  c #160B06",
"+  c #081408",
"@  c #171509",
"#  c #181D11",
"$  c #0D0F19",
"%  c #2A1B12",
"&  c #2F1B0F",
"*  c #05250B",
"=  c #1A2314",
"-  c #073A16",
";  c #153615",
":  c #272919",
">  c #382617",
",  c #26331A",
"<  c #2E2611",
"1  c #15252D",
"2  c #2F3A27",
"3  c #0F1623",
"4  c #452A1A",
"5  c #54341D",
"6  c #462A22",
"7  c #4E3829",
"8  c #6B3E23",
"9  c #703E1F",
"0  c #184416",
"q  c #0B4B17",
"w  c #33461A",
"e  c #0B5826",
"r  c #115B2A",
"t  c #2C4624",
"y  c #364928",
"u  c #3A582A",
"i  c #3B5932",
"p  c #067B2D",
"a  c #0A7A2D",
"s  c #0C7829",
"d  c #17752D",
"f  c #0A7A31",
"g  c #077931",
"h  c #0F6D2E",
"j  c #3C622C",
"k  c #386529",
"l  c #3E6433",
"z  c #3A6935",
"x  c #2D732C",
"c  c #3C681F",
"v  c #6A451E",
"b  c #73441E",
"n  c #74521C",
"m  c #445A2A",
"M  c #475A33",
"N  c #53512E",
"B  c #6D4324",
"V  c #674628",
"C  c #724323",
"Z  c #744729",
"A  c #6D5337",
"S  c #43662C",
"D  c #416633",
"F  c #436B34",
"G  c #446B3A",
"H  c #4A6D3A",
"J  c #476737",
"K  c #57693B",
"L  c #4B7335",
"P  c #4D743B",
"I  c #4D773A",
"U  c #52753B",
"Y  c #537B3D",
"T  c #597C3D",
"R  c #527636",
"E  c #55732A",
"W  c #6C6839",
"Q  c #4D4317",
"!  c #34506B",
"~  c #264C5C",
"^  c #544F50",
"/  c #675747",
"(  c #4C7245",
")  c #547B41",
"_  c #5A7D43",
"`  c #567744",
"'  c #4B6B41",
"]  c #71714A",
"[  c #6F686D",
"{  c #525470",
"}  c #2F3649",
"|  c #875D37",
" . c #885728",
".. c #8A6338",
"X. c #946E30",
"o. c #A27B3C",
"O. c #8D6D1D",
"+. c #9A7946",
"@. c #916E4C",
"#. c #A27C44",
"$. c #A37D4A",
"%. c #A57B46",
"&. c #A47C58",
"*. c #887361",
"=. c #1A882D",
"-. c #1B8A2F",
";. c #228C2E",
":. c #25922F",
">. c #238C31",
",. c #279332",
"<. c #379A36",
"1. c #33812D",
"2. c #3DA42E",
"3. c #3DA334",
"4. c #3CA338",
"5. c #56823D",
"6. c #5B843E",
"7. c #5E893D",
"8. c #5A8537",
"9. c #449B35",
"0. c #4F8C34",
"q. c #628A3E",
"w. c #60863C",
"e. c #6F933B",
"r. c #41A233",
"t. c #78B233",
"y. c #5C8442",
"u. c #5E8A43",
"i. c #5A8346",
"p. c #5A8D4C",
"a. c #618545",
"s. c #628B44",
"d. c #648B4A",
"f. c #6A8D4B",
"g. c #678849",
"h. c #659245",
"j. c #659249",
"k. c #6B934C",
"l. c #6A9346",
"z. c #72944E",
"x. c #739A4F",
"c. c #6B8C52",
"v. c #6A9355",
"b. c #749553",
"n. c #789654",
"m. c #759954",
"M. c #7A9A55",
"N. c #7C9B5A",
"B. c #78975A",
"V. c #738B4F",
"C. c #7DA258",
"Z. c #789770",
"A. c #928838",
"S. c #A6873B",
"D. c #B49B3B",
"F. c #A6973B",
"G. c #8AB738",
"H. c #ADA732",
"J. c #CCBC3D",
"K. c #CAB33E",
"L. c #94CA36",
"P. c #D6C73B",
"I. c #DDD33E",
"U. c #E2D83D",
"Y. c #FBFD3D",
"T. c #F6F93D",
"R. c #EEEE3E",
"E. c #819D5C",
"W. c #8C8254",
"Q. c #A88346",
"!. c #B99648",
"~. c #BA9456",
"^. c #AC8853",
"/. c #82A45B",
"(. c #85A85B",
"). c #8AA951",
"_. c #8E9066",
"`. c #AA8967",
"'. c #B79668",
"]. c #B99876",
"[. c #AE8F6D",
"{. c #8AAB64",
"}. c #87A764",
"|. c #8DB366",
" X c #99BD6D",
".X c #94B86A",
"XX c #9BBD71",
"oX c #95B471",
"OX c #91AF69",
"+X c #B7AA56",
"@X c #C3994F",
"#X c #CAB843",
"$X c #CCA258",
"%X c #DBAE5B",
"&X c #D6AA58",
"*X c #D7B44F",
"=X c #CCAA73",
"-X c #D1AF62",
";X c #9EC273",
":X c #9BC16C",
">X c #A3C66E",
",X c #A3C573",
"<X c #A5C974",
"1X c #A9CC76",
"2X c #A6CA79",
"3X c #AACC7A",
"4X c #A4C57A",
"5X c #ACD17B",
"6X c #ADD376",
"7X c #B2D57B",
"8X c #D7C447",
"9X c #D9D242",
"0X c #E3C94C",
"qX c #E8D647",
"wX c #E0C052",
"eX c #EBE544",
"rX c #F4EB45",
"tX c #FBFC41",
"yX c #F7F644",
"uX c #F2F54B",
"iX c #384F93",
"pX c #475797",
"aX c #6C758B",
"sX c #6B79AA",
"dX c #5F72A5",
"fX c #5F959F",
"gX c #34B3EA",
"hX c #439EC2",
"jX c #AAACB0",
"kX c #94A6A2",
"lX c #C8AD87",
"zX c #CDB48B",
"xX c #D4B48D",
"cX c #D3B388",
"vX c #D6B893",
"bX c #C9B096",
"nX c #C8A991",
"mX c #B4D684",
"MX c #ACCE81",
"NX c #8DC19F",
"BX c #DCC29A",
"VX c #E3C49C",
"CX c #D3C7B4",
"ZX c #E6CCA5",
"AX c #F1D9AF",
"SX c #FCE6BD",
"DX c #F8E5BD",
"FX c #A9D0CD",
"GX c #CACAD1",
"HX c #E3D9CA",
"JX c #FCE7C1",
"KX c #FAE8C4",
"LX c #F7ECD7",
"PX c #FBFCF9",
"IX c #EDF0F0",
"UX c #D2D8E9",
/* pixels */
"u.5.Y a.5XmX3X7X.Xs.l.h.k.L F G F L y.5.5.6.5.y.y.i.y.C././.N. X7X6X7X6Xf._ y.y.i.l.h.h.k.) F F G ) M.N.N.}.c.H P F F s.d.j.h.6.F ( ) ( k.k.k.k.",
"5.I I _  X,X4X<X|.6.s.7.s.F D D D F _ Y Y Y I Y Y L Y K M H H i.p.p.p.p.z z z z z z u u L P l F l G b.N.N.}.g.' H ' F y.s.u.7.Y l H H P d.k.x.d.",
"5.Y Y y.<X6X2X5X|.y.s.s.d.F l l l F ) Y U Y Y Y Y Y H X   * h p f p p p p p p f f e .   , P D F l H n.N.N.E.g.( ( ( P u.7.7.s.) l D J G g.v.k.x.",
"u._ Y T |. X.X X/.s.s.s.d.I L L F L y.y._ y.Y Y Y Y H X   * h p p p p p p p p a p e .   , H D F l P }.}.}.{.c.( ) ( ) v.b.k.f.a.U ( ` _ c.c.d.f.",
"j.s.s.u.F D D D _ N.M.M.N.d.s.s.s.f.N.m.M.m.k.a.J y t - - q =.-.>.-.-.-.-.-.-.-.;.d - - ; t 2 y j Y 4X3XMXmX}.) i.a.a.N.}.N.N.OX4X,X,X2Xg.F P ( ",
"j.7.7.u.G G D l _ N.n.M.M.s.s.q.q.f.M.M.M.M.s.R +   + h f =.4.3.4.4.3.4.3.3.4.3.4.,.a g e .   # l L 4X3X3X7X}.P _ a.y.N.}.E.E.OX7X,X>X<XY D P ( ",
"j.s.s.u.G D S D Y N.n.M.M.s.s.s.s.s.M.M.M.N.l.R +   + h p =.4.r.3.3.3.3.3.3.3.3.3.<.s p e .   # l I 4X,X4X7X}.) _ Y _ B.E.}.E.OX1XMX3X3Xi.D D G ",
"j.a.s.s.D D F i ` E.M.N.B.s.y.y.y.s.N.M.V.M y t - - q a p =.>.,.:.:.:.:.:.:.:.:.:.-.p p h q - - , 2 B.3XMXmX{.) _ P ) c.n.N.B.oXmXMX3XmXc.G F l ",
"u.i.6.y.P L P H 6.k.k.k.k.C.(.(.(.(.s.k.T o   * h f f f p p g g p p p p p p p p p g f p p f f r .   : v.v.N.k.d.c.T 6.}.OXoXXXOX/././.}.v.c.c.c.",
"y.I R Y _ Y _ ) T s.7.7.q. XMX3X5X Xs.y.U X   * h p p a a p p p p p p p p p p p p p a p p p p e .   # u i D _ x.k.c.s.XXmXMXmXoXR i._ _ N.}./.}.",
"5.Y Y Y Y Y Y _ y.s.d.d.7..X2X,X3X{.m m u - - q ;.-.;.;.>.>.;.;.>.>.>.>.>.>.;.;.>.>.;.>.-.-.;.d - - ; t t i i.k.v.f.f.XX1X1X5X{._ Y y.y.N.N.N.E.",
"5.) Y _ Y Y Y I y.s.s.s.8. X5X<X1XC.X   * h f =.4.4.4.3.4.4.3.3.3.3.3.3.3.3.3.3.3.4.4.3.4.4.3.<.f g e .   = ` k.k.v.b.4X3X1X7X{.P P L T B.}.N.N.",
"y.Y Y Y 6.6.6.6.y.y.u.u.s.|.2X,X,XN.X   * h p =.<.9.r.2.2.2.2.2.3.r.r.r.r.r.r.3.2.3.3.2.2.3.3.<.s a e .   = ) k.k.f.f.4XMX4X4X}.T _ T T f.n.z.M.",
"h.u.u.j.XX;X;X,X/.l G G F U _ y y t - - 0 P R 8.).).G.L.L.L.L.L.G.e.e.e.e.e.e.L.L.L.L.L.G.e.l.7.>.>.d - - ; u y J u.a.N.E.E.M./.;XXX,X;Xf.T Y i.",
"j.7.s.s.,X3X<X5X/.j F D F I U o   + h p x +.$.Q.-X%XwXyXtXtXtXtXqXS.#.$.+.$.D.uXY.Y.tXtX9XS.Q.A.9.4.<.a g e .   # _ u.N.N.B.b.}.<X4X,X3Xs.L Y Y ",
"j.u.d.s.;X2X,X1X}.j G D D Y P o   + h s x +.o.Q.&X%XwXyXY.Y.Y.Y.qXS.#.#.$.$.D.yXY.Y.tXtXqXS.%.A.9.4.<.a p e .   = _ u.N.E.B.V.(.,X,X>X,Xk.Y Y _ ",
"j.u.s.f.<X5X5X7X}.i D D D P P X   + u m E #XP.8XqXqX0XJ.#XP.tXtXR.P.8X#XQ.$.D.yXY.R.J.#XJ.8X*X#Xe.e.0.d p e .   = _ g.N.}.}.n.{.1X3X3XMXf.L I Y ",
"u.5.6.y.C.C.C.(.k.P I I I Y Y X   O B Z O.R.T.Y.tXY.qXS.#.D.T.Y.Y.Y.T.qXS.%.D.yXY.qXS.+.D.rXY.qXS.#.V.d p e .   # f.c.c.c.c.a.b.|.(.(.|.k.y.a.d.",
"5.) ) Y l j j u I d.s.s.d.6.Y @   O v B O.eXT.T.Y.Y.eXS.$.D.yXT.Y.Y.Y.qXS.$.D.yXY.U.S.#.D.R.T.eXS.%.] d a e .   # N.N.` H H D L 7.7.8.w.z.N.N.N.",
"y.Y Y R G D D G L W W ] W.W.] > > 4 o.o.S.#XJ.P.qXqXqXJ.J.J.#XJ.P.T.Y.R.J.J.P.tXtXqXQ.$.F.#XJ.J.J.J.F.S u m > > 7 W._.] / W K P s.p.s.w.b.n.n.N.",
"y.Y Y Y G D D G K @.+.^.lXzX=XZ Z  .&X%X$XQ.o.Q.&X%XwXyXT.qXS.#.D.R.Y.Y.tXtXY.Y.Y.U.S.%.#.#.+.D.yXT.P.n B C Z C @.lXzX=X+.+.] P s.u.s.q.m.N.N.E.",
"y.) ) Y D D F j K @.$.^.cXxXlXZ B  .$X%X$XQ.#.^.&X%X8XT.Y.qXS.$.!.R.tXY.Y.Y.Y.Y.T.U.S.#.%.%.$.D.yXY.P.n Z B v 9 @.zXxX=X$.$.] L h.s.7.q.b.M.M.M.",
"s.u.u.s.|..X.XXXV.A ..+.VXZXvX....X.9XqX*XQ.#.!.0XqX0X8XJ.#XQ.#.D.R.Y.T.qXqXqXP.J.#X'.'.~.$.#.D.T.Y.I.X.| @.[.[.].ZXZXlX....A b.:X X X Xn.s.s.k.",
"j.u.u.f.<X1X1X7XV.8 9 | AXKXAXQ.%.!.rXY.qXS.#.D.rXY.eXS.+.o.$.$.D.rXY.rX*X%X$X#.#.^.xXxX=X%.$.D.yXtXqXS.%.'.KXKXJXJXJXvXC b V C.1X<X<X5Xx.7.s.s.",
"l.y.u.h.;X1X<X3XV.V b | AXDXAX^.$.!.rXY.qXQ.%.D.rXY.eXS.o.o.#.#.!.R.Y.rX*X%X$X#.$.^.cXxX=X$.+.D.yXtXqXS.+.'.DXKXSXSXKXvXZ B V M.1X,X>X2Xx.y.s.s.",
"k.d.s.l.,X1X1XmX/.M N W [.].[.fXfXZ.H.D.D.!.~.#XT.Y.rXP.#XJ.#X#X8XqXqX0X@X~.~.'.'.].cXxXcXlXlX=XqXqX8XQ.+._.FXFXjX].].`.K K K M.MX1X1X3Xx.s.s.s.",
"i.) Y 6.{.|.{.|.m.Y i.T V b ^ gXgXhXA C  .&X%X8XyXY.Y.tXtXtXY.tXrX*X%X$X%.#.^.cXxXxXxXxXBXSXJXAX%X%X$X%.+.Z.gXgXhXV C V T y.y.k..X|.|.|.d.Y Y y.",
"F G D l I L R R Y s.u._ V b ^ gXgXhXA C  .&X%X8XyXY.Y.Y.Y.Y.Y.tXrX*X%X$X%.#.^.cXxXxXxXxXBXDXSXAX-X%X$Xo.#.Z.gXgXhXV C V Y Y I 5.7.7.7.s.F l j D ",
"F l D F Y Y Y L y.s.7.T > & 2 kXNXkX@...X.!.!.@X0XqXqXqXqXqXqXqXwX@X!.^.| | +.cXxXvXZXZXZXZXZXxX#.o.S.#X8X).~ ~ ~ K K K Y Y Y i.u.s.7.s.L D D G ",
"F G D D ) _ Y Y y.s.s.U X   % lXzXlXQ.$.$.$.+.Q.&X%X%X%X%X%X%X%X$XQ.%.+.C C | cXxXBXDXKXAXxXxX].C C X.uXT.H.@ . = b.N._ ) _ I 5.s.s.s.d.L l D H ",
"F j D D Y Y Y Y y.y.7.U o   % bXxXlXQ.+.o.+.$.Q.&X%X%X%X%X%X%X%X$XQ.%.o.C b | cXxXBXSXJXAXvXvX].C C O.T.Y.H.@   : M.m.T L Y R 6.s.u.s.d.P D S J ",
"v.f.f.d.a.7.7.5.m. X|.C.X   @ &.&.Q.#X#XK...| | A A ..!.!.~.~.~.^...| ..&.&.[.cXxXlX'.[.`./ / A ..| S.rXT.H.@   = a.a.}..X|.|.N._ 6.8.6.a.f.d.V.",
"/.N.M.M.d.s.s.y.C.5X3XOX+   O V C O.rXtXP.n C 5 O o & +.#.#.$.$.X.Z B | xXxXxXxXxX].C 9 5 O o % +.%.D.yXY.H.@   = Y R ;X7X3XmX|.I Y Y Y b.N.N./.",
"/.n.M.M.s.u.s.6.C.3X>X(.X   O V Z O.rXtXI.n Z 5 O o % +.$.$.%.%.@.Z C | cXxXxXxXxX].Z Z 5 O o % +.%.!.yXT.H.@   = Y y. X1X<X1X(.I Y Y T k.N.b.N.",
"/.n.M.m.d.s.j.u.C.5X1X;X` y 2 > > Q 8XqX#XZ C A *.kXaX[ [ [ | | @.&.&.'.ZXZXvX&.&.*.^ ^ { *.aX*.| | o.0XqXF.@   = P Y :X1X<X5X{.) Y Y ) v.M.M./.",
"M.b.b.b.i.y.i.Y m.,X X X;Xd.P X   & $X%X@XZ 9 @.IXPXUXpXiX{ V C | lXxXBXSXSXVXZ B ^ iXiXsXIXPXHXZ C  .&X%X+.@   = d.s..X X X;XC.P Y Y P d.z.z.b.",
"k.s.s.a.F F F j _ N.M.x.C.s.T X   & $X%X@XZ B @.LXPXUXpXiX{ V C | lXxXvXSXJXVXZ C / iXiXsXIXPXHXZ Z | &X%X+.O   , 2X,Xl.6.7.s.6.D D F l U T T T ",
"j.u.q.a.F D G l _ N.N.n.M.f.s.m u m ..o.o.....`.KXLXGXpXiXpXjXbXbXZXZXAXSXSXAXbXbXkXpXiXsXLXLXCX> & 4 V V N K g.E.<X1Xj.d.s.s._ D G D D P Y Y Y ",
"k.u.s.d.D D G D _ N.M.N.n.s.7.s.s.T V b Z +.#.'.AXKXCXpXiXdXIXPXPXJXJXJXSXSXKXPXPXGXpXiXsXHXKXbX@         , C.1X>X<X>Xk.d.7.h._ D G D D P Y Y Y ",
"k.s.s.d.l j j u U E.M.N.N.k.s.s.s.T V B Z +.+.'.AXKXCXpXiXdXIXPXPXJXJXSXSXSXLXPXPXGXpXiXaXHXKXbX+         , C.mX3X5X5Xj.u.7.q.Y i l j l L Y Y Y ",
") L Y U M.C.N.N.B.a.s.a.d.Y U U I U M N N 7 7 A =X=XlXkXkXjXLXLXLXJXJXJXSXSXKXLXLXHXjXkXjXlXlX`.X   @ u u R d.v.v.v.f.z.z.v.k.b./.M.M./.f.f.f.l.",
"F l D G MX5X3XmX(.P ) Y ) D l l l S _ T F X   & @.+.~.DXDXKXSXSXSXSXJXSXSXSXSXSXSXSXKXKXVX$.$.W X   , s.d.d.L u j u S V.N.N.n.{.MX5XMX3X}.N.N.N.",
"G D F L ;X<X4X2X{.L Y Y y.F F D D L Y Y U +   < +.+.~.DXSXKXJXKXJXJXJXJXJXSXJXJXJXJXKXKXVX$.%.W X   , u.6.s.Y J G G F b.N.M.n.(.3X<X<X1X/.b.M.N.",
"F D j F ;X1X2X3X(.I Y Y Y F D D l J y 2 t q q t A | ..`.[.].ZXZXZXZXZXZXZXZXZXZXZXvX[.[.&.| | A 0 q 0 t y J Y l l G D b.n.M.n.(.3X<X<X1X/.n.N.N.",
"L H F P XX,X,X1X(.Y y.y.a.H J H J J X   * h p x V b C B B | cXxXxXxXxXxXxXxXxXxXxX].Z C B C b N d f e .   , Y D F D F v.M.M.z.}.4X,X,X,X/.b.n.n.",
"j.y.y.a.M.M.N.M.{.<X<X,X,X/.b.n.b.f.+   * h a x V B B B B A zXxXzXzXzXzXzXzXzXzXzX].Z B B B B N d p r .   , s.I Y ) Y a.s.s.a.z.M.N.M.C.s.d.s.h.",
"j.s.s.d.x.M.B.n.{.1X<X,X` M M M M M 1 1 ~ NXNXfXN w w u k F v.v.v.v.v.v.v.v.v.v.v.p.k k u w w M NXNXZ.< % : y t t 2 t J s.s.s.k.b.n.n.M.f.d.u.s.",
"h.u.q.d.z.N.N.b.(.3X,X{.X         $ ! ! aXIXPXGXt q q a a a a a a p p p p p a p p a a a h q q ' IXPXGX7 6 > o         , u.u.u.f.N.N.M.M.s.d.7.h.",
"k.d.s.s.z.n.B.k.{.5X1X X#         $ ! ! aXIXPXGXt 0 q a p p p p f g g f f f g p f p p p h q - ' IXPXGX7 6 > o         , d.s.s.v.N.N.M.M.f.s.h.j.",
"y.Y T 6.{.(.}.|.N.y y N 4 4 4 4 4 2 ! ! ! { [ ^ N Q y h f p a p f p a p p p p p f p p p d w Q N [ [ ^ ^ } 7 4 4 4 4 4 > , , y y.z.b.k.z.y.Y Y Y ",
"F l l G 4X1X3X7Xk.    O V C C C C A ! ! ~ o   @ V v N d p p p p f a p p f f f p f a p p x V C 5 o   3 ! ! ^ V C C C C 5     # L q.u.s.s.P l j F ",
"G F D G ;X>X4X2Xn.o   O 8 9 9 9 9 V ! ! ~ o   @ 8 v N d a a a a s s s s s s s a f s s a k V v 5 o   3 ! ! ^ V B V B C 6     = Y s.s.s.s.P l l G ",
"G S D H ;X1X1X<XN.o   % &.^.`.`.`.*.1 1 1 q q 0 L E E m m m m m E G.L.L.L.L.G.S m m m m S R R S o   o 1 1 7 `.`.`.`.`.] o   = P s.u.7.s.P l D G ",
"L D D P XX1X<X<Xz.o   : lXcXxXxXxX].@   * h p =.3.r.0.V C C C v O.R.yXT.T.yX9Xn B C Z B E 9.r.1..         7 lXxXxXxXvX_.X   # Y q.s.s.s.L F F F ",
"s.i.7.y././.N.}.` o   > nXxXxXxXxX].@   * h a d <.3.0.v B B B v O.U.yXT.T.T.9Xn B C C v E 9.3.1..       o 7 lXxXxXxXxX_.o   , |.z.b.n.m.y.I U ) ",
"l.s.q.s.b.n.B.M.g.y y y / / / / / / y t t - - q <.2.9.E E E j k E t.t.t.t.t.e.c j S E E 0.r.r.1.o   # g.V.K / / / / / N ` g.}.oXM.B.N.M.a.Y Y Y ",
"j.s.s.s.b.N.N.B.f.I y.J X         # Y Y J X   * 9.2.4.4.4.<.s p s a a s a a p p f =.4.r.3.2.3.1..   y >X2XE.o         2 <X>X1X.Xb.N.M.M.y.Y Y Y ",
"j.u.s.s.M.M.M./.l.Y Y J X         = Y Y S o   * <.<.4.4.3.<.a f p p p p p f f a a =.3.3.3.4.4.x .   2 <X2X}.X         y 3X3X7X.XM.E.z.N.y.Y Y Y ",
"j.u.s.s.g.g.c.c.a.Y T Y m J U U U T 6.y.J o   + 0 0 0 0 0 r >.:.:.:.:.:.:.:.:.,.,.:.>.>.d 0 0 ;     @ M ` ` J u m u m N.XX.X X{.k.b.z.n.a.y.y.a.",
"j.7.s.a.F D D l P s.s.s.q..X5X<X5X;XM.N.` o               * 9.3.3.3.3.3.3.3.3.3.4.<.p g e .               , a.Y T T R b.b.z.M.z.7.s.s.s.b.E.M./.",
"j.u.u.i.F F D F I s.s.s.s. X3X4X3X Xn.N.` X               * 9.4.<.4.4.4.4.<.9.9.9.<.d f e .               2 f.P Y Y R n.N.N.N.z.s.u.u.s.b.M.M.N.",
"j.s.s.u.F D D l P s.s.s.7. X1X,X3XXXM.N.z.` J y X   o % % : 0 0 0 0 0 0 0 0 0 u m u t t w 4 4 4 4 4 &     2 f.I T _ Y b.n.N.M.k.7.u.s.s.b.N.M.E.",
"h.7.s.i.F j l j P s.q.7.q. X5X<X3XXXM.N.M.N.a.J +   O 6 6 >                 O 4 4 4 6 6 5 B C C C C 5 o   , g.Y Y ) Y b.m.N.N.k.q.s.7.q.b.N.M.N.",
"7.T T 6.}.|.|.|./.b.b.m.b.x.x.x.m.m.s.f.s.s.Y i X   O 6 4 > o       o     o O 6 6 6 4 4 5 B C C B Z 5 o   , Y F H F F s.k.g.s.C..X.X.XXXa.L R T ",
"y.Y ) _ <X3X3X6X.Xb.N.N.M.s.u.u.s.u.u.s.7.s.L l u u y # @ : u _ }.}.}.}.g.g.K # @ & 5 8 8 B C 8 & & > M M U Y l D D D y.s.u.7.C.6X<X3X5X_ k l D ",
"y.Y U T :X>X3X,XOXb.M.M.M.s.q.s.s.7.s.s.7.s.P G G D u X   = L M.1X,X,X<X/.n.g.X   & B C C b C 5 o   : y.s.s.Y D G S H 6.s.j.6.C.1X<X,X3Xy.l G D ",
"Y ` U Y ,X1X3X5X Xn.M.M.M.s.s.s.s.s.s.s.s.s.I l D D u X   = Y C.5X<X1X1X/.n.f.X o % 8 B B B B 5 o   , s.s.s.Y l D D D 6.q.s.7.C.3X1X<X3Xy.k G D ",
"y.) U _ .X.X.X.X}.b.b.b.m.s.y.y.y.y.y.y.u.y.U L P L P i y M L m.,XXX:X XM.b.b.K J y & & & & & < M u U u.7.s.y.U ) ` ) i.y.8.6.m.4XXXXX,Xy.S G F ",
"j.s.s.6.F D F S U s.s.s.s.L F D F F Y Y Y _ f.B.B.N.v.F F G D Y s.7.q.s.Y Y Y Y U u o         # b.b.Y Y _ I C.MX2X1X;XU l G l _ M.M.n.M._ Y ) _ ",
"h.7.s.s.D l D l U s.s.s.d.P l D D G _ _ Y U f.N.N.M.B.F D D l ) s.s.s.s.Y ) Y Y P u           = M.m.Y Y Y L C.5X>X<X1XU l D D _ M.n.n.m.i.Y Y _ ",
"h.y.7.6.G D j D L s.7.7.s.L l D D F Y Y _ U s.M.n.M.b.F l D l Y s.u.u.7.Y Y Y Y P k y y t J K _ n.l.R Y Y L C.5X>X4X>XU l k D T M.b.M.M._ R I Y ",
"k.s.j.h.G F L D _ k.h.l.k.I F F F I y.5.i._ z./.E./.N.P F P F Y k.j.l.j.y.y.y.6.Y G G P F f./././.N.y.y.5.Y (.7X7X7X7X) F L D i././././.d.6.y.y."
};
