/* XPM */
static char *d0fb101d72764ddbe51f6f6916d320577qgiTuZX8CfHs3H3[] = {
/* columns rows colors chars-per-pixel */
"72 72 254 2 ",
"   c #020202",
".  c #0A0503",
"X  c #020A02",
"o  c #0A0907",
"O  c #170D08",
"+  c #061607",
"@  c #16160B",
"#  c #161B13",
"$  c #090E11",
"%  c #24140C",
"&  c #251908",
"*  c #291A14",
"=  c #321C15",
"-  c #331A0E",
";  c #06290C",
":  c #0A380E",
">  c #1C2716",
",  c #0B3512",
"<  c #0B3C13",
"1  c #063A16",
"2  c #153614",
"3  c #102E0F",
"4  c #252919",
"5  c #382317",
"6  c #27341C",
"7  c #2B270A",
"8  c #121B26",
"9  c #112630",
"0  c #2E3822",
"q  c #353B25",
"w  c #292829",
"e  c #472A1A",
"r  c #4A331B",
"t  c #58351E",
"y  c #6A3E1D",
"u  c #4B2922",
"i  c #462B23",
"p  c #543323",
"a  c #693D23",
"s  c #09420E",
"d  c #08460D",
"f  c #0A4312",
"g  c #074815",
"h  c #154717",
"j  c #095618",
"k  c #124F13",
"l  c #2C4B1D",
"z  c #1B6C1D",
"x  c #256D1D",
"c  c #0C5B25",
"v  c #145324",
"b  c #374829",
"n  c #39592B",
"m  c #2E4F29",
"M  c #0B6926",
"N  c #156C28",
"B  c #0B742C",
"V  c #067B2D",
"C  c #097B2D",
"Z  c #087729",
"A  c #15762B",
"S  c #097A31",
"D  c #097832",
"F  c #147533",
"G  c #116F32",
"H  c #266726",
"J  c #3C632D",
"K  c #36642B",
"L  c #267724",
"P  c #3E6532",
"I  c #3C6737",
"U  c #2C7230",
"Y  c #72481C",
"T  c #59473B",
"R  c #4E502E",
"E  c #6E4325",
"W  c #694728",
"Q  c #724324",
"!  c #754827",
"~  c #6E5231",
"^  c #43672E",
"/  c #426533",
"(  c #436A34",
")  c #4A6C35",
"_  c #446B3A",
"`  c #4A6D3A",
"'  c #436538",
"]  c #4B7336",
"[  c #4C743B",
"{  c #4D7839",
"}  c #52753C",
"|  c #537B3D",
" . c #597D3D",
".. c #537937",
"X. c #546935",
"o. c #726738",
"O. c #43431F",
"+. c #26394E",
"@. c #354F6E",
"#. c #4C7344",
"$. c #547B41",
"%. c #5A7D43",
"&. c #557642",
"*. c #4C6D47",
"=. c #786B57",
"-. c #706E47",
";. c #747872",
":. c #50514F",
">. c #8D6F36",
",. c #A1793C",
"<. c #825C24",
"1. c #987846",
"2. c #8A7251",
"3. c #A37C46",
"4. c #A67F5D",
"5. c #847864",
"6. c #1A862C",
"7. c #1A8731",
"8. c #298935",
"9. c #299333",
"0. c #399935",
"q. c #328D2E",
"w. c #3CA42E",
"e. c #3DA333",
"r. c #3BA338",
"t. c #56813E",
"y. c #5B843D",
"u. c #5E893D",
"i. c #568434",
"p. c #419838",
"a. c #4A902B",
"s. c #618A3F",
"d. c #638439",
"f. c #6F9032",
"g. c #41A333",
"h. c #41A43A",
"j. c #4AA52A",
"k. c #65A838",
"l. c #5C8342",
"z. c #5E8943",
"x. c #5A8345",
"c. c #618545",
"v. c #628B44",
"b. c #63854A",
"n. c #648B4A",
"m. c #6A8D4C",
"M. c #698B47",
"N. c #659245",
"B. c #6A9346",
"V. c #659249",
"C. c #6C934C",
"Z. c #6C984B",
"A. c #72944E",
"S. c #729A4E",
"D. c #6A8C52",
"F. c #6D9253",
"G. c #749553",
"H. c #799654",
"J. c #769954",
"K. c #7A9A55",
"L. c #7C9B5A",
"P. c #79975A",
"I. c #758A51",
"U. c #7BA258",
"Y. c #769764",
"T. c #A7883B",
"R. c #B19932",
"E. c #B4A837",
"W. c #919D36",
"Q. c #C9B535",
"!. c #96CB37",
"~. c #A3D338",
"^. c #FAFD3C",
"/. c #F6FA3D",
"(. c #F1E83F",
"). c #DBCF3D",
"_. c #819D5B",
"`. c #8B8F4B",
"'. c #B18E4E",
"]. c #82A45B",
"[. c #85A85B",
"{. c #8EAA4B",
"}. c #B5A952",
"|. c #8E9668",
" X c #B8966E",
".X c #8AAC64",
"XX c #87A765",
"oX c #8CB366",
"OX c #99BC6D",
"+X c #94B86B",
"@X c #99BB71",
"#X c #93AA6E",
"$X c #B3A678",
"%X c #C79D56",
"&X c #C19F46",
"*X c #D9BA4B",
"=X c #DBAD5B",
"-X c #D7AA57",
";X c #DBB653",
":X c #C9AE53",
">X c #D3AD6D",
",X c #E0AA5B",
"<X c #9EC373",
"1X c #9DC36D",
"2X c #A3C76E",
"3X c #A3C573",
"4X c #A5C974",
"5X c #A9CC76",
"6X c #A6CA7A",
"7X c #AACC7A",
"8X c #A4C67A",
"9X c #ACD17B",
"0X c #ADD376",
"qX c #B2D67B",
"wX c #ADC843",
"eX c #D3CE42",
"rX c #E4CA4B",
"tX c #E9D748",
"yX c #E6C952",
"uX c #EAE644",
"iX c #F4EB47",
"pX c #F8F744",
"aX c #E7F843",
"sX c #ECEF61",
"dX c #384F95",
"fX c #72798E",
"gX c #49538A",
"hX c #64989E",
"jX c #2CABE0",
"kX c #53B8E6",
"lX c #BDA886",
"zX c #BEAB95",
"xX c #969FB4",
"cX c #94AB9C",
"vX c #C8AC86",
"bX c #D3B58D",
"nX c #D3B588",
"mX c #D6B893",
"MX c #CEB38E",
"NX c #AFD282",
"BX c #D6C39C",
"VX c #E8D5AD",
"CX c #FCE5BC",
"ZX c #F8E3B9",
"AX c #E5E1B4",
"SX c #E5D695",
"DX c #A3ADCF",
"FX c #9FADD4",
"GX c #B6DCC4",
"HX c #FAE8C3",
"JX c #F9EFDA",
"KX c #F9F9F9",
"LX c #F2EEE7",
"PX c #D5E1C7",
/* pixels */
"z.t.| b.9XNX7XqX+Xv.B.N.C.] ) _ ( ] x.t.t.y.t.l.l.x.l.U.U.].L.@XqX0XqX0Xn.%.l.x.z.B.N.N.C.$.( ) ' &.L.L.L..XD.` ] ( ^ v.n.V.N.y.( #.$.#.C.C.C.C.",
"t.{ { %.OX3X8X4XoXy.v.u.v.) / / / ) %.| | | { | | ] | J.K.K.G..X2X4X3X3Xl.{ ..{  .s.u.s.v.[ P ( P _ G.L.L.XXb.*.` *.( z.v.z.u.| J ` ` [ n.C.A.n.",
"t.| | l.4X5X6X9XoXz.v.v.n.) P P P ( $.| } | | | | |  .G.K.K.G.oX9X5XoXU.{ / ] ( ] t.| ..} X.R X.X.X.I.I.I._.b.*.&.*.[ z.u.u.v.$.P / ' _ n.F.C.A.",
"z.%.|  .oXOX+XOX].v.v.v.n.{ ) ) ) ] l.l.%.l.| | | | y.L.]._._..XOXOX#.G F c h f U p.p.X.E E <.1.1.1.1.1.-..XD.*.&.#.&.F.G.C.m.c.} &.&.%.D.D.n.m.",
"V.v.v.z.) / / / %.L.K.K.L.n.v.v.v.m.L.J.K.K.C.v.v.z.N.<X6X7XNXJ.n ( H D C j f s L g.e.X.Q E >.3.3.3.3.1.`.NXXX%.x.b.b.L.XXL.L.#X6X3X3X6Xb.( [ #.",
"V.u.u.z.' _ / P %.L.H.K.K.M.v.s.s.m.K.K.K.K.M.u.z.| { U.U.U..Xn.P I U 7.6.c f s L r.0.d.>.>.3.'.'.'.E.E.}.OX_.-. .-.%.L.XX_._.oXqX4X2X4X| / [ *.",
"V.v.v.z._ / ^ / | L.H.K.K.v.v.v.v.M.K.K.K.L.B.s.v.U G F 8.p.0.p.p.p.0.r.r.z s f L r.g.{.-X-X-X-X-XyXiXpXtX:X:X'.1.1.-.P._.XX_.#X5XNX6X7Xx.' / _ ",
"V.c.v.v./ / ) P &._.K.L.P.v.l.l.l.v.L.K.H.L.C.v.v.U C V 9.g.e.r.r.e.e.e.e.x s s L e.p.{.=X=X=X=X-XrX^.^.tX=X,X%X3.1.o.D.H.L.P.#XNXNX7XNXD.' ( P ",
"z.%.y.l.[ { [ ` y.C.C.C.C.U.[.[.].c.| #.[ [ ( I I U 6.7.9.g.g.e.e.r.e.r.r.L s s L g.e.{.rXrXrXrXrXtXiXiXtXrXrX*XE.E.`.-.-.I.@X#X].].].XXF.D.m.D.",
"l.{ ..| %.| %.$. .v.u.u.s.OXNX7X` 2 f c G G G B N 8.r.0.r.e.e.e.e.e.e.e.r.N s s L g.g.~.pX/./.pXpXtX;X;XrXpXpX/.iXiX*X1.1.-.NX+X..x.%.%.Y.XX].XX",
"t.| | | | | | %.l.v.n.n.u.OX6X3X_ < f M V V V V V 9.r.g.e.e.r.w.e.e.e.e.e.z < s L e.w.~.^.^././.pXtX=X=XrXpX^./.pX^.).,.3.2.7X.X%.| l.l.Y.L.L._.",
"t.&.| $.| | | { l.v.v.v.y.oXoXoXK g j M C C S 6.6.9.e.e.r.e.r.e.e.g.0.q.q.L k j a.k.k.wXuXiXpX^.^.tX-X=XrXiX(.iXiXiXrXR.R.T.#XI.X.[ ] ..P.XXL.L.",
"l.| | | y.y.y.y.l.z.z.z.v.m h h M Z B C C C 9.0.0.e.e.e.e.e.r.e.e.g.z d d L p.0.{.:X:X;X*X;XtX/.^.tX=X=X;X;X;X;X;X;XrXuXuXeX>.1.-.%. . .m.G.A.K.",
"N.z.z.V.@X<X<X3X].P _ _ ( h f d M V V V C C 9.w.w.e.e.e.e.w.g.e.w.r.z d f L e.w.{.=X=X=X=X-XtX^.^.tX=X=X=X=X=X=X=X=XyX/./.).,.3.2.@X3X<Xm...| x.",
"V.u.v.v.3X7X4X9X].J _ P J v g g M C V C D C 9.e.e.0.0.0.0.q.0.0.w.e.N s f L e.e.{.;X*X*X;X*XtXiXiXrX%X%X-X-X-X-X%X%X*XtXtX*X>.2.2.3X3X7Xv.] | | ",
"V.z.n.M.1X6X4X5XXXn l h h M B B C V V C V C 9.e.h.z d d d d g L e.e.x s s L r.e.!.pXpXpXpXpX*XT.T.>.! ! ,.=X=X'.! ! ! Y Y ~ I.].2X3X2X8XC.| | %.",
"V.z.v.m.4X9X9XqXXXn h f f M V V C C C C C C 9.w.h.z s f s s f L e.e.x f d L h.w.~.^./.^.^./.*XT.3.>.Q Q ,.=X=X'.Q Q Q Q E ~ H..X5X6X6XNXm.{ { | ",
"z.t.y.z.U.U.U.L.c./ v g g M S V C V C C C C 9.0.0.z k j j j j L 0.0.z k j q.k.j.~.iXiXiXuXuX:X'.'.1.~ ~ 1.'.'.1.W W W W W T b.G.oX[.[.oXC.l.c.n.",
"t.$.$.| P J J > o @ c B B B V C C C C V V C C C A 8.0.0.0.0.0.x k k L 0.0.!.aX(.tX;X;X&XT.T. XvXMXvXvXvX2.% O O.G.P.P.&.` ` P ] u.u.i.d.G.L.L.L.",
"x.| | { _ / / #   X c C V V V C C C C C V V V D Z 9.e.w.w.e.w.z < < L g.g.~.^.^.tX-X=X'.3.3. XMXbXbXbXbX=.o   0 P.G._.&.#.#._ [ v.z.v.d.G.H.H.L.",
"x.| | | _ / ( #   X c C V C C V C C C C C C C V V 9.0.0.0.0.0.N g g A r.0.~.pX^.tX-X=X%X'.'.>XmXmXmXbXbX2..   0 L.H.L.} _ #._ [ v.z.v.s.G.L.L._.",
"l.$.$.| / / ( #   X c C C C C V V C C D D C C V V C C A c d g M B Z C A A !.pX/.tX=X=X>XnXMXSXZXZXVXbXbX2.o   0 A.K.G.} ( ( P ] N.v.u.s.G.K.H.K.",
"v.z.z.v.oXOX+Xq   X c C V C C V V V V V V V V C C C C F j d f M C S C V Z !./.^.tX=X=X>XnXnXVXHXHXVXbXmX2.o   6 %. .%.x.z.y.%.G.1XOXOXOXJ.v.v.C.",
"V.z.z.m.1XOXOXl X + M C C C V V Z M B B B B V V V B B B c g g M B B L q.U !.uX(.rX*X*X>XmXmXBXBXBXmX>XvX=.o   4 ..| { v.s.s.c.U.5X4X4X9XS.u.v.v.",
"B.z.z.v.R @ # , , 1 M V C C C Z j d d d g g M C D j d g M B B j g d d.:X}.'.'.T.*XpXpXsXZXCX5.4 4 r ~ ~ r     4 | | | x.z.n.l.U.5X4X2X6XS.z.v.v.",
"C.n.v.v.6     , s g M V V V V B j f f f f f M C C j < s M V B j s : >.=X=X'.3.`.Q.^.pXsXCXHX=.$ . - E Q e     6 | $.] v.v.v.v.U.NX5X5X7XS.v.v.v.",
"x.$.| | 6     , s f M C D Z B N g , , < f f c B B v m m U 8.8.H l l >.%X-X'.'.'.*XpXiXSXCXHX5.w # q T T i @ @ q %.%.c.u.y.z.l.C.+XoXoXoXn.| | l.",
"( ' / J >     , s f M V B j g f + X X ; s f f d f #XAXVXAXAXAXBXlXlX1.! ! '.=X-X'.T.T.>XCXHXJXLXLXxXgXgXfXzXlX=.o o b  .| %.{ t.u.u.u.v.( P J / ",
") P / ) >     , s f M V Z j f < +   X ; s f f f < #XHXHXHXHXCXVXbXmX1.Q Q ,.=X=X'.3.3.nXCXHXJXKXKXDXdXdXfXmXbX2.    0  .| | | x.v.v.u.v.] / / _ ",
") _ / / >     , f f M V Z g , , # + # 3 , , , , 3 |.AXVXZXHXHXVXmXmX4.Q Q T.;X;X'.1.1.nXCXCXJXKXKXDXdXdXfXmXbX5.    0 %.$.%.{ t.v.v.v.n.] P / ` ",
"( J / / #     , f f M V B ; X + m ( } 6 X X X X X ~ '.'.mXHXCXZXZXZX'.Q Y E.iXiXR.! !  XHXHXJXKXKXFXdXdXfXmXbX5.    0  .] | ..y.v.z.v.n.[ / / ' ",
"F.m.m.c.#     , f f M V B ;   X n $.C.0         . W 3.,.nXCXCXHXHXHX XQ Q E.pXpXR.E Q  XHXHXJXKXKXDXdXdXfXMXbX5.    6 XX+XoXoXP.%.t.i.t.c.m.n.D.",
"].L.K.G.6 @ @ , : < M B B ;     / l.U.R # # X     R 2.2.vXVXVXPXPXPX|.! ! Q.^./.R.a Q  XHXHXJXKXKXDXgXgXfXlX$X=.O @ 0 1X9X6XNXoX{ } | | G.L.L.].",
"].G.H.K.v.y.y.3 X X 1 g f +     n c.J.G.G.m.6     O % & ~ '.'.hXkXkXcX%X-XtXpX/.R.a Q  XHXCXHXHXHXVXzXMX5.4 4 0 ` [ %.OX4X4X5X[.{ | | } C.L.G.L.",
"].G.K.J.n.v.v.>     , s < +     n c.K.L.L.K.0         o W 3.1.hXjXjXcX=X=XtX^./.R.a E  XHXCXCXHXHXVXbXmX=.o   4 } [ | OX5X4X9X.X$.| | $.F.K.K.].",
"K.G.G.G.x.l.x.4 @ + 3 , 2 + o @ / l.m.F.C.C.b 7 7 & % & W 1.2.hXjXjXcX;X*XrXuXuXR.! ~  XZXZXZXZXZXBX$XlX=.@ @ b v.n.M.+XOXOX<XU.[ | | [ n.A.A.G.",
"C.v.v.c.( ( ( J } b.# X + ) }  .v.| ^ / ^ ^ W.eXeX:X}.%X~ @ % 8 9 9 {.iXiXR.Y <.'.vXvXbXmXmXmXmXmX2.4 * 0 ) G.6X6X6X8XB.d.u.v.y./ / ( P }  ... .",
"V.z.s.b.) / ' P %.H.#     %.v.v.v.l.P _ ' / E./.pXrX=X=XW           W.^./.R.Q Q '.bXbXbXbXbXbXbXmX=.o   0 ] U.9X2X4X5XV.n.v.v.%./ ' / ' [ | | | ",
"C.z.v.n./ / ' / %.H.6 o @ c.u.v.v.y./ ' / / {.uXuX*X%X%XR X X       W.pXpXT.y E 2.vXlXvXvXvXlXlXvX-.@ $ b } U.5X2X4X2XC.n.u.N.%./ _ / ' [ | | | ",
"C.v.v.n.P J J n } _.K.H.L.C.v.v.v.z.J / / P b & @ @ % @ 3 2 2 +     >.*X*X~ O o > l l l l l > @ @ b ] } | ] U.NX7X9X9XV.z.u.s.| n P J P ] | | | ",
"$.] | } K.U.L.L.P.c.v.c.n.| } } { [ [ [ { ` q           ; f < +     <.=X=X~ o   ; f s s s s ;     ' y.l.t.u.n.F.F.F.m.A.A.F.C.G.].K.K.].m.m.m.B.",
"( I ' _ NX9X7XNX[.[ $.| $./ P P P ^ %. .| { b     o O O 3 g g ; + + o.%X}.~ & & 3 < , f g g ;     b  .l.n.v.] n J n ^ D.L.L.J..XNX9XNX7X.XL.L.L.",
"_ / ( ) 1X4X3X6X.X] | | x.( ( / / ] | | x.] b     5 t t l M M M c c 2 7 7 o.'.'.W X X 1 M G ,     . $ $ b v.| ' _ ' ( G.L.K.H.[.7X4X4X5X].G.K.L.",
"( / J ( <X5X6X7X[.{ | | | ) / ' P _ &.{ } ] b     e Q E J D C V V D ,   . o.=X=X~     f V D 1 X         6 v.| P P ' / G.H.K.H.[.6X4X4X5X].H.L.L.",
"[ ` ) [ @X4X3X5X[.| l.l.c.] ` ` ` ` l.l.} } q $ $ 5 a a n A A A V V , o O o.%X%X~     f V C h 7 7 @ + + 6 c.] P ) / ( F.K.K.A..X8X3X3X3X].G.J.J.",
"V.z.z.c.K.K.L.K..X3X3X3X3X].G.G.G.U.8X&.> > w +.+.w % % r R R H C C m r t r r r &     1 C B f.E.E.f.L U m 6 4 b | $.| c.v.v.c.A.K.L.K.U.M.n.v.N.",
"V.v.v.n.S.H.P.H..X5X4X5X6X].G.L.K.].5Xb   o +.@.@.9     e Q W K C Z ^ E E =           g V Z !.aXaX~.g.h.H X   4 %.| | v.v.v.v.C.G.H.G.H.m.n.z.v.",
"N.z.s.n.A.L.L.G.[.7X3X3X6X].G.L.G.XX6XR O O +.@.@.9 X X e Q E n A A ^ E a 7 X X o $ $ h G B {.aXaX!.w.r.x X   6 | $.| z.z.z.z.m.L.L.K.H.v.n.u.N.",
"C.n.v.v.A.H.P.C..X9X4X5X9X[.K.L.b 4 6 =.|.|.p 8 8 3 3 3 r Q Q W R R 5 % % 2 c v Y.DXzX=.; ; x a.j.j.r.e.x X   4 ] ] { v.V.v.v.F.L.L.H.K.m.v.N.V.",
"l.|  .y..X[.XXoX.X.X[.[.oXm.c.b.>   o 5.bXvXT     ; s f O.Q Q E Q ! -     f C B cXKXKX;.    f F V 7.r.g.H X   6 P.K.J.t.{ ....z.A.G.C.A.l.| | | ",
"( P P _ 8X5X7X9XoXt.v.y.z.( J P >   o 5.MXvXT     ; d s b W W W W W -     g F F cXKXKX;.    g G B 8.r.e.H X   b 7X7XNX#.I _ J ] s.z.v.v.[ P J ( ",
"_ ( / _ <X2X3X6XoXy.V.v.n.[ / _ 6     4 q q > , ; N q.8.a.i.i.i.i.i.6 X o ;.GXGXcXfXfX@.+.+.9 ; ; j 7.6.j X   q 4X3X1X} ' ( / } v.v.v.v.[ P P _ ",
"_ ^ / ` 1X5X6X6X+Xy.v.z.n.] P ' >           ; f s L g.e.e.e.e.w.e.r.h   o cXKXKXxX@.@.@.@.@.9     1 D V g X   q 4X7X2X} P ( P [ v.z.u.v.[ P / _ ",
"] / / [ @X5X4X4X[.s.v.v.v.] ^ ( >           ; < < L e.r.r.e.e.e.e.e.h X + cXLXLXxX@.@.@.@.@.9     1 F F h X   q 3X8X3X$.' ` / | s.v.v.v.] ( ( ( ",
"v.x.u.z.].].L.XXA...| | l.y.z.x.%.) ` >     X + + j 6.6.9.g.e.r.r.e.L v c m :.:.T T T T T T 4     X ; ; +     6 C.B.B.oXOX+X@XoXA.G.J.J.l.{ | $.",
"B.z.s.v.G.H.P.K.m.| | %.| z.v.v.v.z.| 6           g C Z 9.g.e.r.r.e.6.V S 1   . 5 Q E W E Q 5                 4 u.z.v.3X5X4X9X+XK.P.L.K.c.| | | ",
"V.v.v.v.G.L.L.P.m.{ x.| | z.v.v.v.z.%.6       . X h D V 9.r.r.r.e.r.6.C S 1   . 5 Q Q ! Q Q 5       .         6 c.z.v.OX1X2X4X+XG.P.K.K.l.| | | ",
"V.z.v.v.K.K.H.].B.| | $.%.l.z.z.y.t.| 6     = r r > , ; c 7.6.9.e.e.0.9.9.h   o -.MXMXMXMXMXT o   O = = = = = * 6 > > 4 6 X.7XOXK._.A.L.l.| | | ",
"V.z.v.v.n.b.D.D.c.| y. . .C.U.S.U.S.y.6   . e Q ! -     g V C 9.e.e.r.e.e.k X o 5.HXHXHXHXHX=.o   % u u i u u =           4 OX.XC.G.A.S.c.l.l.b.",
"V.u.v.c.( / / P [ v.v.v.s.OX9X8X9X1XK.q     e Q W =     g D B 8.r.e.r.0.p.h   o 5.HXZXCXCXHX=.o   % u u u u u = .         4 H.C.u.v.v.v.G._.K.].",
"V.z.z.x.) ) / ( { v.v.v.u.OX7X3X6XOXH.b     e Q Q r = 5 > ; ; 3 3 3 3 2 2 +   X w T T T T T 4     % i u p a a t r p =     4 L.A.v.z.z.v.G.K.H.L.",
"V.v.v.z.( / / P [ v.v.v.u.OX4X4X6X@XK.q     e Q Q t e u %                                         % i e t E Q Q Q Q e .   4 K.C.u.z.v.v.G.L.K._.",
"N.u.v.x.( J P J [ v.s.u.s.OX9X8X7X@XK.b   o e E W p e i %                     X           X       % i i t W E Q E W e o   6 L.C.s.v.u.s.G.L.K.L.",
"u. . .y.XXoXoXoX].G.G.J.G.S.S.S.J.J.v.b.X.X.0 % % 5 u u 5 = = @     R G.b.%.c.b.%.) ) ` ` ) 6     o O O O % % & % % 4 ` }  .v.K.OX+X+X@Xc.] ..} ",
"x.| #.%.4X7X7X0X+XG.L.L.K.v.z.z.v.z.z.v.u.v.6     = e e e u u %     P.7X].L.K.K.G.v.v.v.v.l.0                       > z.v.z.u.U.0X4X7X9X%.J ' / ",
"x.| }  .1X2X6X4X+XG.K.K.K.v.s.v.v.u.v.v.u.v.6     * i i u u i %     I.4X].H.K.K.G.v.v.z.v.y.b                       6 y.v.V.y.U.5X4X3X7Xl.P _ ( ",
"| &.} | 8X5X6X9XOXG.K.K.K.M.v.v.v.v.v.v.v.v.) m m 4 O O O O O .     I.5X].H.L.K.G.v.z.v.v.t.] / / / ) ) / ) / m n n P y.v.v.u.U.7X5X4X7Xl.J ' / ",
"l.$.} %.+X+X+XOXXXG.G.G.J.v.l.z.l.z.z.z.z.z.} ] ] 4                 b.OXK.G.G.G.m.y.y.x.x.l.l.l.x.t.v.z.u.v.l.} $.&.$.x.z.y.y.J.3X@X@X3Xl.^ _ ) ",
"V.v.v.y.( / ( ^ } v.v.v.v.] ( / ( ( | | | %.m.P.P.b                 ^ v.| | | | } / / / ( b.K.J.K.G.| | %.{ U.NX6X5X<X} P _ P %.K.K.H.K.%.| $.%.",
"N.u.v.v./ I / P } v.v.v.n.[ P ' / _ $.%.| } m.L.L.m.&.m m m m n / / z.v.| $.| | { / _ ' J m.L.H.K.G.| | | ] U.9X2X4X5X} P / ' %.K.H.H.K.x.| | | ",
"N.l.u.y._ / J / ] v.u.u.v.( P P / ) | | %.} v.H.H.H.G.( / / / | v.z.z.u.| } | | { J / / J b.L.G.H.B...| | ] U.9X2X8X2X} P J / } H.G.K.K.%.{ { | ",
"Z.v.V.N._ ) ] / %.C.N.N.C.{ ) ) ( { l.t.x.%.A.]._.].L.[ ) [ ( | C.V.B.V.z.l.l.y.| ) _ [ ( m.].].].L.l.l.t.| [.qXqXqXqX$.( ] / x.].].].].n.t.l.l."
};
