/* XPM */
static char *_e25e6e35c5043bfd301aa0090fb31f12IKiWTHCuQC9wjcb[] = {
/* columns rows colors chars-per-pixel */
"72 72 254 2 ",
"   c #020202",
".  c #0C0502",
"X  c #010A02",
"o  c #090A07",
"O  c #130A07",
"+  c #021404",
"@  c #061A08",
"#  c #18170A",
"$  c #181B12",
"%  c #090D16",
"&  c #28170B",
"*  c #2A1B16",
"=  c #321B12",
"-  c #04250A",
";  c #06260A",
":  c #08370E",
">  c #123C0E",
",  c #072C11",
"<  c #1D2415",
"1  c #043412",
"2  c #0B3D11",
"3  c #093914",
"4  c #143B16",
"5  c #182305",
"6  c #272706",
"7  c #242B18",
"8  c #392418",
"9  c #27371B",
"0  c #32340D",
"q  c #101B28",
"w  c #132C2A",
"e  c #2C3A21",
"r  c #313624",
"t  c #472C1A",
"y  c #52321D",
"u  c #4D371A",
"i  c #472B24",
"p  c #4E3625",
"a  c #683F27",
"s  c #743F1F",
"d  c #0B430E",
"f  c #07440D",
"g  c #17450C",
"h  c #064411",
"j  c #0A4211",
"k  c #084919",
"l  c #08561B",
"z  c #155A17",
"x  c #174313",
"c  c #264117",
"v  c #2D540D",
"b  c #1B681D",
"n  c #0C5924",
"m  c #164B23",
"M  c #364828",
"N  c #265E21",
"B  c #265423",
"V  c #3A582B",
"C  c #304A27",
"Z  c #0A6C26",
"A  c #0B6727",
"S  c #0C762C",
"D  c #067B2D",
"F  c #097A2D",
"G  c #07772E",
"H  c #147629",
"J  c #0C7A31",
"K  c #097831",
"L  c #146D2B",
"P  c #3D622D",
"I  c #376529",
"U  c #2B7C27",
"Y  c #277924",
"T  c #3E6433",
"R  c #3F6439",
"E  c #2B702E",
"W  c #3F6815",
"Q  c #484A14",
"!  c #72481E",
"~  c #4D6C15",
"^  c #716F1A",
"/  c #454D2D",
"(  c #5A4729",
")  c #4F5627",
"_  c #465A2B",
"`  c #495B35",
"'  c #595833",
"]  c #584C33",
"[  c #6D4323",
"{  c #684728",
"}  c #724324",
"|  c #744728",
" . c #6E562E",
".. c #43672D",
"X. c #547A2E",
"o. c #426633",
"O. c #436A34",
"+. c #426639",
"@. c #446B3A",
"#. c #4A6E3A",
"$. c #4A6835",
"%. c #566838",
"&. c #4B7335",
"*. c #4D743B",
"=. c #4E7839",
"-. c #51763C",
";. c #537B3D",
":. c #597C3D",
">. c #537737",
",. c #4B7D25",
"<. c #696936",
"1. c #293D52",
"2. c #1E3243",
"3. c #354E6C",
"4. c #345172",
"5. c #334F6F",
"6. c #365950",
"7. c #504B4B",
"8. c #4C7244",
"9. c #547B41",
"0. c #597D43",
"q. c #557743",
"w. c #516D42",
"e. c #677946",
"r. c #747046",
"t. c #526976",
"y. c #7D7D6F",
"u. c #433D41",
"i. c #875D32",
"p. c #8A6639",
"a. c #926C2F",
"s. c #897040",
"d. c #9C7A47",
"f. c #8B6E4A",
"g. c #A27A46",
"h. c #A27B5A",
"j. c #19862D",
"k. c #1E8B31",
"l. c #289432",
"z. c #3A9D36",
"x. c #288A2F",
"c. c #3DA333",
"v. c #39A337",
"b. c #3CA32F",
"n. c #56823D",
"m. c #5C843E",
"M. c #5E893D",
"N. c #5A8337",
"B. c #46942E",
"V. c #628A3E",
"C. c #60863C",
"Z. c #748E2C",
"A. c #45A333",
"S. c #6EB92E",
"D. c #6EB133",
"F. c #2F8547",
"G. c #5C8442",
"H. c #5E8A43",
"J. c #5A8245",
"K. c #618545",
"L. c #628B44",
"P. c #648B4A",
"I. c #6A8D4B",
"U. c #668849",
"Y. c #659245",
"T. c #6A9346",
"R. c #659349",
"E. c #6B934B",
"W. c #6C984B",
"Q. c #72944E",
"!. c #739A4E",
"~. c #6B8B52",
"^. c #6E9353",
"/. c #749553",
"(. c #799655",
"). c #759954",
"_. c #7A9A55",
"`. c #7C9B5A",
"'. c #79975A",
"]. c #728D53",
"[. c #7CA258",
"{. c #7B9769",
"}. c #AB8D3D",
"|. c #B1BA33",
" X c #999B31",
".X c #C3B13B",
"XX c #B0C839",
"oX c #BFE43A",
"OX c #CCD43B",
"+X c #D9E63B",
"@X c #FAFD3D",
"#X c #F5FB3B",
"$X c #EFF039",
"%X c #E6DF3F",
"&X c #819E5C",
"*X c #8C985B",
"=X c #89865C",
"-X c #B38E4A",
";X c #82A45B",
":X c #85A85B",
">X c #8DB55F",
",X c #859C63",
"<X c #978A66",
"1X c #B6946D",
"2X c #8AAB64",
"3X c #86A764",
"4X c #93AC66",
"5X c #8DB367",
"6X c #95BB6C",
"7X c #9ABD6E",
"8X c #93B668",
"9X c #9BBD71",
"0X c #96B470",
"qX c #9BA67B",
"wX c #BDAF57",
"eX c #D6AE56",
"rX c #C5A57A",
"tX c #D3A657",
"yX c #B4CF42",
"uX c #9EC373",
"iX c #9CC16D",
"pX c #A3C66E",
"aX c #A3C573",
"sX c #A5C974",
"dX c #A9CC75",
"fX c #A6CA7A",
"gX c #AACC7A",
"hX c #A4C57A",
"jX c #ACD17B",
"kX c #ADD376",
"lX c #B2D57B",
"zX c #D0D347",
"xX c #E6CF49",
"cX c #DAEA42",
"vX c #EAE843",
"bX c #E8F643",
"nX c #F6F642",
"mX c #F4E64B",
"MX c #697F92",
"NX c #708499",
"BX c #9A9493",
"VX c #9EA8AB",
"CX c #D4B58D",
"ZX c #CFB28E",
"AX c #AACD81",
"SX c #B4D684",
"DX c #AED181",
"FX c #BBDDBE",
"GX c #FAE8BE",
"HX c #E0C79E",
"JX c #B9DCC7",
"KX c #FAE8C1",
"LX c #EFF2F4",
"PX c #C3DCCA",
/* pixels */
"H.n.;.K.jXSXgXlX8XL.T.Y.E.&.O.@.O.&.J.n.n.m.n.G.G.G.G.[.;X;X`.9XlXkXlXkXE.0.G.J.G.T.T.T.E.9.O.O.+.q.`.`.`.3X~.#.*.O...L.P.R.T.m.O.8.9.8.E.W.E.E.",
"n.=.=.0.7XaXhXsX5Xm.L.M.L.O.o.o.o.O.0.-.;.;.;.;.-.&.;.)._.(.e.&X4X4X4X4X:.&.>.&.>.:.:.:.:.*.T o.T @./.`.`.;XU.8.#.8.O.G.L.H.M.;.T #.#.*.P.E.Q.P.",
"n.-.-.G.sXdXfXjX8XM.L.L.P.O.T T T O.9.-.-.-.-.-.-.;.:./._.e.a a { p.s.s.s.s.s.s.s.s.{ { ( $.o.O.T #.(.`.`.&XU.8.w.8.*.H.M.M.L.9.T o.$.@.U.I.E.Q.",
"H.0.;.:.5X6X6X7X;XL.L.L.P.=.#.#.O.&.G.G.0.G.;.;.;.;.m.`.;Xe.a s | d.g.g.g.g.g.g.g.a.! [ { ` o.O.T *.3X3X3X2X~.8.q.8.q.^./.E.I.K.-.w.q.0.~.~.P.I.",
"R.L.L.H.O.o.o.o.0.`._._.`.P.L.L.L.I.`.)._.).E.L.L.H.T.6X7X*X| | i.-X}.}.-X}.}.}.}.}.i.!  .%.o.O.V *.0XgXAXDX3X0.J.K.J.`.3X`.`.4XhXaXaXfXU.O.*.8.",
"R.M.M.L.+.@.o.T 0.`.(._._.L.L.V.V.I._._._._.L.M.H.H.&.7 $ p wXtXeXvXvXvXvXvXvXvXvXvX%XvXxXtX-X-X .{ { *XfXlX3X9.0.K.G.`.3X,X&X4XlXaXpXsX;.o.*.8.",
"R.L.L.H.@.o...o.;.`.(._._.L.L.L.L.L._._._.`.E.V.L.H._ o   t tXeXxXnX@X@X@X@X@X@X@X@X@X@XnXxXeXeXi.[ | *XaXlX3X9.0.;.0.'.&X3X,X4XdXAXfXgXJ.+.o.@.",
"R.K.L.L.o.o.O.T q.&X_.`._.L.G.G.G.L.`._.(.`.E.L.G.G...@ o r wXeXzXbXbXbXbXbXbXbXbXbXbXbXbXxXeXeXa.| | 4XgXgX2X0.0.=.q.~.(.`.'.0XSXDXgXSXU.+.O.T ",
"H.J.m.G.*.&.*.#.m.E.E.E.E.[.:X:X:X:XL.E.E.E.G.V $ $ 4 E U B.D.D.D.D.S.S.S.S.S.S.S.S.S.S.S.zXmXmXtX-X-Xp. .] e.P.P.:.m.3X4X0X9X4X3X;X;X3X].~.~.~.",
"G.-.>.;.0.;.0.9.:.L.M.M.V.7XDXgXjX7XL.G.L.P.*.C     x z.c.c.c.c.c.z.c.c.c.c.c.c.c.c.c.c.A.OX@X#XxXeXeXa.} | %.Q.E.I.L.9XSXDXSX0X>.J.0.0.{.3X;X3X",
"n.;.;.;.-.-.-.0.G.L.P.P.M.6XfXaXgX5XL.L.H.L.*.C + X x z.c.c.c.c.c.c.z.c.c.c.c.c.c.c.c.c.A.yXbXbXxXeXeXa.} [ %.E.I.I.I.9XdXdXjX2X0.9.G.G.`.`.`.&X",
"n.9.;.0.-.-.-.=.G.L.L.L.N.6XjXsXdX6XV.L._ < $ c U E E z z z z z z z z z z z z z z z z z z W ~ ~ OXmXmXeX-X-Xp.{ ( %./.hXgXdXDX2X*.*.&.>.'.;X`.`.",
"G.;.-.;.m.m.m.m.G.G.H.H.L.5XfXaXaX6XG.H.M X X x A.v.U f j 2 2 2 2 2 2 j j d 2 2 2 2 j j 2 2 2 g XX#X@XxXeXeXd.s } ' I.hXAXhXhX3X>.0.0.:.I.(.Q._.",
"Y.H.H.T.9XuXuXaX;XT @.@.O.-.G.:.G.-.P @.c X X x A.z.Y f f f j f j j f j f f j f j j j j f f j g XXbXbXxXeXeXa.} } ' K.`.,X&X_.:XuX9XaXuXI.>.;.J.",
"R.M.H.L.aXgXsXjX;XP O.o.O.=.;.;.;.V < 4 4 k k z b b Y U U U U U U U U U U U U U U U U U U z 2 d B.D.D.XXmXmX}.p.p.' H.`.`.'./.3XsXaXaXgXL.&.-.-.",
"R.H.P.L.uXfXaXdX3XP @.o.o.-.-.;.9.7   X 3 F J A d d b A.v.v.v.v.v.v.v.v.A.A.v.v.v.v.c.c.A.z d h Z S H XX@X#X.Xg.d.r.H.`.&X'.].:XaXaXpXaXE.-.-.0.",
"R.H.L.E.sXjXjXlX3XV o.o.o.*.-.;.;.7   X 3 J K A f h b z.c.c.c.c.c.c.c.c.c.c.c.c.b.c.v.c.z.z f h Z F H yXnXnX.Xd.d.<.U.`.3X,X(.2XdXgXfXAXI.&.=.-.",
"H.n.m.G.[.[.[.:XE.*.=.=.=.;.-.;.-.7     , n l b Y Y x.c.c.c.c.c.c.c.c.c.c.c.c.c.c.c.l.k.k.l j j l l l ,.Z.Z.Z.e.e.e.~.~.~.~.K./.5X:X:X5XE.G.K.P.",
"n.9.9.-.T P P V *.P.P.L.P.m.;.;.-.e     - j f b A.c.c.c.c.c.c.c.c.c.c.c.c.c.c.c.c.z.j.K S l j j f j j d f j *.;X/.`.{.q.#.#.T &.M.M.N.C./.`.`.`.",
"J.;.;.=.@.o.o.@.&.L.L.L.L.:.;.;.-.9     - j h b v.c.c.c.c.c.c.c.c.c.c.c.c.c.c.c.c.v.j.D G l j j j j d j d > #._.'./.,Xq.8.8.@.*.L.H.L.C./.(.(.`.",
"J.-.;.;.@.o.o.@.&.L.L.e.r.r.r.=X<X/ - ; - - @ 2 b b x.z.c.c.c.c.c.c.c.c.c.c.v.x.k.k.F D L : @ @ 3 j d j j > q.<X<X=Xr.r.%.8.+.*.L.H.L.V.).`.`.&X",
"G.9.9.-.o.o.O.P -.L.K.r.d.d.1XZXZXw.2 j -     @ j d b z.c.c.c.c.c.c.c.c.c.c.z.F F D D D L - X X : d d j j > =XZXZX1Xd.d.<.O.T &.T.L.N.V./._._._.",
"L.H.H.L.5X6X6X9X[.;.0.r.g.g.1XCXCXw.j j -     @ h f b z.c.c.v.c.c.c.c.c.c.c.v.F K D F K L -     : j f j h d =XCXCX1Xg.g.r.G.0./.iX7X7X7X).L.L.E.",
"R.H.H.I.sXdXdXlX~.' %.<XrXrXCXHXHXe.d d -     - n l H c.c.c.c.c.z.l.l.l.l.l.l.F K G l k k 3 1 1 k l l k j > <XHXHXCXrXrX=X%.' U.dXsXsXjX!.M.L.L.",
"T.G.H.T.uXdXaXaX{ [ | ZXKXKXKXGXGX~.2 j -     1 J F k.v.c.b.c.c.l.F F F F F D D K L @   + n J F D K S l j > qXKXGXGXGXGXrXa [ ' dXaXpXfX!.G.L.L.",
"E.P.L.T.aXdXdXfX{ } | ZXKXKXKXKXGX~.2 j -     1 K D k.v.v.v.v.v.l.F F F F F F K K L @   + n D D F F F l j > qXKXKXGXGXGXZX[ [ ' AXdXdXgX!.L.L.L.",
"G.9.;.m.2X5X2X5X' ( ' <XZXZXCXCXCXq.2 j -     1 F D j.l.l.l.l.l.k.F F S A A A l k k - @ - A D F Z A A k j d =XHXCXCXZXZX<X' ] %.8X5X5X5XP.;.;.G.",
"O.+.o.P =.&.>.>.0.L.G.( [ [ p.d.d.) h j -     1 F F F D D D F F D D F Z h h : X X + : j h Z D S l h j j h > <.g.g.i.[ [ ] 0.&.:.M.M.M.L.O.T P o.",
"O.T o.O.-.;.;.=.G.L.N.{ } } p.g.g.) d d -     1 F F F F F F F F D D F S k j > X   X : j h Z D S l j j j j d <.-Xg.i.} } ] -.;.G.L.L.M.L.&.o.o.@.",
"O.@.o.o.9.0.;.;.J.L.L.' ( (  .p.s.( c c 5     1 F F F F F F F F S Z Z n 1 1 ; + + @ : j h n Z A k j j c c c  .s.p. . .] ' 0.-.m.L.L.L.P.&.T o.#.",
"O.P o.O.-.-.-.;.J.K.M.G.K.#.] } } } { { 8     1 F F F F F D F F Z h h 3 +   X 3 4 2 j j j j j j j d j Q { [ } } } <.).:.&.;.>.m.L.H.L.P.*.o.o.$.",
"^.I.I.P.K.M.M.N.).7X>X8X8XG.' [ [ } } } 8     1 F F D F D D F F Z j j : X   X 3 j d j j j j j j j d > Q } [ } } [ ' K.3X6X5X5X).0.n.N.n.K.I.P.~.",
":X`._._.P.L.L.G.[.jXgXdXjXE.) y y  .a.a.u     1 Z Z Z Z Z Z n n l : : , + + + 2 j j j j j j d j x c c  .a.a.[ y y / >.aXlXfXSX5X=.=.;.-./.`.`.;X",
";X(._._.L.H.L.m.[.dXpXpXfXL.9 . .  X$XvX^ .   @ f j j h f : X X X     + 3 2 2 j d d j j d j d > Q { [ .X$XvX^ . . 9 0.7XdXdXdX:X=.;.;.-.E.`./.`.",
";X(._.).P.L.R.H.[.jXsXdXAXP.9      X#XnX^ .   @ j j j h j ,           X 3 j j j j j d d d j 2 4 ( } ! .X@XbX^     9 ;.7XdXsXjX2X9.;.;.9.^.`._.;X",
"_./././.J.G.G.;.).aX9X7XuXP.M $ # ^ |.|.^ 0 8 < , : : : , ; + + + + + @ 2 j j j j g W ~ ~ ~ ~ ~  .| ! }.|.|.~ 7 < $.L.8X7X7XuX[.*.-.;.*.P.Q.Q./.",
"E.L.L.K.O.O.O.P 0._._.).`.L.G.G.-.7 6 6 ( d.d.( o X X X X @ 2 2 2 2 2 2 d j j j j v yXcX+X+X+X+X}.g.d.Q 6 6 q.fXaXfXaXT.m.M.L.m.o.o.O.T -.:.>.:.",
"T.H.V.K.O.o.+.T 0.`.`.(._.I.L.L.L.9   . p d.-X{           + : f 2 d h h d j j 2 j v OX#X@X@X@XnX-Xg.d.t     w.jXpXsXsXT.P.L.L.0.o.+.o.+.*.;.-.;.",
"E.H.L.P.o.o.+.o.0.`._.`.).L.M.L.L.M o O p f.s.( .         @ v v v d j f j j d v v ~ |.OXOXOXOXzX Xp.s.8 O O 0.dXpXsXpXE.P.M.T.0.o.@.o.+.*.;.-.;.",
"E.L.L.P.T P P V -.&X_.`.`.E.L.L.L.G.V V 9 # # O           c OXzX Xg j f j d v yX+XXXQ 6 6 6 6 6 # # # V &.o.[.SXgXjXjXT.H.M.V.-.V T P T &.;.;.;.",
"9.&.-.-._.[.`.`._.K.L.K.P.;.-.-.=.*.*.&.V               X Q $X#XXXg d d h f v vX@XOX0               o $.n.G.P.^.I.^.I.Q.Q.^.E./.;X_._.;XI.I.I.E.",
"O.R +.@.AXjXgXSX:X*.9.-.9.o.T T T ..;.;.V + X X     X   X Q zXcX|.v v v v g v zXcXyX0 X X X     X X + _ G.L.&.V P V ..~.`.`.).2XDXjXAXgX3X`.`.`.",
"@.o.O.#.uXsXaXfX2X&.;.;.J.O.O.o.o.9 o @ 3 A Z n 2 2 3 : 2 > 5 & Q OX+XcXcXcXzX0 # 5 > 3 3 3 2 2 n Z A , o o V @.@.+.O./.`._.(.:XgXsXsXdX;X/._.`.",
"O.o.P O.uXdXfXgX:X=.;.;.;.O.o.+.T 9   X 3 J J A f j j j j : X   Q +X#XnX#X@XvX#   X : j d d d f L J J 1     M T T +.o./.(._.(.:XdXsXsXdX;X(.`.`.",
"&.#.O.*.9XaXaXdX:X;.G.:.q.$.o.+.+.e o o m F.F.E 2 2 f h j 3 + + Q OXcXcX+XcXzX5 + @ 2 k h 2 3 f E F.E 4 % % V T o.T P K.(._.Q.3XhXaXaXaX;X/.).).",
"R.G.G.K._._.`._.2XsXuX/ < < $ $ < r 8 8 y.FXPX{.@ + , A Z A n n b B.B.B.B.B.B.b n n Z Z A , + @ VXJXJXt.1.1.r < $ # # $ V L.K.Q.`.`._.[.L.P.L.T.",
"R.L.L.P.!._.'.(.2XdXiX7           * i i BXLXLXBXo X 1 J F F J K F F D D D D D F F F F D L -   O VXLXLXBX4.4.w           9 L.L.E./.(.(._.I.P.H.L.",
"Y.H.V.P.Q.`.`./.:XfX9X/ . . . . . * i i BXLXLXBXo   1 K D D D D D D F F F F K D D D D D S -   O VXLXLXNX5.4.q . . . . . e H.G.I.`.`._.).L.P.M.T.",
"E.P.L.L.Q.(.'.I.M r / ( y y y y y p 1.1.t.MXNX7.    1 S F F F F K F F F F F F F F F K D S -   o t.NXNXt.4.3.u.y y y y y p 7 7 ` `.`._.`.I.L.T.T.",
"G.;.:.m.2X:X3X2X$   . y | } } } } 7.4.4.4.4.4.2.    1 S D D D D D D D D D D D D D D D D S -     1.4.5.4.4.3.7.} } } } } t     9 Q./.E.Q.G.;.;.;.",
"O.T T @.hXdXgXlX<   . y } } } } | 7.5.5.3.5.4.2.X X , L S S S S S S S S S S S S S S F F L ; X X 1.3.4.5.5.3.7.} } | } } t     9 V.H.L.L.*.T P O.",
"@.O.o.@.uXpXaXfX<   . y } } d.1X1X7.q q q q q w n n B ) ) ) ) ) ) ) ) ) ) ) ) ) ) ) ) ) _ m n n w q q q q q r.1X1Xf.} } t     9 L.L.L.L.*.T T @.",
"@...o.#.uXdXfXaX<   . y } } <XCXCX]           1 F F I { } } } } } } } } } } } } } } } } { E F S -         o f.CXCXh.} } t     7 L.H.M.L.*.T o.@.",
"&.o.o.*.9XdXsXsX<   . y } | 1XCXCX]           1 F S I { [ [ [ [ [ [ [ [ [ [ [ [ [ [ [ [ { E D S -         o f.CXCXh.[ | t     9 V.L.L.L.&.O.O.O.",
"L.G.M.G.;X;X`.3X:.M M 8 = = p ] ] *     , k k A l.l.x.X.X.X.X.X.X.X.X.X.X.X.X.X.X.X.X.X.N.x.l.l.z k k @     r ] ] i = = / U.e.`.Q./.).).G.=.;.9.",
"T.L.V.L./.(.'._.I.-.-.7               X h J G k.v.v.c.c.A.c.c.c.c.c.c.c.c.c.c.c.c.c.c.c.c.c.c.v.j.K K 1                 ` sXjX0X_.'.`._.K.;.;.;.",
"R.L.L.L./.`.`.'.I.=.;.7               X 3 J S k.v.v.c.b.c.c.c.c.c.c.c.c.c.c.c.c.c.c.c.c.b.c.A.v.j.K S 1                 $.pXdX8X/.'._._.G.-.;.;.",
"R.H.L.L.`._._.;XT.-.-.#.` o.$.o._ V V V B 3 1 l k.k.l.c.c.c.c.c.c.c.c.c.c.c.c.c.c.c.c.c.c.l.k.k.k 1 1 +     M _ $.$.$.~.7XgXjX6X_.&XQ.`.G.-.;.;.",
"R.H.L.L.U.U.~.~.K.;.m.:.:.E.[.!.[.!.m.G.V X X 1 D D j.c.c.c.c.c.c.c.c.c.c.c.c.c.c.c.c.c.v.j.D S - X         0.n.G.m.L.0X9X8X7X2XE./.Q.).K.G.G.K.",
"R.M.L.K.O.o.o.T *.L.L.L.V.7XjXsXjXuX_.`.`     1 J F k.c.v.v.v.v.v.v.v.v.v.v.v.v.v.v.v.v.v.j.F S -           $.-.:.:.>./.(.Q._.E.M.L.L.L./.,X_.;X",
"R.H.H.G.O.O.o.O.=.L.L.L.V.7XgXaXfX;X%.e.r     @ k k l N N N N N N N N N N N N N N N N N N k k k $ & & .     $.*.;.;.>.(.&X`.`.Q.L.H.H.L./.`._._.",
"R.L.L.H.O.o.o.T *.H.L.L.N.7XsXaXfX/   X             X X X X X X   X X X X X X X X X X X X       8 i i #     $.=.:.0.;./.(.`._.Q.M.H.L.L./.`._.&X",
"Y.M.L.G.O.P T P *.L.V.N.V.7XjXsXgX/                                                             8 i i #     ` -.;.9.;./.).`.`.E.V.L.M.V./.{._.`.",
"M.:.:.m.3X5X5X5X;X/./.)./.!.!.!.).M     O # # & & & & = = &     # M V M M M M M M 7             $ * * r C e $.O.#.O.O.L.E.L.L.[.6X8X8X9XK.&.>.-.",
"J.-.9.0.sXgXgXkX8X/.`.`._.L.H.H.L.9     & i t y } } } } | y .   ` gXgXgX;X`._._.(.:.O               . $.L.L.;.T o.o.+.G.L.H.M.[.kXsXgXjX0.P R o.",
"J.;.-.:.iXpXfXaX8X/._._._.L.V.L.L.9     & i t y } } } } } y .   M pXaXsX;X(._._./.G.#                 $.L.L.;.o.@...#.m.L.R.m.[.dXsXaXgXG.T @.o.",
";.q.-.;.aXsXfXjX7X(._._._.L.L.L.L.$.e M r = = 8 t t t t t p C M ].sXdXdX;X(.`.`./.L.o.M M e 9 e C C V m.L.L.;.T o.o.o.m.V.L.M.[.gXdXsXgXG.P +.o.",
"G.9.-.0.0X6X8X6X3X/././.).L.G.G.G.G.G.G.M             . . 7 &.).aX9XiX7X_./././.I.m.m.G.J.G.G.G.J.n.L.G.M.L.G.-.9.q.9.G.G.m.m.).aX9X9XaXG...@.O.",
"R.L.L.m.O.o.O...-.L.L.L.L.&.O.o.O.O.-.;.C                 < o.;.L.M.V.L.;.-.;.;.-.o.o.o.O.U._.)._./.;.-.0.=.[.AXfXsXuX-.T @.T 0._._._.`.0.-.9.0.",
"T.M.L.L.o.R o.T -.L.L.L.P.*.T +.O.@.0.0.o.7 9 M M M M < < C T 9.L.L.L.L.;.9.-.-.=.o.@.+.P I.`._._.).;.-.-.&.[.jXpXsXsX-.T o.+.0.`.(.(._.J.;.-.0.",
"Y.G.M.m.@.o.P o.&.L.M.M.L.O.T T o.O.;.;.0.-.L._.(._./.O.T o.T -.L.H.H.M.;.=.;.;.=.P o.o.P U.`./.(.E.>.;.;.&.[.jXpXhXpX-.T P o.-.)./._._.0.=.=.;.",
"W.L.T.Y.@.O.&.o.0.E.Y.T.E.=.O.O.O.=.G.n.J.0.Q.:X&X;X`.*.o.*.O.;.E.R.T.T.G.G.G.m.;.O.@.*.O.I.:X;X;X`.G.G.N.;.:XlXlXlXlX9.O.&.o.J.;X;X;X;XP.n.G.G."
};
