/* XPM */
static char *result[] = {
/* columns rows colors chars-per-pixel */
"72 72 250 2 ",
"   c #020302",
".  c #0B0503",
"X  c #020C03",
"o  c #0B0A05",
"O  c #080B0A",
"+  c #120A06",
"@  c #021405",
"#  c #061709",
"$  c #12130C",
"%  c #17190D",
"&  c #171C11",
"*  c #0B1517",
"=  c #291A0E",
"-  c #06260C",
";  c #0A330E",
":  c #0B390F",
">  c #182313",
",  c #0B3C12",
"<  c #083612",
"1  c #163511",
"2  c #35370B",
"3  c #262917",
"4  c #3B2619",
"5  c #2C3211",
"6  c #18272F",
"7  c #293721",
"8  c #2F3228",
"9  c #52331E",
"0  c #573822",
"q  c #49312A",
"w  c #643C23",
"e  c #633F1F",
"r  c #0A420F",
"t  c #09480D",
"y  c #15460D",
"u  c #0A4212",
"i  c #094918",
"p  c #194916",
"a  c #09551A",
"s  c #14551A",
"d  c #2D4416",
"f  c #1D6A1D",
"g  c #08651F",
"h  c #2F6C1B",
"j  c #094E22",
"k  c #0B5723",
"l  c #114E22",
"z  c #374927",
"x  c #395A2C",
"c  c #33582D",
"v  c #0A6927",
"b  c #176D28",
"n  c #0B732B",
"m  c #077B2D",
"M  c #0A7B2D",
"N  c #14752C",
"B  c #087A30",
"V  c #157131",
"C  c #3D632D",
"Z  c #3D6627",
"A  c #287724",
"S  c #277A26",
"D  c #3E6432",
"F  c #3E6339",
"G  c #246922",
"H  c #4B4318",
"J  c #537019",
"K  c #575C33",
"L  c #4C522B",
"P  c #6D4225",
"I  c #694924",
"U  c #654C28",
"Y  c #744726",
"T  c #77572C",
"R  c #6C5633",
"E  c #41662E",
"W  c #42692D",
"Q  c #49652F",
"!  c #416634",
"~  c #436A34",
"^  c #496E35",
"/  c #416639",
"(  c #446B3A",
")  c #496D3A",
"_  c #4A6335",
"`  c #576539",
"'  c #4B7335",
"]  c #4D743B",
"[  c #4E793A",
"{  c #4D7636",
"}  c #517536",
"|  c #527B36",
" . c #51763B",
".. c #537B3C",
"X. c #597D3D",
"o. c #5D723C",
"O. c #52602D",
"+. c #66673A",
"@. c #717235",
"#. c #32465A",
"$. c #354A66",
"%. c #2F4D6A",
"&. c #4F4D4B",
"*. c #486D41",
"=. c #4D7243",
"-. c #4D714B",
";. c #527541",
":. c #547B41",
">. c #5A7E43",
",. c #587E48",
"<. c #586841",
"1. c #777845",
"2. c #6D7746",
"3. c #425A73",
"4. c #4B627E",
"5. c #665747",
"6. c #906D3C",
"7. c #875B34",
"8. c #9E7A44",
"9. c #96704E",
"0. c #8C724C",
"q. c #A67D46",
"w. c #18862D",
"e. c #1A8831",
"r. c #358B2E",
"t. c #2E9834",
"y. c #399D35",
"u. c #2E8B2D",
"i. c #3DA333",
"p. c #3CA32F",
"a. c #56813D",
"s. c #5B833E",
"d. c #5E893D",
"f. c #5A8337",
"g. c #459A33",
"h. c #628B3E",
"j. c #60863C",
"k. c #768723",
"l. c #6BA12C",
"z. c #568141",
"x. c #5C8442",
"c. c #5E8942",
"v. c #5E8349",
"b. c #5E8948",
"n. c #618545",
"m. c #628B44",
"M. c #688E45",
"N. c #63864A",
"B. c #648B4A",
"V. c #6A8D4B",
"C. c #6A854D",
"Z. c #659144",
"A. c #6A9246",
"S. c #669249",
"D. c #6C934B",
"F. c #6C984B",
"G. c #72944E",
"H. c #739A4E",
"J. c #77984C",
"K. c #6C8D52",
"L. c #658A52",
"P. c #6D9352",
"I. c #6E9358",
"U. c #749553",
"Y. c #799754",
"T. c #759A53",
"R. c #7A9A55",
"E. c #759559",
"W. c #7A965A",
"Q. c #769B59",
"!. c #7C9B5A",
"~. c #748C51",
"^. c #7CA255",
"/. c #7DA25A",
"(. c #76A052",
"). c #7D9B61",
"_. c #7E8E64",
"`. c #7FA760",
"'. c #A88C34",
"]. c #99AA2B",
"[. c #ACAC32",
"{. c #C3B238",
"}. c #95CD36",
"|. c #84C232",
" X c #BCD239",
".X c #B4C736",
"XX c #C8CE37",
"oX c #FCFE3D",
"OX c #EAF03D",
"+X c #898653",
"@X c #819D5C",
"#X c #8B975B",
"$X c #939357",
"%X c #AF8949",
"&X c #81A257",
"*X c #82A45B",
"=X c #85AB5C",
"-X c #89AC5E",
";X c #84AA55",
":X c #8BAE51",
">X c #839E62",
",X c #999269",
"<X c #B3956B",
"1X c #84A363",
"2X c #86AA62",
"3X c #8AAC64",
"4X c #8BAA68",
"5X c #91AF69",
"6X c #8CB264",
"7X c #8DB36A",
"8X c #92B56A",
"9X c #95BA6C",
"0X c #99BD6D",
"qX c #93B565",
"wX c #9BBD71",
"eX c #95B771",
"rX c #8EB171",
"tX c #AEA36C",
"yX c #CBB940",
"uX c #D5AE50",
"iX c #D0AB6D",
"pX c #9CC26D",
"aX c #9DC373",
"sX c #A2C56E",
"dX c #A6CA6E",
"fX c #A3C673",
"gX c #A5C974",
"hX c #A9CC75",
"jX c #A4C67A",
"kX c #A6CA7A",
"lX c #AACD7A",
"zX c #A8C777",
"xX c #ADD17C",
"cX c #ADD376",
"vX c #B1D47D",
"bX c #B4D97A",
"nX c #EBDB4A",
"mX c #DFE241",
"MX c #EDF342",
"NX c #ACAA9C",
"BX c #D0B48D",
"VX c #AACD81",
"CX c #ADD182",
"ZX c #B4D684",
"AX c #B0CF81",
"SX c #B9C9BB",
"DX c #F8E6BE",
"FX c #E4CCA5",
"GX c #A3B1C0",
"HX c #D8DAD1",
/* pixels */
"c.a.a.b.cXbXlXbXqXZ.A.Z.S.{ ( ( ^ ' a.a.a.s.s.s.x.x.x.(.;X&X@XeXZXcXbXcXS.z.a.z.x.Z.S.Z.S...( ^ ~ ..R./.!.3XK.) ' ( W m.B.S.Z.s.! =.;.;.D.D.S.F.",
"z.[ [ >.0XfXjXgX6Xd.m.d.m.^ D ~ ! ~ :.....[ } K K +.2.1.1.1.1.@.#XgXaXpXx.[ | { f.c.c.h.m.] C ! D ( U.!.).*XC.*.) *.! x.m.m.d. .x ) ' *.B.S.P.S.",
"a... .x.gXlXkXxX6Xc.m.m.B.^ F F D ~ :.;.[  .} w Y 8.8.8.q.8.6.I @.cXcXxXm.} a...:.M.m.c.M.] D ~ ! ) Y.!.!.>XL.=.;.-.) b.s.x.m...D / ( / L.P.P.P.",
"c.z. .X.6X9X9XpX*Xm.m.m.S.{ ^ ' ( ' x.z.>.z L 6.'.yXyXyXyXyX{.'.%XtX$X1.o...z.:.:.b.c.d.c.] / ! D ) 1X3X4X4XL.*.=.=.;.E.U.V.V.n.} <.:.>.L.L.B.V.",
"S.c.m.b.^ ! D ! >.!.R.R.Q.B.m.m.m.B.!.Q.K.  = uXuXMXoXoXoXoXoXoXnXuXq.7.R Z.b.d.d.....a...^ E ~ C ;.jXVXVXAX1X,.v.N.,.).1X>X!.5XVXwXjXjXN.( =.;.",
"S.d.d.c.F ( ~ D :.!.Y.R.R.M.m.h.h.V.U.L z c Z ;X:X}.}.}.}.}.}.}.XXnXyXq.6.` o.h.d. ...[ ..) / ~ D ' jXzXzXZX2X=.>.n.n.!.1X>X@X4XvXgXsXgX.._ ) =.",
"S.b.m.d.( ~ Z D X.!.U.R.R.V.m.h.Z.B.V.% @ y.i.i.i.p.i.i.i.i.i.i.].MXnXuX%XY +.m.x. .:.| s.( ! ! D { jXgXgXvX1X:.>.} X.E.>X1X>X5XlXVXzXlXN./ E ( ",
"S.c.Z.m.~ F ^ F :.@XR.!.Q.m.x.a.>.7 d c G f f f h A f f f f G f J l.].nXyXq.6.K o. .......( ! ! D { lXlXAXZX3X,.>.[ ;.~.Y.W.).rXZXAXAXZXL./ / / ",
"c.x.s.x.] { [ ( X.G.F.D.S.*X-X=XY.& # r.y.r r r r r r r r u r r r r J oXnXuXq.w R j.s.x.x.x.n.>.2.,.E.P.P.Q.D.B.L...s.1X5XeXeX5X*X*X*X1XE.C.K.C.",
"z.{ | ..:...:.:.| m.d.d.h.0XlX` _ i a f G S A A S A A A A A A A g u h l.}.nX{.7.+.G.c.m.B.G.R.!./.D.Z x D / ,.P.S.P.B.wXZXAXZXeX..,.,.:._.4X&X1X",
"a.:. .[ :.[ :.:.s.m.M.B.d.9XjXO @ v n a t y.i.i.i.i.i.i.i.i.i.i.u.u g M l.oXyXq.2.m.c.m.h.G.Y.Y.Y.P./ ~ ! / v.D.P.V.B.aXlXhXAX4X>.;.x.x.).).W.@X",
"a.;...:.:.....{ >.m.c.h.f.9XhXo @ i s S u.p.i.i.i.i.i.i.i.i.t.e.f u i s f k.j.o.o.x.m.m.s.T.R.Y.R.K.! ~ D F >.U.S.P.P.kXlXhXAX4X] [ ' o.I.`.!.!.",
"z.a.[ [ a.s.s.x.X.m.n.n.m.-XwXo @ : y r.i.i.i.i.i.i.i.i.i.i.t.B g r r , u r F ] ..A.h.h.M.G.U.E.E.V.^ ! ( ! :.S.S.V.K.jXAXzXjX1XX.,.>.X.V.U.G.T.",
"S.c.c.Z.aXaXaXaX*X! ( +.1.,X,X1 - @ - s f i.i.i.i.i.i.i.t.w.w.B k @ - u u r <.,X+X+X#XgXjXN.E ( ( ] b.x.c.c.s...v.N.x.).@X@X!.*XwXwXfXwXV. ...v.",
"S.h.m.m.fXlXhXxX*XC / 1.q.BXBXp : @ X < t i.i.i.i.i.i.i.t.B B M j X @ r u u 2.BX<Xq.$XhXAXB.C ! C ~ m.m.x.d.x.:.x.v.v.!.W.W.U.-XgXfXfXlXm.] ..:.",
"S.c.B.A.aXzXfXzX@XL U BXBXFXFXp : X @ k v i.i.i.p.e.e.e.w.m v < u j k v k u ~.FXFXBX<XR #XV.C ~ ~ ( d.s.c.m.:.=.z.v.N.!.@XW.~.-XgXfXsXfXV...[ >.",
"F.c.c.S.hXxXxXvX/.U Y FXDXDXDXp ; X # n w.t.i.i.t.M m M n m k   < m m N v t +XDXDXDX<XP +XB.C / D ~ m.m.n.V.s.{ | x.N.).>X>XW.4XhXkXlXCXS.{ } :.",
"c.a.x.x./././.2XP.O.` 1.9.<X<Xy , X # v m w.w.w.w.m n a i - - ; i m v a i r +.<X,X9.0.+X1XB.] [  .=.x...| | X.N.N.K.K.C.K.K.2.~.6X=X-X6XV.x.n.B.",
"s.:.z.[ D C C x { B.n.U w 9.6.y , X @ v B m m m m m v r ;   # u a m v u r u J 8.7.Y +.~.!.V.d.Z.m.m.W C / E x.@XU.@X).,.] ) D ^ d.x.f.j.U.!.!.!.",
"z.[ [ [ ( ~ ( ( ' m.c.X.2.Y 7.I 9 $ @ v B m m m v a i @ @ ; ; t u a i u d H I T R ~.~.!.!.D.m.c.m.x.~ ( ( / >.R.W.U.>X,.=.-.F ] m.b.m.j.U.Y.Y.!.",
"z. . .[ ( D F ( ' m.m.m.S.I w Y e + @ v M n M M v r <   @ , r r u r u u d Y P I K T.T.R.W.D.m.c.m.x.~ ( ! ! >.@X@XY.>X .( ) F ] m.c.c.j.Y.R.R.@X",
"s.:.:...~ ~ ! C ..B.m.c.m.4 = [.[.= @ i a a i - - @ # ; < u u r u u d H 6.XX7.= H /.Y.!.!.S.d.m.m.s.W ! ~ C x.!.~.W.~.] ~ ~ D ' m.m.d.m.U.R.U.R.",
"b.c.c.M.7X9X9X0X/...:.f...% . OXXX2 # : u , < X     @ , u r r r y y d Y '.OXk.. z S.M.m.V. .( ( ( [ x.x.x.s.s.>.>.X.x.b.x.s.z.T.pX0XpX0XT.m.m.A.",
"F.d.c.S.fXcXhXcX2X{ .... .} E 2 H T R % o @ @ < ; < < r u u J XXXXXX[.6.T 2 K C.G.x.m.h.m.{ ! ! ! ~ m.m.m.M.X...| ..[ m.h.h.m.^.hXgXgXxXH.s.m.m.",
"Z.z.c.Z.aXhXfXkX=X{ ......s.x.$ = T 6.%     X y y i u r r y J MXOXOXXXq.U o L ).U.m.m.x.M.' ! ( D ^ m.Z.m.h.x.:.......x.b.B.x.(.hXsXsXhXF.c.b.m.",
"F.S.Z.A.fXlXhXZX-X' ..| | c.A.X.W 5 %       5 .X].y u r h  X].2 2 2 5 % L <.~.!.J.m.j.m.S.] D ! D D c.x.x.s.>.[  .:.{ M.M.m.m.^.VXlXhXxXH.m.M.M.",
"c.:...s.3X6X2X7XH.a.x.x.:.a.a...^ > X       5 mX Xy y y J OX].X       X z N.L.B.B.x.c.x.a.X.X. .z.x.^.T.(.^.G.>.B.n.n.s.s.x.s.F.9X6X6X7XB.a.a.x.",
"~ ( ! C { { | [ ..b.c.B.B.' D > > l k ; ; ; 1 2 J  X XXX].H 2 ; ; ; i k i % 7 D ~ ..a.[ { P.!.W.Y.*XlXzXhXcXqXG.!.R.!.>...:.[ ..d.j.d.m.^ C C ~ ",
"( D ~ ( ....f.' c.Z.d.h.S.' C + # V V p , u < X 9 OXOXOX.X@ # t r , k e.j   7 F ~ ..[ ..X.C.R.R.E./.gXjXgXlX5XU.!.Y.Y.>.......x.c.m.d.m.' ! ! ( ",
"^ ~ ~ ~ :.:.:...z.m.s.3 $ O . 4 0 SXGX4 @ n n v g u.u.u.u.v v n i @ 3.HXGX#.6 O o $ z ....M.!.R.Y.&XfXhXfXhX6XY.!.R.!.>.:.:.{ x.B.m.Z.m.^ ! / ) ",
"~ D C D ......[ z.X...3 . . + q &.SXHX6 O n B B w.m m m m M M m j   &.HXGX%.#.. . . 7 ] } V.@X!.U.*XzXlXxXcXqXY.Y.Y.T...{ [  .s.m.b.c.B.' ~ E ! ",
"P.V.V.V.x.x.x.f.P.7 3 0 w w 0 3.3.4.3.* X n B m m m m m m M m m j X 6 4.4.%.&.0 e e q $ z X. .;.;.s.T.H.T.H.V.,.n.n.n.2X9X6X7XQ.:.f.X.X.x.K.V.C.",
"*XR.^.R.S.c.m.c.*X& + 0 Y Y Y $.%.%.#.* @ b N N N N N N N N N N l @ 6 #.%.%.&.Y Y Y 4   z { D D D ~ x.c.s.d.x.[ ....{ aXvXzXZX-X{ :...:.P.!.!.@X",
"*XY.Y.T.m.c.m.a.^.= + 0 Y <XBX$   O @ v V U I I I I P I I I P I L V j O   O 5.BX9.P 4   z } ! ~ ~ ) m.m.m.m.x.:...[ x.0XhXfXhX-X{ :.....G.R.Y.!.",
"*XE.R.Q.B.m.S.c.^.7 $ 9 Y NXBXo   X - v N I I I I I I I I I I I E N a @ O   5.BX9.I 4 O x ' C ~ D ( c.m.h.h.X... .[ ..0XhXhXxX6X:.....:.P.!.R.@X",
"^.U.U.P.x.x.x.a.T.wX4X4 + + $   @ k N t.y.p.g.g.g.g.g.g.g.g.g.g.p.y.u.n i   . O + . z s.N.} ( ' ( ' c.x.c.x.m.B.M.B.B.8XpX0XaX(.) ....[ B.G.G.U.",
"D.n.m.n.~ W ~ D >.!.~.z & % $ $ > k V t.y.p.i.i.i.i.i.p.i.p.i.i.i.y.u.v ,   O > > $ z ....c.m.m.m.c.......[ /.VXkXkXhXA.x.s.Z.s.C ~ D D { f. .X.",
"S.d.h.n.~ ~ ~ D >.!.R.~.U.m.x.m.[ - - v M i.i.i.p.i.i.i.i.i.i.i.t.M k X O   ` jX6X' a... .x.m.h.m.m.....:.{ /.xXdXdXgXA.b.m.M.:.D ( ~ F =... .>.",
"S.c.m.B.~ F ~ _ >.Y.Y.R.T.M.d.s.) $ @ k b r.r.r.r.r.r.r.r.r.r.r.S v l . .   <.jX6X| .... .d.m.m.c.c.......[ /.hXsXgXaXF.b.d.Z.>.~ ( ~ F ....:...",
"A.m.m.B.D C C x ..@XY.@X!.V.m.O       X X o X X X X X X X X X X X X $ q =   <.CXqX....:...x.m.h.m.d.[  .a.{ /.ZXlXxXcXZ.b.d.d.:.x D C C '  .} X.",
"z.] [ ;./.(./.R.Q.x.B.x.V...] X   . . . . + + . O $ $ O $ # .       + 4 4 $ _ 5XR.( ] ) ^ n.G.G.G.G.s.d.a.x.m.I.P.I.V.G.G.U.D.U.&XR.^.*XV.K.V.A.",
"D F F ) VXxXxXZX;X] :.[ :.~ D o . 4 9 w w w 0 . 7 xXaXx.{  .x         O 8 G.Y.Y.V.E ~ D E V.!.R.E.Y.h.m.B.M.' x C x W K.!.W.T.3XAXxXAXlX3X!.R.@X",
") D ~ ( aXgXgXlX6X{ ..f.:.~ D > & 4 q 9 w 0 9 5 L gXfXX.,.,.! > > % & > _ Y.R.!.M.D ~ ( ! N.W.W.W.G.h.m.d.b...( ( ( ~ E.R.Y.Y.=XlXsXzXhX&XY.Y.R.",
"D ~ Z ' aXhXgXlX=X] .. .:.~ D ~ x $     . . 3 lXfXhXaX..] :...X.m.h.m.n.T.R.R.!.V./ / / C B.!.R.R.T.h.h.b.Z...D D F ~ U.!.Y.Y.=XhXsXzXlX*XY.!.!.",
"] =.( ' wXdXfXhX-X..x.x.n.] ( ) / 7 1 3 3 > L aXpXjX9Xm.X...X.x.c.c.c.m.P.U.~.E.V.^ ! ^ ^ m.T.T.T.P.m.m.M.M. .D ( ( ~ D.!.Y.G.3XjXgXjXfX/.U.T.T.",
"S.x.x.n.T.R.W.Y.3XgXfXfXjX&XY.Y.U./.hXaXaXjX^.c.M.h.S.P.T.R.R.N...:.....^ ~ ^ ^ ) n.c.b.x.s.......x.Y.!.U.R.m.[ ..:.} m.m.M.j.G.R.!.R.^.M.m.m.S.",
"S.c.m.B.J.Y.E.!.3XhXfXhXzX&XJ.R.Y.=XhXdXgXxX(.x.B.m.B.R.R.Y.R.M.......z.( / / ! ' m.m.m.m.a...:...:.W.!.E.*XB.{ a.:...m.m.m.n.V.Y.Y.U.Y.M.B.c.Z.",
"Z.c.c.N.J.@X@XG.3XzXfXzXlX*XU.W.U.1XxXfXfXhX^.d.m.m.m.U.Y.!.@XN.....z. .~ ~ ! ! ] B.m.c.S.....z.{ s.J.!.Y.R.B.:...:...d.c.c.m.V.R.!.R.T.M.B.s.Z.",
"F.Z.c.M.G.R.E.A.4XvXgXcXcX=XR.!.W.3XhXcXlXCX&Xs.m.m.m.!.E.@X*XN.] [ { { ! F ! D ] c.s.s.x.f.[ ....>.R.W.).@Xm.{ { ' { m.S.m.m.P.W.W.Y.T.S.M.Z.Z.",
"a.....a.3X-X3X5X3X3X-X-X6XV.n.C.x.K.6X-X2X6XH.M.D.F.M.n.n.x.j.V.T.!.^.T.:.) ' ~ z./.*X*X1XB...x.:.x.V.S.V.m.G.R.Q.R.Q.f.{ | f.x.H.P.G.H.x.....a.",
"~ D D ( fXhXlXvX-Xf.m.f.c.! C D C ~ c.s.a.d.D.Q.!.J.W.! D *.x Q.vXgXlXxXB.[ x...D.xXhXhXxX(.d.S.m.c.| } :.] /.xXxXlXCX;.F ( C ' h.c.x.m.^ D D ~ ",
"^ ~ ! ( aXdXgXzX6Xs.S.m.V.' / ( ( ] B.Z.m.m.H.R.!.!.E.^ Z ( F E.xXgXgXfXx. ...' S.kXgXsXxX(.s.m.m.x.x.a...[ /.hXsXgXpX} F ~ F [ m.m.m.m.] D D ( ",
"( D ! ) aXdXzXjX9Xd.m.c.B.^ D ~ D ' m.h.m.x.J.R.@X!.E.~ W ! x P.vXgXgXgXm. ...{ P.lXgXdXxX^.c.m.m.b.[ | ..] /.cXfXlXdX..F ! ! ' m.m.d.m.[ D ! ( ",
"' ~ ! ] aXhXgXhX=Xd.m.c.b.' W ~ ! { x.m.m.m.U.H.Y.J.E.^ ~ ( D T.gXfXlXaXB.;.....B.kXfXgXkX(.c.m.m.c.a.| ..} !.cXfXfXfX../ ( ! ..j.m.m.m.' C ~ ( ",
"c.c.x.x././.!.3XG.| ..a.s.a.x.c.c.z.z.f.....x.Z.V.m.A.8X0X9XaX=XA.D.F.F.D.E.U.U.U.S.S.G.P. .! ( ( ;.wXpXpXaX*XA.F.S.A.6X0X9X0X4XG.J.Y.U.x.{  .:.",
"F.d.h.S.G.R.E.R.V.[ ..:.[ c.Z.b.m.b... ...:.s.m.x.s.A.kXhXhXxX=Xs.d.j.h.U.!.Y.!.J.c.d.c.c.{ W D D } kXlXgXAX*Xs.c.m.m.aXhXhXxXeX!.E.!.!.x.....X.",
"S.m.m.m.H.!.W.Q.D.[ z. ...c.c.m.M.x.:.:.....x.m.h.d.M.gXgXdXkX3Xs.M.m.c.E.T.Y.!.G.m.m.c.B.{ D ( D :.fXdXgXhX*Xc.m.m.M.aXfXpXhXqXU.W.R.!.x.......",
"S.m.m.m.R.R.Y./.M.....:...x.c.c.s.s. ...| | x.B.m.m.A.jXlXhXxX-Xd.h.h.A.T.R.R.!.U.c.d.m.B.' D ( D { hXhXkXvX=Xs.M.m.m.wXlXxXxX0XY.@XJ.!.>.......",
"Z.m.B.B.V.V.K.K.n.X.>...s.S.(.H.(.H.s.n.x.m.x.c.x.x.m.qX0XqXwX^.a.x...>.V.G.G.U.D.x.x.s.s.[ ] ' ^ :.9X0X9XpX^.z.c.s.m.8XwXqX0X3XD.U.J.H.n.>.x.N.",
"Z.d.m.n.! ! ~ C ] m.m.m.h.9XxXgXxXwXR.!.R.Q.N.} ..:...Y.Y.J.@X,.C ( D ! b.m.m.m.x.C D C Z x.m.x.S.V.Y.Y.U.U.B. .....| J.Y.G.R.G.s.m.m.h.U.>XR.@X",
"S.d.b.c.^ ~ ~ ~ [ b.m.m.c.9XlXgXgX0XY.R.R.R.N. ...[ ..R.R.R.).,.( C ( W x.x.m.M.s.~ ! ( C :.B.m.x.B.Y.W.!.@XV.[ X...} U.@X@X!.G.m.b.c.m.~.Y.Y.Y.",
"F.c.m.c.D ~ F D [ Z.c.h.s.0XhXfXkXwXY.R.Y.!.N. .:...z.T.Y.Y.!.n.C ( ( C B.m.m.m...! ( ! C a.m.m.h.M.R.R.Y.R.V.{ >.:...U.Y.W.R.V.h.b.Z.h.U.@XY.@X",
"S.s.B.c.^ C ! C [ m.h.s.d.pXxXfXxX0XR.W.R./.m.[ z. .>.U.R.!.W.x.Z C D D >.m.m.m.s.D ( D W a.m.c.Z.Z.Y.W.T.R.V.:.} :...U.Y.!.R.G.h.m.j.j.G.).!.@X",
"d.s...s.2X7X4X6X*XP.U.Q.D.H.H.H.H.T.M.V.M.M...^ ~ ^ ( v.n.>.j.T.rX6X4X7XT.D.U.T.V.a.a.x.x.z.a.a.:.a.V.V.V.V.:.~ ' ( ^ m.D.m.m.^.9XqX8X0Xm.' } ..",
"z.[ ;.,.gXlXlXcXqXY.@X!.Y.m.c.c.c.c.c.B.d.m.] D F D ~  .....' `.vXlXxXzX*X!.R.!.U.h.m.m.m.x.{ ..:...d.c.c.m. .D ! ! ( s.m.d.d.^.cXgXhXxX,.x ( ! ",
"z.[ } x.pXsXzXdX8XY.!.Y.R.m.h.h.m.d.c.m.d.m.[ ( ~ ~ ~ :.:...' !.hXsXfXhX&XY.R.R.U.m.m.m.m.s. .....z.m.m.m.m. .~ ( E ) s.m.S.s./.lXgXfXhXx.E *.~ ",
"..:.[ ..fXhXzXxX9XY.R.Y.R.M.m.m.m.S.m.m.m.M.] D D ! ! ;...z.../.xXgXhXgX&XT.R.R.H.m.d.b.B.a.] .. ...c.m.m.m.{ D / / ! x.m.h.d./.lXhXhXlXx.Z F ~ ",
"z.:.;.z.7X8X8XwX2XU.Y.Y.R.m.x.x.s.x.c.s.c.n.} ' [ ' [ ;.[ [ ^ T.aXwXpXpX!.U.U.U.V.s.s.c.x.n.>.x.x.s.m.c.d.m.x. .:.;.X.x.c.a.s.Q.gXwX0XjXx.W ( ( ",
"Z.m.m.s.^ W ~ W [ m.n.m.b.' ~ ~ ~ ~ ......:.V.Q.E.!.I.( ! ( ~ ..h.d.h.m...........! ~ D ! B.R.Y.T.T. .....{ /.CXhXgXfX} ! ( F :.R.R.Y.^.,. .:.:.",
"Z.d.h.b.F F ! ! { Z.m.m.B.[ D F ~ ( >.:...} V.!.W.R.U.~ ~ D F :.m.b.m.c...:.:...{ ! ) F C C.@XJ.W.U...:...] (.xXsXfXkX .D / / >.@XY.Y.Y.N.....X.",
"b.d.d.a.( D E ! ' c.d.d.b.^ D D ! ~ ..{ :. .M.T.T.Y.I.~ D ( C ..m.d.c.c...[  ...[ Z ~ ~ C C.R.Y.W.A.{  .a.{ /.xXsXfXfX .D Z D  .J.Y.R.T.,.{ [ ..",
"F.Z.F.Z.( ~ ^ ~ a.F.h.Z.F.| ~ ~ ^ { s.s.x.:.U.=X&X*X!.] ~ ' ! ..F.S.F.Z.x.x.x.s...( ( =.~ V.*X&X*X/.x.z.f...=XZXbXvXvX..( ' ~ v.*X;X@X&XB.f.x.x."
};
