/* XPM */
static char *result[] = {
/* columns rows colors chars-per-pixel */
"72 72 255 2 ",
"   c #030302",
".  c #020B04",
"X  c #0B0906",
"o  c #150D09",
"O  c #061D09",
"+  c #051306",
"@  c #16170C",
"#  c #181B12",
"$  c #24190C",
"%  c #2D1B14",
"&  c #03220B",
"*  c #09280D",
"=  c #1B2916",
"-  c #093712",
";  c #0D320F",
":  c #232815",
">  c #372718",
",  c #26371D",
"<  c #31310C",
"1  c #1B2A34",
"2  c #293B22",
"3  c #2E2D26",
"4  c #201E20",
"5  c #46291C",
"6  c #472921",
"7  c #593521",
"8  c #50382C",
"9  c #653C23",
"0  c #0A450F",
"q  c #0A4312",
"w  c #084916",
"e  c #0A571B",
"r  c #115315",
"t  c #185B1A",
"y  c #134716",
"u  c #23571C",
"i  c #0A5C23",
"p  c #0A5824",
"a  c #135D27",
"s  c #2E4323",
"d  c #354926",
"f  c #3A5C2D",
"g  c #39562A",
"h  c #305B2C",
"j  c #0A6727",
"k  c #0A732B",
"l  c #077B2E",
"z  c #097A2E",
"x  c #16782D",
"c  c #097930",
"v  c #156E2E",
"b  c #3D632D",
"n  c #3F6628",
"m  c #3E6432",
"M  c #3C6637",
"N  c #277232",
"B  c #136A1A",
"V  c #6F481F",
"C  c #445B31",
"Z  c #4C4F2C",
"A  c #694527",
"S  c #754724",
"D  c #74542F",
"F  c #41662E",
"G  c #42692D",
"H  c #416634",
"J  c #436A34",
"K  c #416639",
"L  c #446B3A",
"P  c #496D3A",
"I  c #496B35",
"U  c #58683A",
"Y  c #4B7335",
"T  c #4D743B",
"R  c #4E793B",
"E  c #4D7636",
"W  c #527B36",
"Q  c #52763C",
"!  c #537B3C",
"~  c #597D3D",
"^  c #517636",
"/  c #5A6C29",
"(  c #6F6939",
")  c #2E4C5D",
"_  c #5A4B4A",
"`  c #6B5843",
"'  c #486D41",
"]  c #4D7244",
"[  c #527541",
"{  c #547B41",
"}  c #5A7E43",
"|  c #597D48",
" . c #667A45",
".. c #776E4C",
"X. c #6E6967",
"o. c #143B4B",
"O. c #845937",
"+. c #8F6939",
"@. c #A3743D",
"#. c #8C7345",
"$. c #997744",
"%. c #8E6E4E",
"&. c #997E57",
"*. c #17832D",
"=. c #079D20",
"-. c #2C9633",
";. c #3B9C33",
":. c #379733",
">. c #308D2F",
",. c #3DA333",
"<. c #39A933",
"1. c #35AE31",
"2. c #0AB02B",
"3. c #56813D",
"4. c #5B833E",
"5. c #5E893D",
"6. c #5A8136",
"7. c #459833",
"8. c #4F9434",
"9. c #618B3E",
"0. c #60863C",
"q. c #50A631",
"w. c #6FAD35",
"e. c #558141",
"r. c #5C8442",
"t. c #5E8942",
"y. c #5E8349",
"u. c #5C874A",
"i. c #618545",
"p. c #628B44",
"a. c #698E45",
"s. c #63854A",
"d. c #648B4A",
"f. c #6A8D4C",
"g. c #6A874F",
"h. c #738C4D",
"j. c #659144",
"k. c #6A9346",
"l. c #669249",
"z. c #6C934B",
"x. c #6C984B",
"c. c #72944E",
"v. c #739A4E",
"b. c #76974C",
"n. c #6C8C52",
"m. c #668953",
"M. c #6D9352",
"N. c #6E9358",
"B. c #749553",
"V. c #799654",
"C. c #759A53",
"Z. c #7A9A55",
"A. c #759559",
"S. c #7A965A",
"D. c #7C9B5A",
"F. c #769B5A",
"G. c #758F55",
"H. c #7CA255",
"J. c #7DA25A",
"K. c #76A052",
"L. c #7D9B61",
"P. c #76A363",
"I. c #08F533",
"U. c #AF903E",
"Y. c #B2A43A",
"T. c #958B2D",
"R. c #C0A73F",
"E. c #A0D33D",
"W. c #D6CF3B",
"Q. c #E1D83B",
"!. c #EFEA3E",
"~. c #CBEA3C",
"^. c #819D5C",
"/. c #96854A",
"(. c #A88544",
"). c #B2904C",
"_. c #81A257",
"`. c #82A45B",
"'. c #85AB5D",
"]. c #89AB5E",
"[. c #84AA55",
"{. c #8CB25C",
"}. c #BCA849",
"|. c #839E62",
" X c #958766",
".X c #AE9572",
"XX c #84A462",
"oX c #86AA62",
"OX c #8AAC64",
"+X c #8BAB68",
"@X c #91AF69",
"#X c #8CB264",
"$X c #8DB36A",
"%X c #92B56A",
"&X c #95BA6C",
"*X c #9ABD6D",
"=X c #93B565",
"-X c #9BBD71",
";X c #95B771",
":X c #8EB171",
">X c #BAAF77",
",X c #C8A558",
"<X c #D7AA59",
"1X c #CFB24B",
"2X c #DDBA60",
"3X c #9CC26D",
"4X c #9EC273",
"5X c #A2C56E",
"6X c #A6CA6E",
"7X c #A3C673",
"8X c #A5C974",
"9X c #A9CC75",
"0X c #A4C57A",
"qX c #A6CA7A",
"wX c #AACD7A",
"eX c #A8C777",
"rX c #ADD17C",
"tX c #ADD376",
"yX c #B1D47D",
"uX c #B3D879",
"iX c #BEC541",
"pX c #DAC846",
"aX c #D4CE4C",
"sX c #E5D545",
"dX c #E4C94B",
"fX c #ECE741",
"gX c #F3ED46",
"hX c #F5F441",
"jX c #EDF54B",
"kX c #DEE343",
"lX c #384F97",
"zX c #7F7E91",
"xX c #817F91",
"cX c #3EB3DC",
"vX c #B1A788",
"bX c #A9A197",
"nX c #CEB289",
"mX c #D3B48C",
"MX c #D1B38E",
"NX c #AACD81",
"BX c #ACD181",
"VX c #B4D684",
"CX c #B0CF81",
"ZX c #D7C39A",
"AX c #E1C49C",
"SX c #D2CBB5",
"DX c #EBD4AE",
"FX c #FBE5BC",
"GX c #B4BCD7",
"HX c #84BEC9",
"JX c #85C5CC",
"KX c #FBE7C2",
"LX c #FDEED2",
"PX c #F8F9F5",
"IX c #D5D8D4",
/* pixels */
"t.3.3.u.tXyXrXuX=Xj.k.j.x.E L J J Y } ! ! 3.3.3.3.} e.Z.D.`.^.*XyXtXyXtXl.{ 4.e.r.k.l.j.x.! J T L [ Z.J.J.OXn.P P J G p.k.d.k.4.m ] ! ] z.x.z.z.",
"e.R Q } *X7X0X8X#X5.t.5.p.J H J L U #.#.#.D A E >.t s N N n.c.OX6XeX7X7X4.R W W 6.9.5.5.t.T b b m J V.D.L.`.g.' P ' J e.p.t.5.Q m ' P P d.l.M.l.",
"3.! ! r.8X9X8XrX#X5.p.p.d.P m K m ( @.(.(.O.S 7.;.r w l N n.c.].9X7XeXrXp.Q ! ! ~ d.t.p.p.] m H H P V.D.L.L.m.' [ ] ' u.4.t.p.! b C K K m.M.z.M.",
"t.3.Q ~ $X&X&X*X`.p.d.p.d.U #.).,XpXhXgXfXY.@.8.;.r 0 -.:.7.:.:.7.v N :Xp.! { { e.u.u.t.p.T J J m P XXoXXX+XN.' [ ] [ A.B.z.f.y.U [ } } m.m.u.z.",
"l.t.j.u.Y m H H } Z.V.V.G...U.1XdXdX!.!.gXY.U.8.;.r y ;.,.,.<.q.,.*.x n R e.e.3.3.! ! W 3.P m J b [ 0XNXNXCXoXy.y.s.s.S.|.|.D.@XNX4X4XwXg.I Q ] ",
"l.4.5.t.M L L m { ^.V. .#.Y.!.!.!.1XU.U.U.pXfXw.,.r 0 ;.,.,.<.7.,.;.-.v v v a y b R ! ! ! L H J m Y 0XeXeXVXJ.[ } i.} D.XX|.D.@XrX7X5XeX! H ' ' ",
"l.t.j.t.L J b H ! ^.h./.U.R.Q.!.gX1X(.(.U.sXgXw.q.t t >.:.;.<.,.,.,.-.*.z l j w h T ! W ! T H J m R eX8X8XyXoX[ } ! } A.|.|.|.@XwXCXwXNX| L H L ",
"l.t.p.p.M J J m } ..#.}.!.W.U.,XdX<X<XsX!.dX2X1X}.8.:.r t :.,.,.,.,.,.,.-.l l l i y b ! Q L m m m R 0XeXCXVXOX| | T Q G.V.S.L.:XVXCXrXCXm.K J K ",
"u.r.4.e.T R T P 4. .#.}.Q.1X@.).<X<X<XdXgXdXdX<X,Xq.;.0 r :.7.:.:.:.:.,.-.l l l j w h 3.3.i. .i.} s.A.N.M.F.z.s.m.! r.XX@X;X-X@X`.'.J.XXN.g.h.g.",
"4.^ W ! { ! { { ~ p.i./ S S V @.<X@.9 @.@.sXhXU.(.7.,.0 r :.;.r q 0 r ,.-.l l l l c e q H c.Z.D.D.a.n f m M } C.x.l.d.-XCXCXVX;XQ | | } L.+X^.`.",
"3.! ! R ! R { { 4.p.d.U Z D D @.).%.O.@.).aXsX)./.w.w.B t >.>.t r w i -.-.l z z z l j w F c.V.V.V.G.J L L K | z.M.d.d.-X9X9XCX+X} { e.} L.L.D.^.",
"3.[ ! { { Q ! R r.9.9.9.0.=X8X .o ..MXMXmX).(.$.(.Q.!.q.>.r r >.<.k l *.l *.c z l z l z N C.Z.V.D.f.H K m m | c.l.M.B.qXwX9XCX+XT Q ^ ! N.L.S.^.",
"e.3.R R 3.3.t.3.3.t.t.p.p.#XeXU   X.mXmXAX.X).}.Y.W.Q.7.>.e e >.>.l l l l l z z l l z c N U m.B.B.f.J H J H { z.l.f.m.0XCXeX0XXX!  .} ~ f.V.z.F.",
"l.t.t.l.4X4X4X4X`.m L L J Q r.s X ..mXDXKXAXMXjXhX)./.x z z k 0 0 l l l l l z l z l z l -   2 J P P s.t.4.p.e.! u.u.i.L.|.^.Z.`.-X-X4X4Xa.Q ! y.",
"x.5.p.p.7X9X9XwX`.b L H H Q ! s X A .XvXvXMXAXjX!.U.@.5.3.k p p e j j l l l l c z z z z w O , d f J p.u.t.9.e.{ r.r.s.D.D.V.B.OX8XeX7XwXd.Y ! { ",
"l.5.s.k.4XeX7X9XXXb L J J Q ! s   5 9 % o vXKXjXhX(.(.<X).u w c k 0 w l l l l l z z z z i w O   s J 5.5.t.p.} ] u.| y.S.|.S.h.].5X7X5X8Xf.! Q { ",
"l.j.p.f.8XrXrXyXXXf J m J H d C _ _ _ X.X.SXFXaXQ.R.).@.@.#. .N.P.m.y.j i j i w e i k c e 0 O   2 J p.p.i.a.} R W r.m.L.|.|.S.+X9XqX9XNXl.R Q ! ",
"t.3.e.t.J.J.J.'.z.Y T T R d   ` nXzXlXGXPXLXFX.X@.R.<XS O.nXMXFXKXFXZX0 0 0 * . O 0 i c i - O   d T e.! ^ ~ ~ s.s.n.n.n.n.g. .V.#X'.#X#Xz.} i.d.",
"3.{ e.R b b b f R d.d.p.p.g   ` MXxXlXGXPXLXFX$.O.W.W.O.O.mXDXFXFXnX.X* O & = s , & w c i 0 O   g t.F H J b y._.V.D.L.[ P P m I 4.5.6.0.B.D.D.D.",
"e.R R R L L L L Y 9.p.t.p.d   ` MXzXlXGXPXLXKXO.O.Q.!.O.O.DXFXFXDX$.O.      = Q g   w l e q O   g r.J L J H } Z.S.c.|.| ] ] L T d.t.p.0.B.V.V.D.",
"e.Q ! W L M m L E p.p.p.d.I d Z _ X.bXSXLXLXKXO.O.Q.!.U. XHXJXvX>X7 >   = d b Q d   - e - O , F ~ r.I J H m } D.^.V.L.Q P ' M T p.u.t.9.V.Z.V.^.",
"3.{ { Q J J J b Q p.p.p.u.e.R s X _ nXDXKXKXKX+.O.Q.!.dX>XcXcX X#.X     = R { Q d   & - O   d 5.p.0.G J J m y.D.h.S.G.Q J m m E p.p.5.9.B.Z.V.Z.",
"j.t.t.d.$X&X%X-XJ.! 3.3.3.t.t.Q C Z 8 .XAXAXMX>X.X@.T.Q.aX) o.> 5  X/.Y.T.M.B.B.s.C , O s C H L I ] e.4.t.4.~ } } ~ } i.t.4.e.C.3X-X3X-Xv.p.p.z.",
"l.t.t.l.7XtX9XtXoXR ! Q W i.p.p.u.C   %.MXMXMXMX>XD V !.W.<     = nX>XhXiXZ.Z.D.c.r.s   g T H H H J d.p.p.a.~ ! W ! R p.9.9.i.H.9X7X6XrXv.4.9.p.",
"l.t.t.j.4X8X8XeX'.R ! ! ! 4.p.p.r.Z   $ > g f f f $ $ 1X,X@ . ; ; 3 3 5 n V.V.D.B.i.~ I r.Y H L M Y p.t.p.9.r.{ ~ ! Q t.u.d.4.H.9X5X5XqXx.t.p.p.",
"x.j.p.j.7X9X9XVX].Y ! Q W t.l.p.t.g       ; q - - + @ ,X).# . - -     X < Z.Z.J.b.p.9.9.d.Y H H m M t.t.t.t.{ Q ! { W d.l.p.t.H.BX9X9XrXv.p.j.p.",
"r.{ ! 4.OX#XoX#Xv.3.t.e.3.3.{ d o > 7 % . e k & X  X.X> = a j k j . = D.f.g.f.f.f.e.t.5.t.} Q Q { 3.H.Z.v.H.z.} s.i.i.3.3.t.4.z.$X=X#X$Xd.3.3.y.",
"J L J F E R W W { p.t.d.s.T f 2 X > 9 $ + e l & # .XvX@ & j k c k   @ R H m m b J { ! Q ^ z.^.Z.V.`.9X9X9XrX=Xc.Z.D.D.~ ! ! R 3.9.4.9.p.J F F J ",
"L m H P ! ! ! E r.j.5.9.l.d X 1 ) 1 o w j c l j j = 4 j j & & j k . # ! J H L J L ! Q ! ~ f.D.Z.V.^.0X9X8XwX=XB.D.V.A.~ ! ! { r.p.p.5.t.I H J L ",
"J L H J { ! 3.! 3.p.p.i.4.d o 1 ) 1 + t *.x *.k j & & N v 4 = j j X # T J K L H T ! ! 3.^ f.Z.Z.V._.7X8XeX9X@XV.V.V.D.} { } R ! d.p.p.j.T m H L ",
"G m H H [ ! ! Q e.u.5.g X > A > X h :.E.jX7.z & O a v IXPXPXGX4 X A 5 . = K M m J ! { ! Q f.^.Z.Z.`.9XwXrX9X%XV.V.Z.F.~ E W Q 4.p.p.p.s.T H F H ",
"M.z.f.d.p.4.r.3.v.&X{.s., > 7 % X a 7.E.~.8.N @ @ p v IXIXIXSX4 . A 8 O = C I R ! 5.4.r.i.~ Q [ [ ! C.C.v.v.f.y.i.i.p.oX$X#X$XF.! 3.3.~ r.n.d.G.",
"`.D.Z.V.j.j.p.t.J.wXyX6X9XC X X . u 1.q.q./ V 9 7 @ X 8 8 8 8 o . x k k p + 2 } ~ p.j.9.p.R m m m M t.t.4.t.3.! W ! W 7XyX9XCX{.E ! ! [ B.D.V.`.",
"`.Z.b.V.p.t.t.4.H.9X6X5XqXU : #   r -.-.,./ V / Z o   6 6 7 7 % # e i i -   = { 3.p.t.t.s.E m J J P t.j.p.t.e.} ! { e.*X7XeX9X'.T { ! ! z.Z.V.Z.",
"`.A.F.F.d.p.l.t.H.rXeXeXrXd.Y d   w *.-.<.7.7.x v O   6 7 9 9 9 9 . . .     = T ! p.5.p.d.Y n J m L p.9.9.9.~ R Q T ! *X9X8XrX#X{ ! ! { B.Z.Z.J.",
"C.B.C.B.r.e.r.! F.7X*X*X0Xl.W d   - j -.1.1.<.*.x - @ % 6 9 9 O.` o     X = d d.d.t.t.t.t.Q J T L Y r.t.t.t.p.d.p.d.f.%X3X3X4XF.T Q ! T d.B.G.B.",
"z.d.9.i.J F J m ~ V.b.V.^.p.i.d       =.I.1.1.,.;.z k . o 9 O.DXSXX     s rXwXwX{.Q ! ! ! t.p.p.p.u.! ! ! R J.NXqXqX8Xk.4.5.d.3.m m J m E ~ ! ~ ",
"x.4.9.i.J J J m } D.^.V.V.i.Y d $ o o k 2.>.N N N a p . X 7 9 vX.XX   = [ eX4XwX=XQ e.! R t.p.9.9.p.! ! ! R J.rX6X6X9Xk.u.p.d.3.m L J M T ! ! ! ",
"x.t.p.s.J J L H } Z.V.Z.V.C   > 9 7 5 @                 X 6 > o X   # L %X6X0XwX#XE ! ! Q 3.p.p.p.t.! ! ! Q J.tX5X8X3Xx.d.5.l.e.H L J m Q ! ! { ",
"k.t.j.s.m b b f Q ^.Z.D.V.I   % S 9 7 % o $ o X   , ,   X % % X . = 2 C *XyXwXwX=X! ! { ! t.p.9.t.9.R Q ! E J.VXwXrXrXl.t.9.9.! f m b m Y ! Q ~ ",
"e.T [ R J.H.D.D.F.u.p.i.d.g   > S 9 S 7 6 6 6 o X ^.XX+         X R 3.! J.%X].@XD.J T P J i.b.c.b.f.4.t.3.4.d.N.N.N.f.c.h.M.z.V.H.Z.J.`.c.f.f.a.",
"m M M P NX9XrXVX[.T { T { g , > 5 5 5 % % % % Z U 7X4Xd , , , , d M.d.t.B.V.V.Z.d.F H H H f.D.Z.S.V.9.p.l.l.I f n f F n.D.D.C.OXCXwXwXNXOXS.Z.^.",
"L J J Y 4X9X8X9X{.E 3.~ { J J 2               +X7X6X7X~ [ | T 3.p.t.p.p.V.V.Z.D.f.H L L H s.F.Z.D.c.9.p.4.t.~ J L L J A.D.V.b.].9X8XeX9X_.V.Z.Z.",
"J M n J 4XeXqX9X'.T Q Q ! J M g , 2 2 d s 2 Z 7X8X9X4X! Q } ! 3.p.9.9.p.C.Z.V.D.f.K H K b s.D.Z.Z.B.9.p.p.j.Q m m M H B.V.V.V.].9X6XeXeX`.V.D.D.",
"T P J T -X6X0X8X].3.e.4.i.P P P P P e.t.} 4.'.0X3X7X-Xt.! ~ ~ e.u.9.t.p.M.A.B.A.f.J J J J d.C.V.C.M.d.d.d.d.W J P J J f.D.V.c.OXeX7X4XeXJ.B.C.C.",
"l.r.r.u.C.Z.D.V.OX7X8X7X7X_.V.V.B._.8X5X0X0XH.9.a.9.k.M.V.Z.D.p.! 3.R ! I J I I P i.t.p.t.4.! ~ ! r.V.Z.C.C.d.E R { Q p.d.a.4.c.D.D.Z.H.a.p.p.j.",
"x.t.j.d.b.V.S.V.+X9X8X9XeX`.c.Z.V.`.tX8X0X9XK.4.d.9.d.F.Z.V.Z.g.! ! ! e.J L K m Y p.9.p.p.3.! { ! ~ C.D.Z.D.d.Q e.! ! p.p.p.i.z.V.V.C.Z.f.d.t.j.",
"j.t.t.d.b.D.S.V.OX9X7X0XwX`.V.S.A.XX9X8X7XtXH.4.u.9.p.D.V.Z.^.a.Q 3.{ ! J J H J T d.p.t.l.! ! { R 4.V.V.Z.Z.d.{ ! { ! 5.t.t.p.f.Z.D.Z.V.d.p.4.j.",
"l.u.j.p.v.V.S.c.OXwX9X9XtX'.Z.D.V.OX9X9XBXrXH.0.d.p.d.D.V.^.^.i.T T E W J K J m T t.4.4.9.3.! ! R } Z.Z.L.^.i.Y Y ^ R t.l.t.p.M.F.D.V.Z.k.p.j.j.",
"4.3.~ 3.OX].OX+XOXOX{.'.#Xf.s.s.y.n.{.].oX#Xv.f.k.z.a.p.i.r.r.f.C.J.C.C.! L Y J { J.'.`.XXd.! e.{ r.k.f.f.d.c.Z.C.Z.C.3.W W 6.i.V.z.z.c.r.! ! 3.",
"J m m L 0X9X9XyX{.4.p.4.p.F b b m J t.4.3.5.x.F.D.b.D.H H ' h F.yX8XrXrXs.R 3.Q M.rX9X9XrXK.5.l.p.5.^ Q ! R J.rXrX9XBX[ M L b Y 9.t.t.p.P m m J ",
"L J J J 4X6X8X9X{.4.l.t.d.T K L L T d.j.j.t.c.Z.S.V.S.H b L m A.rX8X7X7Xr.! ! Y l.8X5X5XrXK.4.p.p.u.e.3.! R J.9X6X7X3X! M J M T p.p.t.d.T m m L ",
"P b H P 4X6X0X0X&X4.p.t.d.Y m M m E p.5.t.t.c.Z.^.D.A.L G J f M.yX8X8X8Xu.! ! E M.wX9X6XrXH.r.p.p.u.W R Q R J.rX8XqX6X! m H m T p.5.5.p.T M H P ",
"Y M H P -X9X8X9X{.5.9.p.d.Y G J F Y t.p.p.d.c.b.V.V.B.L J L m C.9X4XwX4Xs.! ! ~ s.wX8X7XqXK.t.p.p.p.3.W ~ Q J.9X7X7X7X{ K P m Q 9.p.p.p.E m J J ",
"p.r.t.t.`._.D.XXz.W ! ! 3.3.4.u.u.4.e.6.~ Q t.j.a.p.z.&X*X&X3X'.9.x.x.x.f.A.B.B.C.l.l.z.M.R J J L Q -X4X&X3X`.k.z.x.k.#X*X&X-X+Xb.B.V.V.} R Q { ",
"x.5.9.l.v.V.S.D.f.! ! { ! t.j.p.p.u.! R ! { 4.p.p.4.j.8X9XeXyX'.i.5.9.9.V.^.V.D.c.5.t.t.t.W m H m Q qX9X8XyX`.4.5.t.p.4X9X9XrX;XC.S.Z.Z.i.Q ! ! ",
"l.p.p.9.c.D.D.A.M.W e.Q ! t.p.5.p.p.! [ ! ~ r.p.9.5.p.7X7X5XqXoX4.p.p.s.C.F.V.V.c.i.d.p.d.E m J m [ 8X5X0X9X[.u.d.p.p.4X7X3X9X=XV.V.Z.Z.y.Q ! { ",
"k.p.p.a.D.D.V.J.k.T [ ! ! r.p.t.4.3.! ! W W r.s.p.p.k.eXrXtXrX].9.9.9.a.F.Z.D.D.B.9.9.9.l.Y m K m R 9XtXqXyX'.4.d.p.p.-XrXtXrX*XZ.^.B.D.t.Q ! ! ",
"k.t.d.d.f.s.n.n.i.! e.~ 3.l.C.v.K.v.4.i.r.p.t.r.t.r.a.%X*X=X*XJ.3.r.{ ~ z.B.b.z.M.e.t.3.! Q R Y Y { =X*X*X3XH.3.9.4.t.%X-X=X*XOXc.c.b.v.i.y.~ s.",
"l.5.p.i.H H m m T p.d.p.9.&XrX9XrX-XZ.D.F.Z.i.Q R { Q S.b.b.^.| n K H H y.p.p.p.3.b H b G 3.p.i.l.d.V.V.V.c.s.R ~ W W V.V.c.Z.c.3.p.p.p.B.D.Z.`.",
"j.t.t.e.J J J J R t.p.p.t.&XrX7XeX*XV.D.V.D.s.Q ! ! ! A.D.Z.D.| L m J G t.t.p.p.3.H J L J 3.d.p.t.f.V.S.D.^.f.T ! ! W V.^.^.V.c.p.t.j.p.B.^.b.^.",
"l.j.j.j.J J J m ] j.t.5.5.&X9X7XeX-XV.Z.b.D.s.Q e.! 3.C.V.V.D.s.b P L b s.p.p.p.~ H L H b ! d.p.t.p.Z.Z.b.D.f.R } ! Q B.V.S.S.z.9.u.t.9.B.V.V.^.",
"l.4.u.t.J n b b T j.9.5.9.3XrX7XrX*XZ.D.D.J.p.Q e.Q } B.Z.D.Z.4.n b b H } p.p.p.4.H L J b 3.p.9.p.l.V.Z.Z.Z.d.{ Q { ~ c.C.D.Z.c.9.p.5.9.c.S.V.^.",
"4.3.~ 3.oX:X$X#X`.M.B.F.z.v.v.v.v.v.d.f.a.a.3.J J P J y.i.} 4.F.:XOX#X+XF.z.B.C.f.3.~ e.e.3.3.3.! 3.d.n.f.z.{ J J Y I d.f.d.p.H.&X%X=X-Xi.Y ^ Q ",
"e.! [ } eX9XwXtX=XV.D.D.D.d.t.t.p.t.u.p.5.p.T m M J J Q ! ! T L.yXwXrX9X`.D.Z.D.V.p.p.p.d.4.Q ! ! ! 5.p.t.p.Q m H H K t.p.5.5.H.tX0X9XrX} n M K ",
"e.R ! e.3X5XeX7X%XV.Z.V.Z.p.9.9.p.5.t.p.5.j.R J L J J { { ! E H.9X5X6XeX_.V.Z.Z.B.t.p.5.p.3.W 3.! { p.t.p.p.Q J P F P 4.p.l.4.J.tX9X8X9Xy.b L L ",
"3.{ [ ! 7X9X9XrX&XV.V.Z.Z.a.p.p.p.p.p.p.9.d.Y m m H H Q ! e.! J.rX8X9X8X`.V.Z.Z.c.j.5.t.d.3.^ Q Q ! p.p.9.9.R m K H H 3.t.9.5.J.9X9XeXwXr.n K H ",
"3.{ R e.$X%X%X-X'.V.V.V.Z.i.4.r.t.r.t.5.t.i.Q T P Y Q [ T T Y C.4X-X3X3XF.B.B.B.z.4.4.u.e.i.r.y.r.3.p.t.5.d.e.Q [ [ ~ t.t.4.3.F.0X-X*X7Xy.F P L ",
"l.p.p.3.Y H J F T p.p.i.p.E J J J J ! ! ! 3.z.A.F.F.N.L J J J ! p.5.9.p.Q { ! 3.Q H L m J s.V.V.Z.B.Q ! { R J.BX9X8X7XQ H L m } Z.Z.V.D.} ! { ! ",
"j.4.p.p.M M H H R j.p.p.s.T M J J J | ! R R f.D.D.V.A.J M J m { p.t.p.t.3.{ ! R R J L L F d.^.V.D.C.! ! ! E H.qX5X7XqXQ M K M } Z.V.V.Z.y.{ ! { ",
"j.e.5.4.L M F H Y t.5.5.t.J M m H J ! Q { Q a.Z.V.V.C.J m J m ! p.u.5.t.R R Q ~ R n H J f g.Z.b.F.k.Y W ! W J.rX5XeX7XQ H n H Q Z.b.Z.Z.} W R ! ",
"x.j.k.j.J J Y H ! x.j.j.x.W J J I E r.3.r.{ v.`.^.`.S.T J P J ! x.l.k.k.t.e.4.3.! J L ' J f.`._.`.D.y.e.3.! oXuXtXyXyX{ J Y H y.].`._._.s.3.e.t."
};
