/* XPM */
static char *_1f37dac74d54036865d45effb3e8863cTZ9nEkHtQmdI5DN[] = {
/* columns rows colors chars-per-pixel */
"72 72 256 2 ",
"   c #020202",
".  c #0A0402",
"X  c #020C02",
"o  c #0A0A08",
"O  c #150D08",
"+  c #061406",
"@  c #17160B",
"#  c #1B1A13",
"$  c #0A0C12",
"%  c #25150C",
"&  c #281913",
"*  c #301914",
"=  c #04290C",
"-  c #07260C",
";  c #08370D",
":  c #052B12",
">  c #1B2614",
",  c #0D3B12",
"<  c #073613",
"1  c #133913",
"2  c #242918",
"3  c #382415",
"4  c #27361D",
"5  c #393711",
"6  c #342B22",
"7  c #2E3323",
"8  c #122024",
"9  c #492B1C",
"0  c #55341D",
"q  c #4D301D",
"w  c #482A22",
"e  c #493525",
"r  c #573523",
"t  c #493E31",
"y  c #673D23",
"u  c #6E3F1E",
"i  c #09420E",
"p  c #08460E",
"a  c #0A4211",
"s  c #074815",
"d  c #164617",
"f  c #09581A",
"g  c #115514",
"h  c #1B651C",
"j  c #09621F",
"k  c #246E1D",
"l  c #0A5923",
"z  c #0E5225",
"x  c #374828",
"c  c #3B582B",
"v  c #31522A",
"b  c #0A6625",
"n  c #166727",
"m  c #0B742C",
"M  c #067B2D",
"N  c #097A2E",
"B  c #0B7A28",
"V  c #12752B",
"C  c #0A7A31",
"Z  c #097832",
"A  c #137532",
"S  c #1A6733",
"D  c #3C632D",
"F  c #3E6829",
"G  c #297626",
"H  c #3E6433",
"J  c #3A6536",
"K  c #2E702D",
"L  c #234C1D",
"P  c #6F4C1C",
"I  c #45572A",
"U  c #485834",
"Y  c #53472C",
"T  c #6D4424",
"R  c #694428",
"E  c #724324",
"W  c #764826",
"Q  c #75512E",
"!  c #42672D",
"~  c #416633",
"^  c #436B34",
"/  c #446B3A",
"(  c #476A38",
")  c #566A3A",
"_  c #4B7335",
"`  c #4D743B",
"'  c #4C7839",
"]  c #51753B",
"[  c #537B3C",
"{  c #597D3D",
"}  c #537837",
"|  c #5A6C29",
" . c #687337",
".. c #5D5714",
"X. c #28394D",
"o. c #0E3246",
"O. c #334F6E",
"+. c #685A48",
"@. c #4D7244",
"#. c #547B41",
"$. c #597D43",
"%. c #537844",
"&. c #4C6C47",
"*. c #6F6F4B",
"=. c #5F5D54",
"-. c #967234",
";. c #81542D",
":. c #997946",
">. c #8D734E",
",. c #A37C44",
"<. c #A27B48",
"1. c #A07F58",
"2. c #8D7C66",
"3. c #19852C",
"4. c #1F8832",
"5. c #279333",
"6. c #3A9835",
"7. c #2B892F",
"8. c #3BA42F",
"9. c #3CA333",
"0. c #38A437",
"q. c #30B733",
"w. c #0FA62A",
"e. c #56823D",
"r. c #5B843E",
"t. c #5E893E",
"y. c #548433",
"u. c #429A35",
"i. c #518A2E",
"p. c #628A3E",
"a. c #60863C",
"s. c #699538",
"d. c #41A133",
"f. c #56A82F",
"g. c #71B135",
"h. c #13E534",
"j. c #7AC331",
"k. c #5C8342",
"l. c #5E8942",
"z. c #598244",
"x. c #618545",
"c. c #628B44",
"v. c #62864B",
"b. c #648B4A",
"n. c #6A8D4B",
"m. c #698D47",
"M. c #659245",
"N. c #659249",
"B. c #6B934C",
"V. c #6A9346",
"C. c #72944E",
"Z. c #749A4E",
"A. c #6A8C52",
"S. c #6D9353",
"D. c #749553",
"F. c #799755",
"G. c #759954",
"H. c #7A9A55",
"J. c #7C9B5A",
"K. c #78975A",
"L. c #748C50",
"P. c #7CA259",
"I. c #69A342",
"U. c #7C9A64",
"Y. c #7CA761",
"T. c #998E3C",
"R. c #A7893B",
"E. c #B3993B",
"W. c #A98D33",
"Q. c #BBAB39",
"!. c #91BA3B",
"~. c #C7B138",
"^. c #ACD93C",
"/. c #E7DD3D",
"(. c #F9FC3D",
"). c #F0EB3E",
"_. c #C9D03D",
"`. c #819D5C",
"'. c #809E56",
"]. c #908A48",
"[. c #A88446",
"{. c #B08F56",
"}. c #83A45B",
"|. c #85A85B",
" X c #8CB25C",
".X c #BAA64D",
"XX c #8D9167",
"oX c #B09270",
"OX c #8AAC64",
"+X c #87A864",
"@X c #8DB367",
"#X c #9BBD6D",
"$X c #94B86A",
"%X c #9BBD72",
"&X c #95B471",
"*X c #91AE69",
"=X c #BCA06E",
"-X c #C79C53",
";X c #C5A646",
":X c #CCA559",
">X c #DCAD5B",
",X c #D6AB58",
"<X c #D7B74F",
"1X c #CBA86E",
"2X c #9DC273",
"3X c #9CC36B",
"4X c #A3C76E",
"5X c #A3C673",
"6X c #A5C974",
"7X c #A9CC75",
"8X c #AACD7A",
"9X c #A5C879",
"0X c #ADD17C",
"qX c #ADD376",
"wX c #B2D57B",
"eX c #B5E141",
"rX c #DBCC46",
"tX c #E5D746",
"yX c #E3C84D",
"uX c #EBE446",
"iX c #F3E946",
"pX c #F7F743",
"aX c #EDF249",
"sX c #EDE861",
"dX c #3B4F98",
"fX c #495489",
"gX c #6B6E8E",
"hX c #6DA49D",
"jX c #31AEE2",
"kX c #5BBCE4",
"lX c #B6A68C",
"zX c #A8A99F",
"xX c #C8AC87",
"cX c #CAB188",
"vX c #D5B58D",
"bX c #D6B78C",
"nX c #D8BA94",
"mX c #CBB494",
"MX c #AACD81",
"NX c #B4D684",
"BX c #ADD181",
"VX c #ADCBB6",
"CX c #DAC39A",
"ZX c #E8DBB4",
"AX c #EED5AD",
"SX c #FBE6BD",
"DX c #F9E5BA",
"FX c #D8D4AE",
"GX c #BBD1CF",
"HX c #BEC9E0",
"JX c #FBE8C4",
"KX c #FAEBCF",
"LX c #FBFAF8",
"PX c #F2EEEA",
"IX c #D3DBC9",
"UX c #B4BACC",
/* pixels */
"l.e.[ v.0XNX8XwX$Xc.V.M.B._ ^ / ^ _ z.e.e.r.e.k.k.k.r.P.}.}.J.%XwXqXwXqXm.$.k.z.k.V.N.M.B.%.^ ^ / %.H.J.J.+XA.` ` ^ ! c.b.b.N.r.^ @.%.@.B.B.B.B.",
"e.' ' $.#X5X9X6X@Xr.c.t.c.^ ~ ~ ~ ^ #.[ [ [ [ [ [ _ { G.H.H.D.OX4X6X5X5Xk.' } ' { l.l.p.c.` H ^ H ( D.J.J.}.v.&.` &.^ l.c.l.t.[ H ` ( ` b.B.S.b.",
"e.[ [ k.6X7X9X0X@Xl.c.c.b.^ H H H ^ #.[ ) ) ) ) ) ) ) *.*.x.k.B.|.OX@XY.' J ] [ [ c.c.c.c.` ~ ^ H / F.J.J.`.v.@.@.&.` l.r.r.c.#.H ~ ~ ( n.A.B.C.",
"l.$.[ { @X$X$X#X}.c.c.c.b.' _ _ ^ _ k.$.*.:.:.>.:.:.Q R R } u.6.n d d n A S J $.k.l.k.l.c.` ~ ^ H ` +X+X+XOXA.@.%.@.%.S.D.B.n.x.] @.#.$.v.A.n.n.",
"N.c.c.l.^ ~ ~ ~ $.J.H.H.J.b.c.c.l.m.J.G.>.,.<.<.,.,.;.E E y.8.6.h a a b N A ' t.t.[ [ [ [ / H ~ D [ 5X8XMXBX+X$.z.v.x.J.+XJ.J.*X9X5X5X9Xv.^ ` @.",
"N.t.t.l./ / ~ H $.J.F.H.H.c.$. . .L.].].[..XQ.Q.Q..X-.Q Q i.8.9.h i a n 3.3.K e.[ _ ' _ _ J J H H _ 9X8X8XwX+X` $.x.k.J.+X`.`.*XwX5X4X6X{ ~ ` &.",
"N.c.c.l./ ~ ! ~ [ J.F.H.H.x.*.:.:.{.:X:XtXpXpXpXaXaXE.-.:.s.9.9.h i i 7.9.0.6.u.u.6.6.6.7.V A K H ' 9X5X9XwX+X%.$.[ $.K.`.+X`.*X7XMX8X8Xz.~ ~ ( ",
"N.x.c.c.~ ~ ^ H %.'.H.J.K.x.>.,.[.-X>X>XuXpX(.(.(.pX.X,.:.s.9.9.h i i 7.9.9.9.9.9.9.9.0.5.N Z S H ' 9X8XBXNXOX$.$.' %.A.F.J.K.&XNXBX8XNXv./ ^ H ",
"l.$.r.k.` ' ` ( r.B.B.x.$.L.T.E.E.<XyXrXtXtXtX/./.tX~.E.E.s.8.9.h i i 7.9.9.9.9.d.d.9.9.5.3.3.K ` @.$.$.#.v.k.%.v.{ r.+X*X&X%X*X}.}.}.+XS.A.n.A.",
"k.] } [ $.[ $.#.{ c.r.*.:.-.tXiXiX(.pXiX~.R.R.[.R.R.rXiXaXg.9.9.h a i 7.9.9.d.9.9.9.9.9.9.0.0.7.V A V m m l , 1 ~ n.c.%XNXBXNX&X} z.$.$.U.+X}.+X",
"e.[ [ [ [ [ [ $.k.c.x.>.,.R.uX(.(.(.(.pXQ.<.<.<.,.-.tXpXpXj.8.9.h , i 7.9.9.9.9.9.9.9.9.9.9.9.5.N m M M C b i a H n.m.%X7X7X0XOX$.[ k.k.U.U.J.`.",
"e.%.[ $.[ [ [ ' { { { T.E.E.tX/.uXiXiXiX~.[.[.E.E.E.rXiXiX!.s.f.G g g G 6.6.6.9.9.9.9.9.9.9.9.5.3.3.3.M N b s s v b.v.%X8X7XwXOX` ` _ [ K.+XJ.J.",
"k.[ [ [ r.r.r.{  .:.-.rX).uXE.R.R.;X<X<X,X,X,XtXiXiXyX<X<X<X:X:XI.6.6.h p p 7.d.9.9.9.9.9.9.9.9.6.0.4.M N N m m l d d @.MX9X9X+X[ $.{ { b.G.C.H.",
"M.l.l.N.#X5X2X*X>.<.[.uX(.pXE.<.[.:X>X>X>X>X>XiX(.(.yX>X>X>X>X,Xg.u.9.h a i G 9.8.9.9.9.9.9.9.9.9.9.5.M N M M M b i a H `.`.H.}.2X%X5X2Xm.[ { z.",
"N.t.l.c.5X8X6X#X*.>.-.rXuXtX[.:.,.-X>X>X:X-X;XtXiXiXyX<X<X,X:X:Xg.d.9.h a i G 9.8.6.6.6.6.6.6.6.9.9.5.M N N N N b s s J K.L.D.+X6X9X5X8Xc._ [ [ ",
"N.l.b.m.2X9X5X7X}.c ( P P P E W W {.>X>X-.W W -.R.R.tXpXpX;X,.[.s.9.9.h i i G 9.9.k p p p p p G 9.9.5.M N N N N N m m l d d c |.5X5X4X6XB.[ [ $.",
"N.l.c.B.6X0X0XwX+Xc ~ Y E E E E W {.>X,X-.E E -.,.[.tXpX(.~.:.:.s.9.9.h a i G 8.9.k i a a a a k 9.9.5.N M N N N N N N b i a c OX7X8X8XMXn._ ' [ ",
"l.e.r.l.P.P.P.|.B.` ` Y R R R R Q :.{.{.-.Q ;.:.{.[.rXuXuXQ.:.[.s.f.f.k g g G 6.6.k g g s s s V 6.6.4.N N N N N N N N b s s v D.@X|. X@XB.k.x.b.",
"e.%.#.[ H D D c ` b.b.x.k.{ ] { ] 7 @ % 2.xXxXcXcXcX{.R.R.[.<.,._.aXaXg.6.6.h s p G 6.6.4.m m m B B B N N N N N N N M M m m S _ r.r.y.a.D.J.J.J.",
"z.[ [ ' / ~ ~ / _ c.c.c.c.{ [ [ ` >   O 2.bXbXvXvXvX{.,.<.<.<.[.rXpX(.j.8.9.h a i G 8.9.5.N C N N N N N N N N N N N N M M C S ` c.l.c.a.D.F.F.J.",
"z.[ [ [ / ~ ~ / _ c.c.c.c.[ [ [ ` >   O 2.vXvXnXnXnXoX[.{.R.E.E._.uXuXg.6.6.h s s G 6.6.4.M C N C C N N N N N N N N N C M C S ^ { z.c.p.G.J.H.`.",
"k.%.%.[ ~ ~ ^ D [ c.c.c.l.e.[ [ _ >   O 2.bXvXAXDXDXnXcXcXtXiXiX~.R.R.i.N N m m m f p p j N N N N N N N N N N N N N N N M C z + o x t.p.D.H.G.H.",
"c.l.l.c.@X$X$X#XP.[ $.[ e.k.l.l.$.2   O 2.vXvXAXSXJXCXvXvXuXpX(.;X<.<.' Z N m M M l a a b M M N N N N N N C N N M M N N M C s     x #X#XG.c.c.m.",
"N.l.l.m.6X7X7XwX+X' [ [ [ l.c.c.r.2   O >.1X1XmXCXCXCXnXbXiXpXpX~.:.:.{ 7.G A m V f s s f m m m M N N N N N N N N C C N M N s X X c $X2XV.r.c.c.",
"V.l.l.M.2X7X6X8X|.[ [ [ [ k.c.b.[ >   . r Q Q 9 2 6 lXJXDXsX(.pX;X:.,..X.X:X_ a s b m m l s s j N N N N N M N N N N N M N N l , , 1 2 > x r.c.c.",
"B.b.c.V.6X7X7XNX X_ [ ' } t.N.c.r.2   . q W E %   o lXJXDXsX(.pX;X<.,.-X>X>X| , a b M M f , , f N M M M M N N N N N M M M M b a a -     4 x.c.c.",
"k.#.[ r.OX@XOX@XG.[ k.k.e.r.[ [ _ 4 @ @ e R Y 6 # 2 lXJXSXsXiXiXQ.[.[.-X:X:X .L d K 7.7.K L L n m m m m m m m m m m m m N C b i a =     4 { [ k.",
"^ / ~ H ' _ } } [ c.l.b.b.^ @ o 2 2.xXlXgXfXfXUXPXPXKXJXSX:XR.R.;X,X,X-.W W {.xXlXCXZXZXZXZXZXU.a p p p s = X X = a s f N C b i a =     > H D ~ ",
"^ H ~ ^ [ [ [ _ l.c.t.c.b.^ o   # XXbXmXgXdXdXHXLXLXKXJXSX=X,.,.-X>X>X-.E T oXvXvXAXSXJXSXSXJXXXi a a i i -     + a a f M C b i a =     > ~ ~ ( ",
"^ ( ~ ~ %.$.[ [ z.c.c.c.l.( o   # XXbXmXgXdXdXHXLXLXKXJXSX=X:.,.;X<X<X-.E E oXnXnXAXSXSXDXAXZXXX, < , , , - # # > , < f N N b a a =     > H ~ / ",
"^ D ~ ~ [ [ [ [ z.l.r.c.c.^ o   # XXnXmXgXdXdXHXLXLXKXSXSX1.W W ~.iXiX-.T T 1XDXDXDXJXSXbX{.{.Y X X X X X x +XD.( X X < C N b i a =     > ~ ! ~ ",
"S.n.n.b.x.r.r.e.G.#X X$X$X$.o   & XXvXmXgXdXdXHXLXLXKXSXSX1.y E ~.(.pXW.E E xXJXSXSXJXSXcX:.,.Y .         7 b.z.U     < Z N b a a -     4 v.b.S.",
"}.J.H.H.b.c.c.l.P.0X8X7X0Xc.# o 2 2.lXlXgXfXfXGXLXLXKXSXSX1.u W ~.(.pXW.W Q lXIXIXZXZXAX1X>.>.e     . @ o x k.[ c     < m m l ; < - @ @ c J.J.}.",
"}.G.G.H.c.l.c.r.P.7X4X4X8Xc._ ( ( 7 6 6 2.lXlXZXJXJXJXSXSX1.y P ~.pXpX<X-X-XhXkXkXzX{.{.Q & & O     x r.{ r.k.#.c     - s s < X + > ` ] B.H.D.J.",
"}.G.H.G.b.c.N.l.P.0X6X7XMXb.' [ ` 2   O 2.vXvXAXSXSXJXSXSX1.u P ~.pX(.yX>X>XhXjXjXhX<.:.r           c p.p.p.r.] x     + i i =     > { #.S.H.H.}.",
"H.D.D.D.z.k.k.[ G.5X#X#X2Xb.[ [ ] 2 . @ 2.xXxXAXDXDXSXDXDX1.W Q ~.).iXyX<X<XhXjXjXhX>.>.Y O @ @ @ @ c r.l.l.c.b.I     + 1 , - .   4 [ ` b.C.C.D.",
"B.c.c.x.^ ^ ^ D $.H.G.Z.P.c.l.c.c.] c x 7 6 6 oXnXCXnXCXCXxX=X=X:.-.-.rXiXuX$.o.o.8 2 3 +.oXoX.XQ.Q.s.[ [ ' P.MX2XJ.K.x + + 4 ( c H ^ H ] { [ { ",
"m.l.p.v.^ ~ / H $.J.J.F.H.m.c.c.c.k.H / 2     2.vXvXvXvXvXvXbXbX>.E P ~.pXaX...       o +.vXcXsX(.pXT.[ [ _ P.0X4X6X6Xc     x $.~ / ~ ~ ` [ [ [ ",
"B.l.c.b.~ ~ / ~ $.J.H.J.G.m.t.c.c.r.~ / >   . 2.cXcXcXcXcXcXcXcX>.y T <XpXaX...       X +.cXxXyXaXaX].[ [ ] P.7X4X6X4XI .   x z.~ ( ~ ~ ` [ [ [ ",
"B.c.c.b.H D D c ] '.H.J.J.B.c.c.c.l.D ~ >     & 6 6 x c c c c c 2 O @ R.yXyX...   + : ; > 6 3 5 5 5 I [ { _ P.NX8X0X0Xc.( _ r.[ c H D H _ [ [ [ ",
"#._ [ ] H.P.J.J.K.x.c.x.b.[ ] ] ' ` ` ' 4           = i p a , , +   . >.,X,XY .   - i a =           x k.e.l.b.S.A.S.n.C.C.S.B.D.'.H.H.}.n.n.m.V.",
"^ J ~ / MX0X8XNX|.` %.[ %.~ H H H ! { ] 2 . . .     ; i p a , , - o O :.>X1XY X X = a a -     . o . c c.b.b._ c D c ! S.J.J.G.OXBX0XMX8X+XJ.J.J.",
"/ ~ ^ _ 2X6X9X9XOX_ [ [ z.^ ^ ~ ~ 4 @ @ 3 r e @     s b b ; X + +.oXoXR 5 5 L l l b b b <     x D.b.p.c.r.c.{ ( ( / ^ D.J.H.F.|.8X6X6X7X}.D.H.J.",
"^ ~ D ^ 2X7X9X8X|.' [ [ [ ^ ~ ~ H #   . q E T %     l M Z :   o 2.bXvXt   X z Z M N N C s     I H.G.p.c.c.c.[ H H / ~ D.F.H.F.|.8X6X6X7X|.F.J.J.",
"' / ^ ` %X5X5X7X|.[ k.k.l.` ( / U > o o 9 y y % X + l M Z < X o >.xXxXY X + z m N Z N m s     x G.S.c.c.c.c.[ ~ ^ ~ ^ S.H.H.C.+X9X5X5X9X}.D.G.G.",
"N.l.l.x.G.H.J.H.OX6X6X5X2XP.x 4 7 X.X.X.2 % % d l l m N C b l z x e e L l l < = = z N Z s     4 [ z.G.H.D.G.b.' [ %.[ x.c.c.x.C.H.J.H.P.m.b.c.N.",
"N.c.c.b.Z.G.K.F.OX7X6X6X8X'.@   $ X.O.O.8   X l Z C M N Z C m m :   X l M N ;   X s N Z s     7 [ [ H.J.J.P.b.[ $.[ [ c.c.c.c.B.D.F.G.G.m.b.l.c.",
"M.l.p.b.C.J.J.D.+X8X5X5X8X'.& . $ X.O.O.8   X g B V N N C m Z m : X X z A A < $ o s m A ,   . 7 ' r.G.F.F.H.c.#.{ #.[ l.l.l.l.m.J.J.H.G.c.c.r.N.",
"B.b.c.c.C.F.K.B.OX0X5X) x x q 0 e 2 8 8 v K K !.^.^.u.M Z s = = s l z hXGXGXVXUXzX=.: - 2 0 0 3 > > ) J.U.J.c._ _ } ' c.N.c.c.S.J.J.G.H.m.c.N.N.",
"k.[ { r.OX|.+X@XOXOX|.>   . r E y % . X G 9.d.eX(.pXf.B m :   X z M N VXLXLXLXLXPX*.o . 3 E T 3 .   7 m.n.c.B.H.G.H.G.e.' } [ l.C.D.B.C.k.[ [ [ ",
"^ H H / 5X7X8XwX Xe.c.> . O r T r % . X G 0.d.eXpXaXf.V V ;   . s V A VXLXLXLXPXPX=.o . 3 R R 3   X 4 _ ` ` P.0X8X8XBX%.J / D _ p.l.c.c.` H D ^ ",
"/ ^ ~ ( 2X4X9X9X@Xr.N.r.$.~ 2 % @ .   X G d.d.f.g.g.| I I 0 q 0 2 - - U *.*.*.*.*.6     1 K K S z z 1 > # x P.7X5X9X3X] ~ ^ ~ ] c.c.c.c.` H H ( ",
"/ ! ~ ( 2X7X8X9X$Xr.c.l.b._ @ .       X G d.9.8.9.u.| T E E P T &     * 9 w w 9 w %   X < N m M M C s     2 P.0X5X8X4X] H ^ H ` c.l.t.c.` H ~ ( ",
"_ ~ ~ ` %X7X6X6X Xp.c.l.c._ # . o     X G 9.0.9.0.u.| T R R T R &     * w w w 9 w % o . , Z A V m A s     4 J.8X6X6X5X#.~ ( ~ [ p.c.c.c._ ^ ^ ^ ",
"c.k.r.l.}.}.J.+XC.} [ [ k.e.[ { ] 2   X l 3.3.6.9.0.u.i.y.F K K -     * w w r y y r r e 2 = = = = = +     I }.B.B.V.V.@X%X$X%XOXC.D.G.G.k.' [ %.",
"V.c.p.c.D.F.K.H.n.[ [ #.[ l.c.c.l.7   X f N N 5.9.d.9.8.9.4.N N <     * w 9 y E E E E R 3                 U |.r.t.l.c.6X7X6X0X&XH.K.J.H.x.[ [ [ ",
"N.c.c.c.D.J.J.K.n.' z.[ [ l.c.c.c.2   X z m N 5.0.0.9.9.9.3.B m < X X * w w 0 E E E E E 3             X . U |.l.c.c.c.2X6X4X6X$XD.J.H.H.k.[ [ [ ",
"N.l.c.c.H.H.G.}.V.[ [ %.$.k.l.l.[ >     - : < w.h.h.q.9.9.6.5.5.n z f > @ % q E y {.xXxX+.          U `.K.#X|.r.c.c.c.%X8X8X0X$XH.'.C.J.k.[ [ [ ",
"N.l.c.c.n.v.A.A.x.[ r.{ { B.P.Z.C.2         X w.h.h.q.9.9.9.0.9.3.C m =   . 9 E y 1XSXJX2.          $.#X$X#XP.e.l.r.c.$X%X$X#XOXB.D.C.G.x.k.k.v.",
"N.t.c.x.^ ~ ~ H ` c.c.c.p.#X0X6X9X7 . . .   X w.h.h.q.0.9.u.6.u.3.Z A :   . 9 E y =XJXJX2.          ( C.G.D.b.[ { { } D.D.C.G.B.r.c.c.c.D.`.H.}.",
"N.c.l.k.^ ^ ~ ^ ' c.c.c.t.$X$.I U e 9 9 3 * & a f f p 1 1 1 1 1 < : : +     3 r r Y +.U 6     4 _ ] L.J.J.J.n.` { [ } G.J.J.J.C.c.l.l.c.D.J.G.J.",
"N.c.c.l.^ ~ ~ H ` c.c.c.t.$X>   O 0 E E 0 w w O                           . & 9 w %           c p.c.J.J.F.J.m.' { $.[ D.F.J.H.C.t.l.c.c.D.J.H.'.",
"M.r.c.k.^ D H D ` c.p.t.p.#X2   o q E T 0 9 w O     .   .                 . & w w @       . . c c.c.G.H.G.J.n.[ [ %.{ D.G.J.J.C.p.c.t.a.D.U.H.J.",
"t.{ { r.+X@XOX@X}.D.D.G.D.C.#   o e E E y y r 3 & & & & & o     x $.$.2     O % % o     2 I c ] $.e.n.n.m.n.#.^ ( ^ ^ c.B.m.c.P.$X$X$X%Xx._ } ] ",
"z.[ %.$.6X8X8XqX$XD.J.J.H.c.#   o q E E E E T 0 w w w 9 w O   . `.8X8XU       .         c k.] [ [ { t.l.l.c.[ H ~ ~ ~ l.c.l.t.P.qX6X8X0X$.D H ~ ",
"z.[ ] { 3X4X8X5X*XD.H.H.H.c.@   O r T T T T R r w w w w w @ .   F.5X5XU                 c r.[ [ [ $.c.c.c.c.[ ~ / ! ( r.c.N.r.P.7X6X5X8Xk.H / ~ ",
"[ %.] { 6X6X8X0X#XG.H.H.H.m.( c I 3 3 3 3 3 3 % % % % % % x x ) #X6X7XOX) ) ) ) ) ! ! ~ $.r.' [ [ { c.c.c.c.[ H ~ ~ ~ r.p.c.t.P.8X7X6X8Xk.D / ~ ",
"k.%.] $.$X$X$X$X+XD.D.D.G.c.l.l.{ 2 . . . .               c _ G.5X%X3X#XH.D.D.D.n.r.r.k.z.k.k.k.z.e.c.l.r.c.k.] #.%.#.k.l.r.r.G.9X%X%X5Xk.! / ^ ",
"N.c.c.r.^ ~ ^ ! ] c.c.c.c._ ^ ~ ! >                       x ~ { c.r.p.c.[ [ [ [ ] ~ ~ ~ ^ v.H.G.H.D.[ [ $.' P.BX8X6X2X] H / H $.H.H.F.H.$.[ %.$.",
"N.r.c.c.~ H ~ H ] c.c.c.b.` J ~ ~ c x x x x c U U U U 4 4 c H %.c.c.c.c.[ %.[ [ ' ~ / ~ D n.J.G.H.G.{ [ [ _ P.0X4X6X6X] H ~ H $.H.F.F.H.z.[ [ [ ",
"M.k.r.r./ ~ F ~ _ c.t.t.c.^ H ~ ~ ^ [ ' $.] c.G.F.G.D.^ H ~ H [ c.l.l.t.[ ] [ [ ' F ~ ~ D v.J.D.F.V.} [ [ _ P.0X4X9X5X] H F H ] G.D.H.H.$.' ' [ ",
"V.c.m.M./ ^ _ ~ $.B.M.V.B.' ^ ^ ^ ' k.e.z.$.C.}.`.|.J.` ^ ` ^ [ B.N.V.m.l.k.k.r.[ ^ / ` ^ n.}.}.}.J.k.k.e.[ |.wXwXwXwX#.( _ ~ z.|.}.}.}.b.e.k.k."
};
