/* XPM */
static char *_a980473f541439ff499a56bd8b6fc2dfSQDytebab2AFZTL[] = {
/* columns rows colors chars-per-pixel */
"72 72 187 2 ",
"   c #3C5F25",
".  c #375C2A",
"X  c #395D2D",
"o  c #3B5F33",
"O  c #3F6326",
"+  c #3D632E",
"@  c #3F692A",
"#  c #3E6433",
"$  c #3E6339",
"%  c #41662E",
"&  c #42692E",
"*  c #416634",
"=  c #436A34",
"-  c #496E35",
";  c #416639",
":  c #446B3A",
">  c #496D3A",
",  c #4C7335",
"<  c #4F7835",
"1  c #467039",
"2  c #4D743B",
"3  c #4E793B",
"4  c #517636",
"5  c #527B36",
"6  c #51763B",
"7  c #537B3C",
"8  c #597D3E",
"9  c #476C40",
"0  c #496D42",
"q  c #4D7343",
"w  c #4F7B40",
"e  c #4D714B",
"r  c #527541",
"t  c #557C41",
"y  c #5A7E43",
"u  c #557D49",
"i  c #5A7F48",
"p  c #617F46",
"a  c #5B8437",
"s  c #56813D",
"d  c #5B833D",
"f  c #5E893D",
"g  c #60863C",
"h  c #618B3E",
"j  c #568141",
"k  c #5C8442",
"l  c #5E8942",
"z  c #5D8349",
"x  c #5E8948",
"c  c #618545",
"v  c #628B44",
"b  c #688E45",
"n  c #63864A",
"m  c #6A874F",
"M  c #648C4A",
"N  c #6A8D4B",
"B  c #718F4C",
"V  c #659144",
"C  c #6A9346",
"Z  c #669249",
"A  c #6C934B",
"S  c #6C984B",
"D  c #709246",
"F  c #749A47",
"G  c #72944E",
"H  c #739A4E",
"J  c #799A4F",
"K  c #648653",
"L  c #658B51",
"P  c #6C8D52",
"I  c #718F59",
"U  c #6D9252",
"Y  c #6E9358",
"T  c #749553",
"R  c #799754",
"E  c #769A54",
"W  c #7A9A55",
"Q  c #759559",
"!  c #7A9659",
"~  c #769B5A",
"^  c #7C9B5A",
"/  c #76A052",
"(  c #7CA255",
")  c #7DA25A",
"_  c #7FA85C",
"`  c #7D9B61",
"'  c #7FA760",
"]  c #819F55",
"[  c #819E5C",
"{  c #81A257",
"}  c #84AA55",
"|  c #81A659",
" . c #85A25F",
".. c #82A45B",
"X. c #85AB5C",
"o. c #89AB5E",
"O. c #8CB25C",
"+. c #839E62",
"@. c #86A561",
"#. c #84A462",
"$. c #88A666",
"%. c #8AA764",
"&. c #86AA62",
"*. c #8AA862",
"=. c #8CAC61",
"-. c #89A864",
";. c #8DAD65",
":. c #8AAD63",
">. c #88A668",
",. c #8CAE69",
"<. c #91AF67",
"1. c #91AF6A",
"2. c #8CB167",
"3. c #8CB264",
"4. c #8FB967",
"5. c #8DB36A",
"6. c #8FB86B",
"7. c #91B366",
"8. c #90B065",
"9. c #93B465",
"0. c #94BB60",
"q. c #93BB65",
"w. c #90B66D",
"e. c #92B56A",
"r. c #98B769",
"t. c #93B86B",
"y. c #96BB6D",
"u. c #94B86E",
"i. c #97BC6F",
"p. c #96BB6C",
"a. c #9ABD69",
"s. c #98BA6E",
"d. c #98BD6F",
"f. c #99BD6D",
"g. c #8EB171",
"h. c #94B470",
"j. c #98B572",
"k. c #96BC72",
"l. c #98BA70",
"z. c #9BBE71",
"x. c #9CC26D",
"c. c #9EC373",
"v. c #A3C66E",
"b. c #A8C66E",
"n. c #A7CA6E",
"m. c #A5CA6E",
"M. c #A9CE6F",
"N. c #A1C770",
"B. c #A2C573",
"V. c #A4C672",
"C. c #A3C673",
"Z. c #A8C777",
"A. c #A6C975",
"S. c #A5C974",
"D. c #A9CB77",
"F. c #ABCF77",
"G. c #A9CC75",
"H. c #A4C679",
"J. c #A4C579",
"K. c #A7CA78",
"L. c #A6CB7A",
"P. c #A9CC7A",
"I. c #ACCF7B",
"U. c #A9CF7C",
"Y. c #AACD7A",
"T. c #AFD274",
"R. c #ACD577",
"E. c #ABD177",
"W. c #AAD079",
"Q. c #AFD17A",
"!. c #AED27B",
"~. c #ADD17C",
"^. c #B1D576",
"/. c #B1D57B",
"(. c #B1D47D",
"). c #B5DE78",
"_. c #B4D87E",
"`. c #B7DC7F",
"'. c #A5C981",
"]. c #ABCE81",
"[. c #B0CF81",
"{. c #ADD181",
"}. c #B3D483",
"|. c #B4D880",
" X c #B5D883",
".X c #BADE86",
"XX c #B3D388",
/* pixels */
"x s 7 n W.|.I.).0.v C V A , - : = , j s s d s j j k j ( { ..^ l._.T./.R.M y j j x C V V C r = - ; r W ^ ^ *.P > 2 = & v M Z V d = q r q A A A A ",
"s 3 3 y a.V.H.A.2.d v f v - * * * - y 6 6 6 6 7 6 , 7 E W W T =.m.S.N.N.k 3 5 < 8 v l h v 1 # = # : T ^ ^  .m 0 > 0 = j v l f 6 # > > > M A U M ",
"s 6 6 k A.F.K.!.7.k v v M - # # # = t 6 6 6 6 6 6 6 8 T W W T 7.!.D.Y.P.v 6 7 6 7 v v v v 2 * = # > R ^ ^ [ m q r e 2 x f f v t # * = : N U A U ",
"l y 6 8 2.y.t.d.| v v v M 3 - - - , k k y k 7 7 7 7 d ) ..[ [ ;.y.s.y.w.v 6 7 y j x x l v 2 * = # 2 @.*.$.;.P q r q r Y T A N c 6 r 7 y L L N N ",
"Z v v x - * * * y ^ W W ^ M v v v b ~ E W E A v v l V c.P.Y.].E   = & - j v v l f 6 7 5 7 : # = + 6 J.Y.].}.#.u z n c ! #.^ ^ ,.J.B.B.L.n = 2 q ",
"Z f f x ; : * # y ^ R W W b v h h b W W W W b f l x V C.v.x.~.~ o : * + x v l h f 6 7 5 8 > * * # , C.P.P.(.#.2 y c k ^ #.+.[ <.(.V.v.A.7 * 2 0 ",
"Z v v l : * & * 7 ^ R W W b v v v b W W W ^ C h v v b C.D.V.!.E # = - * l h v v x 6 y 7 7 > * * # 3 H.V.C.(.&.r y 6 y Q [ #.+.1.D.].P.P.z ; * : ",
"Z c v v * * - o u [ W ^ ~ v k j j v ~ W R ^ A v v v C H.I.I._.E X * * ; v h v v k 3 y 6 6 : # # # 3 L.Y.{. X;.u y 2 r P R ^ ! g.XX}.I. XK ; = # ",
"x k f j 1 3 2 > d A A A A | o.X.o.X.v A C A j 6 6 3 u ) X._ X.b - 1 2 1 y k d s j f d j j k c p p c Q U U ~ A M L 8 d #.1.j.j.,.......#.I m m P ",
"j 6 5 7 y 7 y t 8 v f f h d.{.Y.~.p.v k v M 2 + * * # d f d f j y 7 6 6 6 3 7 3 j Z l v M T W ^ ^ C O . o ; y U C A v z.XX].XXh.4 z i y ` >.....",
"s 7 7 6 6 6 6 y j v M M f y.K.B.P.4.b v l v 2 ; : * : v v v v j 6 6 6 7 7 6 y 6 y v l v v G W R W P = = * : z A U N b z.F.F.~.-.y 6 j j ` ` ^ [ ",
"s r 7 y 6 6 6 3 j v v v a a.!.S.E.a.h v v v 3 # * = ; l l v v j 3 r 6 3 6 6 6 7 s l v v f T ^ W ^ U * * * o y A A U T J.Y.G.(.,.2 2 , 7 Q #.^ ^ ",
"j 7 6 6 d d d d j l l l v 2.K.B.N.6.k x v v 3 = = = = v b b b f 8 t y y 6 r 6 3 s C h h Z G T Q Q N - = = * y A A M N J.].H.H.&.7 i y 8 N R G W ",
"V l x Z z.c.c.B...# : : = 6 k 8 j 6 + : & & 2 r 6 3 z z.B.H.C.;.E W T T , = : * z L.c.A.J.M % - > 2 x k f v d 7 x x c ^ [ [ W ..c.z.B.c.b 7 7 z ",
"C h v b N.Y.A.!...+ = * = 3 7 6 7 6 * : * = 2 u 6 6 z B.S.A.I.7.T ^ W ^ - * : + z W.N.S.{.M + * + = v v l h j u x y x ^ ^ Q T *.A.C.N.P.v , 6 6 ",
"Z l M Z c.K.V.D.@.+ : * * 6 6 6 7 , * ; : = 1 y 7 6 y c.m.V.D.;.W ^ W E - = ; + x A.F.v.P.v + * * - f f x v j q j z x ^ [ ! B o.V.N.v.C.A 6 6 y ",
"Z l v A S.~.~._.#.X * * % 2 6 7 7 2 * * # # 2 6 6 3 k S./.F./.w.E ^ W ! 2 # * + z !.G.G.}.M + ; # - v v v v j 6 5 k n ^ #.+.R ;.D.P.P.].N , 3 6 ",
"l s d k ) ) ) X.A 1 3 3 3 6 6 7 6 6 y t 7 y y j j s f ( ..) ..E D G T U 3 - 1 = k s.9.7.y.b 3 r 2 2 j 7 7 8 8 n n P P P P P c T 3.X.o.2.A k c M ",
"s r t 6 # + + . 3 Z M M M d 7 7 6 c ^ ^ [ ^ A v l M k : # o # , v f v v 7 t y 6 k ! ! Q ~ A v v V k & # * + k ..T ^ ` t > > # - f f a g G ^ ^ ^ ",
"j 6 6 < : * * : , v v v v 8 6 7 6 d W W ^ W b v v v v = * : * 5 M v v l s 7 7 6 d W ^ ^ R A v l v k = ; ; * y W ! T +.t q q : 2 v x v g T R R ^ ",
"j 6 7 6 : * * : , b v v v 7 6 7 6 k ! ^ W W A l l v f = = = * 5 M v l x 7 6 6 6 k J T W W C v v v k = * * # y ^ ^ R ` 6 : 9 ; 1 v x v h R ^ ^ [ ",
"j r r 6 * * = + 6 v v v x s 6 6 3 k ~ W R W A v v v k : * # # 5 M v h M 7 6 t 7 k ^ Q ~ ^ A l v v k & = = # k ^ G W Q 6 = = # , b v f h T W W W ",
"v l l v 5.y.w.z.) 6 j 7 s x k x k G c.z.z.B...T T H T k k x f ( x.d.d.p.E U T T T Z b b b 7 - : - 2 j k f f d k y 8 k x k d y E x.d.d.d.E v v A ",
"Z l l b S.F.F./.&.3 7 6 6 x v v l F I.S.D.I.o.W ^ W ~ b v M a X.~.S.F.P.{ ^ W ~ G x v h v 2 * # * - v b v v d 6 5 7 3 v h h c ) F.S.S.~.H f v v ",
"C l v V c.D.S.P.X.6 6 7 7 j v M k G Y.C.B.P.*.R ~ W T v v v f X.L.V.V.Z.] W R ^ T v v l M , * : = - v v v h k t 7 7 7 x x M k ( G.V.v.L.H k v v ",
"A Z v V C.F.F. Xo., 6 5 5 f V b h H E.W.Y.!.=.W W W W v v v f X.!.Y.!.P.| W ~ ^ G b f f Z , + # # = x j j l j 2 6 r , v v v v ( {.F.F.Y.H v b v ",
"x t 7 d :.2.&.5.E 7 k j s d s 7 7 b :.:.:.2.R n N n N x j v k E 5.;.:.;.U N N N N k l l j y 6 6 t 8 ( W E ( A k n c c f d k j A 6.2.5.5.M 7 7 k ",
"= ; * = 3 , 5 5 7 v l M M , # * * * 6 6 6 7 - # * * % 6 6 6 6 6 4 6 , 6 = # * + = 7 7 6 4 A ^ W W ..D.D.D.I.7.T ^ ~ ^ 8 6 y 3 s f f f v = # + * ",
"- # * - 6 7 7 , k V f v M , # ; * : 7 7 y 7 1 ; : = = 7 7 6 7 7 8 7 7 7 = * : * - 7 6 6 7 N W ^ R ) A.A.A.Y.7.T W R R y 7 6 7 k v v f v , * * : ",
"- : * * r y 7 7 j v v v v 1 = * = 1 7 6 7 7 1 * * * * 3 7 7 6 7 7 6 y y - * : * > 6 7 7 6 N W W R { V.A.V.D.7.T ^ W ^ y t y 3 s v v v M , # * > ",
"& + * * 6 6 6 6 j k f v v - * * = - 7 6 6 7 - # * ; * 6 6 4 7 6 6 6 6 t = : * # : 7 7 6 6 N ^ ^ R  .A.Y.I.I.7.R R W E 8 , 6 5 d v x v n 2 * % = ",
"U N N M c f f s E p.O.q.6.x 1 q 3 t A A U U y q 3 2 6 ,.5.:.w.) N A A A 6 3 6 3 6 f d x x 7 6 6 r 7 E E E E A k n c c &.t.3.5.~ y d a d c N N P ",
"..^ W W M v v k ) ~.I.D.~.A 6 6 8 k ) ^ ^ ^ c 6 5 3 v N.!.F.~.7.! W W W 7 6 s y 7 v V v v 3 + # # * x l f l j 6 5 7 5 c.(.P. X3.3 3 7 6 T ^ ~ ..",
"..R W W v l v d ( D.v.v.L.v 3 6 6 c E T R E c t 7 r d c.S.N.F.7.T ! ^ W k y 5 7 s v l l M 3 = = = > v v v v j t 6 r j d.G.A.D.o.3 7 7 6 A ^ T ^ ",
"..R W E M v Z l ( ~.S.F.].Z 3 6 6 c W ^ ^ W v 2 w 2 d J.P.L.W.9.W [ ^ W 7 6 , 2 7 v f v M , + * # - v h h h d 6 6 2 6 d.F.A.W.;.t 7 7 t U W W ..",
"W T T T k j k 7 E B.f.f.c.Z 6 7 7 k N U U U c y k y v t.z.p.x...N G P U b v v M M l l l x 6 - 1 : , x k l l v M v N b t.d.a.c.) 1 6 6 2 M G G T ",
"A v v c = = = + y W W J ^ v l v v s & * * * c ^ W ~ T b h f v 7 * * * = w.~.U.P.3.2 6 6 7 k v v v x 7 6 7 6 ) ].L.U.C.C f f b d * * = # 6 8 7 8 ",
"Z l h n = * ; # y ^ ^ R W b v v v j # : : * n [ R W W v v v v 6 # = * * p.S.B.I.0.6 u 7 6 k v v v l 6 6 6 2 ) !.m.S.G.Z M v v y * ; * ; 2 7 6 7 ",
"A l v M * * ; * y ^ W ~ R b f v v d * ; * * n ^ W R E v M v v 6 # = = : p.m.H.K.3.< 6 7 6 j v v v l 7 t 7 6 ) F.v.S.v.C M f V y * : * ; 6 7 6 7 ",
"A v v M # + + X 6 [ W ^ ^ A v V v k + * * # c W Q R G v M v b 7 # # ; ; s.^.K.~.9.6 6 y 6 k v v v v 3 6 7 , ) |.I.~.!.V x f h 6 X # + # , 6 6 7 ",
"t , 6 6 W ( ^ ^ ~ c v c M 7 6 6 3 2 2 3 3 1 E a.7.r.:.f s j j d 6 5 8 8 ..7.o.1.^ = 2 > - c D D D N d j s k M Q U Y N G G U A T { W W | N N b C ",
"= $ ; : '.!.Y..X} 2 r 6 r * # # # & y 8 6 6 2.!.P.I.J.k 3 6 6 k M Z M c R T J W N % * # % N ^ ~ ~ E v v M M , X + . & P ^ ~ E :.{.~.].I.*.! ~ ^ ",
"1 * = - c.S.C.K.:., 7 7 j = = = * , 6 6 x , X.F.v.m.J.7 r i 3 d v l v v T R ^ ^ N # = : * n ~ ~ ~ T h v d v 7 : : ; = Q ~ W R o.I.S.S.D.{ T W ^ ",
"= * + = c.D.K.Y.o.3 6 6 6 = * ; # : u 3 6 , o.!.S.F.c.8 6 y 6 d v v v v E W W ^ N ; * ; + M ^ W W E h v v v 6 # # ; * Q R W R o.P.S.S.F.| R ^ ^ ",
"2 > - 1 z.N.B.D.X.7 j k c 2 > > > 1 k k k d X.H.x.B.k.c 8 8 8 j x v l v T R Q Q N : * - = M E E E U v v v v 6 * - * = U W W G *.H.B.B.B...T E E ",
"Z k k c W W ^ W -.N.S.N.B.| T R T ) C.N.c.H.( h v v A A W W W M 7 y 6 6 - = > > 2 c x v k j 7 7 7 k E W T E M 3 6 r 6 c v v c G W ^ W ( b M v V ",
"Z v v M H W ! R ;.F.S.F.Y.| T ^ W | G.S.A.Y.( f M v v E W W ^ M 6 6 6 y - ; ; # 1 v v v v d 6 y 6 7 W ^ ~ ) M 6 y 6 7 v v v v A T R R W b M l b ",
"V l v M G ^ ^ T o.Y.N.C.Y. .T ~ Q #.Y.V.B.F.( k v v v ~ R ^ ^ v 6 7 7 6 = = * = 2 v v l M 7 6 y 3 d W R R W M t 7 t 7 l l l l b ^ ^ W W v M f V ",
"C M v v G R ! B -.~.S.F.!.o.W ^ W *.F.F.].~.( d v v v ^ ~ [ ^ c 3 3 , < * ; * # 1 f f f k 8 6 6 6 y W ~ ` ^ v , , 4 3 v Z v b U ~ ~ W W b v V Z ",
"j 7 8 d :.o.$.7.:.:.o.X.3.N c n c P 3.o.&.3.E b A A v c c k k N E ^ W E r > , = y ' ....#.M 7 j j k b b N v C W ~ W E d < 5 5 k G T A G j 6 7 7 ",
"= # # : J.F.Y.(.O.d v d x = + # + = l d d f A W ~ J ~ * # 9 X ~ _.D.I.P.M 2 y 6 U ~.W.F.W.( h v v l < 6 6 2 _ !.Y.Y.{.r $ : + , h l v v 1 # + = ",
": = * : c.m.C.K.3.d Z l N 1 * : ; 2 M v v v G W ! R Q = @ : # Q !.b.v.S.k 6 7 , N A.V.v.~.W d v v x j s 6 2 ( G.V.C.x.6 ; = * 3 v v v v 2 # * : ",
": % * > c.M.P.K.t.d v l M , # ; * , v f f l G W [ ^ Q - @ = X T !.S.A.C.x 6 6 , U Y.S.V.~.( f v v x 3 6 7 2 ) !.V.P.v.6 # = # 1 v l f v 1 # * : ",
", * * 2 z.D.A.A.O.h v v v , & = * , l v v M G H R W T : * : # E G.B.U.B.M 6 7 7 M L.S.A.K./ k v v x s 5 7 6 ) Y.S.C.B.t ; > * 6 h v v v , = = = ",
"v x f k | { ^ &.G 5 7 7 j d k x x s j s 8 7 k V b b C t.d.p.z.X.b A C C N Q T T T A A A U 6 = - : r k.x.d.c.| Z A C C 3.d.p.z.,.D T E E k 3 6 r ",
"C v h v T R ! W N 6 6 y 6 k v v v x 6 6 6 t j h l l Z K.F.D._.X.k l h h T [ W ^ G l l l k , = * # 6 Y.F.C.(.X.d f x v S.F.A.!.h.W ! ^ W c 6 6 7 ",
"Z v v b T ^ ~ ! N 3 j 6 6 l v v v k y 6 7 7 k M v h V B.V.v.L.&.f v v v T R W ^ G v v l M , * * # r C.S.K.D.| x v v v c.S.v.G.r.T ! W W k 6 6 7 ",
"Z x v v W W W ..C 6 6 r y j x l d d 6 7 6 5 j M v v Z B.I.F.~.o.k h h b E W ^ ^ T h h v Z , # ; # 3 F.F.K.(.o.d v v v z.Y.I.~.y.W [ G ^ k 6 7 6 ",
"Z l v v N m P P c 7 d 8 8 A / H / H d k k v x x v j v u.a.9.f.( 7 x 7 8 A T G T U j j d 7 6 3 , , y p.a.y.f.( s k d v w.l.r.s.;.A T G E c k k n ",
"Z f v c = * * # 2 v v v h p.~.A.W.c.W ~ E W n 6 6 t 7 R R G ^ i + : * * x v v v d + = % @ j v v Z N W G R T M 6 8 s 5 T T G W A f v v v T +.W ..",
"Z l l x - - * = 3 v v v h p.Y.C.P.s.R ^ W ^ n 6 7 6 7 Q ^ W ` z ; # - & x l v v d * * - & 7 M v k N R ~ ^ ^ N 2 7 6 4 R ^ ^ ~ G v l l v T ^ W ^ ",
"Z v v x = * * # 2 v v v f p.D.V.P.z.W W R ^ n 6 y 6 d T R R ^ k + : : + M v v v s * ; * + 7 v v f v ^ ^ W ^ b 3 8 y 7 T R ~ W G f l v v T ~ W [ ",
"V f v x = + # + 2 b h f h p.W.A.Y.z.W ~ W ^ M 6 y 6 y T E ^ ^ d O # + * y v v v d # = * % 7 v v v V R W W ^ N 6 6 r 7 T E ^ ^ A h b f h T ` W ^ ",
"f 8 8 d &.5.,.2.| T T E T H H H E E v N b v 7 - = > - z k k d E g.2.5.5.E C T R N d d j j s s d y s N N b N t = > - = v C b v ( y.9.p.z.c , 4 6 ",
"j 6 q y A.I.P.^.a.T ^ ~ W v v v v l x v f v 2 # * # * 6 7 6 1 ..(.I.Y.Y...~ W W R v b v v j 6 6 6 8 f v x v 6 # * * ; k v l f ( E.A.Y.~.y + $ * ",
"j 6 6 8 x.v.P.V.7.T W W W v h v v f v v f v 2 ; ; * * t 7 7 , W F.N.V.A...R W W T v v l v d 6 7 7 y v v v b 6 * : & > d v Z d ) F.S.N.Y.k # : * ",
"7 u 6 8 C.G.P.!.s.R W W W v b b b v v v b v 3 # * * * 6 6 j 6 ) !.A.F.D...W ^ W T v l v v s 3 6 6 7 v v v v 6 # * * * d h v f ) Y.D.S.I.k + ; * ",
"d r 6 y w.t.t.y.&.T T T E v j j k k k k l k 6 2 2 , 6 r 3 2 , E N.z.x.d.W T T T N d d x k k k k k d v l f v j 6 t r t x k d d E C.z.z.B.k & : - ",
"Z v v d = * = % 6 v v v v , = * = = 6 7 6 y N ~ Q ~ Y - = - = 7 v f h v 6 6 7 7 6 * * * = n W E W T 6 6 y 3 ) {.L.G.c.6 # : # y W W W W i 6 r y ",
"V f v v * $ * # 6 v v v M 1 # ; * : u y 6 6 b ^ ~ W Q = * * # r v v v v 7 r 6 6 3 * : ; + N ^ W W E 7 6 6 , ) W.v.S.G.6 # * ; y W R R W z 7 6 7 ",
"V j f d : * @ * , v f f v = # * * - 6 6 y 6 v W R W T = # * # 6 v x l f 6 3 6 7 3 @ * * + n ^ T R C 4 6 7 , ) !.v.H.v.6 # @ * 7 W T W W y < 3 7 ",
"S v Z V : - , * y C V V C 3 - - = 3 j s k y H ..[ | ~ 2 - 2 = 7 S Z C C k j j d 7 - : 2 = N ..{ | ^ k j s 7 X.`./././.t = , * z | ..{ | M d j j "
};
