/* XPM */
static char *result[] = {
/* columns rows colors chars-per-pixel */
"72 72 254 2 ",
"   c #020202",
".  c #0B0402",
"X  c #070906",
"o  c #130904",
"O  c #021304",
"+  c #041705",
"@  c #16140B",
"#  c #181813",
"$  c #061314",
"%  c #25160D",
"&  c #062B07",
"*  c #05320C",
"=  c #103013",
"-  c #242918",
";  c #382316",
":  c #30381D",
">  c #13232C",
",  c #323C23",
"<  c #333C28",
"1  c #111C24",
"2  c #482A1A",
"3  c #4B371C",
"4  c #4E3024",
"5  c #683E23",
"6  c #0A4719",
"7  c #154716",
"8  c #0A4D22",
"9  c #364726",
"0  c #3A592B",
"q  c #3B5D32",
"w  c #3D4E30",
"e  c #067C2D",
"r  c #0A7B2D",
"t  c #0C792B",
"y  c #0A7B31",
"u  c #097931",
"i  c #10712B",
"p  c #3D632D",
"a  c #3F6628",
"s  c #3E6432",
"d  c #3E6339",
"f  c #2C7931",
"g  c #595617",
"h  c #70491A",
"j  c #554422",
"k  c #465B29",
"l  c #4E562D",
"z  c #6C4326",
"x  c #724324",
"c  c #744728",
"v  c #725332",
"b  c #41652E",
"n  c #436A2D",
"m  c #416634",
"M  c #436A34",
"N  c #496D36",
"B  c #416639",
"V  c #456B3A",
"C  c #496D3A",
"Z  c #4B7335",
"A  c #4D743B",
"S  c #4E793A",
"D  c #4D7636",
"F  c #527B36",
"G  c #52763C",
"H  c #537B3C",
"J  c #597D3E",
"K  c #517636",
"L  c #566B2E",
"P  c #626428",
"I  c #36506F",
"U  c #2B4359",
"Y  c #5B4E47",
"T  c #745849",
"R  c #486D41",
"E  c #4D7244",
"W  c #527541",
"Q  c #547B41",
"!  c #5A7E43",
"~  c #597B46",
"^  c #586A40",
"/  c #637A46",
"(  c #776950",
")  c #4F4E72",
"_  c #855833",
"`  c #A27E3D",
"'  c #8A6426",
"]  c #9C7C46",
"[  c #86765D",
"{  c #8F6945",
"}  c #A37D44",
"|  c #A47B4A",
" . c #A07C51",
".. c #877664",
"X. c #0D812C",
"o. c #1B892D",
"O. c #1E8932",
"+. c #0D8030",
"@. c #389E35",
"#. c #228C31",
"$. c #3CA334",
"%. c #3AA336",
"&. c #3CA42D",
"*. c #56813D",
"=. c #5B833E",
"-. c #5E893D",
";. c #5A8337",
":. c #519736",
">. c #628B3E",
",. c #60863C",
"<. c #709A30",
"1. c #42A133",
"2. c #50A331",
"3. c #67B030",
"4. c #568141",
"5. c #5C8442",
"6. c #5E8942",
"7. c #5E834A",
"8. c #5E8948",
"9. c #4C905D",
"0. c #618545",
"q. c #628B44",
"w. c #688E45",
"e. c #63854A",
"r. c #648B4A",
"t. c #6A8D4C",
"y. c #6A874F",
"u. c #659144",
"i. c #6A9246",
"p. c #669249",
"a. c #6C934B",
"s. c #6C984B",
"d. c #72944E",
"f. c #739A4E",
"g. c #75974B",
"h. c #6C8D52",
"j. c #658A52",
"k. c #6D9352",
"l. c #6E9358",
"z. c #749553",
"x. c #799654",
"c. c #759A53",
"v. c #7A9A55",
"b. c #759559",
"n. c #7A965A",
"m. c #7C9B5A",
"M. c #769B59",
"N. c #728E51",
"B. c #7CA255",
"V. c #7DA25A",
"C. c #76A052",
"Z. c #7D9B61",
"A. c #5B9961",
"S. c #92883A",
"D. c #AA853B",
"F. c #AD9338",
"G. c #B49C3B",
"H. c #B9A539",
"J. c #8DBC39",
"K. c #C9B73A",
"L. c #D3BF3E",
"P. c #99CB37",
"I. c #A3CC38",
"U. c #D3C53D",
"Y. c #DFD83D",
"T. c #FAFD3C",
"R. c #F6FD3A",
"E. c #EBE83E",
"W. c #E5DC3C",
"Q. c #819E5C",
"!. c #958444",
"~. c #A9834A",
"^. c #B09054",
"/. c #81A257",
"(. c #82A45B",
"). c #85AB5C",
"_. c #89AC5D",
"`. c #87A65A",
"'. c #8FB556",
"]. c #839E62",
"[. c #948463",
"{. c #B18C66",
"}. c #84A362",
"|. c #86AA62",
" X c #8AAC64",
".X c #8BAB68",
"XX c #8CB264",
"oX c #8EB46A",
"OX c #93B56A",
"+X c #95BB6C",
"@X c #9ABD6D",
"#X c #93B565",
"$X c #9BBD71",
"%X c #95B771",
"&X c #90AF6B",
"*X c #A2AB79",
"=X c #BEA442",
"-X c #CB9E54",
";X c #D9AC58",
":X c #DAB555",
">X c #D2B44C",
",X c #D1AA69",
"<X c #E0AB5A",
"1X c #9BC26D",
"2X c #9DC373",
"3X c #A2C66E",
"4X c #A6CA6E",
"5X c #A3C673",
"6X c #A5C974",
"7X c #A9CC75",
"8X c #A4C57A",
"9X c #A6CA7A",
"0X c #AACD7A",
"qX c #A8C777",
"wX c #ADD17C",
"eX c #ADD376",
"rX c #B1D47D",
"tX c #B4D97A",
"yX c #D3C143",
"uX c #E7D847",
"iX c #E8D550",
"pX c #F4EB47",
"aX c #FAF943",
"sX c #EEE644",
"dX c #3A5194",
"fX c #47538B",
"gX c #778DAB",
"hX c #54A1B4",
"jX c #34B2DD",
"kX c #4CACD4",
"lX c #BFA88A",
"zX c #9296B0",
"xX c #D4B48C",
"cX c #D3B486",
"vX c #D5B792",
"bX c #CEB08A",
"nX c #AACD81",
"mX c #ADD181",
"MX c #B4D684",
"NX c #B0CF81",
"BX c #E2C49B",
"VX c #EBD1AC",
"CX c #FCE5BE",
"ZX c #F8E7BB",
"AX c #D4C9AF",
"SX c #D0D5D5",
"DX c #FDE6C1",
"FX c #F8E8C4",
"GX c #FCF4D8",
"HX c #DCDAE6",
"JX c #F9FAF8",
"KX c #EAEAE8",
"LX c #DFECE1",
"PX c #939CC3",
/* pixels */
"6.*.*.8.7XMXeXtX#Xu.i.u.i.D V M M Z *.*.Q =.*.*.5.8.*.v././.m.%XtXeXtXeXp.Q 5.4.8.i.u.u.a.G M N M W v.V.m. Xh.R C N n q.r.p.u.=.m C Q W k.s.a.i.",
"4.S S ! @X5X9X6XXX=.6.-.r.N M s M N H H S H G N M m V 7.5.e.~ z._.Q.1X2X5.A F D F >.q.-.q.A s n s V x.m.Z.}.e.R C C m 5.q.6.-.G q C C C r.a.k.r.",
"*.G G 5.6X7X9XwXXX-.q.q.8.N s d m M Q H G G A   + y y e e r e +.&   / wXq.G *.G H r.q.q.r.A s s s C z.m.Z.V.j.E W E R 8.-.6.q.H q m B C j.k.a.l.",
"6.4.G J XX+X+X@X).q.q.q.p.S V Z N C 5.5.*.J m X + X.y +.+.X.X.X.* $ w Z.q.F Q *.*.8.8.6.q.A M M s A }.|..X.Xj.R W E W b.k.h.t.0.G E J ~ j.j.r.r.",
"p.6.u.8.N s s M ~ m.v.v.M.r.q.q.q.r.M.b.c.  + e t 1.1.$.$.$.%.%.y e 6   ! u.8.6.-.H H F *.V s s s G 5XnXnXNX|.7.7.e.~ m.].].m.&X8X8X5X8Xe.V A E ",
"p.-.6.6.d V V s Q m.x.v.v.i.q.>.>.t.v., 9 8 8 e X.o.o.o.o.#.o.o.y e i 8 # - 6.-.-.S Q S F V M M s Z qX9X9XNXV.E Q 0.e.m.}.].Q.&XNX4X3X6XJ B A E ",
"p.q.6.6.V M a s J v.x.v.v.r.0.>.q.w.b.O   e u r r y e y +.+.+.+.t y +.X.O   4.u.6.G Q F 4.C M M s A qXqXqXrX`.Q ! G ! n.].].]..X0XnXqXnX/ B m V ",
"p.6.u.q.M s V s ~ Q.v.m.M.q.5.=.5.m ^ * * o.O.O.O.#.#.O.o.o.o.o.#.#.#.o.* * 9 w =.G Q H H V s b s A 9X0XNXMX.X~ 5.A W N.x.n.Z.&XMXNXNXMXj.B B m ",
"6.5.=.5.A A A A =.d.s.a.a.V._.).Q.. O t t @.%.@.%.%.$.1.1.1.1.1.%.$.$.1.t t +   k =.5.4.*.0.0./ ! e.b.l.k.M.k.r.j.J =.}.&X%X$X&X(.(.(.}.b.j.y.y.",
"4.D F H Q H Q Q F ,.-.-.q.+XwX3X}.+ & f f <.3.3.3.3.3.:.:.:.2.3.3.3.3.2.o.X.& & 9 ! 8.u.r.s.x.Q.m.i.a 0 s d ! k.a.p.e.2XMXNXNX%XG 7.~ Q Z..XQ.`.",
"*.Q H S G H Q 4.5.q.q.q.=.@X9X# X y i } ] ;XiXT.aXaXL.} ~.~.F.aXR.R.L.] $.1.X.e *   6.6.0.d.x.x.x.h.B V M B 7.a.k.j.p.$X7X7XNX.X! H 5.! Z.Z.M.Q.",
"*.W H Q Q S G A 5.q.q.6.;.+XeX# o l g iXuXpXiX^.H.aXE.E.>X} D.T.K.G.U.uXS.S.o.e *   q.6.-.c.v.x.m.k.m M m q ~ s.p.k.k.9X0X7XNX.XC G G H b.Z.n.Q.",
"4.*.S S *.*.5.*.=.6.8.8.q.XX2X= o x h T.T.T.E.} D.T.T.T.W.} F.T.H.} K.R.` ` f t *   >.>.i.a.b.z.z.t.N m N s Q a.t.r.e.nXNXqX8X|.J ~ ! J t.z.s.v.",
"p.6.6.p.2X2X2X5XV.s V v v [...2 2 ` ` K.K.uXiXU.yXK.uXT.E.U.Y.T.-X} =XK.>XU.L k : 2 [.[.( T b N C C 8.6.6.6.5.G 8.8.e.m.Q.Q.n.`.$X$X5X$Xt.G H 7.",
"s.-.q.w.5X7X9XwXV.s M ] | xXvXc _ >X;X} | ;X:XaXpX] U.aXT.aXT.R.H.] ` !.T.aX' x x h bXxX~.~.k s s M q.0.6.>.5.Q 5.~ 8.Z.Q.n.z._.6X5X5XnXw.Z H H ",
"p.-.e.u.2X6X6X7X).p V x z ZXDX~.~.aXpX` ` pXsXS.~.| U.R.E.:X-X` ,XcX{.~.pXT.F.` vXZXCXDXv h p s M N -.=.5.q.Q E 5.7.7.n.Q.n.N.`.4X5X3X5Xt.H G Q ",
"p.u.6.a.5XeXmXtX}.q M z z ZXFX~.F.aXR.` ` T.sX` ~.} U.R.sX<X;X} ,XxX{.~.aXaXF.| BXFXDXFXv x 0 M s M q.q.0.r.*.G F 5.e.Z.].].n..X9X7X7XnXp.A G H ",
"6.*.5.5.V.V.V.|.a.D A N C v v hXhXv ' ,X-XT.aXpXpXpXuX:X;X| ^.cXbXxXVXVX:XyX~.| hXkXT _ Q.e.A G A E 5.F F J *.e.e.h.h.y.h.h./ z.XX)._.oXt.6.e.r.",
"*.Q 4.S s s p 0 A r.p.q.r.z z jXkXj x :X<XT.aXT.T.aXiX;X-X` ~.xXxXxXVXZX;X;X| } hXjXz c x.N.-.q.u.5.n s B b 5.Q.x.Q.Z.~ E V m N =.-.;.,.d.m.m.m.",
"4.S S S d V M V Z q.-.q.r.. . lXvX~.| } ` :X;X<X;X<X^.} { x v xXVXFXVXxXc c uXaXg O N.x.x.N.q.6.q.5.M M B m ! v.x.z.].~ E E B A q.8.q.,.z.x.x.m.",
"4.H H F V s s V D u.-.q.r.    bXcX] ` } } ;X,X:X:X<X-X` { z _ vXVXCXVXvXc z W.R.g . g.v.v.a.q.6.r.5.M m m s ! Q.Q.x.].A V C B A q.6.8.>.z.v.v.Q.",
"4.W Q H M M M p G r.q.8.8.    5 h aXE.5 x o ; } } | _ x { xXxXxX{ c ; @ ] } sXR.g + x.m.M.a.-.q.6.-.n M M s 5.m.N.n.N.G n M s A w.q.=.>.z.v.x.v.",
"u.6.6.r.XX@X+X$XV.G 4.*.4.    z c T.pXh z X % |  .| _ 5 { cXvXvX{ 5 ; X ] ` sXR.g   w.w.r.H N V M E 5.5.6.=.;.5.! J 5.0.5.*.Q c.1X@X1X@Xc.q.u.w.",
"p.6.6.u.6X7X9XeX).A J H G 5.6.@ % :X>Xx z HXSXfX) c  .cXBXCXVXc ) fXPXKXv x -X:Xj . 6.>.e.S s m m N q.q.q.r.! G F H G q.>.>.>.V.9X6X6XwXd.-.q.q.",
"p.6.6.u.2X6X6X9X`.G H H J 5.6.- : -X-Xc x JXHXdXfXT {.vXVXZXVXT ) dXPXJXz 5 ~.^.3 # t.6.r.D M M s A q.6.q.q.6.H H J G 8.8.r.=.B.7X5X3X7Xf.6.q.q.",
"s.u.q.u.5X7X7XMX_.Z H F F -.u.q.<.z z ~.| ZXAXdXfXJXGXFXCXDXFXJXgXdXzXFX#     X J q.>.-.p.D q m s s 6.6.=.-.Q G G W K q.q.q.6.B.mX7X7X7Xf.8.>.r.",
"8.Q F 5. XXXXXXXf.*.8.4.J 4.Q J G z z ] ] ZXAXdXfXJXGXFXDXCXFXJXfXfXzXZX#   O X W 6.6.6.5.! G G Q *.B.v.c.B.N.! r.0.e.-.*.5.=.s.OXXXXXoXr.*.J 8.",
"M M s M D D F D H q.6.r.8.Z s B B M G X o  .^.FXFXDXDXFXDXCXDXCXGXGXvXD.o   s s N G H S D a.Q.m.v.(.9X7X7XeXXXx.v.m.m.J H J A *.-.,.-.q.M n p M ",
"N s M V G J H D 8.>.-.>.u.Z s M M V S O X | ^.FXFXFXDXCXCXCXDXCXCXZXcX| @ X M M N H S H H t.m.v.x.m.9X6X6X0X#Xz.m.n.z.J J G 4.8.8.>.-.q.Z m M B ",
"M M m M Q Q *.H 4.q.u.6.8.A M M s   $ u i 5 x x c vXvXvXxXxXxXxX{ x x x i t +   w H H J H t.x.v.x./.qX6X5X6XXXx.v.x.m.! Q Q A J r.q.q.u.V s m C ",
"M s p m G H H G 4.6.-.-.q.m q 0 w 1 $ 9.9.j j l P *X*X*X*X*X*X*X/ j l j 9.9.= o < G C N K N.Q.m.z.`.6X0XwXeXOXn.x.x.M.J D F D =.q.q.q.e.S m b m ",
"k.t.t.r.8.=.6.*.c.+XXX#XoX      X I I JXJX6 6 X.y y y y t y t y y y 8 6 HXJXT 2 o   .   J H G W W *.c.c.c.f.t.5.0.0.q.|.oXXXoXM.Q *.;.J 5.h.t.h.",
"`.v.v.v.r.u.q.-.(.0X0X5X5X@ . . $ I I HXSX7 7 t e e e e e X.X.r X.r i = AXLXY 4 % o . o G C s d s M 8.6.-.6.4.A F J F 2XrXqXNXXXD S *.Q k.m.n.(.",
"`.f.v.x.q.6.6.=.C.7X5X  . c c 5 z I I X . z g e e e e X.e y e t r r 0 x @   U I Y 5 x x . . 0 M m V q.q.q.-.5.Q S Q 4.@X6X6X7X_.A Q H G z.v.x.v.",
"V.b.M.M.r.q.q.6.`.wX7X  . {.{.{...> > 6 6 F L k k k <.P.P.P.J.k k k L F X   1 > T {.{.{.@   0 M s M q.-.>.q.4.S G S G @X7X9XwXXXQ Q H Q a.v.v.V.",
"v.b.d.z.8.4.8.4.z.5X$X  X bXxXxXbXo O u u 1.:.z h h G.aXR.aXW.h x x L &.+     X [ bXbXxX@ . 0 N N Z 6.6.-.6.e.r.r.r.w.+X1X@X2XC.N Q G S t.z.N.x.",
"s.0.q.0.M n M s 4.v.x.: < [ [ ..( - = 8 8 &.1.P L k <.I.I.I.'.k L L ;.$.+   < l Y [ [ ..: : *.q.q.8.H H H S V.mX9X0X6Xi.-.-.q.J m M s s G F H J ",
"i.-.>.0.M M s s ! m.m.c.x.@     X ! m o   $.$.1.&.e e i y i X.e #.&.&.&.+   &XnX9   . . N q.r.>.q.5.H H H A V.eX5X4X9Xi.8.q.r.J s M M s S J G Q ",
"i.6.q.e.M m M m ! Q.x.m.x.q.*.-.q.*.B . . O O O & @.&.@.@.@.@.@.o.X.6 +     # - / Z G H A 6.0.q.q.-.G Q J A V.7X3X6X2Xs.8.-.u.4.s M M d S H G *.",
"p.6.w.8.s p s 0 G Q.x.v.m.a.q.p.r.5.s         . O $.@.&.&.@.@.1.o.e 6           x.H H Q G =.q.w.6.q.S G *.D V.MX0XwXeXi.6.-.>.Q q s p s Z G G J ",
"4.S S W C.B.V.M.M.6.q.8.q.H A G D G S N M   . ; - = & * * & = k 9 , 3 4 2 4 o . / B C C M e.g.i.g.t.=.6.*.-.r.l.k.l.t.z.a.k.N.d./.v.V.(.a.t.w.t.",
"s d d V nXwXrXMX).A Q G Q M s d s n Q H G   o 2 2   .     . . 2 2 2 5 c _ 5 o . L m M m b t.m.v.n.x.>.q.r.r.N p a 0 n h.m.m.x. XNX0X0XnX Xm.v.Q.",
"Z M M N 2X5X6X7X|.D *.J J M M M M Z G Q 5.0 B % ; N.n.m B B w % 2 4 5 z ; ; l C 0.m V V m e.M.M.M.x.>.q.=.q.G M V V M z.m.x.g._.0X4X4XqX`.z.n.m.",
"d s p Z 2X7X0X7X).A H G Q M s M d V Q S G C Q.  # 7X5XF G ~ G   4 z x x o   N.Q.t.B m B b e.m.v.x.M.>.q.6.u.G s s d M b.x.v.x._.qX6XqX0X`.z.m.v.",
"A V N A $X3X5X7X_.*.5.*.e.C V C C A 6.-.! 5.).2X@X8X@X0.H H J J - o . . t.z.N.b.t.N M M M r.c.c.f.b.q.q.r.w.F M V s M h.M.x.z. XqX6X5X5XV.z.c.c.",
"p.8.5.5.v.v.m.x. X5X5X5X5X/.x.x.z.V.5X1X8XqXB.0.q.q.a.a.v.v.m.q.- .     M B N N C 0.8.6.-.=.J G F 5.x.M.c.v.r.D H Q F q.w.q.,.d.v.v.M./.w.q.q.u.",
"p.6.w.r.f.x.n.z..X7X6X6X7X`.x.m.x./.7X7X9XeXB.=.q.q.r.v.v.v.v.e.H S S Q M B B m N q.>.u.r.*.G Q G J v.m.v.M.r.G 4.Q H 6.q.q.0.a.x.x.c.v.t.r.6.u.",
"u.6.q.r.d.Q.n.x.|.7X5XqX8X`.z.n.z.}.7X5X5X7XB.=.q.q.q.x.v.v.Q.q.F *.Q H M M m M A r.q.6.u.J H 4.S =.x.x.v.v.r.Q H Q J -.6.6.q.t.v.m.v.x.r.q.5.u.",
"p.r.-.u.f.x.M.N. X0X4XeXwX`.v.m.M. X7X7X0XNXV.;.r.-.r.M.n.Q.V.e.A S D D M B s s A 6.-.;.6.*.S G S ! v.M.Z.Q.q.Z D K S 6.p.6.u.k.b.M.v.v.i.q.u.p.",
"-.H H 5. X_. XXX X X_.).XXa.e.e.5.h.XX_.|.XXf.t.a.g.w.q.6.6.0.t.c.B.M.c.Q V D N Q V.(.(.(.r.4.5.4.5.t.t.t.r.d.v.M.v.c.;.D *.F =.x.a.d.d.6.G H H ",
"M s s V 2X7X7XrX'.J q.=.8.n p m s M 6.=.=.-.s.v.m.g.M.m d R q z.tXqXwXwXe.S *.G k.wXwX7XwXC.-.u.q.6.F K G S V.wX7XwXwXW d V p D >.6.>.8.Z s s M ",
"V M s N 2X4XqX9XXX-.r.q.r.A m V M A r.q.u.6.d.v.n.x.n.N a s s b.wX3X3X5X8.G *.Z p.6X3X5XwXC.=.q.q.q.*.*.H G V.7X5X5X1XG d M B S q.q.6.r.A s s M ",
"V a m N 2X7XqXqX+X=.q.-.r.N s M m A q.-.-.q.d.v.Q.m.b.M a M 0 l.rX6X6X6X8.G H D k.7X9X5XwXB.-.q.q.8.S F J A V.wX5X0X4XG s m s A q.6.-.q.A s s M ",
"Z M B C @X7XqX7X'.>.6.8.q.Z s M b D 6.q.q.r.d.f.x.x.b.M M V s M.9X5X0X2Xe.G H H e.7X6X9X9XC.5.q.e.5.*.F F G V.7X6X6X2XJ B C s G >.>.>.u.A s M N ",
"6.5.-.6.V./.m.|.s.G H *.5.*.-.8.5.4.*.*.F Q q.w.w.q.w.+X@X+X2X).i.s.s.i.a.b.d.b.z.a.i.s.k.H M V V W $X1X1X2XV.i.a.s.i.XX@X+X$X.Xd.x.x.M.5.A S Q ",
"s.8.q.u.f.x.n.M.t.S G J A 6.u.6.q.8.J G H Q *.q.q.6.i.8X7X7XwX).=.-.>.>.x.Q.x.v.d.6.-.6.6.D s m p H 9X7XqXmX).;.6.6.q.2X7X7XwX%Xx.n.v.m.5.S H J ",
"u.q.q.w.c.m.m.b.k.D Q G H 6.6.>.r.6.Q Q J G 5.q.>.-.u.5X5X3X7X|.-.q.q.e.z.M.c.v.d.6.q.6.r.D s M s Q 5X4X9X7X`.8.q.q.r.2X4X3X7X#Xx.v.v.v.5.Q G Q ",
"u.0.q.q.v.v.x.V.i.G S Q 4.5.6.6.=.;.F Q F D 5.r.q.q.i.qXwXwXwX_.-.>.>.w.c.v.v.m.z.>.>.q.p.Z s m s D 7X7X6XeX).=.r.q.q.$X7XwXwX+Xx.m.d.m.5.G H G ",
"p.6.w.q.t.r.k.h.e.J *.J *.p.c.f.c.f.J 0.6.q.6.5.6.5.q.OX@X#X$Xv.J 5.Q J a.z.x.d.k.4.5.;.J G D Z N Q +X@X@X1XB.*.-.=.q.OX@XOX$X Xa.x.d.d.0.! 5.e.",
"p.-.r.0.B m s p A q.q.q.>.1XwX9X0X5Xv.m.M.v.0.A D Q H x.x.g.Q.7.p B s M 5.q.q.6.=.s s s p 5.q.8.p.t.x.x.z.z.r.G F *.D x.x.g.x.d.-.q.q.q.z.].v.`.",
"p.-.6.8.M N s M S u.6.q.-.@X9X6X9X@Xx.v.v.m.e.G J S J b.v.v.].~ M s M n 5.6.q.q.=.s M V M H e.q.5.t.x.v.m.Q.t.A J G D x.Q.Q.x.d.q.6.u.6.d.Q.x.v.",
"p.u.u.6.s M V s A 6.q.q.;.@X9X5X7X$Xx.v.x.m.e.G Q H *.c.x.x.M.0.s V V b r.e.q.q.*.m M B p *.q.q.-.r.v.v.v.v.t.A J H H z.x.n.m.a.-.q.u.6.z.x.v.Q.",
"u.-.6.6.N p s p A u.>.-.>.@XwX6X7X$Xv.M.v.B.q.S H G Q z.v.m.M.6.a p p m ! q.q.q.J s V s s *.q.q.q.u.x.v.x.v.p.Q G Q H x.c.m.M.d.;.r.,.>.N.Z.x.Q.",
"6.! F 5.|.oX.XXX(.k.z.b.s.f.f.f.c.f.t.t.w.w.*.M M A V 7.0.! =.b.&X X.XXXM.s.d.M.h.;.*.5.*.*.*.*.4.*.r.h.a.t.Q s Z V N q.a.q.w.v.+X#X+X@X0.Z K G ",
"4.S W Q 6X7X0XeXOXx.Q.x.v.w.6.6.6.6.8.q.-.q.A s s s M S Q S A V.tX0X0X0X`.M.v.v.v.q.w.q.q.5.G G H H -.q.8.q.G s M d B 6.6.-.-.B.eX9X7XmX5.p d M ",
"4.S G ! 1X5X0X4XOXx.v.x.v.q.>.>.q.-.q.q.-.q.S M V V M Q J Q D M.7X5X5X6X/.x.v.x.z.q.6.-.q.*.G *.H 4.q.6.q.>.G M N b N 5.q.p.=.V.7X6X5X7X! s R M ",
"S Q Q J 6X9X9X0X+Xx.x.x.m.i.q.q.q.q.q.q.w.q.A p s m m G G 4.G V.wX6X7X6X`.x.v.v.x.u.-.6.r.*.G G S H q.q.q.q.D s m m m ;.q.q.-.V.7X7X6X7X5.p d M ",
"4.Q S 4.oXOXOX@X).c.x.x.M.0.=.5.=.6.6.=.6.6.G A A Z G W S S Z M.2X$X1X1Xv.l.z.z.r.=.=.8.5.0.5.5.5.*.q.6.-.q.5.G ~ W W 6.6.;.*.M.qX$X$XqX5.n V M ",
"p.6.q.*.N M M b A q.q.q.q.A s M m M H Q H 4.t.b.b.b.k.N M M s G u.=.>.q.S Q H J G M M s M r.v.x.M.l.G H J D V.nX9X7X5XG s V s ~ v.v.x.v.~ G Q J ",
"p.-.q.6.s d m m A u.q.q.r.S s d M N Q J G A a.m.M.M.b.N M M s Q 6.6.q.6.H Q H H A m C d p t.v.x.v.z.J H S A B.wX3X5X9XG s M d ~ Q.z.v.v.e.Q H Q ",
"u.*.-.-.V d b n Z 6.-.-.6.N s s m N S A H S r.x.v.x.z.M s s s G u.6.6.6.H S G H S a s d p e.m.x.v.i.K G *.D V.wX3X5X5XG s a s G g.x.v.v.5.D S *.",
"p.u.i.u.V M Z s *.s.u.i.p.S M Z N D 5.*.8.J f.`.Q.`.M.A V A M *.s.p.i.i.5.4.-.*.H N V A M t.`./.(.V.5.4.*.S |.tXtXrXwXQ M D M 7.).`././.e.*.4.5."
};
