/* XPM */
static char *result[] = {
/* columns rows colors chars-per-pixel */
"72 72 252 2 ",
"   c #040403",
".  c #080A06",
"X  c #071607",
"o  c #13180D",
"O  c #17110C",
"+  c #26180D",
"@  c #241A15",
"#  c #341D17",
"$  c #1B2614",
"%  c #153413",
"&  c #0D2D13",
"*  c #252A18",
"=  c #29361C",
"-  c #3A2716",
";  c #2C3D23",
":  c #393325",
">  c #192633",
",  c #55331C",
"<  c #45301C",
"1  c #4C3526",
"2  c #633D24",
"3  c #0E481B",
"4  c #0B5B24",
"5  c #134D23",
"6  c #384927",
"7  c #39592B",
"8  c #3A5C32",
"9  c #2C4E25",
"0  c #0B6527",
"q  c #0A7C2D",
"w  c #09772D",
"e  c #17762D",
"r  c #166729",
"t  c #3D632D",
"y  c #3D6628",
"u  c #3E6433",
"i  c #3E6339",
"p  c #2A6F2F",
"a  c #4A431D",
"s  c #46572C",
"d  c #494539",
"f  c #504E2B",
"g  c #694725",
"h  c #754927",
"j  c #795834",
"k  c #6E4E2F",
"l  c #41652D",
"z  c #42692D",
"x  c #416634",
"c  c #436A34",
"v  c #4A6D35",
"b  c #416639",
"n  c #446B3A",
"m  c #496D3A",
"M  c #4A6236",
"N  c #4B7335",
"B  c #4D743B",
"V  c #4E793A",
"C  c #4D7636",
"Z  c #517636",
"A  c #527B36",
"S  c #51763C",
"D  c #537B3C",
"F  c #597D3E",
"G  c #5A753D",
"H  c #596A31",
"J  c #6F6B37",
"K  c #374457",
"L  c #334E6C",
"P  c #4B4846",
"I  c #6F5749",
"U  c #486D41",
"Y  c #4D7243",
"T  c #4D714B",
"R  c #527541",
"E  c #547B41",
"W  c #5A7E43",
"Q  c #5A7B46",
"!  c #52664D",
"~  c #657B46",
"^  c #736F4A",
"/  c #567477",
"(  c #845938",
")  c #84572E",
"_  c #946F37",
"`  c #A3763C",
"'  c #9A7344",
"]  c #8D6D4A",
"[  c #A47D45",
"{  c #A27B57",
"}  c #8E7A61",
"|  c #967660",
" . c #1A882E",
".. c #278A2D",
"X. c #218D31",
"o. c #288D32",
"O. c #2C9633",
"+. c #329B33",
"@. c #368E2E",
"#. c #3EA334",
"$. c #56813D",
"%. c #5B843D",
"&. c #5E893D",
"*. c #5B8337",
"=. c #4A9535",
"-. c #628B3E",
";. c #60863C",
":. c #699A38",
">. c #42A433",
",. c #43A52E",
"<. c #568141",
"1. c #5C8442",
"2. c #5E8942",
"3. c #5D8349",
"4. c #5E8948",
"5. c #618545",
"6. c #628B44",
"7. c #698E45",
"8. c #63854A",
"9. c #648B4A",
"0. c #6A8D4B",
"q. c #6A844B",
"w. c #659144",
"e. c #6A9246",
"r. c #669249",
"t. c #6C934B",
"y. c #6C984B",
"u. c #72944E",
"i. c #739A4E",
"p. c #77984D",
"a. c #6C8D52",
"s. c #658A52",
"d. c #6D9352",
"f. c #6E9358",
"g. c #749553",
"h. c #799654",
"j. c #759A54",
"k. c #7A9A55",
"l. c #759559",
"z. c #7A965A",
"x. c #7C9B5A",
"c. c #769B5A",
"v. c #758B52",
"b. c #7CA255",
"n. c #7DA25B",
"m. c #76A052",
"M. c #7D9B61",
"N. c #749279",
"B. c #72A56C",
"V. c #5A8D67",
"C. c #918738",
"Z. c #B0953C",
"A. c #AAA62E",
"S. c #CBBA3D",
"D. c #CAAE3F",
"F. c #ADCC3A",
"G. c #9EC435",
"H. c #D5CE3E",
"J. c #D5EB3C",
"K. c #EAE83E",
"L. c #F8F93E",
"P. c #E2F23D",
"I. c #E1D73E",
"U. c #819D5C",
"Y. c #869D56",
"T. c #8F8644",
"R. c #A88445",
"E. c #B49643",
"W. c #B18B53",
"Q. c #81A257",
"!. c #82A45B",
"~. c #85AB5C",
"^. c #89AB5E",
"/. c #84AA55",
"(. c #8CB15B",
"). c #B9A94A",
"_. c #849E64",
"`. c #8A8A6B",
"'. c #B6956B",
"]. c #84A462",
"[. c #86AA62",
"{. c #8AAC64",
"}. c #8AA868",
"|. c #91AF69",
" X c #8CB264",
".X c #8DB36A",
"XX c #93B465",
"oX c #92B56A",
"OX c #96BA6C",
"+X c #99BD6D",
"@X c #98B868",
"#X c #9BBD71",
"$X c #95B771",
"%X c #8EB171",
"&X c #BFA376",
"*X c #C59C4F",
"=X c #D9AC59",
"-X c #CFAF4B",
";X c #C6A57A",
":X c #D7B26A",
">X c #9CC26D",
",X c #9DC273",
"<X c #A2C56E",
"1X c #A6CA6E",
"2X c #A3C673",
"3X c #A5C974",
"4X c #A9CC75",
"5X c #A4C57A",
"6X c #A6CB7A",
"7X c #AACD7A",
"8X c #A8C777",
"9X c #ADD17B",
"0X c #ADD376",
"qX c #B1D47D",
"wX c #B3D879",
"eX c #BDC941",
"rX c #D5CB42",
"tX c #E8D748",
"yX c #E4C94D",
"uX c #F2E746",
"iX c #F6F641",
"pX c #ECE941",
"aX c #D4ED41",
"sX c #3D5295",
"dX c #3E4F89",
"fX c #1C6A82",
"gX c #45579C",
"hX c #6F8BA7",
"jX c #37B4E4",
"kX c #BEAA92",
"lX c #9A9CB2",
"zX c #99939D",
"xX c #CBAC85",
"cX c #D8BA93",
"vX c #D0B48F",
"bX c #C4BEB7",
"nX c #AACD81",
"mX c #ADD182",
"MX c #B4D683",
"NX c #B0CF81",
"BX c #B1C2B1",
"VX c #DDC29B",
"CX c #E4CBA3",
"ZX c #EED6AF",
"AX c #F8E2BB",
"SX c #D9CFB3",
"DX c #D1DBD4",
"FX c #FCE8C6",
"GX c #F4E9D2",
"HX c #F9F4E8",
"JX c #F1F0F0",
"KX c #D5DBE8",
/* pixels */
"2.$.$.4.0XqX9XwX>X&.e.w.y.C c m M B E 3.<.<.E <.3.<.1.k.Q.Q.U.+XqX0X9X0Xr.E <.<.2.e.w.w.y.E c n n E k.x.x.}.a.U B c z 7.9.w.w.&.x Y D Y t.y.r.t.",
"<.V V W +X2X5X3X X%.2.&.6.c 7 = r p p p p p p ; 7 N E k.k.k.u.{.1X8X2X2X1.C A S D 2.&.;.6.B t x u c h.x.x.].q.U m m c <.6.2.1.Z 8 U n B 4.t.d.r.",
"$.D S 1.3X7X6X9X X1.6.6.9.n % . 0 q w  .q q e X $ S F g.k.h.g.XX0X8X7X7X6.Z $.D D 6.4.6.6.B u c x m k.x.M.!.4.T Y T U 6.1.1.6.E x s b b s.d.d.d.",
"2.<.S F  XOXOX>X/.6.9.6.4.& % 0 X.+.O.+.+.+.o.0 5 o v n.U.x.U. X+X+XOXoX6.D E F 3.2.2.2.2.B x c u m ].[.].}.f.Y R Y R f.g.0.0.5.B R F W s.s.9.0.",
"r.2.6.4.v x u x Q x.c.q.Q & 3 w X.+.+.O.O.O.O.q 4 & 7 l.6X7XnXj.y x z m 1.6.6.2.&.D D A $.n u u t R 5XnXnXNX].Q 3.8.~ M.].U.x.|.5X5X5X8Xq.c m Y ",
"r.&.&.2.i n c u E x.h.* X w w w w  . .w  .w  . .w w & X >X>X9Xc.7 n u t 3.w.2.-.&.V E V F m c c u N 8X6X6XNX[.Y W 5.1.c.]._.U.|.qX2X<X8XF M Y Y ",
"r.4.6.&.n u y u F ~ s 3 3 X.X.X.X.X.X.X. . .X.X. .o.5 % H g.9Xj.u c c x &.-.4.r.1.D D $.D m c c u C 8X8X8XqX~.E E D F z._.]._.|.7XnX6XnX3.i l n ",
"r.2.w.6.u n N i Q s . 0 e #.>.#.>.,.#.,.#.#.>.>.,.+. .q . 6 9Xc.8 c u b 6.-.6.9.&.V E V D n u t u C 6X7XNXMX[.Q E V R a.h.z.z.%XMXNXqXMXs.b b x ",
"2.3.&.<.B B B b $ % 0 J T.).rXaXP.H.C.T.C.eXJ.J.eXT.=.#.0 3 @ M v B B m <.<.&.$.<.;.%.<.%.1.5.~ ~ 8.f.f.d.c.t.9.s.$.1.].|.$X$X|.]./.n.].f.s.v.s.",
"<.C A D E D E b . & p C.E.yXyXaXiXK.E.R.R.J.L.K.rXE.:.=.q 4   7 D F D V D V D C <.r.6.9.9.t.k.U.x.t.y 7 i b W d.y.a.9.#XMXNXMX$XS Q 3.Q M.}.U.!.",
"$.D D V D D <.m . * g I.iXiXrXR.I.L.L.H.R.H.K.R.Z.iXZ.T.e 4   6 V N D $.D D <.V <.6.2.6.6.u.h.h.k.0.x n c b 3.t.d.9.9.#X4X4XNX}.Q D 1.Q M.M.x.U.",
"$.R R E H ^ ^ ^ - g ` D.rXtXrX-XS.H.L.K.-XK.K.Z.E.rXS.D.y 6 # H v.^ ~ C D D D D $.&.6.6.;.g.x.h.x.d.x c c 8 Q u.r.d.g.6X7X4XNX}.B S Z Z l.M.h.U.",
"1.V $.V J R.xX&Xh ` =XW.R.=XtXiXZ.Z.iXL.L.L.K.R.[ [ tXL.h g h '.xX{ ] $.<.E V V F y.-.-.e.u.l.g.g.0.v x c x E r.r.9.9.nXNX8X6X].D Q W F 0.g.y.x.",
"w.2.2.r.] ( VXVX` D.uXZ.R.uXrXE.R.Z.K.uXyX-XE.:X'.[ rXiX_ '.cXZXCX' j g.N u m u <.6X,X3X5X9.l n n m 4.1.&.6.W D 4.3.8.x.U.U.x.~.,X#X2X,X0.Z D Q ",
"y.-.2.7.^ J xXxX`.).I.Z.E.iXrXE.Z.-XuXyX*XW.W.vX;X'.tXuXT.'.DXDXcX( ^ z.c u n t 3.9X,X3XNX9.t x u c 6.6.2.&.<.E 1.Q 3.M.U.g.v.^.3X2X2X7X0.N D E ",
"r.2.6.9.#XOXk ! jXhXh *X=XL.L.L.iXiX=X*XR.;XvXcXCXAX:X=XR.N.jX/ k v.h.h.N c c t 3.3X4X1X7X9.t c c N ;.<.1.7.<.Y 3.3.8.c.U.z.v.^.3X2X<X2X0.D D E ",
"r.2.6.r.3X2Xf P hXzX_ W.*XuXtXtXuXyX*X[ ' ;XcXVXCXZX'.R.-XY.L T J h.k.c.C u c t Q 7X1X4XNX9.t i u c 6.6.6.6.W D A 3.3.M._._.v.|.3X6X6XnXr.C Z E ",
"2.$.2.<.n.k.$ - xX&XC.C.[ =X=X=X=X=X[ ( 2 '.cXAXZXcX( h L.A.  M t.u.g.t.C c m v 1.+X@XXX+X9.N D B Y <.F A D F 8.8.0.a.a.a.a.~ g. X~.^.XX0.1.5.9.",
"&.E E V u 7 o @ ) Z.I._ ) < j W.W.[ ) ' '.xXxX' I 1 ( _ L.A.  6 5.&.6.6.F E <.S 5.z.z.g.k.t.&.w.-.1.z u x t ~ !.g.U.M.Q m U u m &.&.*.;.g.x.x.x.",
"<.V V V n i o @ 2 Z.L.) 2 @ d { ' ` ) { cXvXxX2 1 @ j ' pXA.  9 9.;.4.2.$.D $.S %.k.z.x.z.t.6.2.9.1.c n n u 3.k.z.u._.Q Y Y n N r.4.6.;.g.h.k.x.",
"$.D D A n u c 8 . k =X) I JXlXdXP ) xXCXAX| 2 gXhXJX| ) =X`   6 9.2.2.2.D S D S 1.k.u.k.k.t.6.2.6.&.n c x u Q x.x.h.M.G n m n B 6.2.4.;.h.k.k.U.",
"1.R E D c c x 7 ; J [ _ ' HXlXsXzXkXCXZXAXvXzXgXhXHXI # j f = x w.6.6.r.$.S E D 1.x.z.x.x.r.1.6.6.1.z c c u 1.x.u.z.v.B x c u N 9.2.&.;.u.k.g.k.",
"2.2.2.9..XOXoX+Xn.H g _ W.AXlXsXDXJXFXAXFXHXKXgXhXAXd     ; %.b.>X+X+XOXg.g.d.g.d.r.7.7.0.S c n c S 1.1.&.%.F 1.W F 1.4.1.%.<.g.>X+X>X+Xg.6.7.r.",
"r.2.2.9.1X9X4X0X[.B H : < '.xXbXAXFXFXAXFXFXFXbXvX'.: . v $.&./.9X4X4X6XQ.k.k.x.u.2.6.;.6.V x u x c 6.6.6.9.%.Z A D V 6.-.&.6.b.4X3X3X9Xi.&.6.6.",
"r.2.2.w.,X4X2X4X~.v v $ $ ` &XCXZXAXZXAXAXAXZXCXvX[ * o E 1.2.~.7X2X8X8Xk.k.g.k.u.5.9.2.r.N c n u N 6.6.6.-.1.E D F S 2.4.9.<.b.3X1X<X7Xi.2.6.6.",
"y.w.w.w.2X7X4XMX^.9 o 4 r g h j xXvXcXcXcXcXxX( ) h p 0 o : %.~.9X4X9X7X!.k.k.U.u.7.;.-.r.N u u i u 2.2.<.&.W S D R Z 6.6.6.6.b.NX7X4X6Xi.2.9.w.",
"2.<.D %.}.[.~ Q U ; > V.B.a a s z.}.`.}.]._.p.s 7 a s.B.@ * M M ~ ~.{.{.d.q.0.9.9.1.2.2.<.W G R E %.b.k.m.b.t.W 8.5.5.&.%.<.<.i.oX X X.X6.$.$.1.",
"c i c t S m $     > L DXDX3 0 w w w w w q q q w 0 & BXJX1 #     . x C S x l b u c D D V A t.x.k.k.!.4X6X4X0XXXh.k.x.x.W D F C $.&.;.&.6.v u t c ",
"n u x m 6 $ 1 , 1 P L K 1 d y w w w q q q q e  .p a d : L P , , , * ; E c u c c v $.V D F 0.x.k.g.n.4X8X3X7X.Xg.x.h.g.W F D E 1.6.6.&.2.N x c n ",
"c n c c 6 . 2 h j P L & o g l r e p ......e e r y g +   L P j h h O $ E c n n c m D D E Z 0.h.k.h.U.2X2X8X3X|.u.k.k.x.W E E V <.6.6.6.r.v x x n ",
"v t x x = O '.xXxXI O 4 e >.H 2 k ) J.P.P.C.g g H ,.&     1 vXvXkX@ $ E c b i u c F $.S Z 0.U.x.g.!.4X6X0X0XoXh.h.k.j.F N V A %.6.2.6.6.B u l b ",
"d.9.0.9.8 = ^ } | P 6 5 4 #.=.H s H G.F.G.;.f H A #.%   ; d } } } : s d.Z V S V D &.%.3.8.F Z R R %.j.j.j.i.0.W 8.5.5.[.oX X.Xc.F $.F $.3.a.0.a.",
"~.x.k.k.9.&.$     G 0X: X >.#.>. .q q w q q q #.#.#.% . 8Xv.    . q.k.k.F D $.E <.6.w.6.6.N u u u u 2.2.%.&.<.D D D A 2X9X8XqX(.C E E R d.n.k.U.",
"!.g.k.k.9.2.Z t G OX2X* . % % % p @.O.O.O.O.O. .r % .   6 H z.q.G g.M.g.1.E D E $.6.6.&.9.C x c c m 6.6.w.6.<.E D D <.+X8X8X4X[.C D D D u.k.h.k.",
"!.l.j.j.9.6.r.2.b.7X8X6 $     . p @...@.@.@.@.r 5 O O O   s 7XXXk.Y.x.z.D Z C C D 6.&.2.9.N t c u n 2.6.;.-.<.C S V D +X4X3X9X XE E F E d.k.x.!.",
"k.g.g.j.<.%.2.$.j.5X#X+X|.  + < o X X X X - 1 1 1 2 2 2   6 +X~.0.a.a.g.0.6.9.9.9.2.2.2.2.Z c B m N 2.1.2.5.6.9.9.9.7.oX>X>X,Xc.m V V D 9.u.v.g.",
"y.6.6.5.v u u u W k.p.h.k.; * # = = * % * * # , 2 h , , = s -.D x x x v oX9XnX6X(.V D D F 1.6.6.6.2.D D D V n.nX6X6X3Xe.%.&.7.$.u x c u Z D S F ",
"9.;.;.5.c c n u Q k.U.h.k.r.6 . Z %.x n b $ O 2 h 2 +   1.6.w.D u c x x OX3X2X9X@XS <.D V 1.6.6.2.2.D D E C n.9X1X3X4Xe.4.6.w.E u n u u V D D F ",
"y.2.9.6.u u m x W k.h.k.g.7.S s &.%.x n x 7 s + + + f s r.2.6.D i x x c OX3X8X6X XC D F V %.2.6.6.&.D E D V n.0X<X3X>Xy.4.&.9.<.c n c i V E E E ",
"w.6.6.9.u t u 7 S Y.h.U.x.r.w.r.9.1.t x n u E o O . G 6.6.6.6.D u c b b OX0X6X9XXXD V E D &.&.7.2.6.V V F N n.MX7X9X0Xe.4.&.6.D 7 u t t N S Z F ",
"E N D R m.m.x.n.c.2.9.3.9.D V R Z V Y C C B j.OXXXoX{.%.F <.%.$.V A $.A !.XX{.|.x.c B m c 5.u.u.p.0.*.2.$.&.9.g.f.f.a.u.u.d.d.g.U.k.b.~.0.0.0.e.",
"u i u n nX9X0XMX/.B E V E x u u b z E D S S  X7X6X7X8X1.V D S 1.9.r.9.6.g.h.g.k.0.l c u l 0.U.k.z.h.6.6.4.9.N 7 y 7 l d.x.k.h.{.NX7X7XnX}.x.k.U.",
"B c c C #X4X8X6X{.C $.F $.c c c c N D D 3.C ~.7X1X1X2XF E Q V %.6.6.2.6.g.k.x.k.0.l n n u 8.c.k.k.g.w.6.2.4.D c n n c g.k.h.p.^.7X1X2X4XQ.h.h.k.",
"i u u c ,X4X6X7X~.N D S D n u c i n E V V N ~.9X3X4X,XD V E S <.6.;.6.6.p.k.k.U.0.b i b u 9.x.k.k.j.;.;.6.w.S u u i x g.h.h.h.^.4X3X8X7X!.h.k.U.",
"C m c B #X3X2X4X^.$.<.%.5.m n m n m <.&.1.1.~.6X>X2X+X1.F D %.<.2.2.2.6.d.l.a.l.0.c c c v 9.j.g.g.d.9.9.7.9.D x v u c t.x.h.g.{.8X2X2X2X!.g.j.g.",
"r.1.3.4.k.p.x.h.}.2X3X2X8XQ.h.h.h.n.3X3X,X5Xm.5.9.6.r.g.k.k.k.6.D <.V D m c v m B 5.2.6.2.$.F D F <.g.k.g.j.9.C V E S 5.7.6.;.u.k.x.k.n.w.6.6.w.",
"r.4.6.0.p.h.z.h.{.4X3X3X4X~.p.k.h.~.4X1X2X7Xb.&.6.6.9.c.k.h.x.q.D D D <.c n b u m 6.-.6.9.$.D E D F k.x.k.n.9.V <.E F 2.6.6.5.t.h.h.g.k.7.9.2.w.",
"w.2.;.9.u.U.x.g.^.6X2X8X7XU.h.z.g._.7X2X2X4Xb.&.6.6.6.j.z.h.x.7.S $.E D z c x x N 9.6.2.r.D S $.V $.k.k.k.k.9.E D E D 2.2.6.2.0.k.x.k.k.6.9.%.w.",
"y.4.-.w.u.k.z.u.{.7X3X4X0X~.h.U.z.{.4X4X9X9Xb.;.7.;.9.x.k.x.U.5.C C V V c b x u B 2.*.&.&.$.D D V W k.k.M.x.6.N C Z C 6.r.2.w.d.k.c.k.k.9.6.w.r.",
"&.V D <.{.{.{.{.{.{.(.^. Xr.4.q.1.a. X^.[. Xi.0.r.u.6.6.5.1.5.0.j.n.j.j.E n N c E n.!.n.n.9.F <.<.1.0.0.a.6.u.k.j.k.j.%.V A A %.p.d.u.g.<.D D $.",
"c u u m ,X4X4XqX(.D 6.%.2.z 8 l u c 2.%.$.&.y.c.x.k.k.b u U 7 c.MX3X9X7X9.B $.D d.9X0X4X9Xb.&.w.7.2.A Z D B n.9X7X7XmXS 8 m t C -.2.2.6.N u u c ",
"n c c c >X1X8X6XXX&.w.6.0.B b n n V 9.6.6.6.u.k.h.h.l.v y n i l.7X1X<X1X3.V $.N r.6X2X2X7Xm.%.6.2.2.<.D D D n.4X3X2X>XS i c b V 6.2.6.6.B x u n ",
"m t x m ,X1X6X8XoX&.2.2.9.v u c u N 6.&.&.2.u.k.U.x.l.c z c 7 d.qX4X3X2X2.Y D N d.7X3X3XNXm.&.6.6.4.V V D C n.0X2X6X1XD i x u B 6.-.&.6.B u u m ",
"N c x C ,X4X8X4X(.-.-.2.4.N y c z N 2.6.6.9.u.p.g.k.l.c c n u c.4X,X7X,X9.G D F 9.6X3X3X6Xm.2.9.6.2.$.A F Z n.7X2X2X2XE b m u D -.6.6.6.N c u c ",
"4.2.&.1.n.b.x.[.y.D D $.<.%.2.2.3.$.%.$.D F 6.w.7.6.e.oX+XOX>X~.e.y.y.y.0.l.g.g.g.y.r.t.t.D x n n R #X>X+X,X!.r.y.y.e. X+XOX#X{.u.g.k.j.1.B V E ",
"e.2.6.9.g.k.z.k.0.V F E D <.r.4.6.4.D V D E 1.-.6.1.7.6X4X4X9X~.%.2.;.-.g.U.k.k.u.2.2.;.2.N c u u Z 6X7X8X9X/.%.2.2.6.,X4X4X9X$Xk.z.k.k.3.V D D ",
"r.6.6.7.g.x.c.k.0.S <.D D 2.6.2.6.1.E E F S 1.9.6.-.9.2X3X<X6X{.&.6.6.9.g.j.k.k.u.6.9.;.r.N x c u E 8X1X6X4X/.2.6.6.9.,X3X<X4X@Xg.h.k.k.1.E S F ",
"r.6.6.6.k.k.k.n.e.D V R D <.6.2.&.$.D D A V <.6.6.;.e.5X7X7X0X~.;.;.-.7.g.k.x.x.g.-.;.6.r.N u c i C 4X4X6X9X~.%.7.6.6.#X4X0X7XOXk.!.p.x.1.S F S ",
"w.&.9.6.0.q.d.a.5.F W F $.y.m.i.m.p.W 5.&.6.3.3.2.<.6.+X+X@X#Xn.$.3.D F t.g.u.g.d.<.<.%.<.D C m v $.@X+XOX#Xn.$.1.%.6.oX+X@X+X{.t.g.p.g.5.W W 8.",
"y.&.6.6.x b u u B 6.6.6.&.OX9X3X7X,Xk.x.j.k.5.Z D E Z h.p.p.x.3.t n u c 1.6.6.2.%.t x u t <.6.6.r.9.k.u.h.g.8.S D $.A u.v.u.k.g.%.6.6.-.g._.k.!.",
"r.&.2.2.v c c c B w.6.6.&.+X6X8X4X+Xp.x.k.k.8.S F V D c.x.h.x.Q n u c z 3.2.6.6.%.c u c t <.9.6.1.0.h.k.x.U.0.V D D Z g.U.U.x.u.6.4.2.2.h.h.h.k.",
"r.2.4.4.z x i u B w.2.&.&.OX3X2X7X#Xh.h.k.x.8.S E A W j.k.k.x.8.t n n t 9.6.6.6.$.x n b t D 9.6.&.9.k.k.k.k.0.C F E F g.h.h.x.t.&.2.w.2.g.U.h.U.",
"r.&.r.2.c t u u Y w.6.&.;.>X9X2X9X+Xk.k.k.k.6.V E V F j.j.x.x.1.y t u x W 6.6.6.F u c x z $.6.&.6.w.h.k.j.k.0.D S E D g.g.x.k.t.&.7.;.;.g.c.k.x.",
"%.F F $.}..X X Xn.t.g.j.d.i.i.i.i.j.9.0.7.r.D v c m n 3.1.~ *.j.%X{.{..Xj.t.g.j.0.%.$.<.3.$.$.%.E $.9.a.0.0.E c B c v 6.t.7.6.n.oX@XOX#X5.N N G ",
"$.V Y W 3X7X7X0X@Xh.x.z.k.6.6.2.2.2.2.9.&.6.N i u u c S D V B n.NX0X0X7X!.k.k.k.j.5.7.6.9.<.S D D D &.2.2.6.S u x c b 1.6.&.-.b.0X6X4X9XW 7 i n ",
"<.V D <.>X<X8X1XXXh.h.x.k.7.;.&.6.&.2.6.&.6.V n n c c E E F N x.4X2X2X8X!.g.k.k.g.6.2.&.6.$.A $.D E 6.6.6.6.D c c l m %.6.r.<.n.4X4X2X7X1.u n c ",
"$.E R F 2X4X6X7X+Xg.h.k.k.9.9.7.7.w.6.6.7.6.N u u x x S E <.D n.0X3X4X3X!.g.x.k.g.-.2.r.9.F C F S D 2.6.&.7.V u b b x %.-.-.&.n.7X4X4X7X<.y n c ",
"$.R V <..XOXoX+X{.g.h.p.j.6.&.<.%.2.<.2.6.3.Z B C B V R B V v j.,X#X>X>Xk.g.g.g.t.%.&.<.1.1.1.Q 1.%.6.2.&.6.<.S R Q D 3.2.%.$.j.3X#X#X2X5.z n n ",
"r.2.2.%.c l c l B 6.6.5.4.C c u x c D F V <.t.l.l.c.f.n u n u $.6.&.;.6.V E F F D x c u x 9.h.h.k.f.D D F C n.nX6X4X,XZ u n u E k.k.k.k.Q D R F ",
"r.%.w.4.n i c x V r.6.6.9.V u i c c E E D Z 0.k.k.k.l.c c c u R 2.2.6.4.D E V D C x n n 8 0.U.p.k.g.D F V B n.9X<X3X4XV u n b E Y.h.g.k.8.E E D ",
"-.&.&.$.m u t x N 2.&.&.4.v u u b c S V E C 9.k.h.k.j.c u c u V r.2.6.&.D V S D V y c c t q.k.h.k.r.C S $.N n.6X<X8X<XS u y x G p.j.k.k.W A V $.",
"y.w.y.w.n c v c E r.:.w.y.C N u N N %.%.3.F g.~.U.!.c.B n N x $.y.w.e.y.<.<.%.%.E c n U c 0.~.Q.~.x.1.$.$.$.[.wXqXqX0XE n N n Q ~.!.Q.Q.9.$.<.<."
};
