/* XPM */
static char *fa1c5400d16447bed324d3fd74a249140kqoQPmJJXs9AqYl[] = {
/* columns rows colors chars-per-pixel */
"72 72 220 2 ",
"   c #3E0614",
".  c #3E041A",
"X  c #3F081B",
"o  c #3D0620",
"O  c #3E0925",
"+  c #4F080E",
"@  c #44090F",
"#  c #5D0D0E",
"$  c #5D0707",
"%  c #5E120D",
"&  c #440616",
"*  c #4B0614",
"=  c #450916",
"-  c #4B0A15",
";  c #44061B",
":  c #4B061B",
">  c #450A1B",
",  c #4A0A1B",
"<  c #500617",
"1  c #520B15",
"2  c #5B0D12",
"3  c #520619",
"4  c #520D1A",
"5  c #590E19",
"6  c #4D111C",
"7  c #4C161B",
"8  c #541215",
"9  c #5B1215",
"0  c #54121C",
"q  c #5C141C",
"w  c #5F1F1F",
"e  c #5E1A17",
"r  c #630605",
"t  c #630C05",
"y  c #6B0E06",
"u  c #650D0B",
"i  c #6A0E0C",
"p  c #620609",
"a  c #720E0C",
"s  c #671007",
"d  c #6C1206",
"f  c #65120C",
"g  c #6B110D",
"h  c #741B06",
"j  c #71150D",
"k  c #761A0E",
"l  c #7A1C0C",
"z  c #78170E",
"x  c #650D12",
"c  c #6B0D12",
"v  c #6C0F1A",
"b  c #641313",
"n  c #6B1311",
"m  c #651A15",
"M  c #6C1B15",
"N  c #62151B",
"B  c #6B1419",
"V  c #641A1A",
"C  c #6C1C1A",
"Z  c #721412",
"A  c #731B14",
"S  c #7A1D13",
"D  c #73171A",
"F  c #731D1A",
"G  c #791C19",
"H  c #781617",
"J  c #77210D",
"K  c #7C220D",
"L  c #6D2115",
"P  c #6D231A",
"I  c #762216",
"U  c #7C2314",
"Y  c #7F2817",
"T  c #74221C",
"R  c #7B231A",
"E  c #7C291B",
"W  c #440621",
"Q  c #4C0721",
"!  c #440B21",
"~  c #4A0B22",
"^  c #490A29",
"/  c #550F22",
"(  c #461123",
")  c #4D1323",
"_  c #4D1925",
"`  c #4D142A",
"'  c #4F182A",
"]  c #531524",
"[  c #5B1522",
"{  c #541925",
"}  c #5A1A24",
"|  c #52162A",
" . c #54192B",
".. c #5A1B2B",
"X. c #58142B",
"o. c #591A30",
"O. c #641C24",
"+. c #6D1C21",
"@. c #621D2A",
"#. c #741C21",
"$. c #662125",
"%. c #6B2424",
"&. c #6E2823",
"*. c #65242B",
"=. c #6D242A",
"-. c #6D2A2B",
";. c #752421",
":. c #7A2522",
">. c #792C21",
",. c #772C27",
"<. c #7B312C",
"1. c #811E0E",
"2. c #801F14",
"3. c #83240E",
"4. c #8B290E",
"5. c #94320F",
"6. c #9D310E",
"7. c #9A3E0D",
"8. c #822312",
"9. c #8B2613",
"0. c #842B15",
"q. c #8C2D15",
"w. c #82251A",
"e. c #842C1B",
"r. c #8B2D1A",
"t. c #942E15",
"y. c #9A2E15",
"u. c #952E19",
"i. c #992F1A",
"p. c #873115",
"a. c #8C3216",
"s. c #843119",
"d. c #8D321A",
"f. c #8C3A1D",
"g. c #953215",
"h. c #9A3316",
"j. c #943A16",
"k. c #9E3D16",
"l. c #95311A",
"z. c #9A331B",
"x. c #953C1D",
"c. c #9C3B1B",
"v. c #A13316",
"b. c #A13B14",
"n. c #A2351B",
"m. c #A23D1D",
"M. c #842C21",
"N. c #8A2D23",
"B. c #852622",
"V. c #952F20",
"C. c #992F21",
"Z. c #8D3422",
"A. c #8E3B22",
"S. c #84322B",
"D. c #8B3629",
"F. c #823025",
"G. c #953523",
"H. c #9B3621",
"J. c #923B25",
"K. c #9C3C24",
"L. c #9D3C2A",
"P. c #973C29",
"I. c #A03623",
"U. c #A23E24",
"Y. c #A13E2A",
"T. c #AC3E23",
"R. c #9D4315",
"E. c #9C411A",
"W. c #9F4B1D",
"Q. c #A34215",
"!. c #A4431B",
"~. c #AA461E",
"^. c #A64B1D",
"/. c #AC4D1D",
"(. c #AA4C16",
"). c #B14F1C",
"_. c #AE511C",
"`. c #AF5215",
"'. c #B35516",
"]. c #B2521E",
"[. c #BA551C",
"{. c #B5591D",
"}. c #BA591D",
"|. c #934025",
" X c #9E4324",
".X c #9D4A24",
"XX c #9C412A",
"oX c #9C4C29",
"OX c #A44423",
"+X c #A94622",
"@X c #A44A23",
"#X c #AC4C22",
"$X c #A34229",
"%X c #A64D29",
"&X c #AB4D29",
"*X c #B24F25",
"=X c #AE5223",
"-X c #AE5825",
";X c #A25028",
":X c #AC542C",
">X c #B35423",
",X c #B95524",
"<X c #B65922",
"1X c #BA5A23",
"2X c #B45429",
"3X c #BA5528",
"4X c #B65D2A",
"5X c #B55B2B",
"6X c #BA5C2B",
"7X c #AC5932",
"8X c #B45C32",
"9X c #BA5D31",
"0X c #B35732",
"qX c #B7602A",
"wX c #BB612D",
"eX c #BB6231",
"rX c #C4561E",
"tX c #C25A26",
"yX c #C26229",
"uX c #C36435",
/* pixels */
"=XoXW..Xa.p.p.p.p.p.p.r.r.r.r.r.r.r.r.e.r.q.N > = ; > .X;X@X@Xx.0.0.d.J.J.J.J.J.J.Z.s.s.e.[ ` | | $.:X7X:X7XoX|.J.f.p.r.r.r.r.r.r.r.r.N.0 > > > ",
"rX>X].*Xh.y.i.h.h.y.h.h.h.h.h.h.h.h.h.h.h.h.V ; - = 6 #X2X,X2X+Xt.t.z.K.U.U.U.U.U.c.g.t.g.N ! 7 ) O.wX6X6X9X&XU.K.H.h.h.h.h.h.h.h.h.h.n.9 ; , , ",
"rX/.{.#Xh.l.z.g.g.g.z.l.l.l.l.l.l.l.l.l.u.h.q ; , = 4 :X4X4X4X@Xa.l.x.K.K.K.K.K.K.K.H.u.h.N o 7 ` @.5X4X3X5X&XK.G.l.t.g.g.g.g.t.t.l.t.h.9 W ; - ",
"1X<X{.2XH.t.l.u.g.l.u.u.t.l.l.u.t.t.l.t.y.h.m . , > { 8XwX6X6X:XG.l.l.H.L.L.L.K.K.K.Y.c.l.q & , = q 2X4X5X4X!.u.u.t.t.u.u.u.l.u.u.h.h.z.N ; , , ",
"m.j.j.7.k.Q.!.c.k.m.!.m.k.k.c.c.m.k.l.l.h.h.V . , ~ { |..X@X X XK.c.U.@X@XOXOX@XOXK. XL.G.N ; , > 8 j.x.x.c.c.x.c.m.m.k.b.k.!.c.g.g.g.h.q = , , ",
"i u c g &X,X].>X>X].>X>X>X>X>X>X{.^.g.l.l.h.V ; 0 ] [ C F M t 0.2X{.=X=X2X2X=X5X:X XK.$X XV ; 6 ) ) u u t r a.2X>X>X>X2X>X>X>X!.g.g.t.h.N > , , ",
"j f g A /.].>X/.=X{.).].].>X>X_.{.#Xl.l.h.h.V ; ] | { T C m # r.>X/.#X#X/././.2X=XK.L.Y.K.%. . ._ ] D f M x a.{./././.].{.].>X~.g.l.l.h.9 & , : ",
"j g s n ^.].,X>X=X{.].].>X>X*X).{.#Xu.g.h.h.V ; ]  .{ A b f u d.<X(.=X=X=X_./.>X@Xl.L.K.K.%.|  ._ ] A f n x a.{.].>X>X>X>X].>X~.t.h.i.z.q & , , ",
"a c c d &X>X].>X>X_.>X{.{.>X>X{.{./.g.l.l.h.O.~ {  .] n g s t q.2X-X-X2X3X3X2X2X!.g.x.K.$X=.)  ...[ g g u p d.2X2X2X>X>X>X].2X!.g.g.g.l.[ ; , , ",
"h.q.r.q.U l S G S S S G S S A S S S Z k z l 5 ^ {  . .Z.q.r.r.e.U 0.e.e.M.M.w.w.S g A G R O.) ] ) q q.q.r.q.3.l l l l S l S U S Z Z Z l 4 & > , ",
"v.g.h.l.n t u u y u u u u s u u t f g b u y 4 ( ] ] } P.c.K.$XN.+.C C M C C C F M g f x g 0 _ ) > / l.g.l.c.U p u u u u u u u u u g g y 4 > = , ",
"v.t.g.u.d f n g g g n g f n n n g g f i g b 1 > ' { [ K.K.U.L.M.C T T L L ;.#.F T B f g g 4 ; - > 4 u.u.i.z.8.g n n g g g g g g g g n n < ~ , : ",
"I.l.z.l.z g g g j g g g g g s s g g n g g n 1 , ^ | ..K.K.U.$XZ.I I A F M A T A I F g y u , W : ; 5 h.h.h.z.8.y i g g y g j g g g g g g - > = , ",
"r.w.0.R f f 2 u f u f f u x x x b b u x x 2 1 , , ) ..S.D.Z.D.>.m m f b f b +.+.+.+.% b x , , , > 4 w.0.0.e.A f b f u b b # x x x x x f - , , : ",
"1 & & , = > > > > = , , = & = , = = , > = = = > > > 6 ( ) ] ] , > ! > , > , { { ) ] > ; > & = - >   - = = , = ; , > , , > > > > = = , & > W , : ",
", > , = > > , > , = , = , = > > ; & , > > , , , : : Q > > , , > ; > > , ; )  ._ { { = > ~ , : Q ^ ; , , > , , > , = = * - , , , > > ~ : , > , , ",
"* , , , , , , , , , , , , , , : , , = , , , , , , > > = > = , , , , > , ) ] ] X.| , , = , > > > , , , = - , , , , , , > , , = - , , = ^ * = 6 = ",
"- ; ; W ; ; ; ; ; W ; W ; > , > W ! . ; ; ; . . > ; X = ; > ; = ; ; ; ( ` | { o.| = W ; ; . > > W ; W = > ; = = ; ; W o X ; ; > > > > > @ & ; . ",
"w.R U R U U U U I R U U T 8   ! = % A.f.f.A.s.U I R R U U U I R E E F.S.O.]  .) w f.j.J.A.w.I U U R U R R R R R U U I 8.8.R :.C 1 * , & >.J.l.J.",
"n.z.h.h.h.z.z.h.h.z.z.l.h.q = , . N ,X>X>X<X!.l.h.z.g.h.h.z.z.c.U. X$XOX.. .] > O.{.{.>X}.m.i.h.n.h.h.h.h.h.h.h.h.h.h.z.z.h.n.R > , , ;  X}.>X1X",
"v.l.h.t.t.h.l.g.g.g.t.g.h.q & , ( %.<X>X_.>Xk.t.t.u.g.t.u.u.t.l.x.H.K.OX} ) , ; O.>X/.2X].c.h.t.t.t.i.h.h.h.h.h.h.h.h.g.u.g.h.I = = , = x.{.>X].",
"h.l.l.l.u.u.u.u.t.t.l.l.g.q > ) ) -.5X5X8XeXOXt.g.l.g.l.l.l.t.l.l.H.K.K.[ , ,   V <X_.=X>Xc.u.z.z.g.g.l.l.l.l.l.l.l.l.g.u.g.z.R ; > , ; XX<X].,X",
"b.g.h.h.h.h.h.c.h.g.z.l.g.q ] .._ -.7X-X7X:XOXc.z.l.l.g.h.h.z.l.t.l.H.z.0 & *   V #X^.^./.!.g.z.H.h.z.z.z.z.z.z.z.z.z.g.l.g.z.R = > , & A./.^.=X",
",X2X2X].>X>X].>X!.5.g.u.z.O.)  .) 0 U A F I  X5X2X>X].2X*X#X*XOXg.l.l.g.1 = , > 4 j s c y c.2X].].].].].].].].].].].].z.l.g.z.R = > , > b j g i ",
"1X_.].].].>X].>X~.g.l.t.c.O.) o.' 0 g M F n .XeX2X]./.]./.].>X!.g.g.l.z.5 = : > 4 i g n t E.<X].].>X>X>X>X>X>X>X>X>X>Xz.l.g.z.R ; > , > u i g i ",
"1X_.{.2X2X=X/.2X+Xt.V.u.K.O.) | > - n F ;.C  X4X=X]._./._._.>X!.t.t.t.g.5 = , = 1 i g g i E.].).{.].'.].].].].].].].].h.i.g.h.R = > , & x g f g ",
"tX>X,X>X<X>X{.<X/.5.z.l.$X*.] ] = - M F #.B  XqX>X>X3X2X>X>X>X!.h.z.h.g.5 * , & 1 B x g p E.1X>X>X6X<X<X<X<X<X<X<X<X<Xc.z.g.z.R ; = , = 2 i f n ",
"u.r.a.q.r.d.r.r.0.U l K M.} | { > } u.N.r.r.e.w.p.f.x.r.r.r.r.0.8.8.8.2.1 - , O 5 9.8.8.0.r.q.q.q.q.r.q.q.q.q.q.q.q.q.8.8.U 1.n > > - > A 3.U w.",
"g t t t t t u f f f u u C }  .] ! *.XXL.K.G.Z p n C #.g f u f f u u f b ; > , ! 9 z.l.j.d.k u u u p u u u u u u u u u u u u j 2 ; > , ; w.h.g.h.",
"g f g n g g f g g g g n C [ ] { ) *.K.H.g.l.A n T L L F n u g g u g g b , , - ; b z.t.y.z.S u n g g d n n n n n n n n g g f g # ; , - & e.z.y.h.",
"j i n g g g g n n n f i n [  . .] C c.z.t.l.w.A F M ;.A g u g g g g g y 1 & > > b z.y.y.H.S y g g g n g g g g g g g g y y i g 2 ~ , , X E z.y.h.",
"g f f u u n M M M M M n b 0 _ ' | %.P.G.z.G.B.D F F #.u u u g u g g g n 4 > > ; 9 d.l.g.l.k g g u i i i i i i i i i i g g b f 2 , - = : I l.y.h.",
"1 , , 0 ] ] } } { { { ] 6 , ) o. .] O......... .} { = - , , , - - - - * > > , > - 9 1 5 4 , , = - 1 1 , , , , , , , , , * , 4 : > , , , 6 5 , , ",
", > , ] ] ] { ] ] ] { ` | ) ) ) ] ) ` | ] {  . .( , > = = , , = > , , , ; = - , , : ! = > , , = & = Q > > > > > > > , > & > , > > - , & & , , ! ",
"5 ~ ]  . .{ {  . . . .] ..] , , 0 }  ...] { { ) , , ~ , , , , , , , , , , , , , , * , = , : : ~ , > , , , , , , , , , , * , , , , , > , ~ : - > ",
"| ) ( ` { ) ^ > ! ( ) ` ) ) ` > > > ~ ( ^ ~ ! > , > & & ; & & ; & . ; ; ; ; ; > ; ; = X X ; 4 = ; W &   > . & ; ; ; ; = = = ; ; = ; & & W , , = ",
"S.<.<.<.&.$.N V N $.&.&.&.&.&.V V m m m m m 8 = : , , &.&.T P C m C m V m m m m m V V B C 4 * , , 4 I P T T L m V V b V V V V V V V V C 4 = , , ",
"uXeXwXuXU.u.g.z.t.t.h.K.$XU.Y.U.z.z.h.g.l.l.m = , > , _.<X,X<X/.l.z.h.z.h.h.h.z.z.z.h.h.z.N > , & 9 <X}.}.1X~.h.h.z.c.h.h.h.z.h.h.h.h.l.N = > > ",
"yX2X4X>XH.G.g.l.l.l.q.x.K.K.K.H.q.l.g.t.t.l.m & ~ > 6 #X>X/.{.!.u.h.h.g.l.l.l.t.g.g.g.t.h.q & & ; 0 =X*X(.>Xm.u.z.h.t.l.l.t.l.g.g.l.l.h.N & , , ",
"yX5X8X4XOXK.g.t.l.z.u.z.K.L.K.K.t.l.l.l.g.l.V ; ! ; 1 /.{.].{.!.t.g.g.h.t.h.h.t.h.h.h.l.h.N > - > ] _.2X_.>X!.t.z.g.t.z.z.h.h.h.h.h.t.h.0 ; , * ",
"6X9XeX0XOXx.x.l.t.t.u.l.K.L.L.H.l.l.u.g.g.h.V ; , = 5 /.>X>X2X+Xh.u.z.l.u.h.g.l.h.t.l.5.g.9 X , & q >X>X>X2X!.h.t.u.C.t.g.t.g.g.t.h.l.z.[ ; , * ",
"8.w.M.e.:X2X0X:X&X^.@X=X:X2X2X/.^.!.g.g.h.z.B & , = 4 J K h l l././.#X#X#X/.^.#X!.g.h.i.n.N & , > , 1.J K l j.#X/.#X#X#X#X#X#X!.g.l.u.h.q & , : ",
"u f b A 8XqX8X4X<X_.<X4X6X6X4X].>X^.t.u.h.h.V & = ; : x b i p r.{.{.>X>X].{.].3X#Xg.l.u.l.N & , ; ~ u u c r g.3X{.].].].{.].>X~.g.g.l.h.q & , , ",
"Z M i #.-X4X6X,X9X5X5X2X5X9X2X_.>X+Xg.l.g.g.V ; > ; , g g n i r.{.(.2X2X].]._.>X#Xg.l.y.G.q > , & , f g n x g.{.).>X_.].].].>X+Xg.l.z.g.N & , - ",
"A m f g :XuX6X4X6X<X6XeX9X6X>X>X>X#Xh.h.h.h.B & , > , u f s r q.6X,X*X>X>X<X>X,X#Xh.l.h.z.m & , , , y g t r l.6X3X,X,X>X>X>X,X#Xh.h.h.z.q & , , ",
"M.:.:.K j.OX%X%X%X%X%X%XOX XE.m.!.c.q.r.q.q.N = , > - Z F A k q.E.E.R.!.!.!.!.!.c.q.q.9.r.9 > , ; * z G A A e.E.E.R.R.!.!.k.!.h.4.q.9.9.0 & , , ",
"T.c.U.Z.g u n m C F B M n u u u i i u g u g 1 ; , , 1 g.h.l.l.8.i c i g u i u i u p u x n + & , > 8 G.y.h.l.S y i i i u u u g i u n n j 1 > , = ",
"OXc.K.K.D x f F F F F M n n g g g n n n u g 5 > , > , g.l.t.c.8.i g d g g n n n n n g n n 1 ; , > 1 l.z.g.l.S i g g i n g g g i i g i i - , , , ",
"$XXXK.J.D f f n n g f g f f g g f f f y g j 1 & : > , t.u.t.z.U u n g g g g g g f f f d y 1 > > = 2 y.i.u.z.2.x n f n g g g g f g g f n , > , , ",
"U. XOXL.G g i i i Z n i j j j Z Z g g g n n 1 & : > , l.h.z.z.8.g f g j Z i i j g g g n g 1 > > > 0 G.h.z.c.8.i f f g Z i j j g n i y b - = : , ",
"+.O.=.$...6 , 4 - - - - 4 1 - - - - - 1 1 1 - > , > - q 9 N N 5 4 1 3 - 1 - - 4 4 - , , 1 3 : * > > b e q m 9 4 1 1 1 4 1 1 - - , - - # - - : : ",
"! 7 ) ` ) > & > = & > > : > > ; > & > > > > > > > , , , ; & X > , = > ~ & > W = > , , > > > > > > > > ; ; ; ; ; > > > > & > > > ; & , > ; , , : ",
"] { ..| ] , > > > > > > > > > = , , : , , , , , , , , : ~ , , , , = > ; , , > = = = ~ , , , , , , , , , , , , , , , , ~ , , > , ~ ~ : - , , = > ",
"] ) ) ] , > ; & & > - - , & = > = > ; , = = = : = = = & ; & = = > , , , * : Q = = = : : : : = = = = = , , : : = = = = : = = = > > ; ; = , = ; = ",
"@.....] 8 , 8 0 , ; , , W 0 8 0 0 0 4 4 4 4 4 4 4 4 4 4 4 4 1 4 ; , , ! 8 9 ] 5 8 4 0 4 4 4 5 4 4 4 4 4 4 4 4 4 4 4 4 4 , , > , q 0 0 0 / 4 0 5 ",
"U.K.K.l.g.l.g.l.T & , , & J.>X#X>X#Xl.l.l.l.l.l.l.l.l.g.h.l.l.F > , , 1  X>X:X2X#Xl.u.l.l.l.l.l.l.l.l.l.l.l.l.l.l.l.l.= ; , > P 2X_.].=Xc.h.g.l.",
"T.I.h.g.g.g.g.v.T . , >   c.}./.[./.g.h.h.h.h.h.h.h.h.y.y.l.h.F ; = , & @X{._.{./.g.h.h.h.h.h.h.h.h.h.h.h.h.h.h.h.h.h.8 ; Q . L 1X].].>Xz.y.g.h.",
"b.l.d.l.g.l.t.6.R & , , > c.[.=X>X#Xg.l.l.l.l.l.l.l.l.l.h.l.h.A X , , > OX[.2X>X~.l.h.l.l.l.u.u.l.l.l.l.l.l.l.l.g.g.g.8 ; , ; P ,X_.>X=Xc.y.l.v.",
"6.u.l.y.t.G.l.y.;.X > , X E.1X-X[.*Xt.u.u.u.u.u.u.u.u.l.h.l.v.F o , : ; #X[.2X<X/.l.u.t.u.u.u.u.u.u.u.t.t.t.l.l.l.l.l.- , * . P tX>X2X[.m.y.d.g.",
"~.!.+XQ.z.z.g.h.I > , ~ * I p.0.0.d.~.!.!.!.!.!.!.!.!.g.g.h.h.M ; , > : U r.q.0.d.~.+X!.!.!.!.!.!.!.!.~.!.~.m.t.z.i.h.0 = , = m r.q.0.0.c.~.!.(.",
"}.`.'.).z.u.h.z.R ; , > , 2 x v p h ,X>X>X>X>X>X>X2X>Xz.u.u.h.C ; , > , $ u c $ S 1X'.>X>X>X>X>X>X>X>X>X].>X!.g.g.g.g.5 & , ; 1 c x x t OX,X).{.",
",X#X2X>Xz.t.h.z.R ; , , = f s g g U ].].].].].].].]./.z.i.i.h.M ; , = > f g g g U >X=X].].].].].].].]._.].>X!.t.z.z.h.5 = , > 1 d f g i !.>X*X,X",
"1X_.{._.g.g.h.z.R & , & & b g n u U <X>X>X>X>X>X>X>X].g.g.h.z.M & , , ; u g g u K >X].>X>X>X>X>X>X>X>X>X>X3X!.t.u.u.u.5 , , ; 1 g g g p !.{.{.'.",
",X/._.&Xl.l.u.l.T & - ~ > x a Z i S =X_./././././././.g.l.l.l.C > , > ~ c j g y 8.2X=X/./././././././.=X#X#X!.g.g.g.g.1 > > W 5 Z c Z c c.=X#X_.",
"l n j k g j j j b ; , : & Y g.q.l.r.h j j j j j A j g j g n j 9 ; , , = r.g.d.l.0.z j j j j j j j j Z j j j g g g n n , > , > V u.t.t.d.1.j Z j ",
"a x u i u g g g 2 ; , : > w.h.u.z.q.u g g g g g g g g g x x g 2 ; , > = q.5.l.h.q.g g g g g g g g g g g g u g g u g g , , , & V z.z.g.j.z i n u ",
"a n f g f f f g # > , , ; w.h.u.h.q.c g g g g g g g g s f n d 1 ; , , W r.g.V.y.r.x g g g g g g g g g i g i g g g n n - > , = V l.t.g.g.H n f g ",
"a g g g g g j n 2 - = > : Y b.y.n.q.n g g g g g g g g g g g b 2 * = > : s.k.y.b.q.n g g g g g g g g g g g g g g g g g , ; > * m x.h.h.n.l y b Z ",
"x 2 2 2 2 # 2 2 1 , > = : +.R F R n 2 2 2 2 2 2 2 2 2 2 2 # 2 1 , , , : M R #.R C 5 # 2 2 2 2 2 2 2 2 2 2 2 2 2 2 2 2 * * , : 5 T I F I b # 8 9 ",
"> ; ; > = & : = = ; W ; ; > & ; ; & > ; ; ; ; ; ; ; ; > = & , > W > > X & = W . . ; = ; ; ; ; ; ; ; ; ; ; ; ; ; ; ; ; 4 , ! W ; = ; ; X ; > ; , ",
": : : > , , , , - - , , , , = > > & , : : : : : : : : ! > = - , , , - , : , , = = , , : : : : : : : : : : : : : : : : , = = > , > > > , , 4 = - ",
", , > , , , , > > , , : * , , - , : : > > > > > > > > , , , , , , : : - : , , = = > : > > > > > > > > > > > > , > > > ~ , > , , : , - ; > > ; , "
};
